G04 #@! TF.GenerationSoftware,KiCad,Pcbnew,8.0.9-8.0.9-0~ubuntu24.04.1*
G04 #@! TF.CreationDate,2025-10-19T20:56:50+02:00*
G04 #@! TF.ProjectId,MySMotherboard,4d79534d-6f74-4686-9572-626f6172642e,1.4*
G04 #@! TF.SameCoordinates,Original*
G04 #@! TF.FileFunction,Paste,Top*
G04 #@! TF.FilePolarity,Positive*
%FSLAX46Y46*%
G04 Gerber Fmt 4.6, Leading zero omitted, Abs format (unit mm)*
G04 Created by KiCad (PCBNEW 8.0.9-8.0.9-0~ubuntu24.04.1) date 2025-10-19 20:56:50*
%MOMM*%
%LPD*%
G01*
G04 APERTURE LIST*
G04 Aperture macros list*
%AMRoundRect*
0 Rectangle with rounded corners*
0 $1 Rounding radius*
0 $2 $3 $4 $5 $6 $7 $8 $9 X,Y pos of 4 corners*
0 Add a 4 corners polygon primitive as box body*
4,1,4,$2,$3,$4,$5,$6,$7,$8,$9,$2,$3,0*
0 Add four circle primitives for the rounded corners*
1,1,$1+$1,$2,$3*
1,1,$1+$1,$4,$5*
1,1,$1+$1,$6,$7*
1,1,$1+$1,$8,$9*
0 Add four rect primitives between the rounded corners*
20,1,$1+$1,$2,$3,$4,$5,0*
20,1,$1+$1,$4,$5,$6,$7,0*
20,1,$1+$1,$6,$7,$8,$9,0*
20,1,$1+$1,$8,$9,$2,$3,0*%
G04 Aperture macros list end*
%ADD10RoundRect,0.140000X0.170000X-0.140000X0.170000X0.140000X-0.170000X0.140000X-0.170000X-0.140000X0*%
%ADD11R,0.550000X1.600000*%
%ADD12R,1.600000X0.550000*%
%ADD13RoundRect,0.150000X0.587500X0.150000X-0.587500X0.150000X-0.587500X-0.150000X0.587500X-0.150000X0*%
%ADD14RoundRect,0.140000X0.140000X0.170000X-0.140000X0.170000X-0.140000X-0.170000X0.140000X-0.170000X0*%
%ADD15RoundRect,0.150000X-0.150000X0.512500X-0.150000X-0.512500X0.150000X-0.512500X0.150000X0.512500X0*%
%ADD16RoundRect,0.200000X0.200000X0.275000X-0.200000X0.275000X-0.200000X-0.275000X0.200000X-0.275000X0*%
%ADD17RoundRect,0.250000X0.325000X0.650000X-0.325000X0.650000X-0.325000X-0.650000X0.325000X-0.650000X0*%
%ADD18RoundRect,0.200000X-0.200000X-0.275000X0.200000X-0.275000X0.200000X0.275000X-0.200000X0.275000X0*%
%ADD19RoundRect,0.250000X0.375000X1.075000X-0.375000X1.075000X-0.375000X-1.075000X0.375000X-1.075000X0*%
%ADD20RoundRect,0.200000X-0.275000X0.200000X-0.275000X-0.200000X0.275000X-0.200000X0.275000X0.200000X0*%
%ADD21RoundRect,0.250001X1.074999X-0.462499X1.074999X0.462499X-1.074999X0.462499X-1.074999X-0.462499X0*%
%ADD22RoundRect,0.250000X-0.450000X0.325000X-0.450000X-0.325000X0.450000X-0.325000X0.450000X0.325000X0*%
%ADD23RoundRect,0.200000X0.275000X-0.200000X0.275000X0.200000X-0.275000X0.200000X-0.275000X-0.200000X0*%
%ADD24RoundRect,0.140000X-0.170000X0.140000X-0.170000X-0.140000X0.170000X-0.140000X0.170000X0.140000X0*%
%ADD25RoundRect,0.225000X-0.225000X-0.250000X0.225000X-0.250000X0.225000X0.250000X-0.225000X0.250000X0*%
%ADD26RoundRect,0.150000X-0.150000X0.587500X-0.150000X-0.587500X0.150000X-0.587500X0.150000X0.587500X0*%
%ADD27RoundRect,0.140000X-0.140000X-0.170000X0.140000X-0.170000X0.140000X0.170000X-0.140000X0.170000X0*%
%ADD28R,1.600000X2.000000*%
%ADD29RoundRect,0.150000X-0.825000X-0.150000X0.825000X-0.150000X0.825000X0.150000X-0.825000X0.150000X0*%
%ADD30RoundRect,0.225000X0.250000X-0.225000X0.250000X0.225000X-0.250000X0.225000X-0.250000X-0.225000X0*%
%ADD31RoundRect,0.150000X0.512500X0.150000X-0.512500X0.150000X-0.512500X-0.150000X0.512500X-0.150000X0*%
%ADD32R,1.000000X2.500000*%
%ADD33RoundRect,0.250000X-0.325000X-0.650000X0.325000X-0.650000X0.325000X0.650000X-0.325000X0.650000X0*%
%ADD34R,1.000000X1.150000*%
%ADD35RoundRect,0.155000X0.212500X0.155000X-0.212500X0.155000X-0.212500X-0.155000X0.212500X-0.155000X0*%
%ADD36RoundRect,0.150000X-0.587500X-0.150000X0.587500X-0.150000X0.587500X0.150000X-0.587500X0.150000X0*%
%ADD37RoundRect,0.225000X0.225000X0.250000X-0.225000X0.250000X-0.225000X-0.250000X0.225000X-0.250000X0*%
%ADD38RoundRect,0.150000X0.825000X0.150000X-0.825000X0.150000X-0.825000X-0.150000X0.825000X-0.150000X0*%
G04 APERTURE END LIST*
D10*
X155575000Y-90276382D03*
X155575000Y-89316382D03*
D11*
X151675000Y-100550000D03*
X152475000Y-100550000D03*
X153275000Y-100550000D03*
X154075000Y-100550000D03*
X154875000Y-100550000D03*
X155675000Y-100550000D03*
X156475000Y-100550000D03*
X157275000Y-100550000D03*
D12*
X158725000Y-99100000D03*
X158725000Y-98300000D03*
X158725000Y-97500000D03*
X158725000Y-96700000D03*
X158725000Y-95900000D03*
X158725000Y-95100000D03*
X158725000Y-94300000D03*
X158725000Y-93500000D03*
D11*
X157275000Y-92050000D03*
X156475000Y-92050000D03*
X155675000Y-92050000D03*
X154875000Y-92050000D03*
X154075000Y-92050000D03*
X153275000Y-92050000D03*
X152475000Y-92050000D03*
X151675000Y-92050000D03*
D12*
X150225000Y-93500000D03*
X150225000Y-94300000D03*
X150225000Y-95100000D03*
X150225000Y-95900000D03*
X150225000Y-96700000D03*
X150225000Y-97500000D03*
X150225000Y-98300000D03*
X150225000Y-99100000D03*
D13*
X147625000Y-94700000D03*
X147625000Y-92800000D03*
X145750000Y-93750000D03*
D14*
X159967740Y-100675000D03*
X159007740Y-100675000D03*
D15*
X144950000Y-84412500D03*
X144000000Y-84412500D03*
X143050000Y-84412500D03*
X143050000Y-86687500D03*
X144000000Y-86687500D03*
X144950000Y-86687500D03*
D10*
X157586378Y-103857244D03*
X157586378Y-102897244D03*
D16*
X143878940Y-116086141D03*
X142228940Y-116086141D03*
D17*
X156250000Y-110775000D03*
X153300000Y-110775000D03*
D18*
X147441440Y-89517860D03*
X149091440Y-89517860D03*
D19*
X151700000Y-114200000D03*
X148900000Y-114200000D03*
D20*
X141089378Y-94525000D03*
X141089378Y-96175000D03*
D21*
X148825000Y-87087500D03*
X148825000Y-84112500D03*
D20*
X150581543Y-102334900D03*
X150581543Y-103984900D03*
D22*
X140700000Y-97675000D03*
X140700000Y-99725000D03*
D10*
X154516737Y-90094460D03*
X154516737Y-89134460D03*
D23*
X143270581Y-97958938D03*
X143270581Y-96308938D03*
D24*
X154012000Y-102517997D03*
X154012000Y-103477997D03*
D15*
X160187500Y-88587500D03*
X159237500Y-88587500D03*
X158287500Y-88587500D03*
X158287500Y-90862500D03*
X160187500Y-90862500D03*
D18*
X153225000Y-104650000D03*
X154875000Y-104650000D03*
D16*
X143866503Y-118130300D03*
X142216503Y-118130300D03*
D20*
X145584478Y-88959641D03*
X145584478Y-90609641D03*
D25*
X159250000Y-92350000D03*
X160800000Y-92350000D03*
D26*
X153187500Y-87762500D03*
X151287500Y-87762500D03*
X152237500Y-89637500D03*
D27*
X147770000Y-91050000D03*
X148730000Y-91050000D03*
D28*
X137450000Y-98725000D03*
X137450000Y-93325000D03*
D29*
X150525000Y-117120000D03*
X150525000Y-118390000D03*
X150525000Y-119660000D03*
X150525000Y-120930000D03*
X155475000Y-120930000D03*
X155475000Y-119660000D03*
X155475000Y-118390000D03*
X155475000Y-117120000D03*
D30*
X146475000Y-87350000D03*
X146475000Y-85800000D03*
D31*
X155887500Y-114625000D03*
X155887500Y-113675000D03*
X155887500Y-112725000D03*
X153612500Y-112725000D03*
X153612500Y-113675000D03*
X153612500Y-114625000D03*
D32*
X160175000Y-107975000D03*
X158175000Y-107975000D03*
X156175000Y-107975000D03*
X154175000Y-107975000D03*
X152175000Y-107975000D03*
X150175000Y-107975000D03*
X148175000Y-107975000D03*
X146175000Y-107975000D03*
X146175000Y-126175000D03*
X148175000Y-126175000D03*
X150175000Y-126175000D03*
X152175000Y-126175000D03*
X154175000Y-126175000D03*
X156175000Y-126175000D03*
X158175000Y-126175000D03*
X160175000Y-126175000D03*
D33*
X148700000Y-111450000D03*
X151650000Y-111450000D03*
D34*
X159075000Y-102000000D03*
X159075000Y-103750000D03*
X160475000Y-103750000D03*
X160475000Y-102000000D03*
D28*
X137425000Y-85175000D03*
X137425000Y-90575000D03*
D35*
X154292500Y-115850000D03*
X153157500Y-115850000D03*
D23*
X141125000Y-92075000D03*
X141125000Y-90425000D03*
D16*
X143875000Y-88450000D03*
X142225000Y-88450000D03*
D30*
X141475000Y-84900000D03*
X141475000Y-83350000D03*
D36*
X158162500Y-110425000D03*
X158162500Y-112325000D03*
X160037500Y-111375000D03*
D10*
X157050000Y-90280000D03*
X157050000Y-89320000D03*
D20*
X140775000Y-86300000D03*
X140775000Y-87950000D03*
D37*
X157325000Y-88125000D03*
X155775000Y-88125000D03*
D38*
X147925000Y-103810000D03*
X147925000Y-102540000D03*
X147925000Y-101270000D03*
X147925000Y-100000000D03*
X142975000Y-100000000D03*
X142975000Y-101270000D03*
X142975000Y-102540000D03*
X142975000Y-103810000D03*
M02*
