G75*
%MOIN*%
%OFA0B0*%
%FSLAX24Y24*%
%IPPOS*%
%LPD*%
%AMOC8*
5,1,8,0,0,1.08239X$1,22.5*
%
%ADD10R,0.0591X0.0591*%
%ADD11C,0.0591*%
%ADD12OC8,0.0660*%
%ADD13OC8,0.0600*%
%ADD14C,0.0868*%
%ADD15OC8,0.0850*%
%ADD16R,0.1024X0.1417*%
%ADD17C,0.0160*%
%ADD18C,0.0300*%
%ADD19C,0.0080*%
D10*
X011949Y010885D03*
D11*
X011949Y009885D03*
X010949Y009885D03*
X010949Y010885D03*
X009949Y010885D03*
X009949Y009885D03*
X008949Y009885D03*
X008949Y010885D03*
D12*
X011633Y021557D03*
X012421Y021557D03*
D13*
X004457Y014874D03*
X004457Y013874D03*
X004457Y012874D03*
X004457Y011874D03*
X004457Y010874D03*
X004457Y009874D03*
X004457Y008874D03*
X004457Y007874D03*
X004457Y006874D03*
X004457Y005874D03*
X003457Y005874D03*
X003457Y006874D03*
X003457Y007874D03*
X003457Y008874D03*
X003457Y009874D03*
X003457Y010874D03*
X003457Y011874D03*
X003457Y012874D03*
X003457Y013874D03*
X003457Y014874D03*
D14*
X009173Y021499D03*
X009173Y006551D03*
D15*
X005946Y005766D03*
D16*
G36*
X011673Y013082D02*
X012260Y012244D01*
X011101Y011432D01*
X010514Y012270D01*
X011673Y013082D01*
G37*
G36*
X005057Y022532D02*
X005644Y021694D01*
X004485Y020882D01*
X003898Y021720D01*
X005057Y022532D01*
G37*
D17*
X003160Y005520D02*
X003160Y005186D01*
X005698Y005186D01*
X005361Y005524D01*
X005361Y006008D01*
X005703Y006351D01*
X006188Y006351D01*
X006531Y006008D01*
X006531Y005524D01*
X006193Y005186D01*
X013000Y005186D01*
X013000Y022470D01*
X009141Y022470D01*
X009284Y022327D01*
X009330Y022373D01*
X009444Y022420D01*
X009567Y022420D01*
X009681Y022373D01*
X009768Y022286D01*
X009816Y022172D01*
X009816Y022048D01*
X009814Y022045D01*
X009989Y021870D01*
X010026Y021782D01*
X010026Y021182D01*
X009989Y021094D01*
X009922Y021027D01*
X009914Y021019D01*
X009845Y020990D01*
X009538Y020683D01*
X009449Y020646D01*
X008522Y020646D01*
X008434Y020683D01*
X008366Y020750D01*
X008030Y021086D01*
X007907Y021086D01*
X007912Y021076D01*
X007912Y020952D01*
X007864Y020838D01*
X007842Y020816D01*
X007842Y019982D01*
X009550Y019982D01*
X010644Y021075D01*
X010644Y021108D01*
X010691Y021222D01*
X010778Y021309D01*
X010892Y021356D01*
X011015Y021356D01*
X011129Y021309D01*
X011216Y021222D01*
X011264Y021108D01*
X011264Y020984D01*
X011216Y020870D01*
X011129Y020783D01*
X011015Y020736D01*
X010983Y020736D01*
X009989Y019742D01*
X012083Y019742D01*
X012106Y019765D01*
X012220Y019812D01*
X012343Y019812D01*
X012457Y019765D01*
X012544Y019678D01*
X012592Y019564D01*
X012592Y019440D01*
X012544Y019326D01*
X012457Y019239D01*
X012343Y019192D01*
X012220Y019192D01*
X012106Y019239D01*
X012083Y019262D01*
X008653Y019262D01*
X008232Y018841D01*
X008241Y018837D01*
X008264Y018814D01*
X009648Y018814D01*
X009662Y018818D01*
X009695Y018814D01*
X009729Y018814D01*
X009742Y018809D01*
X009756Y018807D01*
X009786Y018790D01*
X009818Y018777D01*
X009828Y018767D01*
X009858Y018750D01*
X009890Y018737D01*
X009900Y018727D01*
X009912Y018721D01*
X009933Y018694D01*
X009970Y018657D01*
X010036Y018684D01*
X010157Y018684D01*
X010223Y018750D01*
X010239Y018750D01*
X010394Y018905D01*
X010511Y019022D01*
X011212Y019022D01*
X011500Y018734D01*
X012379Y018734D01*
X012442Y018797D01*
X012556Y018844D01*
X012679Y018844D01*
X012793Y018797D01*
X012880Y018710D01*
X012928Y018596D01*
X012928Y018472D01*
X012880Y018358D01*
X012793Y018271D01*
X012679Y018224D01*
X012556Y018224D01*
X012442Y018271D01*
X012379Y018334D01*
X011548Y018334D01*
X012624Y017259D01*
X012640Y017256D01*
X012681Y017201D01*
X012717Y017165D01*
X012772Y017124D01*
X012774Y017108D01*
X012994Y016889D01*
X012994Y016417D01*
X012994Y016417D01*
X012994Y016334D01*
X012994Y016251D01*
X012994Y016251D01*
X012994Y016251D01*
X012986Y016243D01*
X012986Y016059D01*
X012750Y015824D01*
X012748Y015808D01*
X012730Y015794D01*
X012730Y013889D01*
X012746Y013873D01*
X012746Y013837D01*
X012762Y013805D01*
X012746Y013758D01*
X012746Y013217D01*
X012746Y013217D01*
X012746Y013134D01*
X012746Y013051D01*
X012746Y013051D01*
X012746Y013051D01*
X012730Y013035D01*
X012730Y012449D01*
X012754Y012425D01*
X012754Y012409D01*
X012763Y012396D01*
X012754Y012328D01*
X012754Y012305D01*
X012762Y012297D01*
X012762Y012297D01*
X012762Y012297D01*
X012762Y012214D01*
X012762Y012185D01*
X012765Y012181D01*
X012826Y012121D01*
X012826Y012121D01*
X012828Y012118D01*
X012828Y012118D01*
X012876Y012070D01*
X012897Y012049D01*
X012946Y012001D01*
X012946Y012001D01*
X012947Y012000D01*
X012994Y011953D01*
X012994Y011953D01*
X012994Y011860D01*
X012994Y011787D01*
X012994Y011787D01*
X012994Y008987D01*
X012876Y008870D01*
X010564Y006558D01*
X010007Y006558D01*
X009890Y006675D01*
X009733Y006832D01*
X009719Y006832D01*
X009742Y006786D01*
X009772Y006694D01*
X009784Y006615D01*
X009237Y006615D01*
X009108Y006615D01*
X009108Y006486D01*
X008561Y006486D01*
X008574Y006407D01*
X008604Y006315D01*
X008648Y006229D01*
X008704Y006151D01*
X008773Y006082D01*
X008851Y006025D01*
X008937Y005982D01*
X009029Y005952D01*
X009108Y005939D01*
X009108Y006486D01*
X009237Y006486D01*
X009237Y005939D01*
X009317Y005952D01*
X009408Y005982D01*
X009495Y006025D01*
X009573Y006082D01*
X009641Y006151D01*
X009698Y006229D01*
X009742Y006315D01*
X009772Y006407D01*
X009784Y006486D01*
X009237Y006486D01*
X009237Y006615D01*
X009237Y007162D01*
X009317Y007150D01*
X009396Y007124D01*
X009396Y007204D01*
X009443Y007318D01*
X009459Y007334D01*
X009443Y007350D01*
X009396Y007464D01*
X009396Y007588D01*
X009443Y007702D01*
X009530Y007789D01*
X009644Y007836D01*
X009705Y007836D01*
X009557Y007984D01*
X009468Y007984D01*
X009354Y008031D01*
X009267Y008118D01*
X009220Y008232D01*
X009220Y008356D01*
X009267Y008470D01*
X009354Y008557D01*
X009468Y008604D01*
X009591Y008604D01*
X009705Y008557D01*
X009792Y008470D01*
X009840Y008356D01*
X009840Y008267D01*
X010086Y008020D01*
X010107Y008070D01*
X010162Y008124D01*
X010162Y008315D01*
X009963Y008513D01*
X009947Y008516D01*
X009906Y008571D01*
X009858Y008619D01*
X009858Y008627D01*
X009834Y008651D01*
X009834Y008667D01*
X009825Y008679D01*
X009807Y008672D01*
X009684Y008672D01*
X009570Y008719D01*
X009483Y008806D01*
X009436Y008920D01*
X009436Y009044D01*
X009451Y009081D01*
X009084Y009448D01*
X009039Y009430D01*
X008858Y009430D01*
X008691Y009499D01*
X008563Y009627D01*
X008542Y009678D01*
X007946Y009678D01*
X007946Y009478D01*
X007946Y009395D01*
X007946Y009395D01*
X007938Y009387D01*
X007938Y009355D01*
X007922Y009339D01*
X007922Y008345D01*
X008226Y008041D01*
X008226Y007268D01*
X008288Y007206D01*
X008336Y007092D01*
X008336Y006968D01*
X008288Y006854D01*
X008201Y006767D01*
X008087Y006720D01*
X007964Y006720D01*
X007850Y006767D01*
X007763Y006854D01*
X007716Y006968D01*
X007716Y007092D01*
X007721Y007104D01*
X007692Y007104D01*
X007578Y007151D01*
X007491Y007238D01*
X007444Y007352D01*
X007444Y007441D01*
X007343Y007542D01*
X006313Y007542D01*
X006280Y007462D01*
X006193Y007375D01*
X006079Y007328D01*
X005956Y007328D01*
X005842Y007375D01*
X005755Y007462D01*
X005751Y007472D01*
X005298Y007019D01*
X005298Y006603D01*
X005180Y006486D01*
X005180Y006486D01*
X004838Y006143D01*
X004917Y006064D01*
X004917Y005683D01*
X004647Y005414D01*
X004266Y005414D01*
X003997Y005683D01*
X003997Y006064D01*
X004026Y006094D01*
X003956Y006094D01*
X003917Y006054D01*
X003917Y005683D01*
X003647Y005414D01*
X003266Y005414D01*
X003160Y005520D01*
X003160Y005509D02*
X003171Y005509D01*
X003160Y005350D02*
X005534Y005350D01*
X005693Y005192D02*
X003160Y005192D01*
X003742Y005509D02*
X004171Y005509D01*
X004013Y005667D02*
X003900Y005667D01*
X003917Y005826D02*
X003997Y005826D01*
X003997Y005984D02*
X003917Y005984D01*
X004742Y005509D02*
X005376Y005509D01*
X005361Y005667D02*
X004900Y005667D01*
X004917Y005826D02*
X005361Y005826D01*
X005361Y005984D02*
X004917Y005984D01*
X004838Y006143D02*
X005495Y006143D01*
X005653Y006301D02*
X004995Y006301D01*
X005154Y006460D02*
X008565Y006460D01*
X008561Y006615D02*
X009108Y006615D01*
X009108Y007162D01*
X009029Y007150D01*
X008937Y007120D01*
X008851Y007076D01*
X008773Y007019D01*
X008704Y006951D01*
X008648Y006872D01*
X008604Y006786D01*
X008574Y006694D01*
X008561Y006615D01*
X008562Y006618D02*
X005298Y006618D01*
X005298Y006777D02*
X007841Y006777D01*
X007729Y006935D02*
X005298Y006935D01*
X005372Y007094D02*
X007716Y007094D01*
X007485Y007252D02*
X005530Y007252D01*
X005689Y007411D02*
X005807Y007411D01*
X006229Y007411D02*
X007444Y007411D01*
X008063Y008203D02*
X009232Y008203D01*
X009222Y008362D02*
X007922Y008362D01*
X007922Y008520D02*
X009317Y008520D01*
X009470Y008837D02*
X007922Y008837D01*
X007922Y008679D02*
X009668Y008679D01*
X009823Y008679D02*
X009825Y008679D01*
X009742Y008520D02*
X009944Y008520D01*
X009837Y008362D02*
X010115Y008362D01*
X010162Y008203D02*
X009903Y008203D01*
X010062Y008045D02*
X010096Y008045D01*
X009655Y007886D02*
X008226Y007886D01*
X008226Y007728D02*
X009469Y007728D01*
X009396Y007569D02*
X008226Y007569D01*
X008226Y007411D02*
X009418Y007411D01*
X009416Y007252D02*
X008242Y007252D01*
X008335Y007094D02*
X008886Y007094D01*
X009108Y007094D02*
X009237Y007094D01*
X009237Y006935D02*
X009108Y006935D01*
X009108Y006777D02*
X009237Y006777D01*
X009237Y006618D02*
X009108Y006618D01*
X009173Y006551D02*
X010562Y006551D01*
X012994Y008982D01*
X012994Y012350D01*
X012922Y012350D01*
X012994Y012422D01*
X012994Y015686D01*
X012922Y015758D01*
X012994Y015830D01*
X012994Y016246D01*
X012994Y016246D01*
X012994Y019950D01*
X012922Y020022D01*
X013000Y020091D02*
X010338Y020091D01*
X010496Y020249D02*
X013000Y020249D01*
X013000Y020408D02*
X010655Y020408D01*
X010813Y020566D02*
X013000Y020566D01*
X013000Y020725D02*
X010972Y020725D01*
X010954Y021046D02*
X009650Y019742D01*
X007690Y019742D01*
X007602Y019830D01*
X007602Y021014D01*
X007842Y020725D02*
X008392Y020725D01*
X008233Y020883D02*
X007883Y020883D01*
X007912Y021042D02*
X008075Y021042D01*
X008130Y021326D02*
X008570Y020886D01*
X009402Y020886D01*
X009738Y021222D01*
X009778Y021222D01*
X009786Y021230D01*
X009786Y021734D01*
X009546Y021974D01*
X009546Y022038D01*
X009506Y022110D01*
X009506Y022110D01*
X009744Y022310D02*
X013000Y022310D01*
X013000Y022468D02*
X009143Y022468D01*
X008810Y022462D02*
X009178Y022094D01*
X009178Y021502D01*
X009173Y021499D01*
X009580Y020725D02*
X010293Y020725D01*
X010451Y020883D02*
X009738Y020883D01*
X009937Y021042D02*
X010610Y021042D01*
X010682Y021200D02*
X010026Y021200D01*
X010026Y021359D02*
X011123Y021359D01*
X011123Y021346D02*
X011422Y021047D01*
X011633Y021047D01*
X011633Y021557D01*
X011633Y021557D01*
X011123Y021557D01*
X011123Y021346D01*
X011123Y021517D02*
X010026Y021517D01*
X010026Y021676D02*
X011123Y021676D01*
X011123Y021769D02*
X011123Y021557D01*
X011633Y021557D01*
X011633Y021557D01*
X011633Y021047D01*
X011845Y021047D01*
X012041Y021244D01*
X012218Y021067D01*
X012624Y021067D01*
X012911Y021355D01*
X012911Y021760D01*
X012624Y022047D01*
X012218Y022047D01*
X012041Y021871D01*
X011845Y022067D01*
X011633Y022067D01*
X011422Y022067D01*
X011123Y021769D01*
X011189Y021834D02*
X010004Y021834D01*
X009866Y021993D02*
X011347Y021993D01*
X011633Y021993D02*
X011633Y021993D01*
X011633Y022067D02*
X011633Y021558D01*
X011634Y021558D02*
X011633Y021557D01*
X011633Y021558D02*
X011633Y021558D01*
X011634Y021558D02*
X011634Y022390D01*
X011633Y022067D02*
X011633Y021558D01*
X011633Y021517D02*
X011633Y021517D01*
X011633Y021359D02*
X011633Y021359D01*
X011633Y021200D02*
X011633Y021200D01*
X011997Y021200D02*
X012085Y021200D01*
X011633Y021676D02*
X011633Y021676D01*
X011633Y021834D02*
X011633Y021834D01*
X011920Y021993D02*
X012163Y021993D01*
X012679Y021993D02*
X013000Y021993D01*
X013000Y022151D02*
X009816Y022151D01*
X008810Y022462D02*
X005450Y022462D01*
X005410Y022390D01*
X004778Y021758D01*
X004778Y021710D01*
X004771Y021707D01*
X003402Y020470D02*
X006873Y020470D01*
X006962Y020507D01*
X007012Y020557D01*
X007042Y020574D01*
X007074Y020587D01*
X007084Y020597D01*
X007096Y020603D01*
X007117Y020630D01*
X007335Y020848D01*
X007339Y020838D01*
X007362Y020816D01*
X007362Y019782D01*
X007398Y019694D01*
X007486Y019606D01*
X007554Y019539D01*
X007642Y019502D01*
X008214Y019502D01*
X007326Y018614D01*
X005680Y018614D01*
X005657Y018637D01*
X005543Y018684D01*
X005420Y018684D01*
X005306Y018637D01*
X005219Y018550D01*
X005172Y018436D01*
X005172Y018312D01*
X005219Y018198D01*
X005306Y018111D01*
X005420Y018064D01*
X005543Y018064D01*
X005657Y018111D01*
X005680Y018134D01*
X007473Y018134D01*
X007562Y018171D01*
X007799Y018408D01*
X007803Y018398D01*
X007890Y018311D01*
X008004Y018264D01*
X008127Y018264D01*
X008241Y018311D01*
X008264Y018334D01*
X008287Y018334D01*
X008179Y018227D01*
X008163Y018224D01*
X008122Y018169D01*
X008074Y018121D01*
X008074Y018113D01*
X007888Y017928D01*
X007794Y017833D01*
X007794Y017286D01*
X006712Y017286D01*
X006649Y017349D01*
X006535Y017396D01*
X006412Y017396D01*
X006298Y017349D01*
X006211Y017262D01*
X006164Y017148D01*
X006164Y017024D01*
X006211Y016910D01*
X006298Y016823D01*
X006412Y016776D01*
X006535Y016776D01*
X006649Y016823D01*
X006712Y016886D01*
X007586Y016886D01*
X007572Y016852D01*
X007572Y016747D01*
X007498Y016717D01*
X007411Y016630D01*
X007364Y016516D01*
X007364Y016392D01*
X007411Y016278D01*
X007425Y016264D01*
X007391Y016230D01*
X006727Y016230D01*
X006716Y016219D01*
X006610Y016113D01*
X005965Y015468D01*
X005954Y015457D01*
X005954Y015361D01*
X005863Y015270D01*
X005855Y015270D01*
X005806Y015221D01*
X005751Y015180D01*
X005749Y015164D01*
X005487Y014902D01*
X005487Y014902D01*
X005370Y014785D01*
X005370Y014372D01*
X005360Y014304D01*
X005370Y014291D01*
X005370Y014275D01*
X005394Y014251D01*
X005394Y013827D01*
X005402Y013819D01*
X005402Y013729D01*
X005303Y013630D01*
X004892Y013630D01*
X004937Y013675D01*
X004937Y013854D01*
X004477Y013854D01*
X004477Y013894D01*
X004937Y013894D01*
X004937Y014026D01*
X004980Y014008D01*
X005103Y014008D01*
X005217Y014055D01*
X005304Y014142D01*
X005352Y014256D01*
X005352Y014345D01*
X005354Y014347D01*
X005354Y015489D01*
X005236Y015606D01*
X004890Y015953D01*
X004890Y016063D01*
X004906Y016105D01*
X004890Y016143D01*
X004890Y016185D01*
X004858Y016216D01*
X004841Y016257D01*
X004802Y016272D01*
X004772Y016302D01*
X004748Y016302D01*
X004688Y016363D01*
X004688Y016452D01*
X004640Y016566D01*
X004553Y016653D01*
X004543Y016657D01*
X004730Y016843D01*
X004730Y017552D01*
X004775Y017552D01*
X004889Y017599D01*
X004976Y017686D01*
X005024Y017800D01*
X005024Y017924D01*
X004976Y018038D01*
X004889Y018125D01*
X004775Y018172D01*
X004652Y018172D01*
X004538Y018125D01*
X004463Y018050D01*
X004451Y018048D01*
X004410Y017993D01*
X004386Y017969D01*
X004358Y017950D01*
X004350Y017914D01*
X004328Y017884D01*
X004330Y017872D01*
X004330Y017810D01*
X004317Y017748D01*
X004330Y017729D01*
X004330Y017009D01*
X003863Y016542D01*
X003746Y016425D01*
X003746Y016049D01*
X003722Y016025D01*
X003722Y016009D01*
X003712Y015996D01*
X003722Y015928D01*
X003722Y015289D01*
X003707Y015274D01*
X003647Y015334D01*
X003402Y015334D01*
X003402Y020470D01*
X003402Y020408D02*
X007362Y020408D01*
X007362Y020566D02*
X007029Y020566D01*
X007212Y020725D02*
X007362Y020725D01*
X007362Y020249D02*
X003402Y020249D01*
X003402Y020091D02*
X007362Y020091D01*
X007362Y019932D02*
X003402Y019932D01*
X003402Y019774D02*
X007365Y019774D01*
X007477Y019615D02*
X003402Y019615D01*
X003402Y019457D02*
X008169Y019457D01*
X008010Y019298D02*
X003402Y019298D01*
X003402Y019140D02*
X007852Y019140D01*
X007693Y018981D02*
X003402Y018981D01*
X003402Y018823D02*
X007535Y018823D01*
X007376Y018664D02*
X005592Y018664D01*
X005372Y018664D02*
X003402Y018664D01*
X003402Y018506D02*
X005201Y018506D01*
X005172Y018347D02*
X003402Y018347D01*
X003402Y018189D02*
X005229Y018189D01*
X004980Y018030D02*
X007991Y018030D01*
X008136Y018189D02*
X007580Y018189D01*
X007738Y018347D02*
X007854Y018347D01*
X008066Y018574D02*
X009682Y018574D01*
X009754Y018534D01*
X009914Y018374D01*
X010098Y018374D01*
X009988Y018664D02*
X009963Y018664D01*
X010311Y018823D02*
X008255Y018823D01*
X008372Y018981D02*
X010470Y018981D01*
X010850Y018230D02*
X010850Y018222D01*
X011882Y017190D01*
X011882Y017182D01*
X012138Y016926D01*
X012138Y016910D01*
X012170Y016878D01*
X012170Y015694D01*
X012162Y015686D01*
X012162Y014190D01*
X011810Y013838D01*
X011810Y013710D01*
X011626Y013526D01*
X011530Y013526D01*
X010338Y012334D01*
X010338Y012238D01*
X010346Y012230D01*
X010378Y012150D01*
X010426Y012102D01*
X010426Y011406D01*
X010378Y011358D01*
X009762Y011358D01*
X009618Y011502D01*
X008618Y011502D01*
X008506Y011614D01*
X007778Y011614D01*
X007450Y011286D01*
X007450Y011278D01*
X007946Y009630D02*
X008562Y009630D01*
X008759Y009471D02*
X007946Y009471D01*
X007946Y009395D02*
X007946Y009395D01*
X007922Y009313D02*
X009220Y009313D01*
X009379Y009154D02*
X007922Y009154D01*
X007922Y008996D02*
X009436Y008996D01*
X009341Y008045D02*
X008222Y008045D01*
X008322Y006935D02*
X008693Y006935D01*
X008601Y006777D02*
X008211Y006777D01*
X008210Y006190D02*
X006722Y006190D01*
X006531Y005984D02*
X008932Y005984D01*
X009108Y005984D02*
X009237Y005984D01*
X009237Y006143D02*
X009108Y006143D01*
X009108Y006301D02*
X009237Y006301D01*
X009237Y006460D02*
X009108Y006460D01*
X009413Y005984D02*
X013000Y005984D01*
X013000Y005826D02*
X006531Y005826D01*
X006531Y005667D02*
X013000Y005667D01*
X013000Y005509D02*
X006515Y005509D01*
X006357Y005350D02*
X013000Y005350D01*
X013000Y005192D02*
X006198Y005192D01*
X006396Y006143D02*
X008712Y006143D01*
X008611Y006301D02*
X006238Y006301D01*
X009633Y006143D02*
X013000Y006143D01*
X013000Y006301D02*
X009735Y006301D01*
X009780Y006460D02*
X013000Y006460D01*
X013000Y006618D02*
X010624Y006618D01*
X010783Y006777D02*
X013000Y006777D01*
X013000Y006935D02*
X010941Y006935D01*
X011100Y007094D02*
X013000Y007094D01*
X013000Y007252D02*
X011258Y007252D01*
X011417Y007411D02*
X013000Y007411D01*
X013000Y007569D02*
X011575Y007569D01*
X011734Y007728D02*
X013000Y007728D01*
X013000Y007886D02*
X011892Y007886D01*
X012051Y008045D02*
X013000Y008045D01*
X013000Y008203D02*
X012209Y008203D01*
X012368Y008362D02*
X013000Y008362D01*
X013000Y008520D02*
X012526Y008520D01*
X012685Y008679D02*
X013000Y008679D01*
X013000Y008837D02*
X012843Y008837D01*
X012994Y008996D02*
X013000Y008996D01*
X012994Y009154D02*
X013000Y009154D01*
X012994Y009313D02*
X013000Y009313D01*
X012994Y009471D02*
X013000Y009471D01*
X012994Y009630D02*
X013000Y009630D01*
X012994Y009788D02*
X013000Y009788D01*
X012994Y009947D02*
X013000Y009947D01*
X012994Y010105D02*
X013000Y010105D01*
X012994Y010264D02*
X013000Y010264D01*
X012994Y010422D02*
X013000Y010422D01*
X012994Y010581D02*
X013000Y010581D01*
X012994Y010739D02*
X013000Y010739D01*
X012994Y010898D02*
X013000Y010898D01*
X012994Y011056D02*
X013000Y011056D01*
X012994Y011215D02*
X013000Y011215D01*
X012994Y011373D02*
X013000Y011373D01*
X012994Y011532D02*
X013000Y011532D01*
X012994Y011690D02*
X013000Y011690D01*
X012994Y011849D02*
X013000Y011849D01*
X012994Y011953D02*
X012994Y011953D01*
X013000Y012007D02*
X012939Y012007D01*
X013000Y012166D02*
X012781Y012166D01*
X012754Y012324D02*
X013000Y012324D01*
X013000Y012483D02*
X012730Y012483D01*
X012730Y012641D02*
X013000Y012641D01*
X013000Y012800D02*
X012730Y012800D01*
X012730Y012958D02*
X013000Y012958D01*
X013000Y013117D02*
X012746Y013117D01*
X012746Y013275D02*
X013000Y013275D01*
X013000Y013434D02*
X012746Y013434D01*
X012746Y013592D02*
X013000Y013592D01*
X013000Y013751D02*
X012746Y013751D01*
X012730Y013909D02*
X013000Y013909D01*
X013000Y014068D02*
X012730Y014068D01*
X012730Y014226D02*
X013000Y014226D01*
X013000Y014385D02*
X012730Y014385D01*
X012730Y014543D02*
X013000Y014543D01*
X013000Y014702D02*
X012730Y014702D01*
X012730Y014860D02*
X013000Y014860D01*
X013000Y015019D02*
X012730Y015019D01*
X012730Y015177D02*
X013000Y015177D01*
X013000Y015336D02*
X012730Y015336D01*
X012730Y015494D02*
X013000Y015494D01*
X013000Y015653D02*
X012730Y015653D01*
X012748Y015811D02*
X013000Y015811D01*
X013000Y015970D02*
X012896Y015970D01*
X012986Y016128D02*
X013000Y016128D01*
X012994Y016287D02*
X013000Y016287D01*
X012994Y016445D02*
X013000Y016445D01*
X012994Y016604D02*
X013000Y016604D01*
X012994Y016762D02*
X013000Y016762D01*
X013000Y016921D02*
X012962Y016921D01*
X013000Y017079D02*
X012803Y017079D01*
X012654Y017238D02*
X013000Y017238D01*
X013000Y017396D02*
X012486Y017396D01*
X012328Y017555D02*
X013000Y017555D01*
X013000Y017713D02*
X012169Y017713D01*
X012011Y017872D02*
X013000Y017872D01*
X013000Y018030D02*
X011852Y018030D01*
X011694Y018189D02*
X013000Y018189D01*
X013000Y018347D02*
X012869Y018347D01*
X012928Y018506D02*
X013000Y018506D01*
X013000Y018664D02*
X012899Y018664D01*
X013000Y018823D02*
X012731Y018823D01*
X012504Y018823D02*
X011412Y018823D01*
X011253Y018981D02*
X013000Y018981D01*
X013000Y019140D02*
X008531Y019140D01*
X008554Y019502D02*
X012282Y019502D01*
X012436Y019774D02*
X013000Y019774D01*
X013000Y019932D02*
X010179Y019932D01*
X010021Y019774D02*
X012127Y019774D01*
X012570Y019615D02*
X013000Y019615D01*
X013000Y019457D02*
X012592Y019457D01*
X012516Y019298D02*
X013000Y019298D01*
X013000Y020883D02*
X011222Y020883D01*
X011264Y021042D02*
X013000Y021042D01*
X013000Y021200D02*
X012756Y021200D01*
X012911Y021359D02*
X013000Y021359D01*
X013000Y021517D02*
X012911Y021517D01*
X012911Y021676D02*
X013000Y021676D01*
X013000Y021834D02*
X012837Y021834D01*
X011270Y021200D02*
X011225Y021200D01*
X010134Y020566D02*
X007842Y020566D01*
X007842Y020408D02*
X009976Y020408D01*
X009817Y020249D02*
X007842Y020249D01*
X007842Y020091D02*
X009659Y020091D01*
X008554Y019502D02*
X007426Y018374D01*
X005482Y018374D01*
X005024Y017872D02*
X007832Y017872D01*
X007794Y017713D02*
X004987Y017713D01*
X004781Y017555D02*
X007794Y017555D01*
X007794Y017396D02*
X004730Y017396D01*
X004730Y017238D02*
X006201Y017238D01*
X006164Y017079D02*
X004730Y017079D01*
X004730Y016921D02*
X006207Y016921D01*
X005970Y016734D02*
X005802Y016734D01*
X005762Y016662D01*
X005762Y016230D01*
X006946Y016230D01*
X007018Y016302D01*
X007364Y016445D02*
X004688Y016445D01*
X004602Y016604D02*
X007400Y016604D01*
X007407Y016287D02*
X004788Y016287D01*
X004896Y016128D02*
X006625Y016128D01*
X006610Y016113D02*
X006610Y016113D01*
X006466Y015970D02*
X004890Y015970D01*
X005031Y015811D02*
X006308Y015811D01*
X006149Y015653D02*
X005190Y015653D01*
X005236Y015606D02*
X005236Y015606D01*
X005348Y015494D02*
X005991Y015494D01*
X005928Y015336D02*
X005354Y015336D01*
X005354Y015177D02*
X005751Y015177D01*
X005762Y015198D02*
X005362Y014798D01*
X005362Y014278D01*
X005394Y014246D01*
X005394Y013902D01*
X005370Y013878D01*
X005330Y013806D01*
X005226Y013726D01*
X005130Y013630D01*
X004650Y013630D01*
X004482Y013798D01*
X004457Y013874D01*
X004458Y013878D01*
X004477Y013894D02*
X004437Y013894D01*
X004437Y014354D01*
X004258Y014354D01*
X004098Y014194D01*
X004098Y014582D01*
X004266Y014414D01*
X004647Y014414D01*
X004917Y014683D01*
X004917Y015052D01*
X004954Y015067D01*
X004954Y014617D01*
X004866Y014581D01*
X004779Y014494D01*
X004732Y014380D01*
X004732Y014278D01*
X004655Y014354D01*
X004477Y014354D01*
X004477Y013894D01*
X004477Y013909D02*
X004437Y013909D01*
X004437Y014068D02*
X004477Y014068D01*
X004477Y014226D02*
X004437Y014226D01*
X004130Y014226D02*
X004098Y014226D01*
X004098Y014385D02*
X004734Y014385D01*
X004776Y014543D02*
X004828Y014543D01*
X004917Y014702D02*
X004954Y014702D01*
X004954Y014860D02*
X004917Y014860D01*
X004917Y015019D02*
X004954Y015019D01*
X005354Y015019D02*
X005603Y015019D01*
X005445Y014860D02*
X005354Y014860D01*
X005354Y014702D02*
X005370Y014702D01*
X005354Y014543D02*
X005370Y014543D01*
X005354Y014385D02*
X005370Y014385D01*
X005394Y014226D02*
X005339Y014226D01*
X005394Y014068D02*
X005230Y014068D01*
X005330Y013806D02*
X005290Y013774D01*
X005402Y013751D02*
X004937Y013751D01*
X004937Y013909D02*
X005394Y013909D01*
X005762Y015198D02*
X005762Y016230D01*
X005802Y016734D02*
X005586Y016950D01*
X004648Y016762D02*
X007572Y016762D01*
X006826Y020710D02*
X006866Y020750D01*
X006938Y020790D01*
X007474Y021326D01*
X008130Y021326D01*
X006826Y020710D02*
X003162Y020710D01*
X003162Y015166D01*
X003450Y014878D01*
X003457Y014874D01*
X003402Y015336D02*
X003722Y015336D01*
X003722Y015494D02*
X003402Y015494D01*
X003402Y015653D02*
X003722Y015653D01*
X003722Y015811D02*
X003402Y015811D01*
X003402Y015970D02*
X003716Y015970D01*
X003746Y016128D02*
X003402Y016128D01*
X003402Y016287D02*
X003746Y016287D01*
X003766Y016445D02*
X003402Y016445D01*
X003402Y016604D02*
X003924Y016604D01*
X004083Y016762D02*
X003402Y016762D01*
X003402Y016921D02*
X004241Y016921D01*
X004330Y017079D02*
X003402Y017079D01*
X003402Y017238D02*
X004330Y017238D01*
X004330Y017396D02*
X003402Y017396D01*
X003402Y017555D02*
X004330Y017555D01*
X004330Y017713D02*
X003402Y017713D01*
X003402Y017872D02*
X004330Y017872D01*
X004438Y018030D02*
X003402Y018030D01*
X004098Y014543D02*
X004137Y014543D01*
X009745Y006777D02*
X009788Y006777D01*
X009784Y006618D02*
X009947Y006618D01*
X011594Y009886D02*
X011058Y010422D01*
X010762Y010422D01*
X010426Y010758D01*
X010426Y011406D01*
X010666Y011373D02*
X010922Y011373D01*
X010945Y011340D02*
X010858Y011340D01*
X010691Y011271D01*
X010666Y011246D01*
X010666Y011454D01*
X010666Y011850D01*
X011276Y012277D01*
X011368Y012146D01*
X011499Y012238D01*
X011407Y012369D01*
X012069Y012833D01*
X011808Y013206D01*
X011772Y013236D01*
X011729Y013256D01*
X011682Y013264D01*
X011635Y013260D01*
X011590Y013244D01*
X011579Y013236D01*
X011629Y013286D01*
X011673Y013286D01*
X011762Y013323D01*
X011946Y013507D01*
X012013Y013574D01*
X012050Y013662D01*
X012050Y013739D01*
X012170Y013859D01*
X012170Y013267D01*
X012147Y013230D01*
X012157Y013193D01*
X012149Y013156D01*
X012170Y013125D01*
X012170Y012689D01*
X012161Y012702D01*
X011499Y012238D01*
X011850Y011737D01*
X011879Y011757D01*
X011899Y011710D01*
X011986Y011623D01*
X012100Y011576D01*
X012223Y011576D01*
X012274Y011597D01*
X012274Y011359D01*
X012268Y011360D01*
X011967Y011360D01*
X011967Y010903D01*
X012274Y010903D01*
X012274Y010867D01*
X011967Y010867D01*
X011967Y010903D01*
X011930Y010903D01*
X011930Y010867D01*
X011474Y010867D01*
X011474Y010566D01*
X011486Y010520D01*
X011510Y010479D01*
X011543Y010446D01*
X011584Y010422D01*
X011397Y010422D01*
X011474Y010581D02*
X011288Y010581D01*
X011263Y010556D02*
X011335Y010627D01*
X011404Y010794D01*
X011404Y010976D01*
X011335Y011143D01*
X011207Y011271D01*
X011193Y011277D01*
X011719Y011645D01*
X011368Y012146D01*
X010705Y011682D01*
X010945Y011340D01*
X010811Y011532D02*
X010666Y011532D01*
X010666Y011690D02*
X010717Y011690D01*
X010666Y011849D02*
X010943Y011849D01*
X010890Y012007D02*
X011169Y012007D01*
X011117Y012166D02*
X011354Y012166D01*
X011396Y012166D02*
X011549Y012166D01*
X011394Y012214D02*
X011394Y012254D01*
X011387Y012257D01*
X011394Y012214D02*
X011946Y011662D01*
X011946Y010886D01*
X011949Y010885D01*
X011967Y010898D02*
X012274Y010898D01*
X012274Y011373D02*
X011330Y011373D01*
X011263Y011215D02*
X011476Y011215D01*
X011474Y011204D02*
X011474Y010903D01*
X011930Y010903D01*
X011930Y011360D01*
X011630Y011360D01*
X011584Y011348D01*
X011543Y011324D01*
X011510Y011291D01*
X011486Y011250D01*
X011474Y011204D01*
X011474Y011056D02*
X011371Y011056D01*
X011404Y010898D02*
X011930Y010898D01*
X011930Y010867D02*
X011967Y010867D01*
X011967Y010410D01*
X012268Y010410D01*
X012274Y010411D01*
X012274Y010204D01*
X012207Y010271D01*
X012039Y010340D01*
X011858Y010340D01*
X011691Y010271D01*
X011620Y010200D01*
X011263Y010556D01*
X011381Y010739D02*
X011474Y010739D01*
X011584Y010422D02*
X011630Y010410D01*
X011930Y010410D01*
X011930Y010867D01*
X011930Y010739D02*
X011967Y010739D01*
X011967Y010581D02*
X011930Y010581D01*
X011930Y010422D02*
X011967Y010422D01*
X012214Y010264D02*
X012274Y010264D01*
X011949Y009885D02*
X011946Y009886D01*
X011594Y009886D01*
X011556Y010264D02*
X011684Y010264D01*
X011930Y011056D02*
X011967Y011056D01*
X011967Y011215D02*
X011930Y011215D01*
X012274Y011532D02*
X011557Y011532D01*
X011687Y011690D02*
X011919Y011690D01*
X011771Y011849D02*
X011576Y011849D01*
X011660Y012007D02*
X011465Y012007D01*
X011438Y012324D02*
X011622Y012324D01*
X011569Y012483D02*
X011848Y012483D01*
X011796Y012641D02*
X012075Y012641D01*
X012022Y012800D02*
X012170Y012800D01*
X012170Y012958D02*
X011982Y012958D01*
X011871Y013117D02*
X012170Y013117D01*
X012170Y013275D02*
X011618Y013275D01*
X011873Y013434D02*
X012170Y013434D01*
X012170Y013592D02*
X012021Y013592D01*
X012062Y013751D02*
X012170Y013751D01*
X011858Y014226D02*
X011426Y014226D01*
X011426Y014068D02*
X011700Y014068D01*
X011674Y014041D02*
X011922Y014289D01*
X011922Y015331D01*
X011904Y015308D01*
X011888Y015305D01*
X011426Y014843D01*
X011426Y013743D01*
X011482Y013766D01*
X011526Y013766D01*
X011570Y013809D01*
X011570Y013886D01*
X011606Y013974D01*
X011613Y013980D01*
X011674Y014041D01*
X011674Y014041D01*
X011579Y013909D02*
X011426Y013909D01*
X011498Y013838D02*
X011538Y013910D01*
X011922Y014294D01*
X011922Y014958D01*
X011786Y015094D01*
X011759Y015177D02*
X011922Y015177D01*
X011922Y015019D02*
X011601Y015019D01*
X011442Y014860D02*
X011922Y014860D01*
X011922Y014702D02*
X011426Y014702D01*
X011426Y014543D02*
X011922Y014543D01*
X011922Y014385D02*
X011426Y014385D01*
X011426Y013751D02*
X011444Y013751D01*
D18*
X011498Y013838D03*
X011786Y015094D03*
X011858Y015822D03*
X011570Y016446D03*
X011186Y016446D03*
X010642Y016518D03*
X010642Y016902D03*
X010130Y017174D03*
X010546Y017686D03*
X010850Y018230D03*
X010946Y017670D03*
X011570Y017062D03*
X012618Y018534D03*
X012282Y019502D03*
X012922Y020022D03*
X011634Y022390D03*
X010954Y021046D03*
X009506Y022110D03*
X007602Y021014D03*
X008066Y018574D03*
X007882Y016790D03*
X007674Y016454D03*
X007018Y016302D03*
X006474Y017086D03*
X006842Y017838D03*
X005586Y016950D03*
X005482Y018374D03*
X004714Y017862D03*
X004378Y016390D03*
X004370Y016006D03*
X004826Y015350D03*
X005042Y014318D03*
X005330Y013806D03*
X005242Y012958D03*
X006258Y013918D03*
X006986Y014110D03*
X007178Y014502D03*
X006970Y015286D03*
X008546Y015614D03*
X008954Y015358D03*
X009346Y014414D03*
X009786Y013870D03*
X010346Y013990D03*
X009858Y016110D03*
X009282Y017486D03*
X009282Y017870D03*
X009282Y018262D03*
X010098Y018374D03*
X012922Y015758D03*
X012922Y012350D03*
X012162Y011886D03*
X010434Y008974D03*
X009746Y008982D03*
X009530Y008294D03*
X009706Y007526D03*
X009706Y007142D03*
X010458Y007366D03*
X010370Y007894D03*
X008370Y010750D03*
X008378Y011302D03*
X007450Y011278D03*
X006658Y009822D03*
X006002Y010094D03*
X005714Y010374D03*
X005362Y011062D03*
X005170Y010606D03*
X005114Y008270D03*
X006018Y007638D03*
X006722Y006190D03*
X007754Y007414D03*
X008026Y007030D03*
X008210Y006190D03*
X007162Y008222D03*
X007354Y008998D03*
X007458Y009542D03*
X006618Y012798D03*
X004170Y013406D03*
D19*
X004586Y013406D01*
X004618Y013430D01*
X005386Y013430D01*
X005602Y013646D01*
X005602Y013902D01*
X005594Y013910D01*
X005594Y014326D01*
X005570Y014358D01*
X005570Y014702D01*
X005938Y015070D01*
X005970Y015094D01*
X006154Y015278D01*
X006154Y015374D01*
X006810Y016030D01*
X007474Y016030D01*
X007634Y016190D01*
X007674Y016206D01*
X007674Y016454D01*
X007986Y016686D02*
X007882Y016790D01*
X007986Y016686D02*
X007986Y016134D01*
X007746Y015894D01*
X007594Y015894D01*
X007554Y015878D01*
X007546Y015870D01*
X006882Y015870D01*
X006314Y015302D01*
X006314Y014942D01*
X006314Y014902D01*
X006282Y014878D01*
X006282Y014870D01*
X006090Y014678D01*
X006090Y014134D01*
X005762Y013806D01*
X005762Y013574D01*
X005450Y013262D01*
X004834Y013262D01*
X004482Y012910D01*
X004457Y012874D01*
X004458Y012878D01*
X004722Y012406D02*
X004650Y012334D01*
X004618Y012310D01*
X004298Y012310D01*
X004018Y012030D01*
X004018Y011310D01*
X004042Y011286D01*
X004450Y010878D01*
X004457Y010874D01*
X004898Y011294D02*
X004898Y008486D01*
X005114Y008270D01*
X005906Y007910D02*
X005098Y007102D01*
X005098Y006686D01*
X004458Y006046D01*
X004458Y005878D01*
X004457Y005874D01*
X004474Y006294D02*
X003874Y006294D01*
X003458Y005878D01*
X003457Y005874D01*
X004474Y006294D02*
X004938Y006758D01*
X004938Y007174D01*
X005986Y008222D01*
X007162Y008222D01*
X007290Y007910D02*
X007474Y008094D01*
X007474Y008350D01*
X006098Y009726D01*
X006098Y009878D01*
X006090Y009918D01*
X006066Y009950D01*
X006002Y010014D01*
X006002Y010094D01*
X005722Y010366D02*
X005922Y010566D01*
X007050Y010566D01*
X007738Y009878D01*
X008946Y009878D01*
X008949Y009885D01*
X008970Y009846D01*
X009690Y009126D01*
X009690Y009030D01*
X009722Y009006D01*
X009746Y008982D01*
X010034Y008734D02*
X010058Y008702D01*
X010362Y008398D01*
X010362Y007894D01*
X010370Y007894D01*
X010458Y007366D02*
X009530Y008294D01*
X009706Y007526D02*
X009914Y007526D01*
X010346Y007094D01*
X010570Y007094D01*
X012634Y009158D01*
X012634Y011798D01*
X012466Y011966D01*
X012394Y012038D01*
X012394Y012278D01*
X012370Y012302D01*
X012370Y013166D01*
X012362Y013198D01*
X012370Y013238D01*
X012370Y016926D01*
X012362Y016966D01*
X012338Y016998D01*
X012338Y017014D01*
X012082Y017270D01*
X012082Y017278D01*
X011146Y018214D01*
X011122Y018246D01*
X011122Y018350D01*
X011074Y018398D01*
X011050Y018430D01*
X011034Y018430D01*
X010962Y018502D01*
X010738Y018502D01*
X010554Y018318D01*
X010554Y018126D01*
X010274Y017846D01*
X010250Y017846D01*
X010218Y017862D01*
X010202Y017846D01*
X009794Y017846D01*
X009434Y017486D01*
X009282Y017486D01*
X009282Y017870D02*
X009586Y017870D01*
X009794Y018078D01*
X010266Y018078D01*
X010290Y018110D01*
X010394Y018214D01*
X010394Y018374D01*
X010410Y018406D01*
X010666Y018662D01*
X011034Y018662D01*
X011106Y018590D01*
X011130Y018590D01*
X011290Y018430D01*
X011290Y018414D01*
X011282Y018406D01*
X011282Y018318D01*
X012530Y017070D01*
X012554Y017038D01*
X012586Y017014D01*
X012794Y016806D01*
X012794Y016334D01*
X012786Y016326D01*
X012786Y016142D01*
X012562Y015918D01*
X012530Y015894D01*
X012530Y013822D01*
X012546Y013790D01*
X012546Y013134D01*
X012530Y013118D01*
X012530Y012374D01*
X012554Y012342D01*
X012554Y012222D01*
X012562Y012214D01*
X012562Y012102D01*
X012626Y012038D01*
X012650Y012014D01*
X012746Y011918D01*
X012770Y011894D01*
X012794Y011870D01*
X012794Y009070D01*
X010482Y006758D01*
X010090Y006758D01*
X009706Y007142D01*
X010034Y008734D02*
X010034Y009246D01*
X010066Y009278D01*
X010090Y009310D01*
X010242Y009310D01*
X010386Y009454D01*
X010386Y010022D01*
X010370Y010054D01*
X010018Y010406D01*
X010002Y010406D01*
X009962Y010422D01*
X009818Y010422D01*
X009386Y010854D01*
X009290Y010854D01*
X009258Y010878D01*
X008954Y010878D01*
X008949Y010885D01*
X008514Y010726D02*
X008922Y010318D01*
X009514Y010318D01*
X009946Y009886D01*
X009949Y009885D01*
X010434Y008974D02*
X012218Y008974D01*
X012474Y009230D01*
X012474Y011726D01*
X012314Y011886D01*
X012162Y011886D01*
X010842Y013126D02*
X011250Y013534D01*
X011226Y013566D01*
X011226Y014926D01*
X011794Y015494D01*
X011818Y015526D01*
X011858Y015542D01*
X011858Y015822D01*
X011570Y016446D02*
X011074Y015950D01*
X011066Y015918D01*
X011066Y015510D01*
X011058Y015478D01*
X011058Y013574D01*
X010754Y013270D01*
X010738Y013270D01*
X010714Y013246D01*
X010674Y013230D01*
X010666Y013222D01*
X010642Y013190D01*
X010050Y012598D01*
X010050Y012590D01*
X009890Y012430D01*
X009834Y012430D01*
X009802Y012438D01*
X007386Y012438D01*
X006986Y012038D01*
X006818Y012038D01*
X006730Y011950D01*
X006698Y011926D01*
X006642Y011870D01*
X006610Y011846D01*
X006466Y011702D01*
X005786Y011702D01*
X005754Y011718D01*
X005370Y011334D01*
X005170Y011334D01*
X005058Y011222D01*
X005058Y010718D01*
X005170Y010606D01*
X005362Y011062D02*
X005362Y011078D01*
X005794Y011510D01*
X005818Y011542D01*
X006546Y011542D01*
X006762Y011758D01*
X006794Y011782D01*
X006858Y011846D01*
X007026Y011846D01*
X007458Y012278D01*
X007866Y012278D01*
X007898Y012270D01*
X009962Y012270D01*
X010202Y012510D01*
X010234Y012534D01*
X010810Y013110D01*
X010842Y013126D01*
X010682Y013430D02*
X010810Y013558D01*
X010834Y013582D01*
X010898Y013646D01*
X010898Y015422D01*
X010882Y015454D01*
X010882Y015550D01*
X010906Y015582D01*
X010906Y016014D01*
X011186Y016294D01*
X011186Y016446D01*
X010642Y016518D02*
X010370Y016246D01*
X010370Y015278D01*
X010362Y015246D01*
X010362Y014158D01*
X010346Y014126D01*
X010346Y013990D01*
X010122Y014150D02*
X010202Y014230D01*
X010202Y016310D01*
X010370Y016478D01*
X010370Y016630D01*
X010642Y016902D01*
X010602Y017246D02*
X009346Y015990D01*
X009346Y014414D01*
X008954Y014654D02*
X008394Y014094D01*
X008394Y013870D01*
X007794Y013270D01*
X007770Y013246D01*
X007530Y013246D01*
X007490Y013230D01*
X007458Y013206D01*
X006778Y012526D01*
X005938Y012526D01*
X005842Y012430D01*
X005274Y012430D01*
X005274Y012934D01*
X005242Y012958D01*
X005274Y012430D02*
X005242Y012406D01*
X004722Y012406D01*
X004538Y011878D02*
X004457Y011874D01*
X004498Y011878D01*
X004538Y011878D02*
X004962Y011878D01*
X005354Y012270D01*
X005914Y012270D01*
X006002Y012358D01*
X006842Y012358D01*
X007530Y013046D01*
X007570Y013046D01*
X007594Y013078D01*
X007834Y013078D01*
X008562Y013806D01*
X008562Y014030D01*
X008674Y014142D01*
X009882Y014142D01*
X010034Y014294D01*
X010034Y015166D01*
X009882Y015318D01*
X009858Y015350D01*
X009858Y016110D01*
X009458Y016678D02*
X009490Y016702D01*
X009962Y017174D01*
X010130Y017174D01*
X010434Y017414D02*
X010330Y017518D01*
X009930Y017518D01*
X008466Y016054D01*
X008466Y015918D01*
X007970Y015422D01*
X007938Y015398D01*
X007794Y015398D01*
X007394Y014998D01*
X007394Y014966D01*
X007178Y014750D01*
X007178Y014502D01*
X007018Y014726D02*
X006906Y014614D01*
X006906Y014190D01*
X006986Y014110D01*
X007018Y014726D02*
X007018Y014822D01*
X007226Y015030D01*
X007226Y015038D01*
X007250Y015070D01*
X007266Y015102D01*
X007082Y015286D01*
X006970Y015286D01*
X006954Y015710D02*
X006482Y015238D01*
X006482Y014830D01*
X006418Y014766D01*
X006386Y014742D01*
X006258Y014614D01*
X006258Y013918D01*
X006818Y013414D02*
X006794Y013382D01*
X006794Y012974D01*
X006618Y012798D01*
X006914Y012198D02*
X007314Y012598D01*
X009754Y012598D01*
X010586Y013430D01*
X010682Y013430D01*
X010098Y014118D02*
X010066Y014094D01*
X009954Y013982D01*
X009786Y013982D01*
X009786Y013870D01*
X010098Y014118D02*
X010122Y014150D01*
X008954Y014654D02*
X008954Y015358D01*
X008546Y015614D02*
X008498Y015662D01*
X008470Y015690D01*
X009458Y016678D01*
X009866Y017686D02*
X010546Y017686D01*
X010434Y017414D02*
X010946Y017414D01*
X010946Y017670D01*
X010602Y017246D02*
X011386Y017246D01*
X011570Y017062D01*
X011418Y018534D02*
X012618Y018534D01*
X011418Y018534D02*
X011130Y018822D01*
X010594Y018822D01*
X010322Y018550D01*
X010306Y018550D01*
X010170Y018414D01*
X010098Y018374D01*
X009866Y017686D02*
X008306Y016126D01*
X008306Y015990D01*
X007874Y015558D01*
X007722Y015558D01*
X007266Y015102D01*
X006954Y015710D02*
X007618Y015710D01*
X007658Y015726D01*
X007810Y015726D01*
X008146Y016062D01*
X008146Y016198D01*
X008154Y016230D01*
X008154Y016910D01*
X008002Y017062D01*
X007970Y017086D01*
X007994Y017118D01*
X007994Y017750D01*
X008250Y018006D01*
X008274Y018038D01*
X008602Y018366D01*
X009178Y018366D01*
X009282Y018262D01*
X007970Y017086D02*
X006474Y017086D01*
X006010Y017006D02*
X006842Y017838D01*
X006010Y017006D02*
X006010Y016806D01*
X005970Y016734D01*
X004690Y015870D02*
X005154Y015406D01*
X005154Y014430D01*
X005050Y014326D01*
X005042Y014318D01*
X004826Y015350D02*
X004370Y015806D01*
X004370Y016006D01*
X004650Y016118D02*
X004378Y016390D01*
X004650Y016118D02*
X004690Y016102D01*
X004690Y015870D01*
X003946Y016342D02*
X004530Y016926D01*
X004530Y017790D01*
X004538Y017830D01*
X004562Y017862D01*
X004714Y017862D01*
X003946Y016342D02*
X003946Y015974D01*
X003922Y015942D01*
X003922Y015214D01*
X003898Y015182D01*
X003898Y012334D01*
X003474Y011910D01*
X003457Y011874D01*
X004457Y011874D02*
X004458Y011878D01*
X004898Y011294D02*
X005706Y012102D01*
X005978Y012102D01*
X006074Y012198D01*
X006914Y012198D01*
X006818Y013414D02*
X007706Y013414D01*
X007730Y013438D01*
X008130Y013838D01*
X008130Y015350D01*
X008470Y015690D01*
X008378Y011302D02*
X009530Y011302D01*
X009946Y010886D01*
X009949Y010885D01*
X008514Y010726D02*
X008402Y010726D01*
X008370Y010750D01*
X007562Y009822D02*
X007746Y009638D01*
X007746Y009478D01*
X007738Y009470D01*
X007738Y009438D01*
X007722Y009422D01*
X007722Y008262D01*
X008026Y007958D01*
X008026Y007030D01*
X007754Y007414D02*
X007426Y007742D01*
X006122Y007742D01*
X006018Y007638D01*
X005906Y007910D02*
X007290Y007910D01*
X007354Y008998D02*
X007354Y009438D01*
X007458Y009542D01*
X007562Y009822D02*
X006658Y009822D01*
X005722Y010366D02*
X005714Y010374D01*
M02*
