G75*
%MOIN*%
%OFA0B0*%
%FSLAX24Y24*%
%IPPOS*%
%LPD*%
%AMOC8*
5,1,8,0,0,1.08239X$1,22.5*
%
%ADD10C,0.0030*%
%ADD11C,0.0050*%
%ADD12C,0.0040*%
D10*
X010994Y018563D02*
X010939Y018642D01*
X010951Y018710D01*
X010932Y018820D02*
X010849Y018939D01*
X010861Y019007D01*
X010940Y019062D01*
X011008Y019050D01*
X011091Y018931D01*
X010853Y018765D01*
X010877Y018900D02*
X010742Y018923D01*
X010684Y019006D02*
X010732Y019276D01*
X010771Y019304D01*
X010839Y019292D01*
X010894Y019212D01*
X010882Y019145D01*
X010684Y019006D02*
X010573Y019165D01*
X010555Y019275D02*
X010602Y019545D01*
X010444Y019434D01*
X010432Y019367D01*
X010487Y019287D01*
X010555Y019275D01*
X010713Y019386D01*
X010725Y019454D01*
X010670Y019533D01*
X010602Y019545D01*
X010544Y019628D02*
X010556Y019695D01*
X010501Y019774D01*
X010433Y019786D01*
X010394Y019759D01*
X010382Y019691D01*
X010314Y019703D01*
X010275Y019675D01*
X010263Y019608D01*
X010318Y019529D01*
X010386Y019517D01*
X010410Y019652D02*
X010382Y019691D01*
X010375Y019869D02*
X010387Y019937D01*
X010332Y020016D01*
X010264Y020028D01*
X010225Y020000D01*
X010177Y019730D01*
X010066Y019889D01*
X010994Y018563D02*
X011062Y018551D01*
X011220Y018662D01*
X011232Y018730D01*
X011177Y018809D01*
X011109Y018821D01*
X004051Y019600D02*
X003681Y019600D01*
X003681Y019477D02*
X003681Y019724D01*
X003681Y019845D02*
X003681Y019907D01*
X003742Y019907D01*
X003742Y019845D01*
X003681Y019845D01*
X003742Y020029D02*
X003681Y020091D01*
X003681Y020215D01*
X003742Y020276D01*
X003804Y020276D01*
X003866Y020215D01*
X003866Y020153D01*
X003866Y020215D02*
X003927Y020276D01*
X003989Y020276D01*
X004051Y020215D01*
X004051Y020091D01*
X003989Y020029D01*
X004051Y019600D02*
X003927Y019477D01*
X003451Y019477D02*
X003327Y019600D01*
X003451Y019724D01*
X003081Y019724D01*
X003142Y019845D02*
X003081Y019907D01*
X003081Y020092D01*
X003019Y020092D02*
X002957Y020030D01*
X002957Y019969D01*
X003019Y020092D02*
X003327Y020092D01*
X003327Y020214D02*
X003266Y020275D01*
X003266Y020399D01*
X003204Y020461D01*
X003142Y020461D01*
X003081Y020399D01*
X003081Y020275D01*
X003142Y020214D01*
X003327Y020214D02*
X003389Y020214D01*
X003451Y020275D01*
X003451Y020399D01*
X003389Y020461D01*
X003266Y020582D02*
X003327Y020644D01*
X003327Y020767D01*
X003266Y020829D01*
X003204Y020829D01*
X003204Y020582D01*
X003142Y020582D02*
X003266Y020582D01*
X003142Y020582D02*
X003081Y020644D01*
X003081Y020767D01*
X003081Y020950D02*
X003327Y020950D01*
X003327Y021135D01*
X003266Y021197D01*
X003081Y021197D01*
X003081Y021319D02*
X003081Y021504D01*
X003142Y021565D01*
X003204Y021504D01*
X003204Y021380D01*
X003266Y021319D01*
X003327Y021380D01*
X003327Y021565D01*
X003266Y021687D02*
X003142Y021687D01*
X003081Y021749D01*
X003081Y021872D01*
X003142Y021934D01*
X003266Y021934D01*
X003327Y021872D01*
X003327Y021749D01*
X003266Y021687D01*
X003327Y022055D02*
X003081Y022055D01*
X003204Y022055D02*
X003327Y022179D01*
X003327Y022240D01*
X003266Y022362D02*
X003327Y022424D01*
X003327Y022609D01*
X003204Y022547D02*
X003204Y022424D01*
X003266Y022362D01*
X003081Y022362D02*
X003081Y022547D01*
X003142Y022609D01*
X003204Y022547D01*
X003142Y019845D02*
X003327Y019845D01*
X003451Y019477D02*
X003081Y019477D01*
D11*
X005673Y005560D02*
X012673Y005560D01*
X012673Y022490D01*
X005673Y022490D01*
X005673Y005560D01*
X009173Y005364D02*
X009173Y004576D01*
X010157Y011612D02*
X010705Y011996D01*
X010157Y011612D02*
X009434Y012644D01*
X009457Y012660D02*
X008006Y011644D01*
X007983Y011628D02*
X003015Y018723D01*
X004482Y019750D01*
X004466Y019739D02*
X003744Y020771D01*
X004292Y021155D01*
X005453Y021968D02*
X006001Y022352D01*
X006724Y021320D01*
X008175Y022336D01*
X013143Y015241D01*
X011982Y014428D01*
X012705Y013396D01*
X011866Y012809D01*
X008459Y021862D02*
X007659Y021975D01*
X008779Y023080D02*
X009566Y023080D01*
X009173Y022686D02*
X009173Y023474D01*
D12*
X005570Y020616D02*
X005477Y020709D01*
X005290Y020709D01*
X005430Y020709D02*
X005430Y020523D01*
X005477Y020523D02*
X005570Y020616D01*
X005477Y020523D02*
X005290Y020523D01*
X005336Y020415D02*
X005290Y020368D01*
X005290Y020275D01*
X005336Y020228D01*
X005290Y020120D02*
X005290Y019933D01*
X005477Y020120D01*
X005523Y020120D01*
X005570Y020073D01*
X005570Y019980D01*
X005523Y019933D01*
X005570Y019732D02*
X005477Y019639D01*
X005523Y019531D02*
X005430Y019531D01*
X005383Y019484D01*
X005383Y019344D01*
X005290Y019344D02*
X005570Y019344D01*
X005570Y019484D01*
X005523Y019531D01*
X005383Y019437D02*
X005290Y019531D01*
X005290Y019639D02*
X005290Y019825D01*
X005290Y019732D02*
X005570Y019732D01*
X005523Y019236D02*
X005570Y019189D01*
X005570Y019096D01*
X005523Y019049D01*
X005336Y019049D01*
X005290Y019096D01*
X005290Y019189D01*
X005336Y019236D01*
X005523Y020228D02*
X005570Y020275D01*
X005570Y020368D01*
X005523Y020415D01*
X005477Y020415D01*
X005430Y020368D01*
X005383Y020415D01*
X005336Y020415D01*
X005430Y020368D02*
X005430Y020321D01*
M02*
