G04 #@! TF.GenerationSoftware,KiCad,Pcbnew,8.0.9-8.0.9-0~ubuntu24.04.1*
G04 #@! TF.CreationDate,2025-10-19T20:56:50+02:00*
G04 #@! TF.ProjectId,MySMotherboard,4d79534d-6f74-4686-9572-626f6172642e,1.4*
G04 #@! TF.SameCoordinates,Original*
G04 #@! TF.FileFunction,Legend,Bot*
G04 #@! TF.FilePolarity,Positive*
%FSLAX46Y46*%
G04 Gerber Fmt 4.6, Leading zero omitted, Abs format (unit mm)*
G04 Created by KiCad (PCBNEW 8.0.9-8.0.9-0~ubuntu24.04.1) date 2025-10-19 20:56:50*
%MOMM*%
%LPD*%
G01*
G04 APERTURE LIST*
G04 Aperture macros list*
%AMRoundRect*
0 Rectangle with rounded corners*
0 $1 Rounding radius*
0 $2 $3 $4 $5 $6 $7 $8 $9 X,Y pos of 4 corners*
0 Add a 4 corners polygon primitive as box body*
4,1,4,$2,$3,$4,$5,$6,$7,$8,$9,$2,$3,0*
0 Add four circle primitives for the rounded corners*
1,1,$1+$1,$2,$3*
1,1,$1+$1,$4,$5*
1,1,$1+$1,$6,$7*
1,1,$1+$1,$8,$9*
0 Add four rect primitives between the rounded corners*
20,1,$1+$1,$2,$3,$4,$5,0*
20,1,$1+$1,$4,$5,$6,$7,0*
20,1,$1+$1,$6,$7,$8,$9,0*
20,1,$1+$1,$8,$9,$2,$3,0*%
%AMRotRect*
0 Rectangle, with rotation*
0 The origin of the aperture is its center*
0 $1 length*
0 $2 width*
0 $3 Rotation angle, in degrees counterclockwise*
0 Add horizontal line*
21,1,$1,$2,0,0,$3*%
G04 Aperture macros list end*
%ADD10C,0.100000*%
%ADD11C,0.150000*%
%ADD12C,0.121920*%
%ADD13C,0.120000*%
%ADD14C,0.127000*%
%ADD15R,1.700000X1.700000*%
%ADD16RoundRect,0.250000X0.350000X0.625000X-0.350000X0.625000X-0.350000X-0.625000X0.350000X-0.625000X0*%
%ADD17O,1.200000X1.750000*%
%ADD18O,1.700000X1.700000*%
%ADD19RotRect,2.600000X3.600000X125.000000*%
%ADD20RoundRect,0.250000X-1.000000X-0.650000X1.000000X-0.650000X1.000000X0.650000X-1.000000X0.650000X0*%
%ADD21RoundRect,0.250001X-0.462499X-0.624999X0.462499X-0.624999X0.462499X0.624999X-0.462499X0.624999X0*%
%ADD22C,2.357400*%
%ADD23R,2.200000X2.200000*%
%ADD24C,2.200000*%
G04 APERTURE END LIST*
D10*
X160181169Y-127153287D02*
X160181169Y-126405511D01*
X160181169Y-126405511D02*
X159931910Y-126939637D01*
X159931910Y-126939637D02*
X159682651Y-126405511D01*
X159682651Y-126405511D02*
X159682651Y-127153287D01*
X159397784Y-126654770D02*
X159219742Y-127153287D01*
X159041701Y-126654770D02*
X159219742Y-127153287D01*
X159219742Y-127153287D02*
X159290959Y-127331329D01*
X159290959Y-127331329D02*
X159326568Y-127366937D01*
X159326568Y-127366937D02*
X159397784Y-127402546D01*
X158792442Y-127117679D02*
X158685617Y-127153287D01*
X158685617Y-127153287D02*
X158507575Y-127153287D01*
X158507575Y-127153287D02*
X158436358Y-127117679D01*
X158436358Y-127117679D02*
X158400750Y-127082070D01*
X158400750Y-127082070D02*
X158365141Y-127010853D01*
X158365141Y-127010853D02*
X158365141Y-126939637D01*
X158365141Y-126939637D02*
X158400750Y-126868420D01*
X158400750Y-126868420D02*
X158436358Y-126832811D01*
X158436358Y-126832811D02*
X158507575Y-126797203D01*
X158507575Y-126797203D02*
X158650008Y-126761595D01*
X158650008Y-126761595D02*
X158721225Y-126725986D01*
X158721225Y-126725986D02*
X158756834Y-126690378D01*
X158756834Y-126690378D02*
X158792442Y-126619161D01*
X158792442Y-126619161D02*
X158792442Y-126547944D01*
X158792442Y-126547944D02*
X158756834Y-126476728D01*
X158756834Y-126476728D02*
X158721225Y-126441119D01*
X158721225Y-126441119D02*
X158650008Y-126405511D01*
X158650008Y-126405511D02*
X158471967Y-126405511D01*
X158471967Y-126405511D02*
X158365141Y-126441119D01*
X158044666Y-127153287D02*
X158044666Y-126405511D01*
X158044666Y-126405511D02*
X157795407Y-126939637D01*
X157795407Y-126939637D02*
X157546148Y-126405511D01*
X157546148Y-126405511D02*
X157546148Y-127153287D01*
X157083239Y-127153287D02*
X157154456Y-127117679D01*
X157154456Y-127117679D02*
X157190065Y-127082070D01*
X157190065Y-127082070D02*
X157225673Y-127010853D01*
X157225673Y-127010853D02*
X157225673Y-126797203D01*
X157225673Y-126797203D02*
X157190065Y-126725986D01*
X157190065Y-126725986D02*
X157154456Y-126690378D01*
X157154456Y-126690378D02*
X157083239Y-126654770D01*
X157083239Y-126654770D02*
X156976414Y-126654770D01*
X156976414Y-126654770D02*
X156905198Y-126690378D01*
X156905198Y-126690378D02*
X156869589Y-126725986D01*
X156869589Y-126725986D02*
X156833981Y-126797203D01*
X156833981Y-126797203D02*
X156833981Y-127010853D01*
X156833981Y-127010853D02*
X156869589Y-127082070D01*
X156869589Y-127082070D02*
X156905198Y-127117679D01*
X156905198Y-127117679D02*
X156976414Y-127153287D01*
X156976414Y-127153287D02*
X157083239Y-127153287D01*
X156620331Y-126654770D02*
X156335464Y-126654770D01*
X156513506Y-126405511D02*
X156513506Y-127046462D01*
X156513506Y-127046462D02*
X156477897Y-127117679D01*
X156477897Y-127117679D02*
X156406680Y-127153287D01*
X156406680Y-127153287D02*
X156335464Y-127153287D01*
X156086205Y-127153287D02*
X156086205Y-126405511D01*
X155765729Y-127153287D02*
X155765729Y-126761595D01*
X155765729Y-126761595D02*
X155801338Y-126690378D01*
X155801338Y-126690378D02*
X155872554Y-126654770D01*
X155872554Y-126654770D02*
X155979379Y-126654770D01*
X155979379Y-126654770D02*
X156050596Y-126690378D01*
X156050596Y-126690378D02*
X156086205Y-126725986D01*
X155124779Y-127117679D02*
X155195995Y-127153287D01*
X155195995Y-127153287D02*
X155338429Y-127153287D01*
X155338429Y-127153287D02*
X155409646Y-127117679D01*
X155409646Y-127117679D02*
X155445254Y-127046462D01*
X155445254Y-127046462D02*
X155445254Y-126761595D01*
X155445254Y-126761595D02*
X155409646Y-126690378D01*
X155409646Y-126690378D02*
X155338429Y-126654770D01*
X155338429Y-126654770D02*
X155195995Y-126654770D01*
X155195995Y-126654770D02*
X155124779Y-126690378D01*
X155124779Y-126690378D02*
X155089170Y-126761595D01*
X155089170Y-126761595D02*
X155089170Y-126832811D01*
X155089170Y-126832811D02*
X155445254Y-126904028D01*
X154768695Y-127153287D02*
X154768695Y-126654770D01*
X154768695Y-126797203D02*
X154733086Y-126725986D01*
X154733086Y-126725986D02*
X154697478Y-126690378D01*
X154697478Y-126690378D02*
X154626261Y-126654770D01*
X154626261Y-126654770D02*
X154555044Y-126654770D01*
X154305786Y-127153287D02*
X154305786Y-126405511D01*
X154305786Y-126690378D02*
X154234569Y-126654770D01*
X154234569Y-126654770D02*
X154092135Y-126654770D01*
X154092135Y-126654770D02*
X154020919Y-126690378D01*
X154020919Y-126690378D02*
X153985310Y-126725986D01*
X153985310Y-126725986D02*
X153949702Y-126797203D01*
X153949702Y-126797203D02*
X153949702Y-127010853D01*
X153949702Y-127010853D02*
X153985310Y-127082070D01*
X153985310Y-127082070D02*
X154020919Y-127117679D01*
X154020919Y-127117679D02*
X154092135Y-127153287D01*
X154092135Y-127153287D02*
X154234569Y-127153287D01*
X154234569Y-127153287D02*
X154305786Y-127117679D01*
X153522401Y-127153287D02*
X153593618Y-127117679D01*
X153593618Y-127117679D02*
X153629227Y-127082070D01*
X153629227Y-127082070D02*
X153664835Y-127010853D01*
X153664835Y-127010853D02*
X153664835Y-126797203D01*
X153664835Y-126797203D02*
X153629227Y-126725986D01*
X153629227Y-126725986D02*
X153593618Y-126690378D01*
X153593618Y-126690378D02*
X153522401Y-126654770D01*
X153522401Y-126654770D02*
X153415576Y-126654770D01*
X153415576Y-126654770D02*
X153344360Y-126690378D01*
X153344360Y-126690378D02*
X153308751Y-126725986D01*
X153308751Y-126725986D02*
X153273143Y-126797203D01*
X153273143Y-126797203D02*
X153273143Y-127010853D01*
X153273143Y-127010853D02*
X153308751Y-127082070D01*
X153308751Y-127082070D02*
X153344360Y-127117679D01*
X153344360Y-127117679D02*
X153415576Y-127153287D01*
X153415576Y-127153287D02*
X153522401Y-127153287D01*
X152632192Y-127153287D02*
X152632192Y-126761595D01*
X152632192Y-126761595D02*
X152667801Y-126690378D01*
X152667801Y-126690378D02*
X152739017Y-126654770D01*
X152739017Y-126654770D02*
X152881451Y-126654770D01*
X152881451Y-126654770D02*
X152952668Y-126690378D01*
X152632192Y-127117679D02*
X152703409Y-127153287D01*
X152703409Y-127153287D02*
X152881451Y-127153287D01*
X152881451Y-127153287D02*
X152952668Y-127117679D01*
X152952668Y-127117679D02*
X152988276Y-127046462D01*
X152988276Y-127046462D02*
X152988276Y-126975245D01*
X152988276Y-126975245D02*
X152952668Y-126904028D01*
X152952668Y-126904028D02*
X152881451Y-126868420D01*
X152881451Y-126868420D02*
X152703409Y-126868420D01*
X152703409Y-126868420D02*
X152632192Y-126832811D01*
X152276109Y-127153287D02*
X152276109Y-126654770D01*
X152276109Y-126797203D02*
X152240500Y-126725986D01*
X152240500Y-126725986D02*
X152204892Y-126690378D01*
X152204892Y-126690378D02*
X152133675Y-126654770D01*
X152133675Y-126654770D02*
X152062458Y-126654770D01*
X151492724Y-127153287D02*
X151492724Y-126405511D01*
X151492724Y-127117679D02*
X151563941Y-127153287D01*
X151563941Y-127153287D02*
X151706374Y-127153287D01*
X151706374Y-127153287D02*
X151777591Y-127117679D01*
X151777591Y-127117679D02*
X151813200Y-127082070D01*
X151813200Y-127082070D02*
X151848808Y-127010853D01*
X151848808Y-127010853D02*
X151848808Y-126797203D01*
X151848808Y-126797203D02*
X151813200Y-126725986D01*
X151813200Y-126725986D02*
X151777591Y-126690378D01*
X151777591Y-126690378D02*
X151706374Y-126654770D01*
X151706374Y-126654770D02*
X151563941Y-126654770D01*
X151563941Y-126654770D02*
X151492724Y-126690378D01*
X150638123Y-126654770D02*
X150460081Y-127153287D01*
X150460081Y-127153287D02*
X150282040Y-126654770D01*
X149605480Y-127153287D02*
X150032781Y-127153287D01*
X149819131Y-127153287D02*
X149819131Y-126405511D01*
X149819131Y-126405511D02*
X149890347Y-126512336D01*
X149890347Y-126512336D02*
X149961564Y-126583553D01*
X149961564Y-126583553D02*
X150032781Y-126619161D01*
X149285005Y-127082070D02*
X149249396Y-127117679D01*
X149249396Y-127117679D02*
X149285005Y-127153287D01*
X149285005Y-127153287D02*
X149320613Y-127117679D01*
X149320613Y-127117679D02*
X149285005Y-127082070D01*
X149285005Y-127082070D02*
X149285005Y-127153287D01*
X148572837Y-126405511D02*
X148928921Y-126405511D01*
X148928921Y-126405511D02*
X148964529Y-126761595D01*
X148964529Y-126761595D02*
X148928921Y-126725986D01*
X148928921Y-126725986D02*
X148857704Y-126690378D01*
X148857704Y-126690378D02*
X148679662Y-126690378D01*
X148679662Y-126690378D02*
X148608445Y-126725986D01*
X148608445Y-126725986D02*
X148572837Y-126761595D01*
X148572837Y-126761595D02*
X148537228Y-126832811D01*
X148537228Y-126832811D02*
X148537228Y-127010853D01*
X148537228Y-127010853D02*
X148572837Y-127082070D01*
X148572837Y-127082070D02*
X148608445Y-127117679D01*
X148608445Y-127117679D02*
X148679662Y-127153287D01*
X148679662Y-127153287D02*
X148857704Y-127153287D01*
X148857704Y-127153287D02*
X148928921Y-127117679D01*
X148928921Y-127117679D02*
X148964529Y-127082070D01*
D11*
X146107180Y-110679048D02*
X145986234Y-110589339D01*
X145986234Y-110589339D02*
X145919913Y-110577645D01*
X145919913Y-110577645D02*
X145814586Y-110593264D01*
X145814586Y-110593264D02*
X145697564Y-110675204D01*
X145697564Y-110675204D02*
X145646863Y-110768837D01*
X145646863Y-110768837D02*
X145635169Y-110835158D01*
X145635169Y-110835158D02*
X145650788Y-110940485D01*
X145650788Y-110940485D02*
X145869293Y-111252543D01*
X145869293Y-111252543D02*
X146688445Y-110678967D01*
X146688445Y-110678967D02*
X146497253Y-110405916D01*
X146497253Y-110405916D02*
X146403619Y-110355215D01*
X146403619Y-110355215D02*
X146337299Y-110343521D01*
X146337299Y-110343521D02*
X146231971Y-110359140D01*
X146231971Y-110359140D02*
X146153957Y-110413766D01*
X146153957Y-110413766D02*
X146103255Y-110507400D01*
X146103255Y-110507400D02*
X146091561Y-110573720D01*
X146091561Y-110573720D02*
X146107180Y-110679048D01*
X146107180Y-110679048D02*
X146298373Y-110952098D01*
X146196808Y-109976836D02*
X145869050Y-109508750D01*
X145213777Y-110316369D02*
X146032929Y-109742793D01*
X144558261Y-109380196D02*
X144886019Y-109848282D01*
X144722140Y-109614239D02*
X145541292Y-109040663D01*
X145541292Y-109040663D02*
X145478897Y-109200617D01*
X145478897Y-109200617D02*
X145455508Y-109333257D01*
X145455508Y-109333257D02*
X145471128Y-109438585D01*
D10*
X146544047Y-121726109D02*
X146544047Y-121226109D01*
X146544047Y-121226109D02*
X146424999Y-121226109D01*
X146424999Y-121226109D02*
X146353571Y-121249919D01*
X146353571Y-121249919D02*
X146305952Y-121297538D01*
X146305952Y-121297538D02*
X146282142Y-121345157D01*
X146282142Y-121345157D02*
X146258333Y-121440395D01*
X146258333Y-121440395D02*
X146258333Y-121511823D01*
X146258333Y-121511823D02*
X146282142Y-121607061D01*
X146282142Y-121607061D02*
X146305952Y-121654680D01*
X146305952Y-121654680D02*
X146353571Y-121702300D01*
X146353571Y-121702300D02*
X146424999Y-121726109D01*
X146424999Y-121726109D02*
X146544047Y-121726109D01*
X146067856Y-121273728D02*
X146044047Y-121249919D01*
X146044047Y-121249919D02*
X145996428Y-121226109D01*
X145996428Y-121226109D02*
X145877380Y-121226109D01*
X145877380Y-121226109D02*
X145829761Y-121249919D01*
X145829761Y-121249919D02*
X145805952Y-121273728D01*
X145805952Y-121273728D02*
X145782142Y-121321347D01*
X145782142Y-121321347D02*
X145782142Y-121368966D01*
X145782142Y-121368966D02*
X145805952Y-121440395D01*
X145805952Y-121440395D02*
X146091666Y-121726109D01*
X146091666Y-121726109D02*
X145782142Y-121726109D01*
X150666665Y-117139204D02*
X150833332Y-117139204D01*
X150833332Y-117401109D02*
X150833332Y-116901109D01*
X150833332Y-116901109D02*
X150595237Y-116901109D01*
X150142856Y-117401109D02*
X150428570Y-117401109D01*
X150285713Y-117401109D02*
X150285713Y-116901109D01*
X150285713Y-116901109D02*
X150333332Y-116972538D01*
X150333332Y-116972538D02*
X150380951Y-117020157D01*
X150380951Y-117020157D02*
X150428570Y-117043966D01*
X153616665Y-121414204D02*
X153783332Y-121414204D01*
X153783332Y-121676109D02*
X153783332Y-121176109D01*
X153783332Y-121176109D02*
X153545237Y-121176109D01*
X153378570Y-121223728D02*
X153354761Y-121199919D01*
X153354761Y-121199919D02*
X153307142Y-121176109D01*
X153307142Y-121176109D02*
X153188094Y-121176109D01*
X153188094Y-121176109D02*
X153140475Y-121199919D01*
X153140475Y-121199919D02*
X153116666Y-121223728D01*
X153116666Y-121223728D02*
X153092856Y-121271347D01*
X153092856Y-121271347D02*
X153092856Y-121318966D01*
X153092856Y-121318966D02*
X153116666Y-121390395D01*
X153116666Y-121390395D02*
X153402380Y-121676109D01*
X153402380Y-121676109D02*
X153092856Y-121676109D01*
D12*
X141865914Y-121903903D02*
X141908489Y-122031629D01*
X141908489Y-122031629D02*
X141951065Y-122074204D01*
X141951065Y-122074204D02*
X142036215Y-122116780D01*
X142036215Y-122116780D02*
X142163941Y-122116780D01*
X142163941Y-122116780D02*
X142249091Y-122074204D01*
X142249091Y-122074204D02*
X142291667Y-122031629D01*
X142291667Y-122031629D02*
X142334242Y-121946479D01*
X142334242Y-121946479D02*
X142334242Y-121605877D01*
X142334242Y-121605877D02*
X141440162Y-121605877D01*
X141440162Y-121605877D02*
X141440162Y-121903903D01*
X141440162Y-121903903D02*
X141482737Y-121989054D01*
X141482737Y-121989054D02*
X141525312Y-122031629D01*
X141525312Y-122031629D02*
X141610463Y-122074204D01*
X141610463Y-122074204D02*
X141695613Y-122074204D01*
X141695613Y-122074204D02*
X141780764Y-122031629D01*
X141780764Y-122031629D02*
X141823339Y-121989054D01*
X141823339Y-121989054D02*
X141865914Y-121903903D01*
X141865914Y-121903903D02*
X141865914Y-121605877D01*
X141440162Y-122372231D02*
X141440162Y-122883134D01*
X142334242Y-122627682D02*
X141440162Y-122627682D01*
X141525312Y-123138585D02*
X141482737Y-123181161D01*
X141482737Y-123181161D02*
X141440162Y-123266311D01*
X141440162Y-123266311D02*
X141440162Y-123479187D01*
X141440162Y-123479187D02*
X141482737Y-123564338D01*
X141482737Y-123564338D02*
X141525312Y-123606913D01*
X141525312Y-123606913D02*
X141610463Y-123649488D01*
X141610463Y-123649488D02*
X141695613Y-123649488D01*
X141695613Y-123649488D02*
X141823339Y-123606913D01*
X141823339Y-123606913D02*
X142334242Y-123096010D01*
X142334242Y-123096010D02*
X142334242Y-123649488D01*
D11*
X158354819Y-123865476D02*
X159354819Y-124532142D01*
X158354819Y-124532142D02*
X159354819Y-123865476D01*
X158688152Y-125341666D02*
X159354819Y-125341666D01*
X158307200Y-125103571D02*
X159021485Y-124865476D01*
X159021485Y-124865476D02*
X159021485Y-125484523D01*
D10*
X148844047Y-116451109D02*
X148844047Y-115951109D01*
X148844047Y-115951109D02*
X148724999Y-115951109D01*
X148724999Y-115951109D02*
X148653571Y-115974919D01*
X148653571Y-115974919D02*
X148605952Y-116022538D01*
X148605952Y-116022538D02*
X148582142Y-116070157D01*
X148582142Y-116070157D02*
X148558333Y-116165395D01*
X148558333Y-116165395D02*
X148558333Y-116236823D01*
X148558333Y-116236823D02*
X148582142Y-116332061D01*
X148582142Y-116332061D02*
X148605952Y-116379680D01*
X148605952Y-116379680D02*
X148653571Y-116427300D01*
X148653571Y-116427300D02*
X148724999Y-116451109D01*
X148724999Y-116451109D02*
X148844047Y-116451109D01*
X148391666Y-115951109D02*
X148082142Y-115951109D01*
X148082142Y-115951109D02*
X148248809Y-116141585D01*
X148248809Y-116141585D02*
X148177380Y-116141585D01*
X148177380Y-116141585D02*
X148129761Y-116165395D01*
X148129761Y-116165395D02*
X148105952Y-116189204D01*
X148105952Y-116189204D02*
X148082142Y-116236823D01*
X148082142Y-116236823D02*
X148082142Y-116355871D01*
X148082142Y-116355871D02*
X148105952Y-116403490D01*
X148105952Y-116403490D02*
X148129761Y-116427300D01*
X148129761Y-116427300D02*
X148177380Y-116451109D01*
X148177380Y-116451109D02*
X148320237Y-116451109D01*
X148320237Y-116451109D02*
X148367856Y-116427300D01*
X148367856Y-116427300D02*
X148391666Y-116403490D01*
D13*
X135152883Y-92492565D02*
X138839067Y-89911471D01*
X135152883Y-92492565D02*
X148173068Y-111087316D01*
X136029965Y-90230379D02*
X137668269Y-89083226D01*
X137003622Y-87290184D02*
X138273308Y-86401141D01*
X137422694Y-90475955D02*
X136275541Y-88837651D01*
X138839067Y-89911471D02*
X137003622Y-87290184D01*
X143311093Y-82873645D02*
X142041408Y-83762689D01*
X145146538Y-85494932D02*
X143311093Y-82873645D01*
X147358248Y-83946276D02*
X145146538Y-85494932D01*
X148173068Y-111087316D02*
X151859252Y-108506222D01*
X149865160Y-84388312D02*
X147358248Y-83946276D01*
X151859252Y-108506222D02*
X153694697Y-111127509D01*
X153694697Y-111127509D02*
X154964382Y-110238465D01*
X158166723Y-104089683D02*
X160002168Y-106710970D01*
X160002168Y-106710970D02*
X158732482Y-107600013D01*
X161852907Y-101508589D02*
X149865160Y-84388312D01*
X161852907Y-101508589D02*
X158166723Y-104089683D01*
X143915000Y-117525000D02*
X149425000Y-117525000D01*
X143915000Y-120825000D02*
X143915000Y-117525000D01*
X143915000Y-120825000D02*
X149425000Y-120825000D01*
X152847936Y-115940000D02*
X154052064Y-115940000D01*
X152847936Y-117760000D02*
X154052064Y-117760000D01*
X152847936Y-118990000D02*
X154052064Y-118990000D01*
X152847936Y-120810000D02*
X154052064Y-120810000D01*
D14*
X142660000Y-83160000D02*
X142660000Y-126160000D01*
X142660000Y-126160000D02*
X160440000Y-126160000D01*
X151042000Y-84463000D02*
X151042000Y-83201000D01*
X151669000Y-83832000D02*
X150415000Y-83832000D01*
X153328000Y-125353000D02*
X153328000Y-124099000D01*
X160440000Y-83160000D02*
X142660000Y-83160000D01*
X160440000Y-126160000D02*
X160440000Y-83160000D01*
D13*
X156365000Y-112700000D02*
X156365000Y-123440000D01*
X156365000Y-112700000D02*
X162685000Y-112700000D01*
X156365000Y-123440000D02*
X162685000Y-123440000D01*
X156825000Y-112700000D02*
X156825000Y-123440000D01*
X162125000Y-112700000D02*
X162125000Y-123440000D01*
X162185000Y-112460000D02*
X162925000Y-112460000D01*
X162685000Y-112700000D02*
X162685000Y-123440000D01*
X162925000Y-112460000D02*
X162925000Y-112960000D01*
X146765000Y-112325000D02*
X152275000Y-112325000D01*
X146765000Y-115625000D02*
X146765000Y-112325000D01*
X146765000Y-115625000D02*
X152275000Y-115625000D01*
%LPC*%
D15*
X143125000Y-125450000D03*
D16*
X159550000Y-85425000D03*
D17*
X157550000Y-85425000D03*
D15*
X136750000Y-102350000D03*
D18*
X139290000Y-102350000D03*
X136750000Y-104890000D03*
X139290000Y-104890000D03*
X136750000Y-107430000D03*
X139290000Y-107430000D03*
X136750000Y-109970000D03*
X139290000Y-109970000D03*
X136750000Y-112510000D03*
X139290000Y-112510000D03*
X136750000Y-115050000D03*
X139290000Y-115050000D03*
X136750000Y-117590000D03*
X139290000Y-117590000D03*
X136750000Y-120130000D03*
X139290000Y-120130000D03*
X136750000Y-122670000D03*
X139290000Y-122670000D03*
X136750000Y-125210000D03*
X139290000Y-125210000D03*
D19*
X140100000Y-85000000D03*
X156905790Y-109001154D03*
D20*
X145425000Y-119175000D03*
X149425000Y-119175000D03*
D21*
X151962500Y-116850000D03*
X154937500Y-116850000D03*
X151962500Y-119900000D03*
X154937500Y-119900000D03*
D22*
X151550000Y-85675000D03*
X151550000Y-123645000D03*
D23*
X159525000Y-114260000D03*
D24*
X159525000Y-116800000D03*
X159525000Y-119340000D03*
X159525000Y-121880000D03*
D20*
X148275000Y-113975000D03*
X152275000Y-113975000D03*
%LPD*%
M02*
