G04 #@! TF.GenerationSoftware,KiCad,Pcbnew,8.0.9-8.0.9-0~ubuntu24.04.1*
G04 #@! TF.CreationDate,2025-10-19T20:56:50+02:00*
G04 #@! TF.ProjectId,MySMotherboard,4d79534d-6f74-4686-9572-626f6172642e,1.4*
G04 #@! TF.SameCoordinates,Original*
G04 #@! TF.FileFunction,Copper,L2,Bot*
G04 #@! TF.FilePolarity,Positive*
%FSLAX46Y46*%
G04 Gerber Fmt 4.6, Leading zero omitted, Abs format (unit mm)*
G04 Created by KiCad (PCBNEW 8.0.9-8.0.9-0~ubuntu24.04.1) date 2025-10-19 20:56:50*
%MOMM*%
%LPD*%
G01*
G04 APERTURE LIST*
G04 Aperture macros list*
%AMRoundRect*
0 Rectangle with rounded corners*
0 $1 Rounding radius*
0 $2 $3 $4 $5 $6 $7 $8 $9 X,Y pos of 4 corners*
0 Add a 4 corners polygon primitive as box body*
4,1,4,$2,$3,$4,$5,$6,$7,$8,$9,$2,$3,0*
0 Add four circle primitives for the rounded corners*
1,1,$1+$1,$2,$3*
1,1,$1+$1,$4,$5*
1,1,$1+$1,$6,$7*
1,1,$1+$1,$8,$9*
0 Add four rect primitives between the rounded corners*
20,1,$1+$1,$2,$3,$4,$5,0*
20,1,$1+$1,$4,$5,$6,$7,0*
20,1,$1+$1,$6,$7,$8,$9,0*
20,1,$1+$1,$8,$9,$2,$3,0*%
%AMRotRect*
0 Rectangle, with rotation*
0 The origin of the aperture is its center*
0 $1 length*
0 $2 width*
0 $3 Rotation angle, in degrees counterclockwise*
0 Add horizontal line*
21,1,$1,$2,0,0,$3*%
G04 Aperture macros list end*
G04 #@! TA.AperFunction,ComponentPad*
%ADD10R,1.700000X1.700000*%
G04 #@! TD*
G04 #@! TA.AperFunction,ComponentPad*
%ADD11RoundRect,0.250000X0.350000X0.625000X-0.350000X0.625000X-0.350000X-0.625000X0.350000X-0.625000X0*%
G04 #@! TD*
G04 #@! TA.AperFunction,ComponentPad*
%ADD12O,1.200000X1.750000*%
G04 #@! TD*
G04 #@! TA.AperFunction,ComponentPad*
%ADD13O,1.700000X1.700000*%
G04 #@! TD*
G04 #@! TA.AperFunction,SMDPad,CuDef*
%ADD14RotRect,2.600000X3.600000X125.000000*%
G04 #@! TD*
G04 #@! TA.AperFunction,SMDPad,CuDef*
%ADD15RoundRect,0.250000X-1.000000X-0.650000X1.000000X-0.650000X1.000000X0.650000X-1.000000X0.650000X0*%
G04 #@! TD*
G04 #@! TA.AperFunction,SMDPad,CuDef*
%ADD16RoundRect,0.250001X-0.462499X-0.624999X0.462499X-0.624999X0.462499X0.624999X-0.462499X0.624999X0*%
G04 #@! TD*
G04 #@! TA.AperFunction,ComponentPad*
%ADD17C,2.205000*%
G04 #@! TD*
G04 #@! TA.AperFunction,ComponentPad*
%ADD18R,2.200000X2.200000*%
G04 #@! TD*
G04 #@! TA.AperFunction,ComponentPad*
%ADD19C,2.200000*%
G04 #@! TD*
G04 #@! TA.AperFunction,ViaPad*
%ADD20C,0.762000*%
G04 #@! TD*
G04 #@! TA.AperFunction,ViaPad*
%ADD21C,0.800000*%
G04 #@! TD*
G04 #@! TA.AperFunction,ViaPad*
%ADD22C,0.600000*%
G04 #@! TD*
G04 #@! TA.AperFunction,Conductor*
%ADD23C,0.406400*%
G04 #@! TD*
G04 #@! TA.AperFunction,Conductor*
%ADD24C,0.400000*%
G04 #@! TD*
G04 #@! TA.AperFunction,Conductor*
%ADD25C,0.203200*%
G04 #@! TD*
G04 #@! TA.AperFunction,Conductor*
%ADD26C,0.200000*%
G04 #@! TD*
G04 APERTURE END LIST*
D10*
X143125000Y-125450000D03*
D11*
X159550000Y-85425000D03*
D12*
X157550000Y-85425000D03*
D10*
X136750000Y-102350000D03*
D13*
X139290000Y-102350000D03*
X136750000Y-104890000D03*
X139290000Y-104890000D03*
X136750000Y-107430000D03*
X139290000Y-107430000D03*
X136750000Y-109970000D03*
X139290000Y-109970000D03*
X136750000Y-112510000D03*
X139290000Y-112510000D03*
X136750000Y-115050000D03*
X139290000Y-115050000D03*
X136750000Y-117590000D03*
X139290000Y-117590000D03*
X136750000Y-120130000D03*
X139290000Y-120130000D03*
X136750000Y-122670000D03*
X139290000Y-122670000D03*
X136750000Y-125210000D03*
X139290000Y-125210000D03*
D14*
X140100000Y-85000000D03*
X156905790Y-109001154D03*
D15*
X145425000Y-119175000D03*
X149425000Y-119175000D03*
D16*
X151962500Y-116850000D03*
X154937500Y-116850000D03*
X151962500Y-119900000D03*
X154937500Y-119900000D03*
D17*
X151550000Y-85675000D03*
X151550000Y-123645000D03*
D18*
X159525000Y-114260000D03*
D19*
X159525000Y-116800000D03*
X159525000Y-119340000D03*
X159525000Y-121880000D03*
D15*
X148275000Y-113975000D03*
X152275000Y-113975000D03*
D20*
X145356581Y-94818579D03*
D21*
X154700000Y-110375000D03*
D20*
X161015567Y-109635526D03*
D21*
X141250000Y-88850000D03*
X154325000Y-86725000D03*
D20*
X145803621Y-98720019D03*
X157528262Y-83256500D03*
D21*
X158110300Y-110935300D03*
D20*
X157914340Y-101788341D03*
X149450000Y-124275000D03*
D21*
X150275000Y-88550000D03*
D20*
X142166340Y-97074100D03*
X160982662Y-89725000D03*
X145051781Y-124404500D03*
X160982659Y-99918900D03*
X157182821Y-104978579D03*
X145756400Y-111131224D03*
X155536900Y-93822900D03*
D21*
X150450000Y-110850000D03*
D20*
X148900000Y-92949141D03*
X153626821Y-93457141D03*
D22*
X154725000Y-114150000D03*
D21*
X149847600Y-112727400D03*
X147250000Y-88300000D03*
D20*
X155801062Y-86670260D03*
X152123143Y-83967700D03*
X141902181Y-93457141D03*
X159174181Y-90592019D03*
X157365700Y-96789619D03*
X151716740Y-103515541D03*
X155780740Y-95245300D03*
D22*
X142025000Y-120825000D03*
D20*
X146210021Y-103292019D03*
X149684740Y-100467541D03*
X145141598Y-107428527D03*
D22*
X140900000Y-122025000D03*
X140950000Y-120125000D03*
D20*
X153708100Y-96505141D03*
X145722340Y-104287700D03*
D22*
X143975000Y-120550000D03*
D20*
X145681700Y-101300660D03*
X154764740Y-95204660D03*
D22*
X152425000Y-106000000D03*
X154450000Y-97850000D03*
D20*
X155569861Y-97135862D03*
D22*
X154077400Y-104725000D03*
D20*
X140235940Y-101138100D03*
X139077700Y-99471860D03*
X141597381Y-112029619D03*
X158097218Y-99939219D03*
X157365700Y-98354260D03*
X141109700Y-113187860D03*
X156390340Y-98354260D03*
X140967459Y-119121300D03*
X153017218Y-99207700D03*
D22*
X148950000Y-117650000D03*
X143000000Y-105925000D03*
X144175000Y-112475000D03*
D20*
X147998181Y-97480500D03*
X147469859Y-98333941D03*
D22*
X140825000Y-107150000D03*
X140650000Y-108850000D03*
X148600000Y-120825000D03*
X143025000Y-112275000D03*
D20*
X138569700Y-106075860D03*
X139951459Y-94757619D03*
X143873218Y-104775379D03*
X144421862Y-96728660D03*
X151700000Y-93685741D03*
X142850000Y-114525000D03*
X151554181Y-95712660D03*
X145791495Y-115992390D03*
X144458400Y-115179219D03*
X151554181Y-94737300D03*
X150721062Y-101117779D03*
X140784581Y-103759379D03*
X139098021Y-98496500D03*
X142355272Y-106805273D03*
D22*
X153075000Y-120975000D03*
X153275000Y-117475000D03*
X143650000Y-111425000D03*
X158075000Y-105625000D03*
D23*
X160982659Y-99918900D02*
X160982662Y-99918903D01*
D24*
X139290000Y-104890000D02*
X141346240Y-104890000D01*
X149895000Y-123645000D02*
X151550000Y-123645000D01*
X148275000Y-115176166D02*
X151573834Y-118475000D01*
X158110300Y-110935300D02*
X158110300Y-110205664D01*
X158110300Y-110205664D02*
X156905790Y-109001154D01*
D23*
X141597381Y-102540179D02*
X142613381Y-101524179D01*
X161028200Y-112802338D02*
X161028200Y-122621800D01*
X160982662Y-109668431D02*
X160982662Y-112756800D01*
X154125000Y-123850000D02*
X151639100Y-123850000D01*
D24*
X141250000Y-88850000D02*
X145635945Y-88850000D01*
D23*
X139362181Y-105080179D02*
X139298540Y-104887700D01*
X157914340Y-101788341D02*
X158259781Y-102133779D01*
D24*
X154700000Y-110375000D02*
X155531944Y-110375000D01*
D23*
X157284421Y-104795700D02*
X157182821Y-104978579D01*
X160982662Y-99918903D02*
X160982662Y-109602621D01*
D25*
X143243300Y-97439860D02*
X143141700Y-97622741D01*
X143243300Y-96931860D02*
X143243300Y-97439860D01*
D23*
X142714981Y-97622741D02*
X143141700Y-97622741D01*
D24*
X151573834Y-118475000D02*
X152575000Y-118475000D01*
D23*
X158259781Y-103820341D02*
X157284421Y-104795700D01*
X149320500Y-124404500D02*
X149450000Y-124275000D01*
D24*
X155531944Y-110375000D02*
X156905790Y-109001154D01*
D23*
X160982662Y-89725000D02*
X160982662Y-91775000D01*
D24*
X146938345Y-87547600D02*
X149272600Y-87547600D01*
D23*
X161028200Y-122621800D02*
X159800000Y-123850000D01*
D24*
X149272600Y-87547600D02*
X150275000Y-88550000D01*
D23*
X142613381Y-98902900D02*
X142613381Y-97805619D01*
D24*
X141346240Y-104890000D02*
X141597381Y-104638859D01*
D23*
X159800000Y-123850000D02*
X154125000Y-123850000D01*
D24*
X145425000Y-119175000D02*
X149895000Y-123645000D01*
D23*
X145803621Y-98720019D02*
X145620740Y-98902900D01*
X160982662Y-112756800D02*
X161028200Y-112802338D01*
X142166340Y-97074100D02*
X142714981Y-97622741D01*
X145620740Y-98902900D02*
X142613381Y-98902900D01*
X160982662Y-98862260D02*
X160982662Y-91775000D01*
D25*
X145356581Y-94818579D02*
X143243300Y-96931860D01*
D24*
X160957662Y-91800000D02*
X160982662Y-91775000D01*
D23*
X157528262Y-83256500D02*
X157528262Y-85369779D01*
D24*
X154325000Y-86725000D02*
X152500000Y-88550000D01*
D23*
X142613381Y-101524179D02*
X142613381Y-98902900D01*
X157528262Y-85369779D02*
X157527700Y-85371100D01*
X139301218Y-104876979D02*
X139298540Y-104887700D01*
X160982659Y-99918900D02*
X160982659Y-98862260D01*
X145051781Y-124404500D02*
X149320500Y-124404500D01*
X141597381Y-103860979D02*
X141597381Y-102540179D01*
X151639100Y-123850000D02*
X151277700Y-123488600D01*
X160982662Y-109602621D02*
X161015567Y-109635526D01*
X161015567Y-109635526D02*
X160982662Y-109668431D01*
D24*
X141597381Y-104638859D02*
X141597381Y-103860979D01*
X153825000Y-119725000D02*
X153825000Y-123550000D01*
X152575000Y-118475000D02*
X153825000Y-119725000D01*
X152500000Y-88550000D02*
X150275000Y-88550000D01*
X153825000Y-123550000D02*
X154125000Y-123850000D01*
D23*
X142613381Y-97805619D02*
X142714981Y-97622741D01*
X158259781Y-102133779D02*
X158259781Y-103820341D01*
D24*
X148275000Y-113975000D02*
X148275000Y-115176166D01*
D23*
X160982659Y-98862260D02*
X160982662Y-98862260D01*
D24*
X145635945Y-88850000D02*
X146938345Y-87547600D01*
D23*
X152570181Y-92949141D02*
X152753062Y-93050741D01*
X158889700Y-105985300D02*
X158889700Y-97175700D01*
X148900000Y-92949141D02*
X152570181Y-92949141D01*
X151458394Y-109850000D02*
X154153194Y-107155200D01*
X153159462Y-93457141D02*
X153626821Y-93457141D01*
X148511562Y-109850000D02*
X150450000Y-109850000D01*
D24*
X150450000Y-110850000D02*
X150450000Y-109850000D01*
D23*
X156010552Y-106475000D02*
X158400000Y-106475000D01*
X155330352Y-107155200D02*
X156010552Y-106475000D01*
X158889700Y-97175700D02*
X155536900Y-93822900D01*
X158400000Y-106475000D02*
X158889700Y-105985300D01*
X150450000Y-109850000D02*
X151458394Y-109850000D01*
X154153194Y-107155200D02*
X155330352Y-107155200D01*
X152753062Y-93050741D02*
X153159462Y-93457141D01*
X145756400Y-111131224D02*
X147230338Y-111131224D01*
X147230338Y-111131224D02*
X148511562Y-109850000D01*
X150355300Y-83073619D02*
X151290021Y-84008341D01*
D24*
X160273340Y-101726660D02*
X160275000Y-101725000D01*
X154725000Y-112502000D02*
X150073000Y-112502000D01*
D23*
X140114021Y-84983700D02*
X140096887Y-84992244D01*
D24*
X160249259Y-86124259D02*
X159550000Y-85425000D01*
D23*
X141719300Y-83256500D02*
X140114021Y-84861779D01*
X151290021Y-85512019D02*
X151277700Y-85518600D01*
X141820900Y-83073619D02*
X150355300Y-83073619D01*
D24*
X160273340Y-111251660D02*
X160273340Y-101726660D01*
X160275000Y-101725000D02*
X160249259Y-101699259D01*
X150073000Y-112502000D02*
X149847600Y-112727400D01*
D23*
X151290021Y-84008341D02*
X151290021Y-85512019D01*
D24*
X159023000Y-112502000D02*
X160273340Y-111251660D01*
D23*
X140114021Y-84861779D02*
X140114021Y-84983700D01*
D24*
X160249259Y-101699259D02*
X160249259Y-86124259D01*
X154725000Y-112502000D02*
X159023000Y-112502000D01*
D23*
X141719300Y-83256500D02*
X141820900Y-83073619D01*
D26*
X154725000Y-114150000D02*
X154725000Y-112502000D01*
D23*
X147510500Y-89982419D02*
X147286981Y-89758900D01*
D24*
X147250000Y-88300000D02*
X147250000Y-89721919D01*
X147250000Y-89721919D02*
X147286981Y-89758900D01*
D23*
X155801062Y-86670260D02*
X152488900Y-89982419D01*
X152488900Y-89982419D02*
X147510500Y-89982419D01*
X148628100Y-85959060D02*
X146961862Y-85959060D01*
D24*
X153052500Y-84897057D02*
X153052500Y-86297356D01*
X152172356Y-87177500D02*
X149846540Y-87177500D01*
X153052500Y-86297356D02*
X152172356Y-87177500D01*
X152123143Y-83967700D02*
X153052500Y-84897057D01*
D23*
X146961862Y-85959060D02*
X145600421Y-87320500D01*
X145315940Y-87523700D02*
X136009381Y-87523700D01*
X145417540Y-87422100D02*
X145315940Y-87523700D01*
X145417540Y-87422100D02*
X145600421Y-87320500D01*
X136740900Y-102336979D02*
X136758540Y-102347700D01*
X136009381Y-101605460D02*
X136009381Y-87523700D01*
X149745700Y-87076660D02*
X148628100Y-85959060D01*
X136740900Y-102336979D02*
X136009381Y-101605460D01*
D24*
X149846540Y-87177500D02*
X149745700Y-87076660D01*
D23*
X152123140Y-83967700D02*
X152123143Y-83967700D01*
D24*
X159150000Y-90616200D02*
X159174181Y-90592019D01*
X159250000Y-90516200D02*
X159174181Y-90592019D01*
D23*
X159174181Y-90592019D02*
X149705062Y-90592019D01*
X146839940Y-93457141D02*
X141902181Y-93457141D01*
X149705062Y-90592019D02*
X146839940Y-93457141D01*
D25*
X151716740Y-99512500D02*
X154906981Y-96322260D01*
X151716740Y-103515541D02*
X151716740Y-99512500D01*
X154906981Y-96322260D02*
X156898340Y-96322260D01*
X156898340Y-96322260D02*
X157365700Y-96789619D01*
X155780740Y-95895541D02*
X154480259Y-95895541D01*
X149481540Y-99695379D02*
X148221700Y-100955219D01*
X155780740Y-95895541D02*
X155780740Y-95245300D01*
D26*
X142025000Y-121720244D02*
X141075244Y-122670000D01*
D25*
X147774662Y-101016179D02*
X146758662Y-102032179D01*
X153200100Y-95631379D02*
X149481540Y-99349941D01*
X146758662Y-102032179D02*
X146758662Y-102113460D01*
X149481540Y-99349941D02*
X149481540Y-99695379D01*
X146758662Y-102113460D02*
X146210021Y-102662100D01*
X154216100Y-95631379D02*
X153200100Y-95631379D01*
X148140421Y-101016179D02*
X148221700Y-100955219D01*
D26*
X142025000Y-120825000D02*
X142025000Y-121720244D01*
D25*
X146210021Y-102662100D02*
X146210021Y-103292019D01*
X148140421Y-101016179D02*
X147774662Y-101016179D01*
X154480259Y-95895541D02*
X154216100Y-95631379D01*
D26*
X141075244Y-122670000D02*
X139290000Y-122670000D01*
D25*
X149491700Y-100274500D02*
X152001218Y-97764979D01*
X148628100Y-104978579D02*
X148628100Y-101138100D01*
X145234662Y-106136819D02*
X145295618Y-106055541D01*
X152082500Y-97704019D02*
X153281381Y-96505141D01*
X147551140Y-106055541D02*
X148628100Y-104978579D01*
X148628100Y-101138100D02*
X149491700Y-100274500D01*
X145141598Y-107428527D02*
X145234662Y-107335463D01*
X145234662Y-107335463D02*
X145234662Y-106136819D01*
X149562821Y-100345619D02*
X149491700Y-100274500D01*
X152082500Y-97704019D02*
X152001218Y-97764979D01*
D26*
X140395000Y-121520000D02*
X137900000Y-121520000D01*
D25*
X145295618Y-106055541D02*
X147551140Y-106055541D01*
X153281381Y-96505141D02*
X153708100Y-96505141D01*
X149684740Y-100467541D02*
X149562821Y-100345619D01*
D26*
X137900000Y-121520000D02*
X136750000Y-122670000D01*
X140900000Y-122025000D02*
X140395000Y-121520000D01*
X140950000Y-120125000D02*
X140950000Y-121975000D01*
X140950000Y-121975000D02*
X140900000Y-122025000D01*
D25*
X145803621Y-102723060D02*
X145803621Y-102479219D01*
X145519140Y-103007541D02*
X145803621Y-102723060D01*
X153037540Y-95204660D02*
X149075140Y-99167060D01*
X147977859Y-100609779D02*
X147591781Y-100609779D01*
D26*
X139766346Y-126360000D02*
X137900000Y-126360000D01*
D25*
X146392900Y-101849300D02*
X146433540Y-101768019D01*
X145681700Y-101300660D02*
X145966181Y-101300660D01*
X145966181Y-101300660D02*
X146433540Y-101768019D01*
X145519140Y-104084500D02*
X145519140Y-103007541D01*
X146331940Y-101930579D02*
X146392900Y-101849300D01*
X149075140Y-99512500D02*
X147977859Y-100609779D01*
D26*
X143975000Y-122151346D02*
X139766346Y-126360000D01*
D25*
X146331940Y-101950900D02*
X146331940Y-101930579D01*
D26*
X143975000Y-120550000D02*
X143975000Y-122151346D01*
D25*
X154764740Y-95204660D02*
X153037540Y-95204660D01*
X145803621Y-102479219D02*
X146331940Y-101950900D01*
X147591781Y-100609779D02*
X146433540Y-101768019D01*
X149075140Y-99167060D02*
X149075140Y-99512500D01*
D26*
X137900000Y-126360000D02*
X136750000Y-125210000D01*
D25*
X145722340Y-104287700D02*
X145519140Y-104084500D01*
D26*
X152425000Y-106000000D02*
X152425000Y-105375000D01*
X154450000Y-103350000D02*
X154450000Y-97850000D01*
X152425000Y-105375000D02*
X154450000Y-103350000D01*
X155125000Y-103677400D02*
X154077400Y-104725000D01*
X155569861Y-97135862D02*
X155125000Y-97580723D01*
X155125000Y-97580723D02*
X155125000Y-103677400D01*
D25*
X140235940Y-101138100D02*
X139077700Y-99979860D01*
X139077700Y-99979860D02*
X139077700Y-99471860D01*
X157995621Y-100691060D02*
X158097218Y-100650419D01*
D26*
X151252158Y-108925000D02*
X146937200Y-108925000D01*
D25*
X145823940Y-110038260D02*
X145397221Y-110038260D01*
D26*
X153926079Y-106251079D02*
X151252158Y-108925000D01*
D25*
X145397221Y-110038260D02*
X145234662Y-110200819D01*
X142694662Y-110891700D02*
X141597381Y-111988979D01*
X156491940Y-102215060D02*
X157934662Y-100772341D01*
X141597381Y-111988979D02*
X141597381Y-112029619D01*
X144604740Y-110810419D02*
X145153381Y-110261779D01*
X146921221Y-108940979D02*
X145823940Y-110038260D01*
D26*
X155163631Y-106251079D02*
X153926079Y-106251079D01*
D25*
X142755621Y-110810419D02*
X144604740Y-110810419D01*
D26*
X156491940Y-102215060D02*
X156491940Y-104922770D01*
X146937200Y-108925000D02*
X146921221Y-108940979D01*
D25*
X157934662Y-100772341D02*
X157995621Y-100691060D01*
X142694662Y-110891700D02*
X142755621Y-110810419D01*
X145234662Y-110200819D02*
X145153381Y-110261779D01*
X158097218Y-99939219D02*
X158097218Y-100650419D01*
D26*
X156491940Y-104922770D02*
X155163631Y-106251079D01*
D25*
X142674340Y-110404019D02*
X144401540Y-110404019D01*
D26*
X155069540Y-105880460D02*
X153834250Y-105880460D01*
X151180131Y-108534579D02*
X146738340Y-108534579D01*
D25*
X156105859Y-99614100D02*
X157365700Y-98354260D01*
D26*
X153834250Y-105880460D02*
X151180131Y-108534579D01*
D25*
X141617700Y-111338741D02*
X142593059Y-110363379D01*
X155069540Y-105880460D02*
X156105859Y-104844141D01*
X144848581Y-109977300D02*
X144990818Y-109835060D01*
X144401540Y-110404019D02*
X144767300Y-110038260D01*
X144767300Y-110038260D02*
X144848581Y-109977300D01*
X156105859Y-104844141D02*
X156105859Y-99614100D01*
X145722340Y-109550579D02*
X146738340Y-108534579D01*
X141109700Y-111338741D02*
X141617700Y-111338741D01*
X144990818Y-109835060D02*
X145072100Y-109774100D01*
X145295621Y-109550579D02*
X145722340Y-109550579D01*
X141109700Y-113187860D02*
X140825221Y-112903379D01*
X142593059Y-110363379D02*
X142674340Y-110404019D01*
X140825221Y-112903379D02*
X140825221Y-111623219D01*
X145072100Y-109774100D02*
X145295621Y-109550579D01*
X140825221Y-111623219D02*
X141109700Y-111338741D01*
X155679140Y-99451541D02*
X155679140Y-100548819D01*
X155679140Y-100548819D02*
X155618181Y-100630100D01*
X145539462Y-109144179D02*
X143405862Y-109144179D01*
X155618181Y-100630100D02*
X155618181Y-100873941D01*
X155658821Y-100955219D02*
X155658821Y-104766179D01*
X140500000Y-118653841D02*
X140967459Y-119121300D01*
X140474700Y-113450886D02*
X140500000Y-113476186D01*
X142471140Y-109388019D02*
X140474700Y-111384459D01*
X153750000Y-105500000D02*
X151121821Y-108128179D01*
X155618181Y-100873941D02*
X155658821Y-100955219D01*
X151121821Y-108128179D02*
X146555462Y-108128179D01*
X156390340Y-98354260D02*
X156390340Y-98740341D01*
X140474700Y-111384459D02*
X140474700Y-113450886D01*
X154925000Y-105500000D02*
X153750000Y-105500000D01*
X140500000Y-113476186D02*
X140500000Y-118653841D01*
X143405862Y-109144179D02*
X143162021Y-109388019D01*
X156390340Y-98740341D02*
X155679140Y-99451541D01*
X143162021Y-109388019D02*
X142471140Y-109388019D01*
X155658821Y-104766179D02*
X154925000Y-105500000D01*
X146555462Y-108128179D02*
X145539462Y-109144179D01*
X141435206Y-109956979D02*
X142430885Y-108961300D01*
X139504421Y-109956979D02*
X141435206Y-109956979D01*
X153464262Y-101605460D02*
X153078181Y-101219379D01*
X153078181Y-101219379D02*
X153017218Y-101138100D01*
X139301218Y-109956979D02*
X139298540Y-109967700D01*
X147876259Y-106908979D02*
X149725381Y-105059860D01*
X149725381Y-105059860D02*
X149725381Y-104490900D01*
X147104100Y-106990260D02*
X147205700Y-106990260D01*
X139298540Y-109967700D02*
X139504421Y-109956979D01*
X153017218Y-101138100D02*
X153017218Y-99207700D01*
X142430885Y-108961300D02*
X142999459Y-108961300D01*
X149725381Y-104490900D02*
X150009859Y-104206419D01*
X153078181Y-104206419D02*
X153464262Y-103820341D01*
X145356581Y-108737779D02*
X147104100Y-106990260D01*
X153464262Y-103820341D02*
X153464262Y-101605460D01*
X139402818Y-109956979D02*
X139298540Y-109967700D01*
X142999459Y-108961300D02*
X143222981Y-108737779D01*
X143222981Y-108737779D02*
X145356581Y-108737779D01*
X150009859Y-104206419D02*
X153078181Y-104206419D01*
X147205700Y-106990260D02*
X147266659Y-106908979D01*
X147266659Y-106908979D02*
X147876259Y-106908979D01*
D26*
X145466277Y-117275000D02*
X143825000Y-115633723D01*
D25*
X147652740Y-99756341D02*
X148262340Y-99146741D01*
D26*
X148950000Y-117650000D02*
X148575000Y-117275000D01*
D25*
X139301218Y-107416979D02*
X139298540Y-107427700D01*
X140256262Y-106441619D02*
X141820900Y-106441619D01*
X144015462Y-102174419D02*
X144015459Y-102276019D01*
X148262340Y-97744660D02*
X147998181Y-97480500D01*
X147266659Y-99756341D02*
X147652740Y-99756341D01*
D26*
X148575000Y-117275000D02*
X145466277Y-117275000D01*
X143825000Y-115633723D02*
X143825000Y-112825000D01*
X148950000Y-117850000D02*
X148925000Y-117875000D01*
D25*
X139362181Y-107335700D02*
X139298540Y-107427700D01*
X147165062Y-99796979D02*
X147266659Y-99756341D01*
X143446500Y-104226741D02*
X143446500Y-102844979D01*
X148262340Y-99146741D02*
X148262340Y-97744660D01*
X141820900Y-106441619D02*
X142613381Y-105649141D01*
X142613381Y-105059860D02*
X143446500Y-104226741D01*
D26*
X143825000Y-112825000D02*
X144175000Y-112475000D01*
D25*
X143934181Y-102336979D02*
X144015459Y-102276019D01*
X144015462Y-102174419D02*
X144015462Y-101260019D01*
D26*
X148950000Y-117650000D02*
X148950000Y-117850000D01*
X143000000Y-105925000D02*
X142889240Y-105925000D01*
D25*
X147144740Y-99817300D02*
X147165062Y-99796979D01*
D26*
X142889240Y-105925000D02*
X142613381Y-105649141D01*
D25*
X143446500Y-102844979D02*
X143934181Y-102357300D01*
X143934181Y-102357300D02*
X143934181Y-102336979D01*
X144015462Y-101260019D02*
X145458181Y-99817300D01*
X139362181Y-107335700D02*
X140256262Y-106441619D01*
X145458181Y-99817300D02*
X147144740Y-99817300D01*
X142613381Y-105649141D02*
X142613381Y-105059860D01*
X139707621Y-106014900D02*
X139626340Y-106075860D01*
D26*
X140650000Y-107325000D02*
X140825000Y-107150000D01*
X143483400Y-115754571D02*
X145703829Y-117975000D01*
X143483400Y-112733400D02*
X143483400Y-115754571D01*
D25*
X143609062Y-101077141D02*
X145275300Y-99410900D01*
D26*
X140650000Y-108850000D02*
X140650000Y-107325000D01*
D25*
X143609062Y-101320979D02*
X143609062Y-101077141D01*
X147469859Y-98333941D02*
X147469859Y-98963860D01*
X143141700Y-101788341D02*
X143060421Y-101849300D01*
X142186662Y-104795700D02*
X142186662Y-103739060D01*
X142206981Y-104816019D02*
X142186662Y-104795700D01*
X138569700Y-106075860D02*
X139626340Y-106075860D01*
X139707621Y-106014900D02*
X141658340Y-106014900D01*
X146961862Y-99410900D02*
X147368262Y-99004500D01*
D26*
X147450000Y-118765256D02*
X147450000Y-119675000D01*
X145703829Y-117975000D02*
X146659744Y-117975000D01*
X146659744Y-117975000D02*
X147450000Y-118765256D01*
D25*
X143141700Y-101788341D02*
X143609062Y-101320979D01*
X147368262Y-99004500D02*
X147469859Y-98963860D01*
D26*
X143025000Y-112275000D02*
X143483400Y-112733400D01*
X147450000Y-119675000D02*
X148600000Y-120825000D01*
D25*
X145275300Y-99410900D02*
X146961862Y-99410900D01*
X142206981Y-105466260D02*
X142206981Y-104816019D01*
X142125700Y-103657779D02*
X142125700Y-102784019D01*
X142125700Y-102784019D02*
X143060421Y-101849300D01*
X142125700Y-103657779D02*
X142186662Y-103739060D01*
X141658340Y-106014900D02*
X142206981Y-105466260D01*
X137901600Y-103598400D02*
X138100000Y-103400000D01*
X137901600Y-107907009D02*
X137901600Y-103598400D01*
X136801859Y-109875697D02*
X137878818Y-108798738D01*
X137878818Y-108798738D02*
X137878818Y-107929791D01*
X137878818Y-107929791D02*
X137901600Y-107907009D01*
X136758540Y-109967700D02*
X136801859Y-109875697D01*
X138100000Y-96609078D02*
X139951459Y-94757619D01*
X138100000Y-103400000D02*
X138100000Y-96609078D01*
X149826981Y-93477460D02*
X148993862Y-94310579D01*
X144279621Y-102621460D02*
X144198340Y-102682419D01*
X147327621Y-100223700D02*
X147429218Y-100183060D01*
X148282662Y-96647379D02*
X148221700Y-96728660D01*
X145641062Y-100223700D02*
X147327621Y-100223700D01*
X144442181Y-101422579D02*
X145641062Y-100223700D01*
X148689062Y-98902900D02*
X148668740Y-98984179D01*
X140142300Y-125207700D02*
X139298540Y-125207700D01*
X142850000Y-114525000D02*
X142675000Y-114700000D01*
X142675000Y-122675000D02*
X140142300Y-125207700D01*
X144198340Y-102682419D02*
X143873218Y-103007541D01*
X142675000Y-114700000D02*
X142675000Y-122675000D01*
X148668740Y-99329619D02*
X147815300Y-100183060D01*
X144442181Y-102458900D02*
X144442181Y-101422579D01*
X148689062Y-98902900D02*
X148689062Y-97175700D01*
X148689062Y-97175700D02*
X148302981Y-96789619D01*
X144421862Y-96728660D02*
X148221700Y-96728660D01*
X147815300Y-100183060D02*
X147429218Y-100183060D01*
X151491719Y-93477460D02*
X149826981Y-93477460D01*
X148993862Y-94310579D02*
X148932900Y-94391860D01*
X143873218Y-103007541D02*
X143873218Y-104775379D01*
X148932900Y-94391860D02*
X148282662Y-95042100D01*
X148302981Y-96789619D02*
X148221700Y-96728660D01*
X148668740Y-98984179D02*
X148668740Y-99329619D01*
X144279621Y-102621460D02*
X144442181Y-102458900D01*
X148282662Y-95042100D02*
X148282662Y-96647379D01*
X151700000Y-93685741D02*
X151491719Y-93477460D01*
X159377381Y-106604179D02*
X159397700Y-106685460D01*
X155252421Y-93132019D02*
X155821381Y-93132019D01*
X156288740Y-93863541D02*
X158666181Y-96240979D01*
X154785062Y-94087060D02*
X154785062Y-93599379D01*
X153890981Y-94798260D02*
X153931621Y-94757619D01*
X153931621Y-94757619D02*
X154012900Y-94798260D01*
X156105862Y-93396179D02*
X156227781Y-93518100D01*
X158666181Y-96261300D02*
X159316421Y-96911541D01*
X155821381Y-93132019D02*
X156004262Y-93314900D01*
X159397700Y-106502579D02*
X159377381Y-106604179D01*
X159377381Y-97033460D02*
X159397700Y-97135060D01*
X159397700Y-97135060D02*
X159397700Y-106502579D01*
X151940262Y-95712660D02*
X152854662Y-94798260D01*
X159316421Y-96911541D02*
X159316421Y-96952179D01*
X156227781Y-93782260D02*
X156288740Y-93863541D01*
X159397700Y-106685460D02*
X159397700Y-108880019D01*
D26*
X145791495Y-113533505D02*
X147580145Y-111744855D01*
D25*
X158666181Y-96240979D02*
X158666181Y-96261300D01*
X151554181Y-95712660D02*
X151940262Y-95712660D01*
X154785062Y-93599379D02*
X155252421Y-93132019D01*
D26*
X159425913Y-111032769D02*
X159425913Y-108908232D01*
X159425913Y-108908232D02*
X159397700Y-108880019D01*
D25*
X154012900Y-94798260D02*
X154073862Y-94798260D01*
X154073862Y-94798260D02*
X154785062Y-94087060D01*
X156227781Y-93518100D02*
X156227781Y-93782260D01*
X156044900Y-93314900D02*
X156105862Y-93396179D01*
X156004262Y-93314900D02*
X156044900Y-93314900D01*
D26*
X145791495Y-115992390D02*
X145791495Y-113533505D01*
X158710682Y-111748000D02*
X159425913Y-111032769D01*
D25*
X152854662Y-94798260D02*
X153890981Y-94798260D01*
D26*
X157419855Y-111744855D02*
X157423000Y-111748000D01*
D25*
X159316421Y-96952179D02*
X159377381Y-97033460D01*
D26*
X147580145Y-111744855D02*
X157419855Y-111744855D01*
X157423000Y-111748000D02*
X158710682Y-111748000D01*
X144458400Y-115179219D02*
X144458400Y-115783400D01*
D25*
X159727900Y-108620941D02*
X159804100Y-108697141D01*
D26*
X159804100Y-111117030D02*
X159804100Y-108697141D01*
D25*
X151554181Y-94737300D02*
X152326340Y-94737300D01*
X152854662Y-94208979D02*
X154053540Y-94208979D01*
X156248100Y-92908500D02*
X156654500Y-93314900D01*
X154053540Y-94208979D02*
X154114500Y-94127700D01*
D26*
X146675000Y-113140256D02*
X147740256Y-112075000D01*
D25*
X159727900Y-96835727D02*
X159727900Y-108620941D01*
D26*
X158846130Y-112075000D02*
X159804100Y-111117030D01*
D25*
X152326340Y-94737300D02*
X152854662Y-94208979D01*
D26*
X144458400Y-115783400D02*
X145575000Y-116900000D01*
D25*
X154378662Y-93457141D02*
X154419300Y-93375860D01*
X156187140Y-92908500D02*
X156248100Y-92908500D01*
D26*
X145575000Y-116900000D02*
X146375000Y-116900000D01*
X146675000Y-116600000D02*
X146675000Y-113140256D01*
D25*
X154378662Y-93863541D02*
X154378662Y-93457141D01*
X154419300Y-93375860D02*
X155069540Y-92725619D01*
X156004262Y-92725619D02*
X156187140Y-92908500D01*
D26*
X147740256Y-112075000D02*
X158846130Y-112075000D01*
X146375000Y-116900000D02*
X146675000Y-116600000D01*
D25*
X156634181Y-93742008D02*
X159727900Y-96835727D01*
X154114500Y-94127700D02*
X154378662Y-93863541D01*
X156634181Y-93375860D02*
X156634181Y-93742008D01*
X156654500Y-93355541D02*
X156634181Y-93375860D01*
X155069540Y-92725619D02*
X156004262Y-92725619D01*
X156654500Y-93314900D02*
X156654500Y-93355541D01*
X139788900Y-99187379D02*
X139890500Y-99228019D01*
X147002500Y-106522900D02*
X147104100Y-106482260D01*
X139788900Y-99187379D02*
X139098021Y-98496500D01*
X142816581Y-108554900D02*
X143060421Y-108311060D01*
X140804900Y-103739060D02*
X141069062Y-103474900D01*
D26*
X142350000Y-108554900D02*
X142350000Y-108577475D01*
X142350000Y-108577475D02*
X141299096Y-109628379D01*
D25*
X149298662Y-104897300D02*
X149298662Y-104328341D01*
D26*
X138140000Y-111360000D02*
X139290000Y-112510000D01*
D25*
X149298662Y-104328341D02*
X150721062Y-102905941D01*
D26*
X139766346Y-108820000D02*
X138813654Y-108820000D01*
D25*
X142350000Y-108554900D02*
X142816581Y-108554900D01*
X146921221Y-106583860D02*
X147002500Y-106522900D01*
D26*
X138140000Y-109493654D02*
X138140000Y-111360000D01*
X141299096Y-109628379D02*
X140574725Y-109628379D01*
D25*
X139890500Y-99817300D02*
X139890500Y-99228019D01*
X142355272Y-106805273D02*
X142350000Y-106810545D01*
X147713700Y-106482260D02*
X149298662Y-104897300D01*
X143060421Y-108311060D02*
X145194021Y-108311060D01*
X141069062Y-103474900D02*
X141069062Y-100995860D01*
D26*
X140574725Y-109628379D02*
X139766346Y-108820000D01*
D25*
X150721062Y-102905941D02*
X150721062Y-101117779D01*
X145194021Y-108311060D02*
X146921221Y-106583860D01*
X141069062Y-100995860D02*
X139890500Y-99817300D01*
X147104100Y-106482260D02*
X147713700Y-106482260D01*
D26*
X138813654Y-108820000D02*
X138140000Y-109493654D01*
D25*
X140804900Y-103739060D02*
X140784581Y-103759379D01*
X142350000Y-106810545D02*
X142350000Y-108554900D01*
D26*
X151962500Y-119350000D02*
X151962500Y-119837500D01*
X151962500Y-119862500D02*
X153075000Y-120975000D01*
X151962500Y-119350000D02*
X151962500Y-119862500D01*
X149600000Y-119350000D02*
X149425000Y-119175000D01*
X151962500Y-119350000D02*
X149600000Y-119350000D01*
X151987500Y-114262500D02*
X152275000Y-113975000D01*
X151987500Y-116850000D02*
X151987500Y-114262500D01*
X153275000Y-117475000D02*
X152612500Y-117475000D01*
X152612500Y-117475000D02*
X151987500Y-116850000D01*
X155012500Y-116800000D02*
X154962500Y-116850000D01*
X159525000Y-116800000D02*
X155012500Y-116800000D01*
X154947500Y-119340000D02*
X154937500Y-119350000D01*
X159525000Y-119340000D02*
X154947500Y-119340000D01*
X153975000Y-106725000D02*
X151410100Y-109289900D01*
X144852841Y-111139019D02*
X143935981Y-111139019D01*
X143935981Y-111139019D02*
X143650000Y-111425000D01*
X145625000Y-110366860D02*
X144852841Y-111139019D01*
X155152158Y-106725000D02*
X156252158Y-105625000D01*
X145960051Y-110366860D02*
X145625000Y-110366860D01*
X147039900Y-109289900D02*
X147038455Y-109288455D01*
X153975000Y-106725000D02*
X155152158Y-106725000D01*
X156252158Y-105625000D02*
X158075000Y-105625000D01*
X147038455Y-109288455D02*
X145960051Y-110366860D01*
X151410100Y-109289900D02*
X147039900Y-109289900D01*
G04 #@! TA.AperFunction,Conductor*
G36*
X159084207Y-106392699D02*
G01*
X159128171Y-106436662D01*
X159137897Y-106498071D01*
X159133241Y-106516265D01*
X159133106Y-106516641D01*
X159133105Y-106516644D01*
X159133105Y-106516645D01*
X159127269Y-106555858D01*
X159126951Y-106557993D01*
X159126094Y-106562909D01*
X159117894Y-106603910D01*
X159117888Y-106610360D01*
X159118201Y-106616786D01*
X159128339Y-106657341D01*
X159129429Y-106662215D01*
X159139466Y-106712952D01*
X159138490Y-106713144D01*
X159143200Y-106736884D01*
X159143200Y-107943530D01*
X159123987Y-108002661D01*
X159073687Y-108039206D01*
X159011513Y-108039206D01*
X158961213Y-108002661D01*
X158960193Y-108001232D01*
X158885014Y-107893866D01*
X158885013Y-107893865D01*
X157223608Y-109057194D01*
X158100150Y-110309022D01*
X159014711Y-109668640D01*
X159074169Y-109650462D01*
X159132956Y-109670704D01*
X159168617Y-109721634D01*
X159173013Y-109751047D01*
X159173013Y-110886344D01*
X159153800Y-110945475D01*
X159143548Y-110957479D01*
X158635393Y-111465635D01*
X158579995Y-111493861D01*
X158564258Y-111495100D01*
X157495884Y-111495100D01*
X157476258Y-111493167D01*
X157470160Y-111491954D01*
X157369550Y-111491954D01*
X157357841Y-111491954D01*
X157357833Y-111491955D01*
X156729811Y-111491955D01*
X156670680Y-111472742D01*
X156634135Y-111422442D01*
X156634135Y-111360268D01*
X156670680Y-111309968D01*
X156672109Y-111308948D01*
X157726289Y-110570801D01*
X156849748Y-109318973D01*
X155188344Y-110482302D01*
X155784468Y-111333653D01*
X155802646Y-111393111D01*
X155782404Y-111451898D01*
X155731474Y-111487559D01*
X155702061Y-111491955D01*
X150817983Y-111491955D01*
X150758852Y-111472742D01*
X150722307Y-111422442D01*
X150722307Y-111360268D01*
X150756740Y-111311545D01*
X150844333Y-111244333D01*
X150932957Y-111128836D01*
X150988669Y-110994336D01*
X151000951Y-110901042D01*
X151007671Y-110850003D01*
X151007671Y-110849996D01*
X150988670Y-110705667D01*
X150978400Y-110680874D01*
X150962813Y-110643244D01*
X150932959Y-110571169D01*
X150932958Y-110571167D01*
X150932957Y-110571166D01*
X150932957Y-110571165D01*
X150844333Y-110455667D01*
X150842252Y-110454070D01*
X150841188Y-110452522D01*
X150839671Y-110451005D01*
X150839952Y-110450723D01*
X150807040Y-110402827D01*
X150802900Y-110374263D01*
X150802900Y-110306700D01*
X150822113Y-110247569D01*
X150872413Y-110211024D01*
X150903500Y-110206100D01*
X151505274Y-110206100D01*
X151505275Y-110206100D01*
X151539034Y-110197054D01*
X151595839Y-110181835D01*
X151595841Y-110181833D01*
X151595844Y-110181833D01*
X151677045Y-110134951D01*
X152785911Y-109026085D01*
X154227693Y-109026085D01*
X154264958Y-109158527D01*
X154280270Y-109185436D01*
X154926565Y-110108441D01*
X156587970Y-108945112D01*
X155711428Y-107693284D01*
X154378859Y-108626361D01*
X154378845Y-108626372D01*
X154355258Y-108646416D01*
X154355254Y-108646421D01*
X154274944Y-108758123D01*
X154274941Y-108758129D01*
X154231124Y-108888542D01*
X154231124Y-108888544D01*
X154227693Y-109026085D01*
X152785911Y-109026085D01*
X154271231Y-107540765D01*
X154326629Y-107512539D01*
X154342366Y-107511300D01*
X155377232Y-107511300D01*
X155377233Y-107511300D01*
X155410992Y-107502254D01*
X155467797Y-107487035D01*
X155467799Y-107487033D01*
X155467802Y-107487033D01*
X155549003Y-107440151D01*
X156128589Y-106860565D01*
X156183987Y-106832339D01*
X156199724Y-106831100D01*
X156623695Y-106831100D01*
X156682826Y-106850313D01*
X156719371Y-106900613D01*
X156719371Y-106962787D01*
X156682826Y-107013087D01*
X156681397Y-107014107D01*
X156085289Y-107431505D01*
X156961830Y-108683333D01*
X158623234Y-107520004D01*
X158251702Y-106989402D01*
X158233524Y-106929944D01*
X158253766Y-106871157D01*
X158304696Y-106835496D01*
X158334109Y-106831100D01*
X158446880Y-106831100D01*
X158446881Y-106831100D01*
X158480640Y-106822054D01*
X158537445Y-106806835D01*
X158537447Y-106806833D01*
X158537450Y-106806833D01*
X158618651Y-106759951D01*
X158967402Y-106411198D01*
X159022798Y-106382973D01*
X159084207Y-106392699D01*
G37*
G04 #@! TD.AperFunction*
G04 #@! TA.AperFunction,Conductor*
G36*
X158499262Y-100692685D02*
G01*
X158531099Y-100746089D01*
X158533600Y-100768380D01*
X158533600Y-105197126D01*
X158514387Y-105256257D01*
X158464087Y-105292802D01*
X158401913Y-105292802D01*
X158378612Y-105281756D01*
X158265076Y-105208792D01*
X158265075Y-105208791D01*
X158176808Y-105182873D01*
X158140117Y-105172100D01*
X158009883Y-105172100D01*
X157981520Y-105180428D01*
X157884924Y-105208791D01*
X157884923Y-105208792D01*
X157775364Y-105279200D01*
X157775363Y-105279201D01*
X157724953Y-105337379D01*
X157671710Y-105369485D01*
X157648924Y-105372100D01*
X156643134Y-105372100D01*
X156584003Y-105352887D01*
X156547458Y-105302587D01*
X156547458Y-105240413D01*
X156571998Y-105200366D01*
X156596377Y-105175987D01*
X156621045Y-105151318D01*
X156621048Y-105151317D01*
X156635196Y-105137169D01*
X156635197Y-105137169D01*
X156706339Y-105066027D01*
X156724082Y-105023190D01*
X156744841Y-104973075D01*
X156744841Y-104872465D01*
X156744841Y-104864362D01*
X156744840Y-104864348D01*
X156744840Y-102363748D01*
X156764053Y-102304617D01*
X156774305Y-102292613D01*
X157415425Y-101651493D01*
X158082970Y-100983948D01*
X158102847Y-100968523D01*
X158107891Y-100965537D01*
X158123126Y-100945221D01*
X158132458Y-100934460D01*
X158150416Y-100916504D01*
X158150416Y-100916502D01*
X158157426Y-100909494D01*
X158160085Y-100912153D01*
X158190302Y-100887330D01*
X158192668Y-100886350D01*
X158193725Y-100885920D01*
X158238828Y-100867879D01*
X158239590Y-100867370D01*
X158240612Y-100866696D01*
X158241318Y-100866236D01*
X158241379Y-100866174D01*
X158241381Y-100866174D01*
X158275755Y-100831798D01*
X158276463Y-100831099D01*
X158311202Y-100797198D01*
X158311202Y-100797196D01*
X158311268Y-100797133D01*
X158311773Y-100796378D01*
X158312436Y-100795398D01*
X158312938Y-100794664D01*
X158312971Y-100794583D01*
X158312973Y-100794582D01*
X158331532Y-100749773D01*
X158331985Y-100748700D01*
X158337001Y-100736997D01*
X158340534Y-100728751D01*
X158381486Y-100681970D01*
X158442115Y-100668194D01*
X158499262Y-100692685D01*
G37*
G04 #@! TD.AperFunction*
G04 #@! TA.AperFunction,Conductor*
G36*
X140747541Y-101462579D02*
G01*
X140796868Y-101500427D01*
X140814562Y-101557409D01*
X140814562Y-103128700D01*
X140795349Y-103187831D01*
X140745049Y-103224376D01*
X140727094Y-103228439D01*
X140645204Y-103239220D01*
X140515332Y-103293015D01*
X140515325Y-103293019D01*
X140403802Y-103378594D01*
X140403796Y-103378600D01*
X140318221Y-103490123D01*
X140318217Y-103490130D01*
X140264422Y-103620003D01*
X140246074Y-103759375D01*
X140246074Y-103765973D01*
X140244668Y-103765973D01*
X140234666Y-103819933D01*
X140189566Y-103862730D01*
X140127923Y-103870844D01*
X140088556Y-103854336D01*
X139945697Y-103754305D01*
X139945689Y-103754300D01*
X139738525Y-103657697D01*
X139518200Y-103598661D01*
X139518200Y-104444401D01*
X139482993Y-104424075D01*
X139355826Y-104390000D01*
X139224174Y-104390000D01*
X139097007Y-104424075D01*
X139061800Y-104444401D01*
X139061800Y-103598661D01*
X139061799Y-103598661D01*
X138841474Y-103657697D01*
X138634310Y-103754300D01*
X138634302Y-103754305D01*
X138447052Y-103885419D01*
X138327835Y-104004637D01*
X138272437Y-104032863D01*
X138211029Y-104023137D01*
X138167065Y-103979173D01*
X138156100Y-103933502D01*
X138156100Y-103745488D01*
X138175313Y-103686357D01*
X138185565Y-103674353D01*
X138247893Y-103612025D01*
X138315755Y-103544163D01*
X138354500Y-103450623D01*
X138354500Y-103349377D01*
X138354500Y-103072129D01*
X138373713Y-103012998D01*
X138424013Y-102976453D01*
X138486187Y-102976453D01*
X138532863Y-103008308D01*
X138577411Y-103062589D01*
X138730122Y-103187916D01*
X138904350Y-103281042D01*
X138904352Y-103281042D01*
X138904353Y-103281043D01*
X139093393Y-103338388D01*
X139093394Y-103338388D01*
X139093397Y-103338389D01*
X139290000Y-103357753D01*
X139486603Y-103338389D01*
X139675650Y-103281042D01*
X139849878Y-103187916D01*
X140002589Y-103062589D01*
X140127916Y-102909878D01*
X140221042Y-102735650D01*
X140278389Y-102546603D01*
X140297753Y-102350000D01*
X140278389Y-102153397D01*
X140265055Y-102109440D01*
X140221043Y-101964352D01*
X140221040Y-101964346D01*
X140146361Y-101824629D01*
X140135431Y-101763423D01*
X140162564Y-101707482D01*
X140217397Y-101678174D01*
X140235082Y-101676607D01*
X140235943Y-101676607D01*
X140375316Y-101658258D01*
X140470473Y-101618843D01*
X140505194Y-101604461D01*
X140616722Y-101518882D01*
X140634150Y-101496168D01*
X140685388Y-101460952D01*
X140747541Y-101462579D01*
G37*
G04 #@! TD.AperFunction*
G04 #@! TA.AperFunction,Conductor*
G36*
X161515131Y-82513813D02*
G01*
X161551676Y-82564113D01*
X161556600Y-82595200D01*
X161556600Y-127413900D01*
X161537387Y-127473031D01*
X161487087Y-127509576D01*
X161456000Y-127514500D01*
X135546200Y-127514500D01*
X135487069Y-127495287D01*
X135450524Y-127444987D01*
X135445600Y-127413900D01*
X135445600Y-120130000D01*
X135742247Y-120130000D01*
X135761611Y-120326606D01*
X135818956Y-120515646D01*
X135818957Y-120515649D01*
X135818958Y-120515650D01*
X135912084Y-120689878D01*
X136037411Y-120842589D01*
X136190122Y-120967916D01*
X136364350Y-121061042D01*
X136364352Y-121061042D01*
X136364353Y-121061043D01*
X136553393Y-121118388D01*
X136553394Y-121118388D01*
X136553397Y-121118389D01*
X136750000Y-121137753D01*
X136946603Y-121118389D01*
X137135650Y-121061042D01*
X137309878Y-120967916D01*
X137462589Y-120842589D01*
X137587916Y-120689878D01*
X137681042Y-120515650D01*
X137738389Y-120326603D01*
X137757753Y-120130000D01*
X137738389Y-119933397D01*
X137722171Y-119879935D01*
X137681043Y-119744353D01*
X137681042Y-119744352D01*
X137681042Y-119744350D01*
X137587916Y-119570122D01*
X137462589Y-119417411D01*
X137309878Y-119292084D01*
X137135650Y-119198958D01*
X137135649Y-119198957D01*
X137135646Y-119198956D01*
X136946606Y-119141611D01*
X136750000Y-119122247D01*
X136553393Y-119141611D01*
X136364353Y-119198956D01*
X136190121Y-119292084D01*
X136037411Y-119417410D01*
X136037410Y-119417411D01*
X135912084Y-119570121D01*
X135818956Y-119744353D01*
X135761611Y-119933393D01*
X135742247Y-120130000D01*
X135445600Y-120130000D01*
X135445600Y-117590000D01*
X135742247Y-117590000D01*
X135761611Y-117786606D01*
X135818956Y-117975646D01*
X135818957Y-117975649D01*
X135818958Y-117975650D01*
X135905223Y-118137042D01*
X135912084Y-118149878D01*
X135994918Y-118250812D01*
X136037411Y-118302589D01*
X136190122Y-118427916D01*
X136364350Y-118521042D01*
X136364352Y-118521042D01*
X136364353Y-118521043D01*
X136553393Y-118578388D01*
X136553394Y-118578388D01*
X136553397Y-118578389D01*
X136750000Y-118597753D01*
X136946603Y-118578389D01*
X137135650Y-118521042D01*
X137309878Y-118427916D01*
X137462589Y-118302589D01*
X137587916Y-118149878D01*
X137681042Y-117975650D01*
X137738389Y-117786603D01*
X137757753Y-117590000D01*
X137738389Y-117393397D01*
X137711332Y-117304204D01*
X137681043Y-117204353D01*
X137681042Y-117204352D01*
X137681042Y-117204350D01*
X137587916Y-117030122D01*
X137462589Y-116877411D01*
X137309878Y-116752084D01*
X137135650Y-116658958D01*
X137135649Y-116658957D01*
X137135646Y-116658956D01*
X136946606Y-116601611D01*
X136750000Y-116582247D01*
X136553393Y-116601611D01*
X136364353Y-116658956D01*
X136190121Y-116752084D01*
X136037411Y-116877410D01*
X136037410Y-116877411D01*
X135912084Y-117030121D01*
X135818956Y-117204353D01*
X135761611Y-117393393D01*
X135742247Y-117590000D01*
X135445600Y-117590000D01*
X135445600Y-115050000D01*
X135742247Y-115050000D01*
X135761611Y-115246606D01*
X135818956Y-115435646D01*
X135818957Y-115435649D01*
X135818958Y-115435650D01*
X135860248Y-115512899D01*
X135912084Y-115609878D01*
X136029202Y-115752587D01*
X136037411Y-115762589D01*
X136190122Y-115887916D01*
X136364350Y-115981042D01*
X136364352Y-115981042D01*
X136364353Y-115981043D01*
X136553393Y-116038388D01*
X136553394Y-116038388D01*
X136553397Y-116038389D01*
X136750000Y-116057753D01*
X136946603Y-116038389D01*
X137135650Y-115981042D01*
X137309878Y-115887916D01*
X137462589Y-115762589D01*
X137587916Y-115609878D01*
X137681042Y-115435650D01*
X137738389Y-115246603D01*
X137757753Y-115050000D01*
X137738389Y-114853397D01*
X137721715Y-114798432D01*
X137681043Y-114664353D01*
X137681042Y-114664352D01*
X137681042Y-114664350D01*
X137587916Y-114490122D01*
X137462589Y-114337411D01*
X137309878Y-114212084D01*
X137135650Y-114118958D01*
X137135649Y-114118957D01*
X137135646Y-114118956D01*
X136946606Y-114061611D01*
X136750000Y-114042247D01*
X136553393Y-114061611D01*
X136364353Y-114118956D01*
X136190121Y-114212084D01*
X136037411Y-114337410D01*
X136037410Y-114337411D01*
X135912084Y-114490121D01*
X135818956Y-114664353D01*
X135761611Y-114853393D01*
X135742247Y-115050000D01*
X135445600Y-115050000D01*
X135445600Y-112510000D01*
X135742247Y-112510000D01*
X135761611Y-112706606D01*
X135818956Y-112895646D01*
X135912084Y-113069878D01*
X136018003Y-113198941D01*
X136037411Y-113222589D01*
X136190122Y-113347916D01*
X136364350Y-113441042D01*
X136364352Y-113441042D01*
X136364353Y-113441043D01*
X136553393Y-113498388D01*
X136553394Y-113498388D01*
X136553397Y-113498389D01*
X136750000Y-113517753D01*
X136946603Y-113498389D01*
X137135650Y-113441042D01*
X137309878Y-113347916D01*
X137462589Y-113222589D01*
X137587916Y-113069878D01*
X137681042Y-112895650D01*
X137738389Y-112706603D01*
X137757753Y-112510000D01*
X137738389Y-112313397D01*
X137738116Y-112312498D01*
X137681043Y-112124353D01*
X137681042Y-112124352D01*
X137681042Y-112124350D01*
X137587916Y-111950122D01*
X137462589Y-111797411D01*
X137430157Y-111770795D01*
X137309878Y-111672084D01*
X137271147Y-111651382D01*
X137135650Y-111578958D01*
X137135649Y-111578957D01*
X137135646Y-111578956D01*
X136946606Y-111521611D01*
X136750000Y-111502247D01*
X136553393Y-111521611D01*
X136364353Y-111578956D01*
X136190121Y-111672084D01*
X136037411Y-111797410D01*
X136037410Y-111797411D01*
X135912084Y-111950121D01*
X135818956Y-112124353D01*
X135761611Y-112313393D01*
X135742247Y-112510000D01*
X135445600Y-112510000D01*
X135445600Y-87476820D01*
X135653281Y-87476820D01*
X135653281Y-101652339D01*
X135653282Y-101652347D01*
X135677545Y-101742905D01*
X135677548Y-101742911D01*
X135724429Y-101824111D01*
X135726309Y-101826560D01*
X135727047Y-101828644D01*
X135727727Y-101829822D01*
X135727508Y-101829947D01*
X135747065Y-101885167D01*
X135747100Y-101887804D01*
X135747100Y-103215055D01*
X135755971Y-103259657D01*
X135755973Y-103259661D01*
X135789764Y-103310232D01*
X135789766Y-103310234D01*
X135840342Y-103344028D01*
X135884943Y-103352900D01*
X137577261Y-103352899D01*
X137636392Y-103372112D01*
X137672937Y-103422412D01*
X137672937Y-103484586D01*
X137670204Y-103491995D01*
X137647100Y-103547775D01*
X137647100Y-104121079D01*
X137627887Y-104180210D01*
X137577587Y-104216755D01*
X137515413Y-104216755D01*
X137468738Y-104184902D01*
X137462593Y-104177415D01*
X137462588Y-104177410D01*
X137309878Y-104052084D01*
X137266004Y-104028633D01*
X137135650Y-103958958D01*
X137135649Y-103958957D01*
X137135646Y-103958956D01*
X136946606Y-103901611D01*
X136750000Y-103882247D01*
X136553393Y-103901611D01*
X136364353Y-103958956D01*
X136190121Y-104052084D01*
X136037411Y-104177410D01*
X136037410Y-104177411D01*
X135912084Y-104330121D01*
X135818956Y-104504353D01*
X135761611Y-104693393D01*
X135742247Y-104890000D01*
X135761611Y-105086606D01*
X135818956Y-105275646D01*
X135818957Y-105275649D01*
X135818958Y-105275650D01*
X135912084Y-105449878D01*
X136037411Y-105602589D01*
X136190122Y-105727916D01*
X136364350Y-105821042D01*
X136364352Y-105821042D01*
X136364353Y-105821043D01*
X136553393Y-105878388D01*
X136553394Y-105878388D01*
X136553397Y-105878389D01*
X136750000Y-105897753D01*
X136946603Y-105878389D01*
X137135650Y-105821042D01*
X137309878Y-105727916D01*
X137462589Y-105602589D01*
X137468735Y-105595099D01*
X137521099Y-105561580D01*
X137583165Y-105565240D01*
X137631227Y-105604682D01*
X137647100Y-105658920D01*
X137647100Y-106661079D01*
X137627887Y-106720210D01*
X137577587Y-106756755D01*
X137515413Y-106756755D01*
X137468738Y-106724902D01*
X137462593Y-106717415D01*
X137462588Y-106717410D01*
X137309878Y-106592084D01*
X137168029Y-106516265D01*
X137135650Y-106498958D01*
X137135649Y-106498957D01*
X137135646Y-106498956D01*
X136946606Y-106441611D01*
X136750000Y-106422247D01*
X136553393Y-106441611D01*
X136364353Y-106498956D01*
X136190121Y-106592084D01*
X136037411Y-106717410D01*
X136037410Y-106717411D01*
X135912084Y-106870121D01*
X135818956Y-107044353D01*
X135761611Y-107233393D01*
X135742247Y-107430000D01*
X135761611Y-107626606D01*
X135818956Y-107815646D01*
X135818957Y-107815649D01*
X135818958Y-107815650D01*
X135860765Y-107893866D01*
X135912084Y-107989878D01*
X136020625Y-108122136D01*
X136037411Y-108142589D01*
X136190122Y-108267916D01*
X136364350Y-108361042D01*
X136364352Y-108361042D01*
X136364353Y-108361043D01*
X136553393Y-108418388D01*
X136553394Y-108418388D01*
X136553397Y-108418389D01*
X136750000Y-108437753D01*
X136946603Y-108418389D01*
X137135650Y-108361042D01*
X137309878Y-108267916D01*
X137459899Y-108144796D01*
X137517795Y-108122136D01*
X137577955Y-108137835D01*
X137617398Y-108185896D01*
X137624318Y-108222562D01*
X137624318Y-108651649D01*
X137605105Y-108710780D01*
X137594853Y-108722784D01*
X137281615Y-109036021D01*
X137226217Y-109064247D01*
X137164808Y-109054521D01*
X137163059Y-109053608D01*
X137135646Y-109038956D01*
X136946606Y-108981611D01*
X136750000Y-108962247D01*
X136553393Y-108981611D01*
X136364353Y-109038956D01*
X136190121Y-109132084D01*
X136037411Y-109257410D01*
X136037410Y-109257411D01*
X135912084Y-109410121D01*
X135818956Y-109584353D01*
X135761611Y-109773393D01*
X135742247Y-109970000D01*
X135761611Y-110166606D01*
X135818956Y-110355646D01*
X135818957Y-110355649D01*
X135818958Y-110355650D01*
X135852900Y-110419151D01*
X135912084Y-110529878D01*
X136036003Y-110680874D01*
X136037411Y-110682589D01*
X136190122Y-110807916D01*
X136364350Y-110901042D01*
X136364352Y-110901042D01*
X136364353Y-110901043D01*
X136553393Y-110958388D01*
X136553394Y-110958388D01*
X136553397Y-110958389D01*
X136750000Y-110977753D01*
X136946603Y-110958389D01*
X137135650Y-110901042D01*
X137309878Y-110807916D01*
X137462589Y-110682589D01*
X137587916Y-110529878D01*
X137681042Y-110355650D01*
X137684829Y-110343166D01*
X137690232Y-110325357D01*
X137725782Y-110274349D01*
X137784525Y-110253978D01*
X137844022Y-110272026D01*
X137881547Y-110321599D01*
X137887100Y-110354559D01*
X137887100Y-111301578D01*
X137887099Y-111301592D01*
X137887099Y-111410305D01*
X137893185Y-111424999D01*
X137903047Y-111448806D01*
X137913591Y-111474262D01*
X137925600Y-111503256D01*
X137925601Y-111503257D01*
X137996743Y-111574399D01*
X137996744Y-111574399D01*
X138005024Y-111582679D01*
X138005028Y-111582682D01*
X138371594Y-111949249D01*
X138399820Y-112004647D01*
X138390094Y-112066056D01*
X138389181Y-112067805D01*
X138358956Y-112124353D01*
X138301611Y-112313393D01*
X138282247Y-112510000D01*
X138301611Y-112706606D01*
X138358956Y-112895646D01*
X138452084Y-113069878D01*
X138558003Y-113198941D01*
X138577411Y-113222589D01*
X138730122Y-113347916D01*
X138904350Y-113441042D01*
X138904352Y-113441042D01*
X138904353Y-113441043D01*
X139093393Y-113498388D01*
X139093394Y-113498388D01*
X139093397Y-113498389D01*
X139290000Y-113517753D01*
X139486603Y-113498389D01*
X139675650Y-113441042D01*
X139849878Y-113347916D01*
X140002589Y-113222589D01*
X140041836Y-113174766D01*
X140094199Y-113141247D01*
X140156265Y-113144907D01*
X140204327Y-113184349D01*
X140220200Y-113238587D01*
X140220200Y-113501510D01*
X140237842Y-113544101D01*
X140245500Y-113582599D01*
X140245500Y-114352240D01*
X140226287Y-114411371D01*
X140175987Y-114447916D01*
X140113813Y-114447916D01*
X140067135Y-114416060D01*
X140002589Y-114337411D01*
X140002588Y-114337410D01*
X139849878Y-114212084D01*
X139722914Y-114144221D01*
X139675650Y-114118958D01*
X139675649Y-114118957D01*
X139675646Y-114118956D01*
X139486606Y-114061611D01*
X139290000Y-114042247D01*
X139093393Y-114061611D01*
X138904353Y-114118956D01*
X138730121Y-114212084D01*
X138577411Y-114337410D01*
X138577410Y-114337411D01*
X138452084Y-114490121D01*
X138358956Y-114664353D01*
X138301611Y-114853393D01*
X138282247Y-115050000D01*
X138301611Y-115246606D01*
X138358956Y-115435646D01*
X138358957Y-115435649D01*
X138358958Y-115435650D01*
X138400248Y-115512899D01*
X138452084Y-115609878D01*
X138569202Y-115752587D01*
X138577411Y-115762589D01*
X138730122Y-115887916D01*
X138904350Y-115981042D01*
X138904352Y-115981042D01*
X138904353Y-115981043D01*
X139093393Y-116038388D01*
X139093394Y-116038388D01*
X139093397Y-116038389D01*
X139290000Y-116057753D01*
X139486603Y-116038389D01*
X139675650Y-115981042D01*
X139849878Y-115887916D01*
X140002589Y-115762589D01*
X140067136Y-115683938D01*
X140119499Y-115650419D01*
X140181565Y-115654079D01*
X140229627Y-115693521D01*
X140245500Y-115747759D01*
X140245500Y-116892240D01*
X140226287Y-116951371D01*
X140175987Y-116987916D01*
X140113813Y-116987916D01*
X140067135Y-116956060D01*
X140002589Y-116877411D01*
X140002588Y-116877410D01*
X139849878Y-116752084D01*
X139675646Y-116658956D01*
X139486606Y-116601611D01*
X139290000Y-116582247D01*
X139093393Y-116601611D01*
X138904353Y-116658956D01*
X138730121Y-116752084D01*
X138577411Y-116877410D01*
X138577410Y-116877411D01*
X138452084Y-117030121D01*
X138358956Y-117204353D01*
X138301611Y-117393393D01*
X138282247Y-117590000D01*
X138301611Y-117786606D01*
X138358956Y-117975646D01*
X138358957Y-117975649D01*
X138358958Y-117975650D01*
X138445223Y-118137042D01*
X138452084Y-118149878D01*
X138534918Y-118250812D01*
X138577411Y-118302589D01*
X138730122Y-118427916D01*
X138904350Y-118521042D01*
X138904352Y-118521042D01*
X138904353Y-118521043D01*
X139093393Y-118578388D01*
X139093394Y-118578388D01*
X139093397Y-118578389D01*
X139290000Y-118597753D01*
X139486603Y-118578389D01*
X139675650Y-118521042D01*
X139849878Y-118427916D01*
X140002589Y-118302589D01*
X140067136Y-118223938D01*
X140119499Y-118190419D01*
X140181565Y-118194079D01*
X140229627Y-118233521D01*
X140245500Y-118287759D01*
X140245500Y-118603218D01*
X140245500Y-118704464D01*
X140249844Y-118714951D01*
X140284244Y-118798003D01*
X140414648Y-118928407D01*
X140442874Y-118983805D01*
X140443252Y-119012672D01*
X140428952Y-119121295D01*
X140428952Y-119121303D01*
X140447300Y-119260676D01*
X140501095Y-119390549D01*
X140501099Y-119390556D01*
X140586674Y-119502079D01*
X140586679Y-119502084D01*
X140698742Y-119588073D01*
X140733958Y-119639312D01*
X140732331Y-119701465D01*
X140694482Y-119750791D01*
X140691890Y-119752514D01*
X140650361Y-119779203D01*
X140650360Y-119779204D01*
X140565078Y-119877626D01*
X140510976Y-119996091D01*
X140494858Y-120108199D01*
X140487501Y-120123162D01*
X140495442Y-120145865D01*
X140510976Y-120253908D01*
X140565078Y-120372373D01*
X140650359Y-120470795D01*
X140650362Y-120470797D01*
X140650364Y-120470799D01*
X140650883Y-120471132D01*
X140651209Y-120471531D01*
X140655798Y-120475507D01*
X140655110Y-120476301D01*
X140690242Y-120519259D01*
X140697100Y-120555765D01*
X140697100Y-121223526D01*
X140677887Y-121282657D01*
X140627587Y-121319202D01*
X140565413Y-121319202D01*
X140540613Y-121307174D01*
X140538261Y-121305602D01*
X140509477Y-121293680D01*
X140483806Y-121283047D01*
X140445305Y-121267099D01*
X140344695Y-121267099D01*
X140332986Y-121267099D01*
X140332978Y-121267100D01*
X139674559Y-121267100D01*
X139615428Y-121247887D01*
X139578883Y-121197587D01*
X139578883Y-121135413D01*
X139615428Y-121085113D01*
X139645357Y-121070232D01*
X139675644Y-121061044D01*
X139675644Y-121061043D01*
X139675650Y-121061042D01*
X139849878Y-120967916D01*
X140002589Y-120842589D01*
X140127916Y-120689878D01*
X140221042Y-120515650D01*
X140278389Y-120326603D01*
X140295751Y-120150317D01*
X140303699Y-120132147D01*
X140295167Y-120103747D01*
X140278389Y-119933397D01*
X140221042Y-119744350D01*
X140127916Y-119570122D01*
X140002589Y-119417411D01*
X139849878Y-119292084D01*
X139675650Y-119198958D01*
X139675649Y-119198957D01*
X139675646Y-119198956D01*
X139486606Y-119141611D01*
X139290000Y-119122247D01*
X139093393Y-119141611D01*
X138904353Y-119198956D01*
X138730121Y-119292084D01*
X138577411Y-119417410D01*
X138577410Y-119417411D01*
X138452084Y-119570121D01*
X138358956Y-119744353D01*
X138301611Y-119933393D01*
X138282247Y-120130000D01*
X138301611Y-120326606D01*
X138358956Y-120515646D01*
X138358957Y-120515649D01*
X138358958Y-120515650D01*
X138452084Y-120689878D01*
X138577411Y-120842589D01*
X138730122Y-120967916D01*
X138904350Y-121061042D01*
X138904352Y-121061042D01*
X138904355Y-121061044D01*
X138934643Y-121070232D01*
X138985651Y-121105782D01*
X139006022Y-121164525D01*
X138987974Y-121224022D01*
X138938401Y-121261547D01*
X138905441Y-121267100D01*
X137962022Y-121267100D01*
X137962014Y-121267099D01*
X137950305Y-121267099D01*
X137849695Y-121267099D01*
X137849693Y-121267099D01*
X137783968Y-121294324D01*
X137783966Y-121294325D01*
X137756744Y-121305600D01*
X137756742Y-121305601D01*
X137685600Y-121376744D01*
X137310749Y-121751594D01*
X137255351Y-121779820D01*
X137193942Y-121770094D01*
X137192233Y-121769201D01*
X137135650Y-121738958D01*
X137135649Y-121738957D01*
X137135648Y-121738957D01*
X137135647Y-121738956D01*
X136946606Y-121681611D01*
X136750000Y-121662247D01*
X136553393Y-121681611D01*
X136364353Y-121738956D01*
X136190121Y-121832084D01*
X136037411Y-121957410D01*
X136037410Y-121957411D01*
X135912084Y-122110121D01*
X135818956Y-122284353D01*
X135761611Y-122473393D01*
X135742247Y-122670000D01*
X135761611Y-122866606D01*
X135818956Y-123055646D01*
X135818957Y-123055649D01*
X135818958Y-123055650D01*
X135865672Y-123143047D01*
X135912084Y-123229878D01*
X135945875Y-123271053D01*
X136037411Y-123382589D01*
X136190122Y-123507916D01*
X136364350Y-123601042D01*
X136364352Y-123601042D01*
X136364353Y-123601043D01*
X136553393Y-123658388D01*
X136553394Y-123658388D01*
X136553397Y-123658389D01*
X136750000Y-123677753D01*
X136946603Y-123658389D01*
X137135650Y-123601042D01*
X137309878Y-123507916D01*
X137462589Y-123382589D01*
X137587916Y-123229878D01*
X137681042Y-123055650D01*
X137738389Y-122866603D01*
X137757753Y-122670000D01*
X137738389Y-122473397D01*
X137725225Y-122430000D01*
X137681043Y-122284352D01*
X137681042Y-122284351D01*
X137681042Y-122284350D01*
X137650818Y-122227806D01*
X137639889Y-122166601D01*
X137667022Y-122110660D01*
X137668405Y-122109249D01*
X137820210Y-121957445D01*
X137975290Y-121802365D01*
X138030688Y-121774139D01*
X138046425Y-121772900D01*
X138521080Y-121772900D01*
X138580211Y-121792113D01*
X138616756Y-121842413D01*
X138616756Y-121904587D01*
X138584900Y-121951265D01*
X138577410Y-121957411D01*
X138452084Y-122110121D01*
X138358956Y-122284353D01*
X138301611Y-122473393D01*
X138282247Y-122670000D01*
X138301611Y-122866606D01*
X138358956Y-123055646D01*
X138358957Y-123055649D01*
X138358958Y-123055650D01*
X138405672Y-123143047D01*
X138452084Y-123229878D01*
X138485875Y-123271053D01*
X138577411Y-123382589D01*
X138730122Y-123507916D01*
X138904350Y-123601042D01*
X138904352Y-123601042D01*
X138904353Y-123601043D01*
X139093393Y-123658388D01*
X139093394Y-123658388D01*
X139093397Y-123658389D01*
X139290000Y-123677753D01*
X139486603Y-123658389D01*
X139675650Y-123601042D01*
X139849878Y-123507916D01*
X140002589Y-123382589D01*
X140127916Y-123229878D01*
X140221042Y-123055650D01*
X140239653Y-122994295D01*
X140275202Y-122943290D01*
X140333945Y-122922919D01*
X140335921Y-122922900D01*
X141013222Y-122922900D01*
X141013230Y-122922901D01*
X141024939Y-122922901D01*
X141125549Y-122922901D01*
X141164050Y-122906952D01*
X141218501Y-122884399D01*
X141289643Y-122813257D01*
X141289643Y-122813255D01*
X141299307Y-122803592D01*
X141299313Y-122803584D01*
X142158584Y-121944313D01*
X142158592Y-121944307D01*
X142168255Y-121934643D01*
X142168257Y-121934643D01*
X142239399Y-121863501D01*
X142239399Y-121863500D01*
X142246405Y-121856495D01*
X142248479Y-121858569D01*
X142285080Y-121829716D01*
X142347207Y-121827275D01*
X142398903Y-121861817D01*
X142420422Y-121920148D01*
X142420500Y-121924098D01*
X142420500Y-122527911D01*
X142401287Y-122587042D01*
X142391035Y-122599046D01*
X140297690Y-124692390D01*
X140242292Y-124720616D01*
X140180884Y-124710890D01*
X140137833Y-124668676D01*
X140127916Y-124650122D01*
X140002589Y-124497411D01*
X139993272Y-124489765D01*
X139849878Y-124372084D01*
X139743853Y-124315413D01*
X139675650Y-124278958D01*
X139675649Y-124278957D01*
X139675646Y-124278956D01*
X139486606Y-124221611D01*
X139290000Y-124202247D01*
X139093393Y-124221611D01*
X138904353Y-124278956D01*
X138730121Y-124372084D01*
X138577411Y-124497410D01*
X138577410Y-124497411D01*
X138452084Y-124650121D01*
X138358956Y-124824353D01*
X138301611Y-125013393D01*
X138282247Y-125210000D01*
X138301611Y-125406606D01*
X138358956Y-125595646D01*
X138358957Y-125595647D01*
X138358958Y-125595650D01*
X138424351Y-125717993D01*
X138452084Y-125769878D01*
X138577410Y-125922588D01*
X138584900Y-125928735D01*
X138618420Y-125981099D01*
X138614760Y-126043165D01*
X138575318Y-126091227D01*
X138521080Y-126107100D01*
X138046425Y-126107100D01*
X137987294Y-126087887D01*
X137975290Y-126077635D01*
X137668405Y-125770750D01*
X137640179Y-125715352D01*
X137649905Y-125653944D01*
X137650797Y-125652233D01*
X137681042Y-125595650D01*
X137738389Y-125406603D01*
X137757753Y-125210000D01*
X137738389Y-125013397D01*
X137681042Y-124824350D01*
X137587916Y-124650122D01*
X137462589Y-124497411D01*
X137453272Y-124489765D01*
X137309878Y-124372084D01*
X137203853Y-124315413D01*
X137135650Y-124278958D01*
X137135649Y-124278957D01*
X137135646Y-124278956D01*
X136946606Y-124221611D01*
X136750000Y-124202247D01*
X136553393Y-124221611D01*
X136364353Y-124278956D01*
X136190121Y-124372084D01*
X136037411Y-124497410D01*
X136037410Y-124497411D01*
X135912084Y-124650121D01*
X135818956Y-124824353D01*
X135761611Y-125013393D01*
X135742247Y-125210000D01*
X135761611Y-125406606D01*
X135818956Y-125595646D01*
X135818957Y-125595647D01*
X135818958Y-125595650D01*
X135912084Y-125769878D01*
X136037411Y-125922589D01*
X136190122Y-126047916D01*
X136364350Y-126141042D01*
X136364352Y-126141042D01*
X136364353Y-126141043D01*
X136553393Y-126198388D01*
X136553394Y-126198388D01*
X136553397Y-126198389D01*
X136750000Y-126217753D01*
X136946603Y-126198389D01*
X137135650Y-126141042D01*
X137192193Y-126110818D01*
X137253398Y-126099889D01*
X137309339Y-126127021D01*
X137310750Y-126128405D01*
X137679864Y-126497519D01*
X137679867Y-126497523D01*
X137685601Y-126503257D01*
X137756743Y-126574399D01*
X137783963Y-126585673D01*
X137783967Y-126585676D01*
X137783968Y-126585675D01*
X137849695Y-126612901D01*
X137962014Y-126612901D01*
X137962022Y-126612900D01*
X139704324Y-126612900D01*
X139704332Y-126612901D01*
X139716041Y-126612901D01*
X139816651Y-126612901D01*
X139855152Y-126596952D01*
X139909603Y-126574399D01*
X139980745Y-126503257D01*
X139980745Y-126503255D01*
X139990409Y-126493592D01*
X139990414Y-126493584D01*
X141950365Y-124533633D01*
X142005763Y-124505408D01*
X142067171Y-124515134D01*
X142111135Y-124559098D01*
X142122100Y-124604769D01*
X142122100Y-126315055D01*
X142130971Y-126359657D01*
X142130973Y-126359661D01*
X142164764Y-126410232D01*
X142164765Y-126410233D01*
X142164766Y-126410234D01*
X142215342Y-126444028D01*
X142259943Y-126452900D01*
X143990056Y-126452899D01*
X144034658Y-126444028D01*
X144085234Y-126410234D01*
X144119028Y-126359658D01*
X144127900Y-126315057D01*
X144127899Y-124584944D01*
X144119028Y-124540342D01*
X144119026Y-124540338D01*
X144085235Y-124489767D01*
X144085233Y-124489765D01*
X144034657Y-124455971D01*
X143998928Y-124448864D01*
X143990057Y-124447100D01*
X143990056Y-124447100D01*
X142279768Y-124447100D01*
X142220637Y-124427887D01*
X142184092Y-124377587D01*
X142184092Y-124315413D01*
X142208630Y-124275368D01*
X143067198Y-123416800D01*
X150004240Y-123416800D01*
X150848966Y-123416800D01*
X150843246Y-123430609D01*
X150815000Y-123572609D01*
X150815000Y-123717391D01*
X150843246Y-123859391D01*
X150848966Y-123873200D01*
X150004240Y-123873200D01*
X150005532Y-123889620D01*
X150005532Y-123889623D01*
X150062812Y-124128212D01*
X150062812Y-124128213D01*
X150156712Y-124354908D01*
X150156713Y-124354910D01*
X150284923Y-124564131D01*
X150444283Y-124750716D01*
X150630868Y-124910076D01*
X150840089Y-125038286D01*
X150840091Y-125038287D01*
X151066787Y-125132187D01*
X151305377Y-125189467D01*
X151321800Y-125190760D01*
X151321800Y-124346034D01*
X151335609Y-124351754D01*
X151477609Y-124380000D01*
X151622391Y-124380000D01*
X151764391Y-124351754D01*
X151778200Y-124346034D01*
X151778200Y-125190759D01*
X151794620Y-125189467D01*
X151794623Y-125189467D01*
X152033212Y-125132187D01*
X152033213Y-125132187D01*
X152259908Y-125038287D01*
X152259910Y-125038286D01*
X152469131Y-124910076D01*
X152655716Y-124750716D01*
X152815076Y-124564131D01*
X152943286Y-124354910D01*
X152943287Y-124354908D01*
X153037187Y-124128213D01*
X153037187Y-124128212D01*
X153094467Y-123889623D01*
X153094467Y-123889620D01*
X153095760Y-123873200D01*
X152251034Y-123873200D01*
X152256754Y-123859391D01*
X152285000Y-123717391D01*
X152285000Y-123572609D01*
X152256754Y-123430609D01*
X152251034Y-123416800D01*
X153095760Y-123416800D01*
X153094467Y-123400379D01*
X153094467Y-123400376D01*
X153037187Y-123161787D01*
X153037187Y-123161786D01*
X152943287Y-122935091D01*
X152943286Y-122935089D01*
X152815076Y-122725868D01*
X152655716Y-122539283D01*
X152469131Y-122379923D01*
X152259910Y-122251713D01*
X152259908Y-122251712D01*
X152033214Y-122157812D01*
X151794628Y-122100533D01*
X151794613Y-122100531D01*
X151778200Y-122099238D01*
X151778200Y-122943965D01*
X151764391Y-122938246D01*
X151622391Y-122910000D01*
X151477609Y-122910000D01*
X151335609Y-122938246D01*
X151321800Y-122943965D01*
X151321800Y-122099239D01*
X151321799Y-122099238D01*
X151305386Y-122100531D01*
X151305371Y-122100533D01*
X151066785Y-122157812D01*
X150840091Y-122251712D01*
X150840089Y-122251713D01*
X150630868Y-122379923D01*
X150444283Y-122539283D01*
X150284923Y-122725868D01*
X150156713Y-122935089D01*
X150156712Y-122935091D01*
X150062812Y-123161786D01*
X150062812Y-123161787D01*
X150005532Y-123400376D01*
X150005532Y-123400379D01*
X150004240Y-123416800D01*
X143067198Y-123416800D01*
X144104105Y-122379894D01*
X144104109Y-122379892D01*
X144118256Y-122365745D01*
X144118257Y-122365745D01*
X144189399Y-122294603D01*
X144202347Y-122263342D01*
X144227901Y-122201651D01*
X144227901Y-122101041D01*
X144227901Y-122092938D01*
X144227900Y-122092924D01*
X144227900Y-120980765D01*
X144247113Y-120921634D01*
X144269329Y-120900653D01*
X144269202Y-120900507D01*
X144272619Y-120897545D01*
X144274114Y-120896133D01*
X144274636Y-120895799D01*
X144274638Y-120895795D01*
X144274640Y-120895795D01*
X144335984Y-120824999D01*
X144359921Y-120797374D01*
X144414023Y-120678909D01*
X144422826Y-120617682D01*
X144450258Y-120561887D01*
X144505247Y-120532872D01*
X144522402Y-120531399D01*
X145196800Y-120531399D01*
X145196800Y-119403200D01*
X143718601Y-119403200D01*
X143718601Y-119882098D01*
X143725067Y-119953263D01*
X143725067Y-119953268D01*
X143759130Y-120062580D01*
X143758378Y-120124750D01*
X143721228Y-120174604D01*
X143717475Y-120177137D01*
X143675363Y-120204201D01*
X143675360Y-120204204D01*
X143590078Y-120302626D01*
X143535977Y-120421091D01*
X143519906Y-120532872D01*
X143517443Y-120550000D01*
X143535977Y-120678909D01*
X143558226Y-120727626D01*
X143590078Y-120797373D01*
X143675359Y-120895795D01*
X143675362Y-120895797D01*
X143675364Y-120895799D01*
X143675883Y-120896132D01*
X143676209Y-120896531D01*
X143680798Y-120900507D01*
X143680110Y-120901301D01*
X143715242Y-120944259D01*
X143722100Y-120980765D01*
X143722100Y-122004921D01*
X143702887Y-122064052D01*
X143692635Y-122076056D01*
X143101235Y-122667456D01*
X143045837Y-122695682D01*
X142984429Y-122685956D01*
X142940465Y-122641992D01*
X142929500Y-122596321D01*
X142929500Y-115137178D01*
X142948713Y-115078047D01*
X142991602Y-115044236D01*
X143091402Y-115002898D01*
X143153385Y-114998020D01*
X143206397Y-115030506D01*
X143230190Y-115087947D01*
X143230500Y-115095840D01*
X143230500Y-115696149D01*
X143230499Y-115696163D01*
X143230499Y-115804876D01*
X143242441Y-115833706D01*
X143242441Y-115833707D01*
X143269000Y-115897827D01*
X143269001Y-115897828D01*
X143340143Y-115968970D01*
X143340144Y-115968970D01*
X143348424Y-115977250D01*
X143348428Y-115977253D01*
X145018040Y-117646865D01*
X145046266Y-117702263D01*
X145036540Y-117763671D01*
X144992576Y-117807635D01*
X144946905Y-117818600D01*
X144367901Y-117818600D01*
X144296736Y-117825067D01*
X144296734Y-117825067D01*
X144132954Y-117876102D01*
X144132952Y-117876104D01*
X143986149Y-117964850D01*
X143864850Y-118086149D01*
X143776104Y-118232952D01*
X143776102Y-118232954D01*
X143725069Y-118396727D01*
X143725068Y-118396732D01*
X143718600Y-118467912D01*
X143718600Y-118946800D01*
X145324400Y-118946800D01*
X145383531Y-118966013D01*
X145420076Y-119016313D01*
X145425000Y-119047400D01*
X145425000Y-119175000D01*
X145552600Y-119175000D01*
X145611731Y-119194213D01*
X145648276Y-119244513D01*
X145653200Y-119275600D01*
X145653200Y-120531399D01*
X146482098Y-120531399D01*
X146553263Y-120524932D01*
X146553265Y-120524932D01*
X146717045Y-120473897D01*
X146717047Y-120473895D01*
X146863850Y-120385149D01*
X146985149Y-120263850D01*
X147073895Y-120117047D01*
X147073897Y-120117045D01*
X147124930Y-119953273D01*
X147125957Y-119941970D01*
X147150441Y-119884819D01*
X147203840Y-119852974D01*
X147265760Y-119858598D01*
X147297276Y-119879932D01*
X147306743Y-119889399D01*
X147306744Y-119889399D01*
X147315024Y-119897679D01*
X147315028Y-119897682D01*
X148119393Y-120702048D01*
X148147619Y-120757446D01*
X148147834Y-120787498D01*
X148142443Y-120824998D01*
X148142443Y-120825000D01*
X148160977Y-120953909D01*
X148170609Y-120974999D01*
X148215078Y-121072373D01*
X148300360Y-121170795D01*
X148300364Y-121170799D01*
X148409924Y-121241208D01*
X148534883Y-121277900D01*
X148534884Y-121277900D01*
X148665116Y-121277900D01*
X148665117Y-121277900D01*
X148790076Y-121241208D01*
X148899636Y-121170799D01*
X148984921Y-121072374D01*
X149039023Y-120953909D01*
X149057557Y-120825000D01*
X149039023Y-120696091D01*
X148984921Y-120577626D01*
X148946142Y-120532872D01*
X148899639Y-120479204D01*
X148899637Y-120479203D01*
X148899636Y-120479201D01*
X148796825Y-120413129D01*
X148757469Y-120364999D01*
X148753919Y-120302926D01*
X148787532Y-120250622D01*
X148845470Y-120228064D01*
X148851214Y-120227900D01*
X150456710Y-120227900D01*
X150456714Y-120227899D01*
X150551055Y-120212957D01*
X150664771Y-120155016D01*
X150755016Y-120064771D01*
X150812957Y-119951055D01*
X150827900Y-119856708D01*
X150827900Y-119703500D01*
X150847113Y-119644369D01*
X150897413Y-119607824D01*
X150928500Y-119602900D01*
X150996500Y-119602900D01*
X151055631Y-119622113D01*
X151092176Y-119672413D01*
X151097100Y-119703500D01*
X151097100Y-120556704D01*
X151100414Y-120577626D01*
X151112043Y-120651054D01*
X151112043Y-120651055D01*
X151112044Y-120651057D01*
X151169981Y-120764766D01*
X151169982Y-120764767D01*
X151169984Y-120764770D01*
X151260230Y-120855016D01*
X151260232Y-120855017D01*
X151260233Y-120855018D01*
X151373942Y-120912955D01*
X151373946Y-120912957D01*
X151468293Y-120927900D01*
X152456706Y-120927899D01*
X152506454Y-120920020D01*
X152567861Y-120929747D01*
X152611825Y-120973711D01*
X152621765Y-121005065D01*
X152635976Y-121103908D01*
X152690078Y-121222373D01*
X152775360Y-121320795D01*
X152775364Y-121320799D01*
X152884924Y-121391208D01*
X153009883Y-121427900D01*
X153009884Y-121427900D01*
X153140116Y-121427900D01*
X153140117Y-121427900D01*
X153265076Y-121391208D01*
X153374636Y-121320799D01*
X153459921Y-121222374D01*
X153514023Y-121103909D01*
X153532557Y-120975000D01*
X153531538Y-120967916D01*
X153528137Y-120944259D01*
X153514023Y-120846091D01*
X153459921Y-120727626D01*
X153432596Y-120696091D01*
X153374639Y-120629204D01*
X153374635Y-120629200D01*
X153265076Y-120558792D01*
X153265075Y-120558791D01*
X153171786Y-120531399D01*
X153140117Y-120522100D01*
X153021425Y-120522100D01*
X152962294Y-120502887D01*
X152950290Y-120492635D01*
X152857364Y-120399709D01*
X152829138Y-120344311D01*
X152827899Y-120328574D01*
X152827899Y-119243295D01*
X152820877Y-119198958D01*
X152812957Y-119148946D01*
X152761217Y-119047400D01*
X152755018Y-119035233D01*
X152755017Y-119035232D01*
X152755016Y-119035230D01*
X152664770Y-118944984D01*
X152664767Y-118944982D01*
X152664766Y-118944981D01*
X152664767Y-118944981D01*
X152551057Y-118887044D01*
X152551051Y-118887042D01*
X152456711Y-118872100D01*
X151468295Y-118872100D01*
X151402565Y-118882510D01*
X151373946Y-118887043D01*
X151373944Y-118887043D01*
X151373942Y-118887044D01*
X151260233Y-118944981D01*
X151169982Y-119035232D01*
X151166448Y-119042170D01*
X151122485Y-119086134D01*
X151076812Y-119097100D01*
X150928500Y-119097100D01*
X150869369Y-119077887D01*
X150832824Y-119027587D01*
X150827900Y-118996500D01*
X150827900Y-118493290D01*
X150827899Y-118493285D01*
X150823880Y-118467912D01*
X150812957Y-118398945D01*
X150801550Y-118376557D01*
X150755018Y-118285232D01*
X150755017Y-118285231D01*
X150755016Y-118285229D01*
X150664771Y-118194984D01*
X150664768Y-118194982D01*
X150664767Y-118194981D01*
X150664768Y-118194981D01*
X150551058Y-118137044D01*
X150551052Y-118137042D01*
X150456714Y-118122100D01*
X150456708Y-118122100D01*
X149360479Y-118122100D01*
X149301348Y-118102887D01*
X149264803Y-118052587D01*
X149264803Y-117990413D01*
X149284450Y-117955622D01*
X149308470Y-117927900D01*
X149334921Y-117897374D01*
X149389023Y-117778909D01*
X149407557Y-117650000D01*
X149389023Y-117521091D01*
X149334921Y-117402626D01*
X149249636Y-117304201D01*
X149249635Y-117304200D01*
X149140076Y-117233792D01*
X149140075Y-117233791D01*
X149039818Y-117204353D01*
X149015117Y-117197100D01*
X148896424Y-117197100D01*
X148837293Y-117177887D01*
X148825289Y-117167635D01*
X148797682Y-117140028D01*
X148797681Y-117140026D01*
X148789399Y-117131744D01*
X148789399Y-117131743D01*
X148718257Y-117060601D01*
X148718256Y-117060600D01*
X148691031Y-117049324D01*
X148663806Y-117038047D01*
X148625305Y-117022099D01*
X148524695Y-117022099D01*
X148512986Y-117022099D01*
X148512978Y-117022100D01*
X146853423Y-117022100D01*
X146794292Y-117002887D01*
X146757747Y-116952587D01*
X146757747Y-116890413D01*
X146782287Y-116850366D01*
X146808583Y-116824069D01*
X146808591Y-116824064D01*
X146818255Y-116814399D01*
X146818257Y-116814399D01*
X146889399Y-116743257D01*
X146913280Y-116685601D01*
X146913281Y-116685601D01*
X146913281Y-116685597D01*
X146924317Y-116658958D01*
X146927901Y-116650306D01*
X146927901Y-116541592D01*
X146927900Y-116541578D01*
X146927900Y-115393460D01*
X146947113Y-115334329D01*
X146997413Y-115297784D01*
X147058430Y-115297415D01*
X147146731Y-115324931D01*
X147217912Y-115331399D01*
X148046800Y-115331399D01*
X148503200Y-115331399D01*
X149332098Y-115331399D01*
X149403263Y-115324932D01*
X149403265Y-115324932D01*
X149567045Y-115273897D01*
X149567047Y-115273895D01*
X149713850Y-115185149D01*
X149835149Y-115063850D01*
X149923895Y-114917047D01*
X149923897Y-114917045D01*
X149974930Y-114753272D01*
X149974931Y-114753267D01*
X149981400Y-114682087D01*
X149981400Y-114203200D01*
X148503200Y-114203200D01*
X148503200Y-115331399D01*
X148046800Y-115331399D01*
X148046800Y-112618600D01*
X147797180Y-112618600D01*
X147738049Y-112599387D01*
X147701504Y-112549087D01*
X147701504Y-112486913D01*
X147726043Y-112446867D01*
X147815546Y-112357365D01*
X147870944Y-112329138D01*
X147886681Y-112327900D01*
X149264065Y-112327900D01*
X149323196Y-112347113D01*
X149359741Y-112397413D01*
X149359741Y-112459587D01*
X149357007Y-112466998D01*
X149319935Y-112556498D01*
X149279556Y-112603776D01*
X149226993Y-112618600D01*
X148503200Y-112618600D01*
X148503200Y-113746800D01*
X149981399Y-113746800D01*
X149981399Y-113337652D01*
X150000612Y-113278521D01*
X150043501Y-113244710D01*
X150126431Y-113210359D01*
X150126430Y-113210359D01*
X150126436Y-113210357D01*
X150241933Y-113121733D01*
X150330557Y-113006236D01*
X150351573Y-112955500D01*
X150367520Y-112917001D01*
X150407899Y-112869724D01*
X150460462Y-112854900D01*
X150932444Y-112854900D01*
X150991575Y-112874113D01*
X151028120Y-112924413D01*
X151028120Y-112986587D01*
X151003580Y-113026632D01*
X150960335Y-113069878D01*
X150944981Y-113085232D01*
X150887044Y-113198941D01*
X150887042Y-113198947D01*
X150872100Y-113293285D01*
X150872100Y-114656714D01*
X150887042Y-114751052D01*
X150887044Y-114751058D01*
X150944981Y-114864767D01*
X150944982Y-114864768D01*
X150944984Y-114864771D01*
X151035229Y-114955016D01*
X151035231Y-114955017D01*
X151035232Y-114955018D01*
X151106560Y-114991361D01*
X151148945Y-115012957D01*
X151219185Y-115024081D01*
X151243285Y-115027899D01*
X151243290Y-115027900D01*
X151243292Y-115027900D01*
X151634000Y-115027900D01*
X151693131Y-115047113D01*
X151729676Y-115097413D01*
X151734600Y-115128500D01*
X151734600Y-115721500D01*
X151715387Y-115780631D01*
X151665087Y-115817176D01*
X151634001Y-115822100D01*
X151468295Y-115822100D01*
X151402565Y-115832510D01*
X151373946Y-115837043D01*
X151373944Y-115837043D01*
X151373942Y-115837044D01*
X151260233Y-115894981D01*
X151169981Y-115985233D01*
X151112044Y-116098942D01*
X151112042Y-116098948D01*
X151097100Y-116193286D01*
X151097100Y-117506704D01*
X151103500Y-117547113D01*
X151112043Y-117601054D01*
X151112043Y-117601055D01*
X151112044Y-117601057D01*
X151169981Y-117714766D01*
X151169982Y-117714767D01*
X151169984Y-117714770D01*
X151260230Y-117805016D01*
X151260232Y-117805017D01*
X151260233Y-117805018D01*
X151328941Y-117840026D01*
X151373946Y-117862957D01*
X151468293Y-117877900D01*
X152456706Y-117877899D01*
X152551054Y-117862957D01*
X152664770Y-117805016D01*
X152712422Y-117757364D01*
X152767820Y-117729138D01*
X152783556Y-117727900D01*
X152848924Y-117727900D01*
X152908055Y-117747113D01*
X152924951Y-117762619D01*
X152939066Y-117778909D01*
X152975360Y-117820795D01*
X152975364Y-117820799D01*
X153084924Y-117891208D01*
X153209883Y-117927900D01*
X153209884Y-117927900D01*
X153340116Y-117927900D01*
X153340117Y-117927900D01*
X153465076Y-117891208D01*
X153574636Y-117820799D01*
X153659921Y-117722374D01*
X153714023Y-117603909D01*
X153732557Y-117475000D01*
X153714023Y-117346091D01*
X153659921Y-117227626D01*
X153639755Y-117204353D01*
X153574639Y-117129204D01*
X153574635Y-117129200D01*
X153465076Y-117058792D01*
X153465075Y-117058791D01*
X153367433Y-117030121D01*
X153340117Y-117022100D01*
X153209883Y-117022100D01*
X153182567Y-117030121D01*
X153084924Y-117058791D01*
X152982886Y-117124366D01*
X152922754Y-117140171D01*
X152864817Y-117117613D01*
X152831204Y-117065308D01*
X152827899Y-117039741D01*
X152827899Y-116193294D01*
X152812957Y-116098946D01*
X152782102Y-116038389D01*
X152755018Y-115985233D01*
X152755017Y-115985232D01*
X152755016Y-115985230D01*
X152664770Y-115894984D01*
X152664767Y-115894982D01*
X152664766Y-115894981D01*
X152664767Y-115894981D01*
X152551057Y-115837044D01*
X152551051Y-115837042D01*
X152456713Y-115822100D01*
X152456707Y-115822100D01*
X152341000Y-115822100D01*
X152281869Y-115802887D01*
X152245324Y-115752587D01*
X152240400Y-115721500D01*
X152240400Y-115128500D01*
X152259613Y-115069369D01*
X152309913Y-115032824D01*
X152341000Y-115027900D01*
X153306710Y-115027900D01*
X153306714Y-115027899D01*
X153401055Y-115012957D01*
X153514771Y-114955016D01*
X153605016Y-114864771D01*
X153662957Y-114751055D01*
X153677900Y-114656708D01*
X153677900Y-113293292D01*
X153662957Y-113198945D01*
X153662955Y-113198941D01*
X153605018Y-113085232D01*
X153605017Y-113085231D01*
X153605016Y-113085229D01*
X153546419Y-113026632D01*
X153518195Y-112971237D01*
X153527921Y-112909829D01*
X153571885Y-112865865D01*
X153617556Y-112854900D01*
X154371500Y-112854900D01*
X154430631Y-112874113D01*
X154467176Y-112924413D01*
X154472100Y-112955500D01*
X154472100Y-113719233D01*
X154452887Y-113778364D01*
X154430677Y-113799341D01*
X154430804Y-113799487D01*
X154427408Y-113802429D01*
X154425894Y-113803860D01*
X154425366Y-113804198D01*
X154340077Y-113902628D01*
X154285977Y-114021091D01*
X154268306Y-114144001D01*
X154267443Y-114150000D01*
X154282647Y-114255751D01*
X154285977Y-114278908D01*
X154340078Y-114397373D01*
X154425360Y-114495795D01*
X154425364Y-114495799D01*
X154534924Y-114566208D01*
X154659883Y-114602900D01*
X154659884Y-114602900D01*
X154790116Y-114602900D01*
X154790117Y-114602900D01*
X154915076Y-114566208D01*
X155024636Y-114495799D01*
X155109921Y-114397374D01*
X155164023Y-114278909D01*
X155182557Y-114150000D01*
X155181694Y-114144001D01*
X155178094Y-114118958D01*
X155164023Y-114021091D01*
X155109921Y-113902626D01*
X155024636Y-113804201D01*
X155024635Y-113804200D01*
X155024633Y-113804198D01*
X155024106Y-113803860D01*
X155023774Y-113803454D01*
X155019196Y-113799487D01*
X155019882Y-113798694D01*
X154984752Y-113755726D01*
X154977900Y-113719233D01*
X154977900Y-112955500D01*
X154997113Y-112896369D01*
X155047413Y-112859824D01*
X155078500Y-112854900D01*
X158274769Y-112854900D01*
X158333900Y-112874113D01*
X158370445Y-112924413D01*
X158370445Y-112986587D01*
X158333900Y-113036887D01*
X158330661Y-113039145D01*
X158314765Y-113049766D01*
X158280971Y-113100342D01*
X158272100Y-113144943D01*
X158272100Y-115375055D01*
X158280971Y-115419657D01*
X158280973Y-115419661D01*
X158314764Y-115470232D01*
X158314765Y-115470233D01*
X158314766Y-115470234D01*
X158365342Y-115504028D01*
X158409943Y-115512900D01*
X158866806Y-115512899D01*
X158925935Y-115532112D01*
X158962480Y-115582412D01*
X158962480Y-115644586D01*
X158925935Y-115694886D01*
X158909324Y-115704671D01*
X158896165Y-115710807D01*
X158896154Y-115710814D01*
X158716572Y-115836559D01*
X158561559Y-115991572D01*
X158435814Y-116171154D01*
X158435809Y-116171162D01*
X158343163Y-116369842D01*
X158315646Y-116472537D01*
X158281784Y-116524681D01*
X158223739Y-116546962D01*
X158218474Y-116547100D01*
X155903499Y-116547100D01*
X155844368Y-116527887D01*
X155807823Y-116477587D01*
X155802899Y-116446500D01*
X155802899Y-116193295D01*
X155802898Y-116193286D01*
X155787957Y-116098946D01*
X155757102Y-116038389D01*
X155730018Y-115985233D01*
X155730017Y-115985232D01*
X155730016Y-115985230D01*
X155639770Y-115894984D01*
X155639767Y-115894982D01*
X155639766Y-115894981D01*
X155639767Y-115894981D01*
X155526057Y-115837044D01*
X155526051Y-115837042D01*
X155431711Y-115822100D01*
X154443295Y-115822100D01*
X154377565Y-115832510D01*
X154348946Y-115837043D01*
X154348944Y-115837043D01*
X154348942Y-115837044D01*
X154235233Y-115894981D01*
X154144981Y-115985233D01*
X154087044Y-116098942D01*
X154087042Y-116098948D01*
X154072100Y-116193286D01*
X154072100Y-117506704D01*
X154078500Y-117547113D01*
X154087043Y-117601054D01*
X154087043Y-117601055D01*
X154087044Y-117601057D01*
X154144981Y-117714766D01*
X154144982Y-117714767D01*
X154144984Y-117714770D01*
X154235230Y-117805016D01*
X154235232Y-117805017D01*
X154235233Y-117805018D01*
X154303941Y-117840026D01*
X154348946Y-117862957D01*
X154443293Y-117877900D01*
X155431706Y-117877899D01*
X155526054Y-117862957D01*
X155639770Y-117805016D01*
X155730016Y-117714770D01*
X155787957Y-117601054D01*
X155802900Y-117506707D01*
X155802900Y-117153500D01*
X155822113Y-117094369D01*
X155872413Y-117057824D01*
X155903500Y-117052900D01*
X158218474Y-117052900D01*
X158277605Y-117072113D01*
X158314150Y-117122413D01*
X158315646Y-117127463D01*
X158336137Y-117203938D01*
X158343163Y-117230157D01*
X158377692Y-117304204D01*
X158435812Y-117428843D01*
X158561557Y-117608425D01*
X158716575Y-117763443D01*
X158896157Y-117889188D01*
X158913710Y-117897373D01*
X159088385Y-117978826D01*
X159133856Y-118021228D01*
X159145719Y-118082260D01*
X159119443Y-118138609D01*
X159088385Y-118161174D01*
X158896162Y-118250809D01*
X158896154Y-118250814D01*
X158716572Y-118376559D01*
X158561559Y-118531572D01*
X158435814Y-118711154D01*
X158435809Y-118711162D01*
X158343163Y-118909842D01*
X158315646Y-119012537D01*
X158281784Y-119064681D01*
X158223739Y-119086962D01*
X158218474Y-119087100D01*
X155818093Y-119087100D01*
X155758962Y-119067887D01*
X155735827Y-119040799D01*
X155734673Y-119041639D01*
X155730019Y-119035234D01*
X155730017Y-119035232D01*
X155730016Y-119035230D01*
X155639770Y-118944984D01*
X155639767Y-118944982D01*
X155639766Y-118944981D01*
X155639767Y-118944981D01*
X155526057Y-118887044D01*
X155526051Y-118887042D01*
X155431711Y-118872100D01*
X154443295Y-118872100D01*
X154377565Y-118882510D01*
X154348946Y-118887043D01*
X154348944Y-118887043D01*
X154348942Y-118887044D01*
X154235233Y-118944981D01*
X154144981Y-119035233D01*
X154087044Y-119148942D01*
X154087042Y-119148948D01*
X154072100Y-119243286D01*
X154072100Y-120556704D01*
X154075414Y-120577626D01*
X154087043Y-120651054D01*
X154087043Y-120651055D01*
X154087044Y-120651057D01*
X154144981Y-120764766D01*
X154144982Y-120764767D01*
X154144984Y-120764770D01*
X154235230Y-120855016D01*
X154235232Y-120855017D01*
X154235233Y-120855018D01*
X154348942Y-120912955D01*
X154348946Y-120912957D01*
X154443293Y-120927900D01*
X155431706Y-120927899D01*
X155526054Y-120912957D01*
X155639770Y-120855016D01*
X155730016Y-120764770D01*
X155787957Y-120651054D01*
X155802900Y-120556707D01*
X155802899Y-119693499D01*
X155822112Y-119634369D01*
X155872412Y-119597824D01*
X155903499Y-119592900D01*
X158218474Y-119592900D01*
X158277605Y-119612113D01*
X158314150Y-119662413D01*
X158315646Y-119667463D01*
X158316972Y-119672413D01*
X158338435Y-119752514D01*
X158343163Y-119770157D01*
X158435809Y-119968837D01*
X158435812Y-119968843D01*
X158561557Y-120148425D01*
X158561559Y-120148427D01*
X158716576Y-120303444D01*
X158778674Y-120346926D01*
X158816091Y-120396580D01*
X158817176Y-120458745D01*
X158781514Y-120509675D01*
X158773536Y-120515107D01*
X158607341Y-120616952D01*
X158607336Y-120616955D01*
X158595115Y-120627392D01*
X159330450Y-121362727D01*
X159312708Y-121367482D01*
X159187292Y-121439890D01*
X159084890Y-121542292D01*
X159012482Y-121667708D01*
X159007727Y-121685450D01*
X158272392Y-120950115D01*
X158261955Y-120962336D01*
X158261954Y-120962338D01*
X158133947Y-121171227D01*
X158133946Y-121171229D01*
X158040196Y-121397561D01*
X158040196Y-121397562D01*
X157983009Y-121635765D01*
X157983007Y-121635774D01*
X157963787Y-121880000D01*
X157983007Y-122124225D01*
X157983009Y-122124234D01*
X158040196Y-122362437D01*
X158040196Y-122362438D01*
X158133946Y-122588770D01*
X158133948Y-122588776D01*
X158261953Y-122797660D01*
X158261956Y-122797663D01*
X158272392Y-122809882D01*
X159007727Y-122074548D01*
X159012482Y-122092292D01*
X159084890Y-122217708D01*
X159187292Y-122320110D01*
X159312708Y-122392518D01*
X159330450Y-122397272D01*
X158595116Y-123132605D01*
X158607341Y-123143047D01*
X158816223Y-123271051D01*
X158816229Y-123271053D01*
X159042562Y-123364803D01*
X159280765Y-123421990D01*
X159280774Y-123421992D01*
X159525000Y-123441212D01*
X159769225Y-123421992D01*
X159769234Y-123421990D01*
X160007437Y-123364803D01*
X160007438Y-123364803D01*
X160233770Y-123271053D01*
X160233772Y-123271052D01*
X160442656Y-123143048D01*
X160454882Y-123132606D01*
X160454882Y-123132605D01*
X159719549Y-122397272D01*
X159737292Y-122392518D01*
X159862708Y-122320110D01*
X159965110Y-122217708D01*
X160037518Y-122092292D01*
X160042272Y-122074549D01*
X160777605Y-122809882D01*
X160777606Y-122809882D01*
X160788048Y-122797656D01*
X160916052Y-122588772D01*
X160916053Y-122588770D01*
X161009803Y-122362438D01*
X161009803Y-122362437D01*
X161066990Y-122124234D01*
X161066992Y-122124225D01*
X161086212Y-121880000D01*
X161066992Y-121635774D01*
X161066990Y-121635765D01*
X161009803Y-121397562D01*
X161009803Y-121397561D01*
X160916053Y-121171229D01*
X160916051Y-121171223D01*
X160788047Y-120962341D01*
X160777605Y-120950116D01*
X160042271Y-121685449D01*
X160037518Y-121667708D01*
X159965110Y-121542292D01*
X159862708Y-121439890D01*
X159737292Y-121367482D01*
X159719547Y-121362727D01*
X160454883Y-120627392D01*
X160442666Y-120616958D01*
X160276462Y-120515108D01*
X160236084Y-120467830D01*
X160231206Y-120405847D01*
X160263692Y-120352835D01*
X160271311Y-120346935D01*
X160333425Y-120303443D01*
X160488443Y-120148425D01*
X160614188Y-119968843D01*
X160706838Y-119770154D01*
X160763579Y-119558395D01*
X160782686Y-119340000D01*
X160763579Y-119121605D01*
X160706838Y-118909846D01*
X160696205Y-118887044D01*
X160654685Y-118798003D01*
X160614188Y-118711157D01*
X160488443Y-118531575D01*
X160333425Y-118376557D01*
X160153843Y-118250812D01*
X159961614Y-118161174D01*
X159916143Y-118118772D01*
X159904280Y-118057740D01*
X159930556Y-118001391D01*
X159961615Y-117978825D01*
X159968424Y-117975650D01*
X160153843Y-117889188D01*
X160333425Y-117763443D01*
X160488443Y-117608425D01*
X160614188Y-117428843D01*
X160706838Y-117230154D01*
X160763579Y-117018395D01*
X160782686Y-116800000D01*
X160763579Y-116581605D01*
X160706838Y-116369846D01*
X160694764Y-116343954D01*
X160656383Y-116261644D01*
X160614188Y-116171157D01*
X160488443Y-115991575D01*
X160333425Y-115836557D01*
X160153843Y-115710812D01*
X160153832Y-115710807D01*
X160140678Y-115704673D01*
X160095207Y-115662270D01*
X160083344Y-115601238D01*
X160109620Y-115544889D01*
X160163999Y-115514747D01*
X160183191Y-115512899D01*
X160640056Y-115512899D01*
X160684658Y-115504028D01*
X160735234Y-115470234D01*
X160769028Y-115419658D01*
X160777900Y-115375057D01*
X160777899Y-113144944D01*
X160769028Y-113100342D01*
X160769026Y-113100338D01*
X160735235Y-113049767D01*
X160735233Y-113049765D01*
X160684657Y-113015971D01*
X160648928Y-113008864D01*
X160640057Y-113007100D01*
X160640056Y-113007100D01*
X159229383Y-113007100D01*
X159170252Y-112987887D01*
X159133707Y-112937587D01*
X159133707Y-112875413D01*
X159170252Y-112825113D01*
X159179076Y-112819382D01*
X159239686Y-112784390D01*
X160555730Y-111468346D01*
X160602190Y-111387874D01*
X160626240Y-111298120D01*
X160626240Y-111205200D01*
X160626240Y-101790665D01*
X160627100Y-101777536D01*
X160627900Y-101771458D01*
X160627900Y-101678540D01*
X160616879Y-101637411D01*
X160616879Y-101637409D01*
X160605587Y-101595265D01*
X160602159Y-101569229D01*
X160602159Y-86077799D01*
X160578109Y-85988045D01*
X160531649Y-85907573D01*
X160517904Y-85893828D01*
X160462449Y-85838372D01*
X160462426Y-85838351D01*
X160332365Y-85708289D01*
X160304138Y-85652891D01*
X160302900Y-85637154D01*
X160302900Y-84768290D01*
X160302899Y-84768285D01*
X160288975Y-84680372D01*
X160287957Y-84673945D01*
X160275558Y-84649610D01*
X160230018Y-84560232D01*
X160230017Y-84560231D01*
X160230016Y-84560229D01*
X160139771Y-84469984D01*
X160139768Y-84469982D01*
X160139767Y-84469981D01*
X160139768Y-84469981D01*
X160026058Y-84412044D01*
X160026052Y-84412042D01*
X159931714Y-84397100D01*
X159931708Y-84397100D01*
X159168292Y-84397100D01*
X159168285Y-84397100D01*
X159073947Y-84412042D01*
X159073941Y-84412044D01*
X158960232Y-84469981D01*
X158869981Y-84560232D01*
X158812044Y-84673941D01*
X158812042Y-84673947D01*
X158797100Y-84768285D01*
X158797100Y-84983259D01*
X158777887Y-85042390D01*
X158727587Y-85078935D01*
X158665413Y-85078935D01*
X158615113Y-85042390D01*
X158597833Y-85002885D01*
X158565802Y-84841857D01*
X158486170Y-84649610D01*
X158370560Y-84476586D01*
X158223413Y-84329439D01*
X158050389Y-84213829D01*
X157858141Y-84134197D01*
X157858134Y-84134195D01*
X157778200Y-84118294D01*
X157778200Y-85123738D01*
X157694745Y-85075556D01*
X157599370Y-85050000D01*
X157500630Y-85050000D01*
X157405255Y-85075556D01*
X157321800Y-85123738D01*
X157321800Y-84118294D01*
X157241865Y-84134195D01*
X157241858Y-84134197D01*
X157049610Y-84213829D01*
X156876586Y-84329439D01*
X156876585Y-84329441D01*
X156729441Y-84476585D01*
X156729439Y-84476586D01*
X156613829Y-84649610D01*
X156534197Y-84841857D01*
X156493600Y-85045954D01*
X156493600Y-85196800D01*
X157248739Y-85196800D01*
X157200556Y-85280255D01*
X157175000Y-85375630D01*
X157175000Y-85474370D01*
X157200556Y-85569745D01*
X157248739Y-85653200D01*
X156493600Y-85653200D01*
X156493600Y-85804045D01*
X156534197Y-86008142D01*
X156613829Y-86200389D01*
X156729439Y-86373413D01*
X156876586Y-86520560D01*
X157049610Y-86636170D01*
X157241857Y-86715802D01*
X157321799Y-86731703D01*
X157321800Y-86731703D01*
X157321800Y-85726261D01*
X157405255Y-85774444D01*
X157500630Y-85800000D01*
X157599370Y-85800000D01*
X157694745Y-85774444D01*
X157778200Y-85726261D01*
X157778200Y-86731703D01*
X157858142Y-86715802D01*
X158050389Y-86636170D01*
X158223413Y-86520560D01*
X158223415Y-86520559D01*
X158370559Y-86373415D01*
X158370560Y-86373413D01*
X158486170Y-86200389D01*
X158565802Y-86008142D01*
X158597833Y-85847114D01*
X158628213Y-85792867D01*
X158684676Y-85766837D01*
X158745655Y-85778967D01*
X158787859Y-85824623D01*
X158797100Y-85866740D01*
X158797100Y-86081714D01*
X158812042Y-86176052D01*
X158812044Y-86176058D01*
X158869981Y-86289767D01*
X158869982Y-86289768D01*
X158869984Y-86289771D01*
X158960229Y-86380016D01*
X158960231Y-86380017D01*
X158960232Y-86380018D01*
X159001420Y-86401004D01*
X159073945Y-86437957D01*
X159144185Y-86449081D01*
X159168285Y-86452899D01*
X159168290Y-86452900D01*
X159168292Y-86452900D01*
X159795759Y-86452900D01*
X159854890Y-86472113D01*
X159891435Y-86522413D01*
X159896359Y-86553500D01*
X159896359Y-90452276D01*
X159877146Y-90511407D01*
X159826846Y-90547952D01*
X159764672Y-90547952D01*
X159714372Y-90511407D01*
X159696020Y-90465407D01*
X159694339Y-90452643D01*
X159640544Y-90322770D01*
X159640540Y-90322763D01*
X159554964Y-90211238D01*
X159554958Y-90211232D01*
X159443437Y-90125659D01*
X159443430Y-90125655D01*
X159313557Y-90071860D01*
X159174184Y-90053512D01*
X159174178Y-90053512D01*
X159034805Y-90071860D01*
X158904932Y-90125655D01*
X158904930Y-90125656D01*
X158853634Y-90165016D01*
X158793399Y-90211237D01*
X158793397Y-90211238D01*
X158788325Y-90215131D01*
X158729717Y-90235885D01*
X158727084Y-90235919D01*
X152981871Y-90235919D01*
X152922740Y-90216706D01*
X152886195Y-90166406D01*
X152886195Y-90104232D01*
X152910736Y-90064184D01*
X153449201Y-89525719D01*
X155736716Y-87238204D01*
X155792113Y-87209980D01*
X155794720Y-87209602D01*
X155801062Y-87208767D01*
X155940438Y-87190418D01*
X156070316Y-87136621D01*
X156181844Y-87051042D01*
X156267423Y-86939514D01*
X156321220Y-86809636D01*
X156328622Y-86753410D01*
X156339569Y-86670263D01*
X156339569Y-86670256D01*
X156321220Y-86530884D01*
X156267425Y-86401011D01*
X156267421Y-86401004D01*
X156181845Y-86289479D01*
X156181839Y-86289473D01*
X156070318Y-86203900D01*
X156070311Y-86203896D01*
X155940438Y-86150101D01*
X155801065Y-86131753D01*
X155801059Y-86131753D01*
X155661686Y-86150101D01*
X155531813Y-86203896D01*
X155531806Y-86203900D01*
X155420283Y-86289475D01*
X155420277Y-86289481D01*
X155334702Y-86401004D01*
X155334698Y-86401011D01*
X155280903Y-86530884D01*
X155261720Y-86676598D01*
X155234954Y-86732715D01*
X155233116Y-86734602D01*
X152370864Y-89596854D01*
X152315466Y-89625080D01*
X152299729Y-89626319D01*
X147703500Y-89626319D01*
X147644369Y-89607106D01*
X147607824Y-89556806D01*
X147602900Y-89525719D01*
X147602900Y-88775736D01*
X147622113Y-88716605D01*
X147642261Y-88695923D01*
X147642669Y-88695609D01*
X147644333Y-88694333D01*
X147732957Y-88578836D01*
X147788669Y-88444336D01*
X147807671Y-88300000D01*
X147807671Y-88299996D01*
X147788670Y-88155667D01*
X147732959Y-88021169D01*
X147732958Y-88021167D01*
X147732957Y-88021166D01*
X147732957Y-88021165D01*
X147644333Y-87905667D01*
X147528836Y-87817043D01*
X147528835Y-87817042D01*
X147528833Y-87817041D01*
X147528831Y-87817040D01*
X147394335Y-87761330D01*
X147250003Y-87742329D01*
X147249997Y-87742329D01*
X147105667Y-87761329D01*
X146971169Y-87817040D01*
X146971167Y-87817041D01*
X146855667Y-87905667D01*
X146767041Y-88021167D01*
X146767040Y-88021169D01*
X146711329Y-88155667D01*
X146692329Y-88299996D01*
X146692329Y-88300003D01*
X146711330Y-88444335D01*
X146767040Y-88578831D01*
X146767041Y-88578833D01*
X146855668Y-88694334D01*
X146857739Y-88695923D01*
X146858798Y-88697464D01*
X146860330Y-88698996D01*
X146860046Y-88699279D01*
X146892956Y-88747161D01*
X146897100Y-88775736D01*
X146897100Y-89675459D01*
X146897100Y-89768379D01*
X146921150Y-89858133D01*
X146967609Y-89938603D01*
X146967611Y-89938606D01*
X146986482Y-89957478D01*
X146997925Y-89972389D01*
X146998016Y-89972320D01*
X147002030Y-89977551D01*
X147291850Y-90267371D01*
X147373046Y-90314250D01*
X147373047Y-90314250D01*
X147373050Y-90314252D01*
X147392185Y-90319379D01*
X147392188Y-90319381D01*
X147392189Y-90319380D01*
X147463619Y-90338520D01*
X147563542Y-90338520D01*
X147563558Y-90338519D01*
X149212090Y-90338519D01*
X149271221Y-90357732D01*
X149307766Y-90408032D01*
X149307766Y-90470206D01*
X149283225Y-90510254D01*
X146721903Y-93071576D01*
X146666505Y-93099802D01*
X146650768Y-93101041D01*
X142349278Y-93101041D01*
X142290147Y-93081828D01*
X142288036Y-93080252D01*
X142282956Y-93076354D01*
X142171435Y-92990780D01*
X142171433Y-92990779D01*
X142171430Y-92990777D01*
X142041557Y-92936982D01*
X141902184Y-92918634D01*
X141902178Y-92918634D01*
X141762805Y-92936982D01*
X141632932Y-92990777D01*
X141632925Y-92990781D01*
X141521402Y-93076356D01*
X141521396Y-93076362D01*
X141435821Y-93187885D01*
X141435817Y-93187892D01*
X141382022Y-93317765D01*
X141363674Y-93457137D01*
X141363674Y-93457144D01*
X141382022Y-93596517D01*
X141435817Y-93726390D01*
X141435821Y-93726397D01*
X141521396Y-93837920D01*
X141521401Y-93837925D01*
X141632924Y-93923500D01*
X141632931Y-93923504D01*
X141762804Y-93977299D01*
X141902178Y-93995648D01*
X141902181Y-93995648D01*
X141902184Y-93995648D01*
X142041557Y-93977299D01*
X142171430Y-93923504D01*
X142171429Y-93923504D01*
X142171435Y-93923502D01*
X142282963Y-93837923D01*
X142282963Y-93837922D01*
X142288036Y-93834030D01*
X142346644Y-93813275D01*
X142349278Y-93813241D01*
X146886820Y-93813241D01*
X146886821Y-93813241D01*
X146920580Y-93804195D01*
X146977385Y-93788976D01*
X146977387Y-93788974D01*
X146977390Y-93788974D01*
X147058591Y-93742092D01*
X149823098Y-90977583D01*
X149878496Y-90949358D01*
X149894233Y-90948119D01*
X158727084Y-90948119D01*
X158786215Y-90967332D01*
X158788326Y-90968908D01*
X158793398Y-90972800D01*
X158793399Y-90972801D01*
X158904927Y-91058380D01*
X158904929Y-91058381D01*
X158904931Y-91058382D01*
X159034804Y-91112177D01*
X159174178Y-91130526D01*
X159174181Y-91130526D01*
X159174184Y-91130526D01*
X159313557Y-91112177D01*
X159443430Y-91058382D01*
X159443429Y-91058382D01*
X159443435Y-91058380D01*
X159554963Y-90972801D01*
X159640542Y-90861273D01*
X159694339Y-90731395D01*
X159694639Y-90729115D01*
X159696020Y-90718631D01*
X159722786Y-90662513D01*
X159777425Y-90632846D01*
X159839068Y-90640961D01*
X159884168Y-90683758D01*
X159896359Y-90731761D01*
X159896359Y-96401398D01*
X159877146Y-96460529D01*
X159826846Y-96497074D01*
X159764672Y-96497074D01*
X159724624Y-96472533D01*
X156918146Y-93666055D01*
X156889920Y-93610657D01*
X156888681Y-93594920D01*
X156888681Y-93475228D01*
X156896338Y-93436732D01*
X156909000Y-93406164D01*
X156909000Y-93264277D01*
X156870255Y-93170737D01*
X156798663Y-93099145D01*
X156792932Y-93093414D01*
X156792925Y-93093408D01*
X156392262Y-92692744D01*
X156332203Y-92667867D01*
X156306686Y-92657298D01*
X156274051Y-92635492D01*
X156234165Y-92595605D01*
X156234163Y-92595602D01*
X156148424Y-92509863D01*
X156115731Y-92496322D01*
X156083038Y-92482780D01*
X156083037Y-92482779D01*
X156054887Y-92471119D01*
X156054886Y-92471118D01*
X156054884Y-92471118D01*
X155941932Y-92471118D01*
X155941924Y-92471119D01*
X155131880Y-92471119D01*
X155131871Y-92471118D01*
X155018917Y-92471118D01*
X154925377Y-92509863D01*
X154925376Y-92509864D01*
X154853784Y-92581457D01*
X154248249Y-93186991D01*
X154243028Y-93191854D01*
X154235582Y-93198312D01*
X154178323Y-93222541D01*
X154117758Y-93208487D01*
X154089857Y-93183555D01*
X154080021Y-93170737D01*
X154026542Y-93101041D01*
X154007604Y-93076360D01*
X154007598Y-93076354D01*
X153896077Y-92990781D01*
X153896070Y-92990777D01*
X153766197Y-92936982D01*
X153626824Y-92918634D01*
X153626818Y-92918634D01*
X153487445Y-92936982D01*
X153357567Y-92990779D01*
X153336534Y-93006918D01*
X153277926Y-93027670D01*
X153218312Y-93010009D01*
X153204161Y-92998239D01*
X153142905Y-92936983D01*
X153042390Y-92836467D01*
X153034735Y-92827882D01*
X153034368Y-92827420D01*
X153034367Y-92827418D01*
X153003335Y-92797394D01*
X153002211Y-92796288D01*
X152971712Y-92765789D01*
X152971235Y-92765423D01*
X152970831Y-92765075D01*
X152970015Y-92764470D01*
X152968676Y-92763460D01*
X152967906Y-92762869D01*
X152967462Y-92762578D01*
X152966982Y-92762222D01*
X152966980Y-92762220D01*
X152929278Y-92741274D01*
X152927883Y-92740484D01*
X152890517Y-92718910D01*
X152889955Y-92718678D01*
X152879604Y-92713678D01*
X152841924Y-92692745D01*
X152746462Y-92639710D01*
X152745020Y-92638894D01*
X152707631Y-92617308D01*
X152707073Y-92617077D01*
X152706608Y-92616852D01*
X152705759Y-92616517D01*
X152704224Y-92615896D01*
X152703207Y-92615475D01*
X152702669Y-92615297D01*
X152702138Y-92615087D01*
X152702136Y-92615086D01*
X152660333Y-92604620D01*
X152658732Y-92604205D01*
X152617056Y-92593039D01*
X152616477Y-92592963D01*
X152615943Y-92592861D01*
X152614859Y-92592737D01*
X152613262Y-92592540D01*
X152612303Y-92592414D01*
X152611778Y-92592384D01*
X152611176Y-92592314D01*
X152568060Y-92593027D01*
X152566399Y-92593041D01*
X149347097Y-92593041D01*
X149287966Y-92573828D01*
X149285855Y-92572252D01*
X149204550Y-92509864D01*
X149169254Y-92482780D01*
X149169252Y-92482779D01*
X149169249Y-92482777D01*
X149039376Y-92428982D01*
X148900003Y-92410634D01*
X148899997Y-92410634D01*
X148760624Y-92428982D01*
X148630751Y-92482777D01*
X148630744Y-92482781D01*
X148519221Y-92568356D01*
X148519215Y-92568362D01*
X148433640Y-92679885D01*
X148433636Y-92679892D01*
X148379841Y-92809765D01*
X148361493Y-92949137D01*
X148361493Y-92949144D01*
X148379841Y-93088517D01*
X148433636Y-93218390D01*
X148433640Y-93218397D01*
X148519215Y-93329920D01*
X148519220Y-93329925D01*
X148630743Y-93415500D01*
X148630750Y-93415504D01*
X148760623Y-93469299D01*
X148899997Y-93487648D01*
X148900000Y-93487648D01*
X148900003Y-93487648D01*
X149039376Y-93469299D01*
X149118007Y-93436729D01*
X149169254Y-93415502D01*
X149280782Y-93329923D01*
X149280782Y-93329922D01*
X149285855Y-93326030D01*
X149344463Y-93305275D01*
X149347097Y-93305241D01*
X149396412Y-93305241D01*
X149455543Y-93324454D01*
X149492088Y-93374754D01*
X149492088Y-93436928D01*
X149467547Y-93476976D01*
X148845554Y-94098967D01*
X148825685Y-94114389D01*
X148820641Y-94117376D01*
X148820637Y-94117379D01*
X148805400Y-94137694D01*
X148796061Y-94148461D01*
X148778106Y-94166417D01*
X148775863Y-94171832D01*
X148763402Y-94193689D01*
X148744440Y-94218971D01*
X148735096Y-94229745D01*
X148138500Y-94826344D01*
X148066906Y-94897937D01*
X148055558Y-94925331D01*
X148055558Y-94925334D01*
X148034553Y-94976047D01*
X148028161Y-94991478D01*
X148028162Y-95048530D01*
X148028162Y-96373560D01*
X148008949Y-96432691D01*
X147958649Y-96469236D01*
X147927562Y-96474160D01*
X144949153Y-96474160D01*
X144890022Y-96454947D01*
X144869342Y-96434801D01*
X144802645Y-96347879D01*
X144802639Y-96347873D01*
X144691118Y-96262300D01*
X144691111Y-96262296D01*
X144561238Y-96208501D01*
X144421865Y-96190153D01*
X144421859Y-96190153D01*
X144282486Y-96208501D01*
X144152613Y-96262296D01*
X144152606Y-96262300D01*
X144041083Y-96347875D01*
X144041077Y-96347881D01*
X143955502Y-96459404D01*
X143955498Y-96459411D01*
X143901703Y-96589284D01*
X143883355Y-96728656D01*
X143883355Y-96728663D01*
X143901703Y-96868036D01*
X143955498Y-96997909D01*
X143955502Y-96997916D01*
X144041077Y-97109439D01*
X144041082Y-97109444D01*
X144152605Y-97195019D01*
X144152612Y-97195023D01*
X144282485Y-97248818D01*
X144421859Y-97267167D01*
X144421862Y-97267167D01*
X144421865Y-97267167D01*
X144561238Y-97248818D01*
X144691111Y-97195023D01*
X144691110Y-97195023D01*
X144691116Y-97195021D01*
X144802644Y-97109442D01*
X144867210Y-97025299D01*
X144869343Y-97022519D01*
X144920582Y-96987303D01*
X144949154Y-96983160D01*
X147502841Y-96983160D01*
X147561972Y-97002373D01*
X147598517Y-97052673D01*
X147598517Y-97114847D01*
X147582652Y-97145001D01*
X147531821Y-97211244D01*
X147531817Y-97211251D01*
X147478022Y-97341124D01*
X147459674Y-97480496D01*
X147459674Y-97480503D01*
X147478022Y-97619874D01*
X147496387Y-97664212D01*
X147501264Y-97726195D01*
X147468778Y-97779206D01*
X147416575Y-97802448D01*
X147330483Y-97813782D01*
X147200610Y-97867577D01*
X147200603Y-97867581D01*
X147089080Y-97953156D01*
X147089074Y-97953162D01*
X147003499Y-98064685D01*
X147003495Y-98064692D01*
X146949700Y-98194565D01*
X146931352Y-98333937D01*
X146931352Y-98333944D01*
X146949700Y-98473317D01*
X147003495Y-98603190D01*
X147003499Y-98603197D01*
X147089074Y-98714720D01*
X147089076Y-98714722D01*
X147089077Y-98714723D01*
X147093719Y-98718285D01*
X147116352Y-98735652D01*
X147151567Y-98786892D01*
X147149940Y-98849044D01*
X147126245Y-98886598D01*
X146885909Y-99126935D01*
X146830512Y-99155161D01*
X146814774Y-99156400D01*
X145325923Y-99156400D01*
X145224676Y-99156400D01*
X145197279Y-99167748D01*
X145176437Y-99176381D01*
X145131137Y-99195144D01*
X145131136Y-99195145D01*
X145059544Y-99266738D01*
X143393308Y-100932976D01*
X143393307Y-100932977D01*
X143393307Y-100932978D01*
X143378585Y-100968519D01*
X143354561Y-101026518D01*
X143354562Y-101083723D01*
X143354562Y-101173890D01*
X143335349Y-101233021D01*
X143325097Y-101245025D01*
X142979584Y-101590537D01*
X142968807Y-101599884D01*
X142943527Y-101618843D01*
X142921681Y-101631297D01*
X142916265Y-101633541D01*
X142916256Y-101633547D01*
X142898310Y-101651493D01*
X142887538Y-101660836D01*
X142867221Y-101676073D01*
X142867221Y-101676074D01*
X142864232Y-101681122D01*
X142848808Y-101700994D01*
X141981538Y-102568263D01*
X141909943Y-102639857D01*
X141871346Y-102733042D01*
X141871315Y-102733118D01*
X141871201Y-102733390D01*
X141871199Y-102733399D01*
X141871199Y-102846350D01*
X141871200Y-102846359D01*
X141871200Y-103632539D01*
X141870189Y-103646764D01*
X141866598Y-103671901D01*
X141866598Y-103671905D01*
X141868052Y-103677578D01*
X141871200Y-103702547D01*
X141871200Y-103708402D01*
X141880915Y-103731858D01*
X141885422Y-103745379D01*
X141891727Y-103769985D01*
X141895242Y-103774671D01*
X141907702Y-103796530D01*
X141909941Y-103801935D01*
X141909943Y-103801939D01*
X141909945Y-103801942D01*
X141909947Y-103801944D01*
X141915206Y-103809814D01*
X141932162Y-103865708D01*
X141932162Y-104846323D01*
X141944823Y-104876891D01*
X141952481Y-104915387D01*
X141952481Y-105319172D01*
X141933268Y-105378303D01*
X141923016Y-105390307D01*
X141582388Y-105730935D01*
X141526990Y-105759161D01*
X141511253Y-105760400D01*
X140468610Y-105760400D01*
X140409479Y-105741187D01*
X140372934Y-105690887D01*
X140372934Y-105628713D01*
X140386203Y-105602098D01*
X140425694Y-105545697D01*
X140425699Y-105545689D01*
X140522302Y-105338525D01*
X140581338Y-105118200D01*
X139735598Y-105118200D01*
X139755925Y-105082993D01*
X139790000Y-104955826D01*
X139790000Y-104824174D01*
X139755925Y-104697007D01*
X139735598Y-104661800D01*
X140581338Y-104661800D01*
X140581337Y-104661799D01*
X140522302Y-104441474D01*
X140508620Y-104412132D01*
X140501042Y-104350422D01*
X140531184Y-104296042D01*
X140587533Y-104269766D01*
X140638293Y-104276674D01*
X140645205Y-104279537D01*
X140680049Y-104284124D01*
X140784578Y-104297886D01*
X140784581Y-104297886D01*
X140784584Y-104297886D01*
X140923957Y-104279537D01*
X141053830Y-104225742D01*
X141053829Y-104225742D01*
X141053835Y-104225740D01*
X141165363Y-104140161D01*
X141250942Y-104028633D01*
X141304739Y-103898755D01*
X141313464Y-103832484D01*
X141323088Y-103759382D01*
X141323088Y-103759375D01*
X141303879Y-103613466D01*
X141306125Y-103613170D01*
X141308853Y-103561123D01*
X141309795Y-103558757D01*
X141323562Y-103525523D01*
X141323562Y-103484555D01*
X141323563Y-103424278D01*
X141323562Y-103424275D01*
X141323562Y-101046485D01*
X141323563Y-101046483D01*
X141323562Y-100945237D01*
X141314080Y-100922345D01*
X141284817Y-100851697D01*
X141213225Y-100780105D01*
X141207494Y-100774374D01*
X141207487Y-100774368D01*
X140174465Y-99741346D01*
X140146239Y-99685948D01*
X140145000Y-99670211D01*
X140145000Y-99288041D01*
X140145663Y-99280860D01*
X140145598Y-99275537D01*
X140145599Y-99275536D01*
X140145007Y-99226966D01*
X140145000Y-99225741D01*
X140145000Y-99177303D01*
X140144805Y-99176381D01*
X140144564Y-99175204D01*
X140144399Y-99174377D01*
X140141558Y-99167749D01*
X140125249Y-99129693D01*
X140124772Y-99128562D01*
X140112834Y-99099740D01*
X140106255Y-99083856D01*
X140106253Y-99083854D01*
X140106217Y-99083766D01*
X140105685Y-99082990D01*
X140104998Y-99081976D01*
X140104544Y-99081296D01*
X140069765Y-99047356D01*
X140068892Y-99046493D01*
X140034598Y-99012199D01*
X140033886Y-99011736D01*
X140032844Y-99011049D01*
X140032107Y-99010556D01*
X139987090Y-98992549D01*
X139985958Y-98992089D01*
X139956700Y-98979971D01*
X139949085Y-98976817D01*
X139916447Y-98955009D01*
X139650831Y-98689393D01*
X139622605Y-98633995D01*
X139622227Y-98605127D01*
X139636528Y-98496502D01*
X139636528Y-98496496D01*
X139618179Y-98357124D01*
X139564384Y-98227251D01*
X139564380Y-98227244D01*
X139478804Y-98115719D01*
X139478798Y-98115713D01*
X139367277Y-98030140D01*
X139367270Y-98030136D01*
X139237397Y-97976341D01*
X139098024Y-97957993D01*
X139098018Y-97957993D01*
X138958645Y-97976341D01*
X138828772Y-98030136D01*
X138828765Y-98030140D01*
X138717242Y-98115715D01*
X138717236Y-98115721D01*
X138631661Y-98227244D01*
X138631657Y-98227251D01*
X138577862Y-98357124D01*
X138559514Y-98496496D01*
X138559514Y-98496503D01*
X138577862Y-98635876D01*
X138631657Y-98765749D01*
X138631661Y-98765756D01*
X138717236Y-98877279D01*
X138717237Y-98877280D01*
X138717239Y-98877282D01*
X138742379Y-98896573D01*
X138777594Y-98947810D01*
X138775967Y-99009963D01*
X138742380Y-99056193D01*
X138696920Y-99091076D01*
X138696915Y-99091081D01*
X138611340Y-99202604D01*
X138611336Y-99202611D01*
X138557541Y-99332484D01*
X138554839Y-99353011D01*
X138528073Y-99409128D01*
X138473433Y-99438795D01*
X138411791Y-99430680D01*
X138366691Y-99387882D01*
X138354500Y-99339880D01*
X138354500Y-96756164D01*
X138373713Y-96697033D01*
X138383959Y-96685035D01*
X139758566Y-95310427D01*
X139813962Y-95282203D01*
X139842830Y-95281825D01*
X139951456Y-95296126D01*
X139951459Y-95296126D01*
X139951462Y-95296126D01*
X140090835Y-95277777D01*
X140220708Y-95223982D01*
X140220707Y-95223982D01*
X140220713Y-95223980D01*
X140332241Y-95138401D01*
X140417820Y-95026873D01*
X140471617Y-94896995D01*
X140487159Y-94778940D01*
X140489966Y-94757622D01*
X140489966Y-94757615D01*
X140471617Y-94618243D01*
X140417822Y-94488370D01*
X140417818Y-94488363D01*
X140332242Y-94376838D01*
X140332236Y-94376832D01*
X140220715Y-94291259D01*
X140220708Y-94291255D01*
X140090835Y-94237460D01*
X139951462Y-94219112D01*
X139951456Y-94219112D01*
X139812083Y-94237460D01*
X139682210Y-94291255D01*
X139682203Y-94291259D01*
X139570680Y-94376834D01*
X139570674Y-94376840D01*
X139485099Y-94488363D01*
X139485095Y-94488370D01*
X139431300Y-94618243D01*
X139412952Y-94757615D01*
X139412952Y-94757622D01*
X139427252Y-94866245D01*
X139415922Y-94927379D01*
X139398648Y-94950511D01*
X137941686Y-96407473D01*
X137941685Y-96407472D01*
X137884247Y-96464911D01*
X137884244Y-96464915D01*
X137845500Y-96558455D01*
X137845500Y-101291938D01*
X137826287Y-101351069D01*
X137775987Y-101387614D01*
X137713813Y-101387614D01*
X137689011Y-101375585D01*
X137679468Y-101369208D01*
X137659658Y-101355972D01*
X137659657Y-101355971D01*
X137659656Y-101355971D01*
X137626130Y-101349302D01*
X137615057Y-101347100D01*
X137615056Y-101347100D01*
X136466081Y-101347100D01*
X136406950Y-101327887D01*
X136370405Y-101277587D01*
X136365481Y-101246500D01*
X136365481Y-87980400D01*
X136384694Y-87921269D01*
X136434994Y-87884724D01*
X136466081Y-87879800D01*
X145362820Y-87879800D01*
X145362821Y-87879800D01*
X145396580Y-87870754D01*
X145453385Y-87855535D01*
X145453387Y-87855533D01*
X145453390Y-87855533D01*
X145534591Y-87808651D01*
X145624115Y-87719125D01*
X145646392Y-87702323D01*
X145726957Y-87657565D01*
X145737335Y-87652554D01*
X145737863Y-87652334D01*
X145737870Y-87652333D01*
X145775372Y-87630680D01*
X145776447Y-87630071D01*
X145814339Y-87609021D01*
X145814347Y-87609012D01*
X145814786Y-87608688D01*
X145815241Y-87608389D01*
X145816072Y-87607752D01*
X145817431Y-87606727D01*
X145818219Y-87606142D01*
X145818616Y-87605800D01*
X145819064Y-87605455D01*
X145819072Y-87605451D01*
X145849598Y-87574923D01*
X145850726Y-87573815D01*
X145881726Y-87543823D01*
X145881734Y-87543808D01*
X145882083Y-87543371D01*
X145889744Y-87534777D01*
X147079899Y-86344625D01*
X147135297Y-86316399D01*
X147151034Y-86315160D01*
X148438928Y-86315160D01*
X148498059Y-86334373D01*
X148510063Y-86344625D01*
X149527049Y-87361611D01*
X149532279Y-87365624D01*
X149532208Y-87365715D01*
X149547122Y-87377158D01*
X149629854Y-87459890D01*
X149710326Y-87506350D01*
X149800080Y-87530400D01*
X152218816Y-87530400D01*
X152308570Y-87506350D01*
X152389042Y-87459890D01*
X153334890Y-86514042D01*
X153381350Y-86433570D01*
X153405400Y-86343815D01*
X153405400Y-86250896D01*
X153405400Y-84850597D01*
X153381350Y-84760843D01*
X153334890Y-84680371D01*
X153304129Y-84649610D01*
X153269186Y-84614666D01*
X153269186Y-84614667D01*
X152691115Y-84036596D01*
X152662889Y-83981198D01*
X152662088Y-83971025D01*
X152643301Y-83828323D01*
X152589506Y-83698451D01*
X152589502Y-83698444D01*
X152503926Y-83586919D01*
X152503920Y-83586913D01*
X152392399Y-83501340D01*
X152392392Y-83501336D01*
X152262519Y-83447541D01*
X152123146Y-83429193D01*
X152123140Y-83429193D01*
X151983767Y-83447541D01*
X151853894Y-83501336D01*
X151853887Y-83501340D01*
X151742364Y-83586915D01*
X151742358Y-83586921D01*
X151652768Y-83703678D01*
X151650702Y-83702092D01*
X151612751Y-83736237D01*
X151550915Y-83742711D01*
X151500735Y-83715453D01*
X150645987Y-82860705D01*
X150645985Y-82860702D01*
X150573949Y-82788666D01*
X150492751Y-82741786D01*
X150492745Y-82741783D01*
X150402187Y-82717520D01*
X150402182Y-82717519D01*
X150402181Y-82717519D01*
X150402180Y-82717519D01*
X141873978Y-82717519D01*
X141862497Y-82716862D01*
X141861895Y-82716792D01*
X141818779Y-82717505D01*
X141817118Y-82717519D01*
X141774014Y-82717519D01*
X141773406Y-82717599D01*
X141772866Y-82717638D01*
X141771883Y-82717785D01*
X141770232Y-82718017D01*
X141769282Y-82718142D01*
X141768770Y-82718248D01*
X141768148Y-82718340D01*
X141726687Y-82730185D01*
X141725093Y-82730627D01*
X141683450Y-82741786D01*
X141682854Y-82742033D01*
X141682347Y-82742209D01*
X141681503Y-82742576D01*
X141680018Y-82743206D01*
X141679066Y-82743600D01*
X141678568Y-82743851D01*
X141677991Y-82744101D01*
X141641020Y-82766267D01*
X141639591Y-82767108D01*
X141602247Y-82788668D01*
X141601758Y-82789044D01*
X141601310Y-82789348D01*
X141600525Y-82789972D01*
X141599236Y-82790978D01*
X141598469Y-82791566D01*
X141598070Y-82791922D01*
X141597581Y-82792310D01*
X141567613Y-82823283D01*
X141566452Y-82824463D01*
X141535949Y-82854966D01*
X141535569Y-82855463D01*
X141535211Y-82855877D01*
X141534609Y-82856691D01*
X141533613Y-82858011D01*
X141533047Y-82858748D01*
X141532762Y-82859182D01*
X141532384Y-82859691D01*
X141511432Y-82897405D01*
X141510615Y-82898847D01*
X141489062Y-82936177D01*
X141488828Y-82936744D01*
X141483837Y-82947076D01*
X141439076Y-83027647D01*
X141422270Y-83049927D01*
X141328434Y-83143763D01*
X141273036Y-83171989D01*
X141211628Y-83162263D01*
X141174892Y-83130330D01*
X140945436Y-82802632D01*
X140912587Y-82771185D01*
X140912586Y-82771184D01*
X140855898Y-82749140D01*
X140855897Y-82749139D01*
X140855895Y-82749139D01*
X140855892Y-82749139D01*
X140795082Y-82750465D01*
X140753459Y-82768778D01*
X138713019Y-84197512D01*
X137780320Y-84850596D01*
X137779844Y-84850929D01*
X137748396Y-84883777D01*
X137726351Y-84940466D01*
X137726351Y-84940470D01*
X137727677Y-85001281D01*
X137745990Y-85042904D01*
X138521259Y-86150101D01*
X139106291Y-86985613D01*
X139122876Y-87009298D01*
X139141054Y-87068756D01*
X139120812Y-87127543D01*
X139069882Y-87163204D01*
X139040469Y-87167600D01*
X136056262Y-87167600D01*
X135962500Y-87167600D01*
X135962499Y-87167600D01*
X135962493Y-87167601D01*
X135871935Y-87191864D01*
X135871929Y-87191867D01*
X135790731Y-87238747D01*
X135790730Y-87238749D01*
X135724430Y-87305049D01*
X135724428Y-87305050D01*
X135677548Y-87386248D01*
X135677545Y-87386254D01*
X135653282Y-87476812D01*
X135653281Y-87476820D01*
X135445600Y-87476820D01*
X135445600Y-82595200D01*
X135464813Y-82536069D01*
X135515113Y-82499524D01*
X135546200Y-82494600D01*
X161456000Y-82494600D01*
X161515131Y-82513813D01*
G37*
G04 #@! TD.AperFunction*
M02*
