G75*
%MOIN*%
%OFA0B0*%
%FSLAX24Y24*%
%IPPOS*%
%LPD*%
%AMOC8*
5,1,8,0,0,1.08239X$1,22.5*
%
%ADD10R,0.0866X0.0236*%
%ADD11R,0.0450X0.0400*%
%ADD12R,0.0433X0.0394*%
%ADD13R,0.0413X0.0425*%
%ADD14R,0.0591X0.0591*%
%ADD15C,0.0591*%
%ADD16R,0.0425X0.0413*%
%ADD17R,0.0394X0.0433*%
%ADD18R,0.0787X0.0709*%
%ADD19R,0.0276X0.0354*%
%ADD20OC8,0.0660*%
%ADD21OC8,0.0600*%
%ADD22R,0.0200X0.0580*%
%ADD23R,0.0580X0.0200*%
%ADD24R,0.0354X0.0276*%
%ADD25R,0.0472X0.0472*%
%ADD26R,0.0630X0.0787*%
%ADD27R,0.0217X0.0472*%
%ADD28R,0.0630X0.0460*%
%ADD29C,0.0868*%
%ADD30R,0.0220X0.0520*%
%ADD31R,0.0310X0.0350*%
%ADD32R,0.0420X0.0860*%
%ADD33OC8,0.0850*%
%ADD34R,0.0335X0.0374*%
%ADD35C,0.0160*%
%ADD36C,0.0080*%
%ADD37C,0.0300*%
D10*
X005824Y014301D03*
X005824Y014801D03*
X005824Y015301D03*
X005824Y015801D03*
X007871Y015801D03*
X007871Y015301D03*
X007871Y014801D03*
X007871Y014301D03*
D11*
X007610Y017919D03*
X007610Y018619D03*
X006810Y018269D03*
D12*
X006020Y017261D03*
X006020Y016592D03*
X005162Y017279D03*
X005162Y017949D03*
X004891Y020428D03*
X004891Y021097D03*
X007653Y019925D03*
X008322Y019925D03*
X008899Y014889D03*
X008899Y014219D03*
X012793Y017433D03*
X012793Y018102D03*
D13*
X012862Y018986D03*
X012173Y018986D03*
X011294Y020640D03*
X010605Y020640D03*
X006419Y013417D03*
X005730Y013417D03*
D14*
X011949Y010885D03*
D15*
X011949Y009885D03*
X010949Y009885D03*
X010949Y010885D03*
X009949Y010885D03*
X009949Y009885D03*
X008949Y009885D03*
X008949Y010885D03*
D16*
X007184Y020684D03*
X007184Y021373D03*
X005569Y021434D03*
X005569Y022123D03*
D17*
X005589Y020339D03*
X006259Y020339D03*
X006931Y020155D03*
X006931Y019485D03*
X005350Y018944D03*
X004681Y018944D03*
X005482Y012413D03*
X005482Y011743D03*
X005600Y009465D03*
X005596Y008660D03*
X006265Y008660D03*
X006270Y009465D03*
D18*
X008228Y020770D03*
X008228Y021872D03*
D19*
X008214Y019304D03*
X007702Y019304D03*
X012149Y015378D03*
X012661Y015378D03*
D20*
X012421Y021557D03*
X011633Y021557D03*
D21*
X004457Y014874D03*
X004457Y013874D03*
X004457Y012874D03*
X004457Y011874D03*
X004457Y010874D03*
X004457Y009874D03*
X004457Y008874D03*
X004457Y007874D03*
X004457Y006874D03*
X004457Y005874D03*
X003457Y005874D03*
X003457Y006874D03*
X003457Y007874D03*
X003457Y008874D03*
X003457Y009874D03*
X003457Y010874D03*
X003457Y011874D03*
X003457Y012874D03*
X003457Y013874D03*
X003457Y014874D03*
D22*
X009327Y015586D03*
X009637Y015586D03*
X009957Y015586D03*
X010267Y015586D03*
X010587Y015586D03*
X010897Y015586D03*
X011217Y015586D03*
X011527Y015586D03*
X011527Y018926D03*
X011217Y018926D03*
X010897Y018926D03*
X010587Y018926D03*
X010267Y018926D03*
X009957Y018926D03*
X009637Y018926D03*
X009327Y018926D03*
D23*
X008757Y018356D03*
X008757Y018046D03*
X008757Y017726D03*
X008757Y017416D03*
X008757Y017096D03*
X008757Y016786D03*
X008757Y016466D03*
X008757Y016156D03*
X012097Y016156D03*
X012097Y016466D03*
X012097Y016786D03*
X012097Y017096D03*
X012097Y017416D03*
X012097Y017726D03*
X012097Y018046D03*
X012097Y018356D03*
D24*
X011528Y019568D03*
X011528Y020080D03*
X010995Y020071D03*
X010995Y019559D03*
X010448Y019631D03*
X010448Y020143D03*
X010249Y014874D03*
X010249Y014362D03*
X010973Y014383D03*
X010973Y014895D03*
X011656Y014724D03*
X011656Y014213D03*
D25*
X005007Y015869D03*
X005007Y016696D03*
D26*
X003819Y016288D03*
X003819Y018414D03*
X003820Y019519D03*
X003820Y021645D03*
D27*
X011934Y020616D03*
X012308Y020616D03*
X012682Y020616D03*
X012682Y019592D03*
X011934Y019592D03*
D28*
X010314Y021346D03*
X010314Y021946D03*
X006030Y019530D03*
X006030Y018930D03*
X006030Y018330D03*
D29*
X009173Y021499D03*
X009173Y006551D03*
D30*
X006764Y020960D03*
X006394Y020960D03*
X006024Y020960D03*
X006024Y021980D03*
X006394Y021980D03*
X006764Y021980D03*
D31*
X009272Y020758D03*
X009652Y019958D03*
X010032Y020758D03*
D32*
X010252Y013286D03*
X011076Y013286D03*
X011914Y013286D03*
X012701Y013286D03*
X009402Y013286D03*
X008614Y013286D03*
X007827Y013286D03*
X007102Y013286D03*
X007102Y005549D03*
X007827Y005549D03*
X008614Y005549D03*
X009464Y005549D03*
X010252Y005549D03*
X011039Y005549D03*
X011889Y005549D03*
X012727Y005549D03*
D33*
X005946Y005766D03*
D34*
X012247Y014225D03*
X012700Y014225D03*
X012700Y014795D03*
X012247Y014795D03*
D35*
X003160Y005520D02*
X003160Y005186D01*
X005698Y005186D01*
X005361Y005524D01*
X005361Y006008D01*
X005703Y006351D01*
X005730Y006351D01*
X005730Y006366D01*
X005766Y006454D01*
X005834Y006521D01*
X006074Y006761D01*
X006162Y006798D01*
X007689Y006798D01*
X007778Y006761D01*
X007845Y006694D01*
X008030Y006509D01*
X008067Y006420D01*
X008067Y006139D01*
X008103Y006139D01*
X008197Y006046D01*
X008197Y005186D01*
X008224Y005186D01*
X008224Y005524D01*
X008589Y005524D01*
X008589Y005574D01*
X008224Y005574D01*
X008224Y006003D01*
X008237Y006049D01*
X008260Y006090D01*
X008294Y006123D01*
X008335Y006147D01*
X008381Y006159D01*
X008589Y006159D01*
X008589Y005574D01*
X008639Y005574D01*
X009004Y005574D01*
X009004Y005960D01*
X009029Y005952D01*
X009094Y005941D01*
X009094Y005186D01*
X009004Y005186D01*
X009004Y005524D01*
X008639Y005524D01*
X008639Y005574D01*
X008639Y006159D01*
X008698Y006159D01*
X008648Y006229D01*
X008604Y006315D01*
X008574Y006407D01*
X008561Y006486D01*
X009108Y006486D01*
X009108Y006615D01*
X008561Y006615D01*
X008574Y006694D01*
X008604Y006786D01*
X008648Y006872D01*
X008698Y006942D01*
X008325Y006942D01*
X008288Y006854D01*
X008201Y006767D01*
X008087Y006720D01*
X007964Y006720D01*
X007850Y006767D01*
X007763Y006854D01*
X007716Y006968D01*
X007716Y007092D01*
X007721Y007104D01*
X007692Y007104D01*
X007578Y007151D01*
X007491Y007238D01*
X007444Y007352D01*
X007444Y007476D01*
X007491Y007590D01*
X007578Y007677D01*
X007692Y007724D01*
X007815Y007724D01*
X007929Y007677D01*
X008016Y007590D01*
X008053Y007502D01*
X009396Y007502D01*
X009396Y007588D01*
X009443Y007702D01*
X009530Y007789D01*
X009644Y007836D01*
X009767Y007836D01*
X009788Y007827D01*
X009858Y007897D01*
X009858Y008105D01*
X009975Y008222D01*
X010210Y008457D01*
X010210Y008465D01*
X010258Y008513D01*
X010299Y008568D01*
X010315Y008571D01*
X010409Y008664D01*
X010372Y008664D01*
X010258Y008711D01*
X010187Y008782D01*
X009984Y008782D01*
X009921Y008719D01*
X009807Y008672D01*
X009684Y008672D01*
X009570Y008719D01*
X009483Y008806D01*
X009436Y008920D01*
X009436Y009044D01*
X009459Y009101D01*
X009232Y008874D01*
X009502Y008604D01*
X009591Y008604D01*
X009705Y008557D01*
X009792Y008470D01*
X009840Y008356D01*
X009840Y008232D01*
X009792Y008118D01*
X009705Y008031D01*
X009591Y007984D01*
X009468Y007984D01*
X009354Y008031D01*
X009267Y008118D01*
X009220Y008232D01*
X009220Y008321D01*
X008950Y008591D01*
X008338Y007979D01*
X008338Y007979D01*
X008220Y007862D01*
X007524Y007862D01*
X007458Y007796D01*
X007441Y007755D01*
X007402Y007740D01*
X007372Y007710D01*
X007348Y007710D01*
X007332Y007694D01*
X007288Y007694D01*
X007247Y007678D01*
X007209Y007694D01*
X007204Y007694D01*
X006363Y006852D01*
X006348Y006838D01*
X005652Y006838D01*
X005554Y006739D01*
X005554Y006731D01*
X005546Y006724D01*
X005505Y006683D01*
X005464Y006628D01*
X005448Y006625D01*
X005436Y006614D01*
X005436Y006614D01*
X005028Y006206D01*
X004775Y006206D01*
X004917Y006064D01*
X004917Y005683D01*
X004647Y005414D01*
X004266Y005414D01*
X003997Y005683D01*
X003997Y006064D01*
X004107Y006175D01*
X004059Y006182D01*
X003991Y006182D01*
X003979Y006193D01*
X003963Y006196D01*
X003922Y006251D01*
X003703Y006470D01*
X003647Y006414D01*
X003266Y006414D01*
X003160Y006520D01*
X003160Y006227D01*
X003266Y006334D01*
X003647Y006334D01*
X003917Y006064D01*
X003917Y005683D01*
X003647Y005414D01*
X003266Y005414D01*
X003160Y005520D01*
X003160Y005509D02*
X003171Y005509D01*
X003160Y005350D02*
X005534Y005350D01*
X005693Y005192D02*
X003160Y005192D01*
X003742Y005509D02*
X004171Y005509D01*
X004013Y005667D02*
X003900Y005667D01*
X003917Y005826D02*
X003997Y005826D01*
X003997Y005984D02*
X003917Y005984D01*
X003838Y006143D02*
X004075Y006143D01*
X003872Y006301D02*
X003680Y006301D01*
X003693Y006460D02*
X003713Y006460D01*
X003220Y006460D02*
X003160Y006460D01*
X003160Y006301D02*
X003233Y006301D01*
X004742Y005509D02*
X005376Y005509D01*
X005361Y005667D02*
X004900Y005667D01*
X004917Y005826D02*
X005361Y005826D01*
X005361Y005984D02*
X004917Y005984D01*
X004838Y006143D02*
X005495Y006143D01*
X005653Y006301D02*
X005123Y006301D01*
X005282Y006460D02*
X005772Y006460D01*
X005930Y006618D02*
X005440Y006618D01*
X005591Y006777D02*
X006110Y006777D01*
X006210Y006558D02*
X005970Y006318D01*
X005970Y005790D01*
X005946Y005766D01*
X006198Y005192D02*
X006712Y005192D01*
X006712Y005186D02*
X006193Y005186D01*
X006531Y005524D01*
X006531Y006008D01*
X006265Y006274D01*
X006309Y006318D01*
X007542Y006318D01*
X007587Y006273D01*
X007587Y006139D01*
X007551Y006139D01*
X007473Y006061D01*
X007456Y006090D01*
X007423Y006123D01*
X007381Y006147D01*
X007336Y006159D01*
X007127Y006159D01*
X007127Y005574D01*
X007077Y005574D01*
X007077Y005524D01*
X006712Y005524D01*
X006712Y005186D01*
X006712Y005350D02*
X006357Y005350D01*
X006515Y005509D02*
X006712Y005509D01*
X006712Y005574D02*
X007077Y005574D01*
X007077Y006159D01*
X006868Y006159D01*
X006823Y006147D01*
X006781Y006123D01*
X006748Y006090D01*
X006724Y006049D01*
X006712Y006003D01*
X006712Y005574D01*
X006712Y005667D02*
X006531Y005667D01*
X006531Y005826D02*
X006712Y005826D01*
X006712Y005984D02*
X006531Y005984D01*
X006396Y006143D02*
X006815Y006143D01*
X006722Y006190D02*
X007106Y005806D01*
X007106Y005550D01*
X007102Y005549D01*
X007077Y005667D02*
X007127Y005667D01*
X007127Y005826D02*
X007077Y005826D01*
X007077Y005984D02*
X007127Y005984D01*
X007127Y006143D02*
X007077Y006143D01*
X007389Y006143D02*
X007587Y006143D01*
X007559Y006301D02*
X006292Y006301D01*
X006210Y006558D02*
X007642Y006558D01*
X007827Y006373D01*
X007827Y005549D01*
X008197Y005509D02*
X008224Y005509D01*
X008224Y005667D02*
X008197Y005667D01*
X008197Y005826D02*
X008224Y005826D01*
X008224Y005984D02*
X008197Y005984D01*
X008362Y006038D02*
X008210Y006190D01*
X008327Y006143D02*
X008067Y006143D01*
X008067Y006301D02*
X008611Y006301D01*
X008589Y006143D02*
X008639Y006143D01*
X008546Y006038D02*
X008618Y005998D01*
X009170Y006550D01*
X009173Y006551D01*
X009094Y005826D02*
X009004Y005826D01*
X009004Y005667D02*
X009094Y005667D01*
X009094Y005509D02*
X009004Y005509D01*
X009004Y005350D02*
X009094Y005350D01*
X009094Y005192D02*
X009004Y005192D01*
X008618Y005550D02*
X008614Y005549D01*
X008618Y005550D02*
X008618Y005998D01*
X008639Y005984D02*
X008589Y005984D01*
X008546Y006038D02*
X008362Y006038D01*
X008589Y005826D02*
X008639Y005826D01*
X008639Y005667D02*
X008589Y005667D01*
X008224Y005350D02*
X008197Y005350D01*
X008197Y005192D02*
X008224Y005192D01*
X008051Y006460D02*
X008565Y006460D01*
X008562Y006618D02*
X007921Y006618D01*
X007841Y006777D02*
X007741Y006777D01*
X007729Y006935D02*
X006445Y006935D01*
X006604Y007094D02*
X007716Y007094D01*
X007485Y007252D02*
X006762Y007252D01*
X006921Y007411D02*
X007444Y007411D01*
X007482Y007569D02*
X007079Y007569D01*
X007390Y007728D02*
X009469Y007728D01*
X009396Y007569D02*
X008025Y007569D01*
X008244Y007886D02*
X009847Y007886D01*
X009858Y008045D02*
X009719Y008045D01*
X009827Y008203D02*
X009956Y008203D01*
X009837Y008362D02*
X010114Y008362D01*
X010263Y008520D02*
X009742Y008520D01*
X009668Y008679D02*
X009428Y008679D01*
X009470Y008837D02*
X009269Y008837D01*
X009354Y008996D02*
X009436Y008996D01*
X009021Y008520D02*
X008878Y008520D01*
X008720Y008362D02*
X009179Y008362D01*
X009232Y008203D02*
X008561Y008203D01*
X008403Y008045D02*
X009341Y008045D01*
X009823Y008679D02*
X010337Y008679D01*
X011404Y009976D02*
X011335Y010143D01*
X011207Y010271D01*
X011039Y010340D01*
X010910Y010340D01*
X010794Y010456D01*
X010858Y010430D01*
X011039Y010430D01*
X011207Y010499D01*
X011335Y010627D01*
X011404Y010794D01*
X011404Y010976D01*
X011335Y011143D01*
X011207Y011271D01*
X011039Y011340D01*
X010858Y011340D01*
X010810Y011320D01*
X010770Y011361D01*
X010770Y012611D01*
X010802Y012643D01*
X010802Y012696D01*
X011353Y012696D01*
X011446Y012790D01*
X011446Y013782D01*
X011353Y013876D01*
X010802Y013876D01*
X010802Y013929D01*
X010682Y014049D01*
X010639Y014091D01*
X010608Y014166D01*
X010599Y014175D01*
X010606Y014200D01*
X010606Y014362D01*
X010606Y014523D01*
X010594Y014569D01*
X010570Y014610D01*
X010549Y014632D01*
X010586Y014670D01*
X010586Y015078D01*
X010548Y015116D01*
X010587Y015116D01*
X010587Y015586D01*
X010587Y015586D01*
X010587Y015116D01*
X010653Y015116D01*
X010636Y015099D01*
X010636Y014691D01*
X010674Y014653D01*
X010652Y014631D01*
X010628Y014590D01*
X010616Y014544D01*
X010616Y014383D01*
X010973Y014383D01*
X010973Y014383D01*
X010616Y014383D01*
X010616Y014221D01*
X010628Y014176D01*
X010652Y014135D01*
X010685Y014101D01*
X010727Y014077D01*
X010772Y014065D01*
X010973Y014065D01*
X010973Y014383D01*
X011050Y014382D01*
X011082Y014382D01*
X011082Y014262D01*
X011282Y014062D01*
X011282Y013918D01*
X011306Y013894D01*
X011458Y013894D01*
X011498Y013854D01*
X011498Y013838D01*
X011522Y013766D01*
X011522Y011574D01*
X012290Y011574D01*
X012914Y012198D01*
X012914Y012342D01*
X012922Y012350D01*
X013000Y012324D02*
X012006Y012324D01*
X011922Y012409D02*
X012134Y012196D01*
X012223Y012196D01*
X012337Y012149D01*
X012424Y012062D01*
X012472Y011948D01*
X012472Y011824D01*
X012424Y011710D01*
X012337Y011623D01*
X012223Y011576D01*
X012100Y011576D01*
X011986Y011623D01*
X011899Y011710D01*
X011852Y011824D01*
X011852Y011913D01*
X011639Y012126D01*
X011522Y012243D01*
X011522Y012929D01*
X011544Y012951D01*
X011544Y013782D01*
X011638Y013876D01*
X011681Y013876D01*
X011642Y013915D01*
X011413Y013915D01*
X011319Y014008D01*
X011319Y014029D01*
X011253Y014096D01*
X011220Y014077D01*
X011174Y014065D01*
X010973Y014065D01*
X010973Y014383D01*
X010966Y014384D01*
X010696Y014384D01*
X010676Y014404D01*
X010616Y014454D01*
X010526Y014364D01*
X010256Y014364D01*
X010249Y014362D01*
X010249Y014362D01*
X009892Y014362D01*
X009892Y014523D01*
X009904Y014569D01*
X009928Y014610D01*
X009950Y014632D01*
X009912Y014670D01*
X009912Y015078D01*
X009951Y015116D01*
X009834Y015116D01*
X009834Y014187D01*
X009826Y014180D01*
X009847Y014180D01*
X009904Y014157D01*
X009892Y014200D01*
X009892Y014362D01*
X010249Y014362D01*
X010166Y014364D01*
X009976Y014364D01*
X009960Y014394D01*
X009938Y014438D01*
X009938Y014518D01*
X009890Y014566D01*
X009890Y015062D01*
X009914Y015086D01*
X009914Y015294D01*
X009954Y015334D01*
X009954Y015582D01*
X009957Y015586D01*
X010267Y015586D02*
X010266Y015662D01*
X010266Y015838D01*
X010274Y015846D01*
X010274Y016014D01*
X010314Y016054D01*
X010274Y016126D01*
X010274Y016358D01*
X009810Y016822D01*
X009810Y017518D01*
X010274Y017982D01*
X010282Y017990D01*
X010242Y018062D01*
X010242Y018286D01*
X010226Y018302D01*
X010098Y018374D01*
X010186Y018374D01*
X010282Y017990D02*
X010402Y017990D01*
X010554Y018142D01*
X010858Y018142D01*
X010898Y018182D01*
X010850Y018230D01*
X010898Y018182D02*
X011226Y018510D01*
X011226Y018670D01*
X011218Y018678D01*
X011218Y018854D01*
X011217Y018926D01*
X011216Y019004D01*
X011250Y020070D02*
X011074Y020070D01*
X010995Y020071D01*
X010994Y020070D01*
X010762Y020070D01*
X010690Y020142D01*
X010522Y020142D01*
X010448Y020143D01*
X010448Y020143D01*
X010091Y020143D01*
X010091Y020304D01*
X010103Y020350D01*
X010127Y020391D01*
X010139Y020403D01*
X010032Y020403D01*
X010032Y020758D01*
X010032Y020758D01*
X010034Y020750D01*
X010034Y020390D01*
X009994Y020318D01*
X009994Y020134D01*
X010186Y020134D01*
X010194Y020142D01*
X010370Y020142D01*
X010448Y020143D01*
X010448Y020483D01*
X010605Y020640D01*
X010448Y020143D02*
X010091Y020143D01*
X010091Y019981D01*
X010103Y019936D01*
X010127Y019894D01*
X010148Y019873D01*
X010111Y019835D01*
X010111Y019427D01*
X010142Y019396D01*
X010117Y019389D01*
X010028Y019478D01*
X009948Y019558D01*
X009015Y019558D01*
X008898Y019441D01*
X008647Y019190D01*
X008531Y019190D01*
X008531Y019304D01*
X008531Y019505D01*
X008520Y019548D01*
X008562Y019548D01*
X008608Y019560D01*
X008649Y019584D01*
X008682Y019618D01*
X008706Y019659D01*
X008718Y019704D01*
X008718Y019906D01*
X008340Y019906D01*
X008340Y019943D01*
X008718Y019943D01*
X008718Y020145D01*
X008706Y020191D01*
X008682Y020232D01*
X008659Y020256D01*
X008688Y020256D01*
X008782Y020349D01*
X008782Y020518D01*
X008957Y020518D01*
X008957Y020517D01*
X009050Y020423D01*
X009402Y020423D01*
X009402Y020264D01*
X009337Y020199D01*
X009337Y019717D01*
X009430Y019623D01*
X009873Y019623D01*
X009967Y019717D01*
X009967Y020199D01*
X009882Y020284D01*
X009882Y020403D01*
X010032Y020403D01*
X010032Y020758D01*
X010032Y020725D02*
X010032Y020725D01*
X010032Y020566D02*
X010032Y020566D01*
X010032Y020408D02*
X010032Y020408D01*
X010091Y020249D02*
X009917Y020249D01*
X009994Y020134D02*
X009994Y019630D01*
X009954Y019558D01*
X010202Y019310D01*
X010226Y019310D01*
X010258Y019278D01*
X010258Y019190D01*
X010266Y019182D01*
X010266Y019014D01*
X010267Y018926D01*
X010266Y018934D01*
X010111Y019457D02*
X010050Y019457D01*
X009954Y019558D02*
X009098Y019558D01*
X008810Y019846D01*
X008770Y019918D01*
X008586Y019918D01*
X008578Y019926D01*
X008323Y019926D01*
X008322Y019925D01*
X008322Y019412D01*
X008214Y019304D01*
X008531Y019304D01*
X008214Y019304D01*
X008214Y019304D01*
X008531Y019298D02*
X008755Y019298D01*
X008913Y019457D02*
X008531Y019457D01*
X008680Y019615D02*
X010111Y019615D01*
X010111Y019774D02*
X009967Y019774D01*
X009967Y019932D02*
X010105Y019932D01*
X010091Y020091D02*
X009967Y020091D01*
X009650Y020206D02*
X009650Y019958D01*
X009652Y019958D01*
X009650Y020206D02*
X009642Y020214D01*
X009642Y021334D01*
X010050Y021334D01*
X010058Y021342D01*
X010306Y021342D01*
X010314Y021346D01*
X010394Y021342D01*
X010610Y021342D01*
X011090Y021822D01*
X011090Y021998D01*
X011130Y022070D01*
X011906Y022070D01*
X012418Y021558D01*
X012421Y021557D01*
X012756Y021200D02*
X013000Y021200D01*
X013000Y021042D02*
X012892Y021042D01*
X012899Y021025D02*
X012877Y021078D01*
X012810Y021145D01*
X012756Y021199D01*
X012911Y021355D01*
X012911Y021760D01*
X012624Y022047D01*
X012268Y022047D01*
X012109Y022206D01*
X012042Y022273D01*
X011953Y022310D01*
X011143Y022310D01*
X011110Y022314D01*
X011096Y022310D01*
X011082Y022310D01*
X011050Y022297D01*
X011018Y022288D01*
X011007Y022279D01*
X010994Y022273D01*
X010970Y022249D01*
X010943Y022228D01*
X010936Y022216D01*
X010926Y022206D01*
X010913Y022175D01*
X010896Y022144D01*
X010886Y022134D01*
X010873Y022103D01*
X010857Y022073D01*
X010855Y022059D01*
X010850Y022046D01*
X010850Y022012D01*
X010846Y021978D01*
X010850Y021964D01*
X010850Y021921D01*
X010789Y021860D01*
X010789Y022242D01*
X010695Y022336D01*
X009932Y022336D01*
X009911Y022315D01*
X009825Y022350D01*
X009704Y022350D01*
X009681Y022373D01*
X009567Y022420D01*
X009444Y022420D01*
X009330Y022373D01*
X009243Y022286D01*
X009196Y022172D01*
X009196Y022093D01*
X009055Y022093D01*
X008836Y022003D01*
X008782Y021948D01*
X008782Y022293D01*
X008688Y022387D01*
X007768Y022387D01*
X007674Y022293D01*
X007674Y022070D01*
X007034Y022070D01*
X007034Y022306D01*
X006940Y022400D01*
X006587Y022400D01*
X006573Y022408D01*
X006527Y022420D01*
X006394Y022420D01*
X006394Y021980D01*
X006394Y021649D01*
X006394Y021649D01*
X006394Y021980D01*
X006394Y021980D01*
X006394Y021980D01*
X006394Y022054D01*
X006394Y022334D01*
X006522Y022462D01*
X011634Y022462D01*
X011634Y022390D01*
X011634Y022462D02*
X012562Y022462D01*
X012586Y022438D01*
X012626Y022366D01*
X012994Y021998D01*
X012994Y020198D01*
X012394Y020198D01*
X012362Y020230D01*
X012298Y020278D01*
X012298Y020358D01*
X012306Y020366D01*
X012306Y020614D01*
X012308Y020616D01*
X012308Y020200D01*
X012440Y020200D01*
X012485Y020212D01*
X012504Y020223D01*
X012507Y020220D01*
X012856Y020220D01*
X012950Y020313D01*
X012950Y020918D01*
X012914Y020955D01*
X012914Y020990D01*
X012899Y021025D01*
X012810Y021145D02*
X012810Y021145D01*
X012911Y021359D02*
X013000Y021359D01*
X013000Y021517D02*
X012911Y021517D01*
X012911Y021676D02*
X013000Y021676D01*
X013000Y021834D02*
X012837Y021834D01*
X012679Y021993D02*
X013000Y021993D01*
X013000Y022151D02*
X012164Y022151D01*
X011954Y022310D02*
X013000Y022310D01*
X013000Y022468D02*
X005898Y022468D01*
X005896Y022470D02*
X013000Y022470D01*
X013000Y019379D01*
X012950Y019379D01*
X012950Y019895D01*
X012856Y019988D01*
X012507Y019988D01*
X012413Y019895D01*
X012413Y019832D01*
X012388Y019832D01*
X012339Y019812D01*
X012220Y019812D01*
X012202Y019805D01*
X012202Y019895D01*
X012108Y019988D01*
X011885Y019988D01*
X011885Y020080D01*
X011885Y020220D01*
X012108Y020220D01*
X012111Y020223D01*
X012130Y020212D01*
X012176Y020200D01*
X012308Y020200D01*
X012308Y020616D01*
X012308Y020616D01*
X012308Y020566D02*
X012308Y020566D01*
X012308Y020408D02*
X012308Y020408D01*
X012298Y020278D02*
X012098Y020078D01*
X011610Y020078D01*
X011528Y020080D01*
X011885Y020080D01*
X011528Y020080D01*
X011528Y020080D01*
X011522Y020078D01*
X011258Y020078D01*
X011250Y020070D01*
X011318Y020616D02*
X011294Y020640D01*
X011298Y020718D01*
X011298Y020894D01*
X011146Y021046D01*
X010954Y021046D01*
X011318Y020616D02*
X011934Y020616D01*
X011930Y020622D01*
X011930Y020934D01*
X012026Y021030D01*
X012586Y021030D01*
X012674Y020942D01*
X012674Y020878D01*
X012682Y020870D01*
X012682Y020622D01*
X012682Y020616D01*
X012950Y020566D02*
X013000Y020566D01*
X013000Y020408D02*
X012950Y020408D01*
X013000Y020249D02*
X012886Y020249D01*
X012994Y020198D02*
X012994Y020022D01*
X012922Y020022D01*
X012982Y019962D01*
X012982Y018986D01*
X012994Y018974D01*
X013000Y018981D02*
X012885Y018981D01*
X012885Y018963D02*
X012885Y019009D01*
X013000Y019009D01*
X013000Y018963D01*
X012885Y018963D01*
X012862Y018986D02*
X012982Y018986D01*
X013000Y019457D02*
X012950Y019457D01*
X012950Y019615D02*
X013000Y019615D01*
X013000Y019774D02*
X012950Y019774D01*
X012913Y019932D02*
X013000Y019932D01*
X013000Y020091D02*
X011885Y020091D01*
X012165Y019932D02*
X012451Y019932D01*
X012308Y020249D02*
X012308Y020249D01*
X012436Y019592D02*
X012362Y019518D01*
X012362Y019502D01*
X012282Y019502D01*
X012362Y019502D02*
X012362Y019174D01*
X012173Y018986D01*
X012436Y019592D02*
X012682Y019592D01*
X012950Y020725D02*
X013000Y020725D01*
X013000Y020883D02*
X012950Y020883D01*
X011717Y021047D02*
X011690Y020982D01*
X011690Y020943D01*
X011665Y020918D01*
X011665Y020856D01*
X011661Y020856D01*
X011661Y020919D01*
X011567Y021013D01*
X011508Y021013D01*
X011501Y021030D01*
X011484Y021047D01*
X011633Y021047D01*
X011633Y021557D01*
X011633Y021557D01*
X011633Y021047D01*
X011717Y021047D01*
X011714Y021042D02*
X011489Y021042D01*
X011633Y021200D02*
X011633Y021200D01*
X011633Y021359D02*
X011633Y021359D01*
X011633Y021517D02*
X011633Y021517D01*
X011661Y020883D02*
X011665Y020883D01*
X010900Y022151D02*
X010789Y022151D01*
X010789Y021993D02*
X010847Y021993D01*
X010721Y022310D02*
X011081Y022310D01*
X010314Y021946D02*
X010306Y021942D01*
X009946Y021942D01*
X009778Y022110D01*
X009506Y022110D01*
X009267Y022310D02*
X008765Y022310D01*
X008782Y022151D02*
X009196Y022151D01*
X008826Y021993D02*
X008782Y021993D01*
X008588Y021358D02*
X008619Y021284D01*
X007768Y021284D01*
X007765Y021282D01*
X007663Y021324D01*
X007577Y021324D01*
X007577Y021350D01*
X007207Y021350D01*
X007207Y021396D01*
X007577Y021396D01*
X007577Y021603D01*
X007564Y021649D01*
X007552Y021670D01*
X007674Y021670D01*
X007674Y021452D01*
X007768Y021358D01*
X008588Y021358D01*
X008447Y020770D02*
X008228Y020770D01*
X008142Y020684D01*
X007602Y020684D01*
X007602Y021014D01*
X007602Y020684D02*
X007184Y020684D01*
X006908Y020960D01*
X006764Y020960D01*
X006791Y021396D02*
X007161Y021396D01*
X007161Y021350D01*
X006970Y021350D01*
X006940Y021380D01*
X006620Y021380D01*
X006610Y021403D01*
X006589Y021454D01*
X006588Y021455D01*
X006503Y021540D01*
X006527Y021540D01*
X006573Y021552D01*
X006587Y021560D01*
X006587Y021560D01*
X006791Y021560D01*
X006791Y021396D01*
X006791Y021517D02*
X006526Y021517D01*
X006506Y021542D02*
X006402Y021646D01*
X006402Y021718D01*
X006394Y021726D01*
X006394Y021902D01*
X006394Y021980D01*
X006394Y022420D01*
X006260Y022420D01*
X006214Y022408D01*
X006200Y022400D01*
X005949Y022400D01*
X005926Y022440D01*
X005896Y022470D01*
X005778Y022462D02*
X005602Y022286D01*
X005602Y022198D01*
X005569Y022123D01*
X005562Y022126D01*
X005306Y022126D01*
X005090Y021910D01*
X005030Y021859D01*
X004938Y021766D01*
X004858Y021798D01*
X004810Y021798D01*
X004386Y022222D01*
X004314Y022262D01*
X003698Y022262D01*
X003626Y022270D01*
X003378Y022270D01*
X003162Y022054D01*
X003162Y020430D01*
X003818Y019774D01*
X003818Y019598D01*
X003820Y019519D01*
X003818Y019518D01*
X003818Y018414D01*
X003819Y018414D01*
X003818Y018334D01*
X003818Y018158D01*
X004218Y017758D01*
X004226Y017766D01*
X004218Y017758D02*
X004698Y017278D01*
X005082Y017278D01*
X005162Y017279D01*
X005242Y017278D01*
X005410Y017278D01*
X005586Y017102D01*
X005586Y016950D01*
X005594Y016950D01*
X005626Y016982D01*
X005626Y017022D01*
X005644Y016998D02*
X005715Y016926D01*
X005644Y016855D01*
X005644Y016790D01*
X005444Y016790D01*
X005404Y016831D01*
X005404Y016903D01*
X005448Y016915D01*
X005489Y016938D01*
X005522Y016972D01*
X005546Y017013D01*
X005558Y017059D01*
X005558Y017261D01*
X005180Y017261D01*
X005180Y017298D01*
X005558Y017298D01*
X005558Y017414D01*
X005644Y017414D01*
X005644Y016998D01*
X005644Y017079D02*
X005558Y017079D01*
X005558Y017238D02*
X005644Y017238D01*
X005644Y017396D02*
X005558Y017396D01*
X005458Y016921D02*
X005709Y016921D01*
X005143Y017261D02*
X004765Y017261D01*
X004765Y017092D01*
X004705Y017092D01*
X004611Y016998D01*
X004611Y016595D01*
X004553Y016653D01*
X004439Y016700D01*
X004316Y016700D01*
X004294Y016691D01*
X004294Y016748D01*
X004200Y016841D01*
X003438Y016841D01*
X003344Y016748D01*
X003344Y015828D01*
X003438Y015734D01*
X004200Y015734D01*
X004205Y015739D01*
X004273Y015710D01*
X004250Y015654D01*
X004250Y015317D01*
X003997Y015064D01*
X003997Y014753D01*
X003577Y014334D01*
X003266Y014334D01*
X003160Y014227D01*
X003160Y014520D01*
X003266Y014414D01*
X003647Y014414D01*
X003917Y014683D01*
X003917Y015064D01*
X003647Y015334D01*
X003266Y015334D01*
X003160Y015227D01*
X003160Y022470D01*
X005243Y022470D01*
X005213Y022440D01*
X005189Y022399D01*
X005177Y022353D01*
X005177Y022146D01*
X005546Y022146D01*
X005546Y022100D01*
X005177Y022100D01*
X005177Y021920D01*
X005132Y021875D01*
X005130Y021873D01*
X005093Y021836D01*
X005018Y021761D01*
X005018Y021505D01*
X005018Y021505D01*
X005018Y021474D01*
X004910Y021474D01*
X004910Y021116D01*
X004873Y021116D01*
X004873Y021474D01*
X004651Y021474D01*
X004605Y021462D01*
X004564Y021438D01*
X004531Y021405D01*
X004507Y021363D01*
X004495Y021318D01*
X004495Y021116D01*
X004873Y021116D01*
X004873Y021079D01*
X004495Y021079D01*
X004495Y021012D01*
X004295Y021211D01*
X004295Y022105D01*
X004202Y022199D01*
X003439Y022199D01*
X003345Y022105D01*
X003345Y021185D01*
X003439Y021092D01*
X003849Y021092D01*
X004170Y020771D01*
X004170Y020090D01*
X004159Y020093D01*
X003898Y020093D01*
X003898Y019597D01*
X004315Y019597D01*
X004315Y019809D01*
X004482Y019643D01*
X004482Y019320D01*
X004417Y019320D01*
X004324Y019226D01*
X004324Y018661D01*
X004417Y018567D01*
X004482Y018567D01*
X004482Y018068D01*
X004451Y018038D01*
X004404Y017924D01*
X004404Y017800D01*
X004451Y017686D01*
X004538Y017599D01*
X004544Y017597D01*
X004610Y017531D01*
X004634Y017507D01*
X004727Y017414D01*
X004765Y017414D01*
X004765Y017298D01*
X005143Y017298D01*
X005143Y017261D01*
X004765Y017238D02*
X003160Y017238D01*
X003160Y017396D02*
X004765Y017396D01*
X004727Y017414D02*
X004727Y017414D01*
X004727Y017414D01*
X004610Y017531D02*
X004610Y017531D01*
X004586Y017555D02*
X003160Y017555D01*
X003160Y017713D02*
X004440Y017713D01*
X004404Y017872D02*
X004237Y017872D01*
X004244Y017876D02*
X004278Y017909D01*
X004302Y017950D01*
X004314Y017996D01*
X004314Y018336D01*
X003896Y018336D01*
X003896Y017840D01*
X004158Y017840D01*
X004203Y017852D01*
X004244Y017876D01*
X004314Y018030D02*
X004448Y018030D01*
X004482Y018189D02*
X004314Y018189D01*
X004482Y018347D02*
X003896Y018347D01*
X003896Y018336D02*
X003896Y018491D01*
X003742Y018491D01*
X003742Y018946D01*
X003743Y018946D01*
X003743Y019442D01*
X003898Y019442D01*
X003898Y019597D01*
X003743Y019597D01*
X003743Y020093D01*
X003482Y020093D01*
X003436Y020081D01*
X003395Y020057D01*
X003361Y020024D01*
X003338Y019983D01*
X003325Y019937D01*
X003325Y019597D01*
X003743Y019597D01*
X003743Y019442D01*
X003325Y019442D01*
X003325Y019102D01*
X003338Y019056D01*
X003361Y019015D01*
X003395Y018982D01*
X003420Y018967D01*
X003394Y018951D01*
X003360Y018918D01*
X003336Y018877D01*
X003324Y018831D01*
X003324Y018491D01*
X003742Y018491D01*
X003742Y018336D01*
X003896Y018336D01*
X003896Y018189D02*
X003742Y018189D01*
X003742Y018336D02*
X003742Y017840D01*
X003480Y017840D01*
X003435Y017852D01*
X003394Y017876D01*
X003360Y017909D01*
X003336Y017950D01*
X003324Y017996D01*
X003324Y018336D01*
X003742Y018336D01*
X003742Y018347D02*
X003160Y018347D01*
X003160Y018189D02*
X003324Y018189D01*
X003324Y018030D02*
X003160Y018030D01*
X003160Y017872D02*
X003401Y017872D01*
X003742Y017872D02*
X003896Y017872D01*
X003896Y018030D02*
X003742Y018030D01*
X003742Y018506D02*
X003896Y018506D01*
X003896Y018491D02*
X003896Y018987D01*
X003898Y018987D01*
X003898Y019442D01*
X004315Y019442D01*
X004315Y019102D01*
X004303Y019056D01*
X004279Y019015D01*
X004246Y018982D01*
X004219Y018966D01*
X004244Y018951D01*
X004278Y018918D01*
X004302Y018877D01*
X004314Y018831D01*
X004314Y018491D01*
X003896Y018491D01*
X003896Y018664D02*
X003742Y018664D01*
X003742Y018823D02*
X003896Y018823D01*
X003896Y018981D02*
X003743Y018981D01*
X003743Y019140D02*
X003898Y019140D01*
X003898Y019298D02*
X003743Y019298D01*
X003743Y019457D02*
X003160Y019457D01*
X003160Y019615D02*
X003325Y019615D01*
X003325Y019774D02*
X003160Y019774D01*
X003160Y019932D02*
X003325Y019932D01*
X003472Y020091D02*
X003160Y020091D01*
X003160Y020249D02*
X004170Y020249D01*
X004169Y020091D02*
X004170Y020091D01*
X004170Y020408D02*
X003160Y020408D01*
X003160Y020566D02*
X004170Y020566D01*
X004170Y020725D02*
X003160Y020725D01*
X003160Y020883D02*
X004058Y020883D01*
X003899Y021042D02*
X003160Y021042D01*
X003160Y021200D02*
X003345Y021200D01*
X003345Y021359D02*
X003160Y021359D01*
X003160Y021517D02*
X003345Y021517D01*
X003345Y021676D02*
X003160Y021676D01*
X003160Y021834D02*
X003345Y021834D01*
X003345Y021993D02*
X003160Y021993D01*
X003160Y022151D02*
X003391Y022151D01*
X003160Y022310D02*
X005177Y022310D01*
X005177Y022151D02*
X004250Y022151D01*
X004295Y021993D02*
X005177Y021993D01*
X005130Y021873D02*
X005130Y021873D01*
X005091Y021834D02*
X004295Y021834D01*
X004295Y021676D02*
X005018Y021676D01*
X004938Y021766D02*
X004938Y021214D01*
X004891Y021097D01*
X004938Y021136D01*
X004910Y021200D02*
X004873Y021200D01*
X004873Y021359D02*
X004910Y021359D01*
X005018Y021517D02*
X004295Y021517D01*
X004295Y021359D02*
X004506Y021359D01*
X004495Y021200D02*
X004306Y021200D01*
X004465Y021042D02*
X004495Y021042D01*
X003898Y020091D02*
X003743Y020091D01*
X003743Y019932D02*
X003898Y019932D01*
X003898Y019774D02*
X003743Y019774D01*
X003743Y019615D02*
X003898Y019615D01*
X003898Y019457D02*
X004482Y019457D01*
X004482Y019615D02*
X004315Y019615D01*
X004315Y019774D02*
X004351Y019774D01*
X004315Y019298D02*
X004395Y019298D01*
X004324Y019140D02*
X004315Y019140D01*
X004324Y018981D02*
X004245Y018981D01*
X004314Y018823D02*
X004324Y018823D01*
X004314Y018664D02*
X004324Y018664D01*
X004314Y018506D02*
X004482Y018506D01*
X005350Y018944D02*
X005363Y018930D01*
X006030Y018930D01*
X006106Y018926D01*
X006282Y018926D01*
X006290Y018918D01*
X006938Y018918D01*
X007234Y018622D01*
X007610Y018622D01*
X007610Y018619D01*
X007690Y018622D01*
X007866Y018622D01*
X007914Y018574D01*
X008066Y018574D01*
X008718Y019774D02*
X009337Y019774D01*
X009337Y019932D02*
X008340Y019932D01*
X008718Y020091D02*
X009337Y020091D01*
X009386Y020249D02*
X008666Y020249D01*
X008782Y020408D02*
X009402Y020408D01*
X009272Y020758D02*
X008460Y020758D01*
X008447Y020770D01*
X007767Y021359D02*
X007207Y021359D01*
X007184Y021373D02*
X007106Y021374D01*
X006954Y021374D01*
X006786Y021542D01*
X006506Y021542D01*
X006589Y021454D02*
X006589Y021454D01*
X006386Y021318D02*
X006386Y021222D01*
X006394Y021214D01*
X006394Y021038D01*
X006394Y020960D01*
X006394Y020958D01*
X006394Y020710D01*
X006258Y020574D01*
X006258Y020414D01*
X006259Y020339D01*
X006259Y019607D01*
X006250Y019598D01*
X006098Y019598D01*
X006030Y019530D01*
X006505Y018678D02*
X006838Y018678D01*
X006867Y018649D01*
X006830Y018649D01*
X006830Y018289D01*
X007042Y018289D01*
X007042Y018249D01*
X006830Y018249D01*
X006830Y017889D01*
X006994Y017889D01*
X006871Y017766D01*
X006812Y017766D01*
X006689Y017889D01*
X006790Y017889D01*
X006790Y018249D01*
X006830Y018249D01*
X006830Y018289D01*
X006790Y018289D01*
X006790Y018649D01*
X006562Y018649D01*
X006516Y018637D01*
X006502Y018629D01*
X006501Y018630D01*
X006505Y018634D01*
X006505Y018678D01*
X006505Y018664D02*
X006852Y018664D01*
X006830Y018506D02*
X006790Y018506D01*
X006790Y018347D02*
X006830Y018347D01*
X006830Y018189D02*
X006790Y018189D01*
X006790Y018030D02*
X006830Y018030D01*
X006707Y017872D02*
X006976Y017872D01*
X006988Y016374D02*
X007079Y016374D01*
X007357Y016096D01*
X007359Y016082D01*
X007327Y016063D01*
X007294Y016030D01*
X007270Y015989D01*
X007263Y015963D01*
X007236Y015990D01*
X006412Y015990D01*
X006348Y016054D01*
X006483Y016054D01*
X006551Y016044D01*
X006564Y016054D01*
X006580Y016054D01*
X006604Y016078D01*
X006692Y016078D01*
X006988Y016374D01*
X007018Y016302D02*
X007018Y016246D01*
X007202Y016062D01*
X007242Y015990D01*
X007474Y015758D01*
X007578Y015758D01*
X007618Y015798D01*
X007866Y015798D01*
X007871Y015801D01*
X007871Y015301D02*
X007794Y015302D01*
X007618Y015302D01*
X007610Y015294D01*
X007458Y015294D01*
X007410Y015230D01*
X006406Y014226D01*
X006458Y014166D01*
X006570Y014054D01*
X006570Y013790D01*
X006418Y013638D01*
X006418Y013494D01*
X006419Y013417D01*
X006418Y013342D01*
X006418Y013094D01*
X006266Y012942D01*
X006266Y012358D01*
X006282Y012286D01*
X006282Y011278D01*
X007450Y011278D01*
X006530Y010390D02*
X006970Y009950D01*
X006970Y009694D01*
X006786Y009510D01*
X006346Y009510D01*
X006270Y009465D01*
X006274Y009542D01*
X006270Y009465D02*
X006274Y009462D01*
X006274Y008918D01*
X006266Y008910D01*
X006266Y008662D01*
X006265Y008660D01*
X006362Y010390D02*
X006290Y010430D01*
X006282Y010438D01*
X006282Y011278D01*
X005874Y011950D02*
X005838Y011950D01*
X005838Y012026D01*
X005787Y012078D01*
X005838Y012130D01*
X005838Y012695D01*
X005745Y012789D01*
X005507Y012789D01*
X005552Y012896D01*
X005552Y013020D01*
X005550Y013024D01*
X005707Y013024D01*
X005707Y013394D01*
X005753Y013394D01*
X005753Y013024D01*
X005850Y013024D01*
X005850Y012963D01*
X005850Y012457D01*
X005850Y012457D01*
X005850Y012374D01*
X005850Y012291D01*
X005858Y012283D01*
X005858Y012195D01*
X005874Y012179D01*
X005874Y011950D01*
X005874Y012007D02*
X005838Y012007D01*
X005838Y012166D02*
X005874Y012166D01*
X005850Y012291D02*
X005850Y012291D01*
X005850Y012291D01*
X005850Y012324D02*
X005838Y012324D01*
X005838Y012483D02*
X005850Y012483D01*
X005838Y012641D02*
X005850Y012641D01*
X005850Y012800D02*
X005511Y012800D01*
X005552Y012958D02*
X005850Y012958D01*
X005850Y012963D02*
X005850Y012963D01*
X005753Y013117D02*
X005707Y013117D01*
X005707Y013275D02*
X005753Y013275D01*
X005707Y013394D02*
X005343Y013394D01*
X005343Y013251D01*
X005303Y013268D01*
X005258Y013268D01*
X005258Y014090D01*
X005324Y014023D01*
X005966Y014023D01*
X005948Y013980D01*
X005948Y013891D01*
X005906Y013849D01*
X005906Y013841D01*
X005874Y013810D01*
X005753Y013810D01*
X005753Y013440D01*
X005707Y013440D01*
X005707Y013394D01*
X005730Y013417D02*
X005730Y013422D01*
X005730Y013670D01*
X005626Y013774D01*
X005546Y013806D01*
X005330Y013806D01*
X005390Y013751D02*
X005258Y013751D01*
X005355Y013699D02*
X005343Y013653D01*
X005343Y013440D01*
X005707Y013440D01*
X005707Y013810D01*
X005500Y013810D01*
X005454Y013797D01*
X005413Y013774D01*
X005379Y013740D01*
X005355Y013699D01*
X005343Y013592D02*
X005258Y013592D01*
X005258Y013434D02*
X005707Y013434D01*
X005707Y013592D02*
X005753Y013592D01*
X005753Y013751D02*
X005707Y013751D01*
X005948Y013909D02*
X005258Y013909D01*
X005258Y014068D02*
X005280Y014068D01*
X005578Y014310D02*
X005578Y014726D01*
X005824Y014801D01*
X005906Y014798D01*
X005824Y014801D02*
X005818Y014798D01*
X005570Y014798D01*
X005562Y014806D01*
X005418Y014806D01*
X005210Y015014D01*
X005210Y015870D01*
X005082Y015870D01*
X005007Y015869D01*
X005002Y015870D01*
X004754Y015870D01*
X004490Y015606D01*
X004490Y014950D01*
X004457Y014874D01*
X003457Y013874D01*
X003160Y013520D02*
X003266Y013414D01*
X003647Y013414D01*
X003917Y013683D01*
X003917Y013994D01*
X003977Y014054D01*
X003977Y013894D01*
X004437Y013894D01*
X004437Y014354D01*
X004276Y014354D01*
X004336Y014414D01*
X004570Y014414D01*
X004570Y014354D01*
X004477Y014354D01*
X004477Y013894D01*
X004437Y013894D01*
X004437Y013854D01*
X003977Y013854D01*
X003977Y013675D01*
X003988Y013663D01*
X003931Y013606D01*
X003903Y013606D01*
X003631Y013334D01*
X003266Y013334D01*
X003160Y013227D01*
X003160Y013520D01*
X003160Y013434D02*
X003246Y013434D01*
X003207Y013275D02*
X003160Y013275D01*
X003667Y013434D02*
X003730Y013434D01*
X003825Y013592D02*
X003889Y013592D01*
X003917Y013751D02*
X003977Y013751D01*
X003977Y013909D02*
X003917Y013909D01*
X003628Y014385D02*
X003160Y014385D01*
X003776Y014543D02*
X003786Y014543D01*
X003917Y014702D02*
X003945Y014702D01*
X003917Y014860D02*
X003997Y014860D01*
X003997Y015019D02*
X003917Y015019D01*
X003804Y015177D02*
X004109Y015177D01*
X004250Y015336D02*
X003160Y015336D01*
X003160Y015494D02*
X004250Y015494D01*
X004250Y015653D02*
X003160Y015653D01*
X003160Y015811D02*
X003361Y015811D01*
X003344Y015970D02*
X003160Y015970D01*
X003160Y016128D02*
X003344Y016128D01*
X003344Y016287D02*
X003160Y016287D01*
X003160Y016445D02*
X003344Y016445D01*
X003344Y016604D02*
X003160Y016604D01*
X003160Y016762D02*
X003358Y016762D01*
X003160Y016921D02*
X004611Y016921D01*
X004611Y016762D02*
X004280Y016762D01*
X004602Y016604D02*
X004611Y016604D01*
X004692Y017079D02*
X003160Y017079D01*
X003160Y018506D02*
X003324Y018506D01*
X003324Y018664D02*
X003160Y018664D01*
X003160Y018823D02*
X003324Y018823D01*
X003396Y018981D02*
X003160Y018981D01*
X003160Y019140D02*
X003325Y019140D01*
X003325Y019298D02*
X003160Y019298D01*
X003160Y022468D02*
X005241Y022468D01*
X005778Y022462D02*
X006266Y022462D01*
X006394Y022334D01*
X006394Y022310D02*
X006394Y022310D01*
X006394Y022151D02*
X006394Y022151D01*
X006394Y021993D02*
X006394Y021993D01*
X006394Y021834D02*
X006394Y021834D01*
X006394Y021676D02*
X006394Y021676D01*
X006258Y021446D02*
X006154Y021446D01*
X006082Y021446D01*
X005581Y021446D01*
X005569Y021434D01*
X006082Y021446D02*
X006082Y021446D01*
X006154Y021446D02*
X006154Y021446D01*
X006258Y021446D02*
X006386Y021318D01*
X006961Y021359D02*
X007161Y021359D01*
X007577Y021517D02*
X007674Y021517D01*
X007674Y022151D02*
X007034Y022151D01*
X007030Y022310D02*
X007691Y022310D01*
X006587Y022400D02*
X006587Y022400D01*
X006200Y022400D02*
X006200Y022400D01*
X007184Y020684D02*
X007184Y020407D01*
X006931Y020155D01*
X006030Y018330D02*
X006026Y018326D01*
X005530Y018326D01*
X005482Y018374D01*
X006742Y016128D02*
X007325Y016128D01*
X007265Y015970D02*
X007257Y015970D01*
X007166Y016287D02*
X006901Y016287D01*
X007871Y015301D02*
X008486Y015301D01*
X008899Y014889D01*
X009834Y014860D02*
X009912Y014860D01*
X009912Y014702D02*
X009834Y014702D01*
X009834Y014543D02*
X009897Y014543D01*
X009892Y014385D02*
X009834Y014385D01*
X009834Y014226D02*
X009892Y014226D01*
X010249Y014362D02*
X010249Y014362D01*
X010606Y014362D01*
X010249Y014362D01*
X010606Y014385D02*
X010616Y014385D01*
X010616Y014454D02*
X010616Y015184D01*
X010586Y015214D01*
X010586Y015584D01*
X010587Y015586D01*
X010587Y015494D02*
X010587Y015494D01*
X010587Y015336D02*
X010587Y015336D01*
X010587Y015177D02*
X010587Y015177D01*
X010586Y015019D02*
X010636Y015019D01*
X010636Y014860D02*
X010586Y014860D01*
X010586Y014702D02*
X010636Y014702D01*
X010616Y014543D02*
X010601Y014543D01*
X010606Y014226D02*
X010616Y014226D01*
X010663Y014068D02*
X010763Y014068D01*
X010802Y013909D02*
X011648Y013909D01*
X011544Y013751D02*
X011446Y013751D01*
X011446Y013592D02*
X011544Y013592D01*
X011544Y013434D02*
X011446Y013434D01*
X011446Y013275D02*
X011544Y013275D01*
X011544Y013117D02*
X011446Y013117D01*
X011446Y012958D02*
X011544Y012958D01*
X011522Y012800D02*
X011446Y012800D01*
X011522Y012641D02*
X010799Y012641D01*
X010770Y012483D02*
X011522Y012483D01*
X011522Y012324D02*
X010770Y012324D01*
X010770Y012166D02*
X011599Y012166D01*
X011758Y012007D02*
X010770Y012007D01*
X010770Y011849D02*
X011852Y011849D01*
X011919Y011690D02*
X010770Y011690D01*
X010770Y011532D02*
X013000Y011532D01*
X013000Y011690D02*
X012404Y011690D01*
X012472Y011849D02*
X013000Y011849D01*
X013000Y012007D02*
X012447Y012007D01*
X012297Y012166D02*
X013000Y012166D01*
X013000Y012483D02*
X011922Y012483D01*
X011922Y012409D02*
X011922Y012696D01*
X012190Y012696D01*
X012284Y012790D01*
X012284Y013702D01*
X012331Y013702D01*
X012331Y012790D01*
X012425Y012696D01*
X012978Y012696D01*
X013000Y012718D01*
X013000Y006139D01*
X012450Y006139D01*
X012357Y006046D01*
X012357Y005186D01*
X012259Y005186D01*
X012259Y006046D01*
X012165Y006139D01*
X012090Y006139D01*
X012090Y007065D01*
X011338Y007817D01*
X011338Y009634D01*
X011404Y009794D01*
X011404Y009976D01*
X011404Y009947D02*
X011494Y009947D01*
X011494Y009976D02*
X011494Y009794D01*
X011563Y009627D01*
X011691Y009499D01*
X011858Y009430D01*
X012039Y009430D01*
X012207Y009499D01*
X012335Y009627D01*
X012404Y009794D01*
X012404Y009976D01*
X012335Y010143D01*
X012207Y010271D01*
X012039Y010340D01*
X011858Y010340D01*
X011691Y010271D01*
X011563Y010143D01*
X011494Y009976D01*
X011547Y010105D02*
X011350Y010105D01*
X011214Y010264D02*
X011684Y010264D01*
X011630Y010410D02*
X011584Y010422D01*
X010828Y010422D01*
X011288Y010581D02*
X011474Y010581D01*
X011474Y010566D02*
X011486Y010520D01*
X011510Y010479D01*
X011543Y010446D01*
X011584Y010422D01*
X011630Y010410D02*
X011930Y010410D01*
X011930Y010867D01*
X011474Y010867D01*
X011474Y010566D01*
X011474Y010739D02*
X011381Y010739D01*
X011404Y010898D02*
X011930Y010898D01*
X011930Y010903D02*
X011930Y010867D01*
X011967Y010867D01*
X011967Y010903D01*
X012424Y010903D01*
X012424Y011204D01*
X012412Y011250D01*
X012388Y011291D01*
X012355Y011324D01*
X012314Y011348D01*
X012268Y011360D01*
X011967Y011360D01*
X011967Y010903D01*
X011930Y010903D01*
X011474Y010903D01*
X011474Y011204D01*
X011486Y011250D01*
X011510Y011291D01*
X011543Y011324D01*
X011584Y011348D01*
X011630Y011360D01*
X011930Y011360D01*
X011930Y010903D01*
X011938Y010886D02*
X011949Y010885D01*
X011946Y010886D01*
X011938Y010886D02*
X011522Y011302D01*
X011522Y011574D01*
X011476Y011215D02*
X011263Y011215D01*
X011371Y011056D02*
X011474Y011056D01*
X011930Y011056D02*
X011967Y011056D01*
X011967Y010898D02*
X013000Y010898D01*
X013000Y011056D02*
X012424Y011056D01*
X012421Y011215D02*
X013000Y011215D01*
X013000Y011373D02*
X010770Y011373D01*
X011401Y009788D02*
X011496Y009788D01*
X011562Y009630D02*
X011338Y009630D01*
X011338Y009471D02*
X011759Y009471D01*
X011338Y009313D02*
X013000Y009313D01*
X013000Y009471D02*
X012139Y009471D01*
X012336Y009630D02*
X013000Y009630D01*
X013000Y009788D02*
X012401Y009788D01*
X012404Y009947D02*
X013000Y009947D01*
X013000Y010105D02*
X012350Y010105D01*
X012214Y010264D02*
X013000Y010264D01*
X013000Y010422D02*
X012314Y010422D01*
X012355Y010446D01*
X012388Y010479D01*
X012412Y010520D01*
X012424Y010566D01*
X012424Y010867D01*
X011967Y010867D01*
X011967Y010410D01*
X012268Y010410D01*
X012314Y010422D01*
X012424Y010581D02*
X013000Y010581D01*
X013000Y010739D02*
X012424Y010739D01*
X011967Y010739D02*
X011930Y010739D01*
X011930Y010581D02*
X011967Y010581D01*
X011967Y010422D02*
X011930Y010422D01*
X011930Y011215D02*
X011967Y011215D01*
X011922Y012641D02*
X013000Y012641D01*
X012331Y012800D02*
X012284Y012800D01*
X012284Y012958D02*
X012331Y012958D01*
X012331Y013117D02*
X012284Y013117D01*
X012284Y013275D02*
X012331Y013275D01*
X012331Y013434D02*
X012284Y013434D01*
X012284Y013592D02*
X012331Y013592D01*
X012244Y014221D02*
X011994Y014221D01*
X011994Y014228D01*
X012244Y014228D01*
X012244Y014221D01*
X012247Y014225D02*
X012223Y014225D01*
X011723Y014724D01*
X011656Y014724D01*
X011762Y014798D01*
X011786Y014822D01*
X011786Y015094D01*
X011851Y015135D02*
X011929Y015057D01*
X011920Y015049D01*
X011920Y015020D01*
X011903Y015030D01*
X011857Y015042D01*
X011656Y015042D01*
X011490Y015042D01*
X011490Y015136D01*
X011693Y015136D01*
X011787Y015230D01*
X011787Y015350D01*
X011851Y015350D01*
X011851Y015135D01*
X011851Y015177D02*
X011734Y015177D01*
X011656Y015042D02*
X011656Y014724D01*
X011656Y015042D01*
X011656Y015019D02*
X011656Y015019D01*
X011656Y014860D02*
X011656Y014860D01*
X011656Y014724D02*
X011656Y014724D01*
X011657Y014724D02*
X011920Y014724D01*
X011920Y014724D01*
X011657Y014724D01*
X011657Y014724D01*
X011994Y014226D02*
X012244Y014226D01*
X012700Y014795D02*
X012661Y014834D01*
X012661Y015378D01*
X012661Y015378D01*
X012979Y015378D01*
X012979Y015579D01*
X012966Y015625D01*
X012943Y015666D01*
X012909Y015699D01*
X012868Y015723D01*
X012822Y015735D01*
X012661Y015735D01*
X012661Y015378D01*
X012979Y015378D01*
X012979Y015177D01*
X013000Y015177D01*
X012979Y015177D02*
X012967Y015133D01*
X012978Y015126D01*
X013000Y015105D01*
X013000Y017076D01*
X012547Y017076D01*
X012547Y015990D01*
X012453Y015896D01*
X012162Y015896D01*
X012168Y015884D01*
X012168Y015760D01*
X012163Y015750D01*
X012228Y015750D01*
X012263Y015715D01*
X012353Y015715D01*
X012391Y015677D01*
X012413Y015699D01*
X012454Y015723D01*
X012499Y015735D01*
X012661Y015735D01*
X012661Y015378D01*
X012658Y015454D01*
X012658Y015630D01*
X012810Y015782D01*
X012882Y015758D01*
X012922Y015758D01*
X013000Y015811D02*
X012168Y015811D01*
X011851Y015336D02*
X011787Y015336D01*
X012527Y015970D02*
X013000Y015970D01*
X013000Y016128D02*
X012547Y016128D01*
X012547Y016287D02*
X013000Y016287D01*
X013000Y016445D02*
X012547Y016445D01*
X012547Y016604D02*
X013000Y016604D01*
X013000Y016762D02*
X012547Y016762D01*
X012547Y016921D02*
X013000Y016921D01*
X012950Y015653D02*
X013000Y015653D01*
X013000Y015494D02*
X012979Y015494D01*
X012979Y015336D02*
X013000Y015336D01*
X012661Y015378D02*
X012661Y015378D01*
X012661Y015494D02*
X012661Y015494D01*
X012661Y015653D02*
X012661Y015653D01*
X011281Y014068D02*
X011183Y014068D01*
X010973Y014068D02*
X010973Y014068D01*
X010973Y014226D02*
X010973Y014226D01*
X010973Y014383D02*
X010973Y014383D01*
X010973Y014895D02*
X010897Y014971D01*
X010897Y015586D01*
X010898Y015662D01*
X010898Y016014D01*
X010858Y016054D01*
X010314Y016054D01*
X010267Y015586D02*
X010266Y015514D01*
X010266Y014874D01*
X010256Y014864D01*
X010249Y014874D01*
X009912Y015019D02*
X009834Y015019D01*
X007130Y013278D02*
X007106Y013302D01*
X007106Y013526D01*
X006971Y013417D02*
X007102Y013286D01*
X007066Y013070D01*
X007106Y013142D02*
X007114Y013142D01*
X007130Y013158D01*
X007130Y013278D01*
X007106Y013286D02*
X007102Y013286D01*
X007106Y013286D02*
X007106Y013142D01*
X006971Y013417D02*
X006419Y013417D01*
X006406Y014226D02*
X006338Y014294D01*
X006082Y014294D01*
X006074Y014302D01*
X005898Y014302D01*
X005824Y014301D01*
X005818Y014302D01*
X005586Y014302D01*
X005578Y014310D01*
X005343Y013275D02*
X005258Y013275D01*
X004570Y014385D02*
X004307Y014385D01*
X004437Y014226D02*
X004477Y014226D01*
X004477Y014068D02*
X004437Y014068D01*
X004437Y013909D02*
X004477Y013909D01*
X006362Y010390D02*
X006530Y010390D01*
X008322Y006935D02*
X008693Y006935D01*
X008601Y006777D02*
X008211Y006777D01*
X011338Y007886D02*
X013000Y007886D01*
X013000Y007728D02*
X011427Y007728D01*
X011585Y007569D02*
X013000Y007569D01*
X013000Y007411D02*
X011744Y007411D01*
X011902Y007252D02*
X013000Y007252D01*
X013000Y007094D02*
X012061Y007094D01*
X012090Y006935D02*
X013000Y006935D01*
X013000Y006777D02*
X012090Y006777D01*
X012090Y006618D02*
X013000Y006618D01*
X013000Y006460D02*
X012090Y006460D01*
X012090Y006301D02*
X013000Y006301D01*
X013000Y006143D02*
X012090Y006143D01*
X012259Y005984D02*
X012357Y005984D01*
X012357Y005826D02*
X012259Y005826D01*
X012259Y005667D02*
X012357Y005667D01*
X012357Y005509D02*
X012259Y005509D01*
X012259Y005350D02*
X012357Y005350D01*
X012357Y005192D02*
X012259Y005192D01*
X013000Y008045D02*
X011338Y008045D01*
X011338Y008203D02*
X013000Y008203D01*
X013000Y008362D02*
X011338Y008362D01*
X011338Y008520D02*
X013000Y008520D01*
X013000Y008679D02*
X011338Y008679D01*
X011338Y008837D02*
X013000Y008837D01*
X013000Y008996D02*
X011338Y008996D01*
X011338Y009154D02*
X013000Y009154D01*
X009642Y021334D02*
X009642Y021502D01*
X009178Y021502D01*
X009173Y021499D01*
D36*
X008228Y021872D02*
X008162Y021862D01*
X008162Y021870D01*
X006762Y021870D01*
X006762Y021974D01*
X006764Y021980D01*
X006026Y021974D02*
X006024Y021980D01*
X006026Y021974D02*
X006026Y021798D01*
X005834Y021798D01*
X005826Y021790D01*
X005330Y021790D01*
X005218Y021678D01*
X005218Y021454D01*
X005218Y021422D01*
X005218Y021358D01*
X005234Y021342D01*
X005234Y020854D01*
X005202Y020822D01*
X005154Y020774D01*
X004650Y020774D01*
X004626Y020750D01*
X004538Y020662D01*
X004538Y020454D01*
X004538Y020414D01*
X004538Y020102D01*
X005026Y019614D01*
X005026Y019382D01*
X004994Y019358D01*
X004994Y019214D01*
X005010Y019198D01*
X005010Y018870D01*
X005002Y018838D01*
X005002Y018678D01*
X004994Y018670D01*
X004994Y018614D01*
X005002Y018606D01*
X005002Y018326D01*
X005146Y018182D01*
X005146Y017965D01*
X005162Y017949D01*
X005403Y017949D01*
X005442Y017934D01*
X006010Y017934D01*
X006042Y017910D01*
X006386Y017910D01*
X006730Y017566D01*
X006954Y017566D01*
X007218Y017830D01*
X007218Y017966D01*
X007242Y017998D01*
X007242Y018254D01*
X007266Y018278D01*
X008330Y018278D01*
X008402Y018350D01*
X008498Y018350D01*
X008506Y018358D01*
X008754Y018358D01*
X008757Y018356D01*
X008754Y018046D02*
X008757Y018046D01*
X008754Y018046D02*
X008506Y018046D01*
X008498Y018038D01*
X008410Y018038D01*
X008290Y017918D01*
X007618Y017918D01*
X007610Y017919D01*
X008114Y017398D02*
X008410Y017102D01*
X008498Y017102D01*
X008506Y017094D01*
X008754Y017094D01*
X008757Y017096D01*
X008754Y016790D02*
X008757Y016786D01*
X008754Y016790D02*
X007882Y016790D01*
X007938Y016470D02*
X007898Y016454D01*
X007674Y016454D01*
X007546Y016190D02*
X007578Y016166D01*
X008498Y016166D01*
X008506Y016158D01*
X008754Y016158D01*
X008757Y016156D01*
X008757Y016466D02*
X008754Y016470D01*
X007938Y016470D01*
X007546Y016190D02*
X007162Y016574D01*
X006906Y016574D01*
X006610Y016278D01*
X006530Y016278D01*
X006498Y016254D01*
X004650Y016254D01*
X004426Y016030D01*
X004402Y016030D01*
X004370Y016006D01*
X004378Y016390D02*
X004306Y016462D01*
X003818Y016462D01*
X003818Y016294D01*
X003819Y016288D01*
X004810Y017614D02*
X004738Y017686D01*
X004738Y017830D01*
X004714Y017862D01*
X004682Y017862D01*
X004682Y018910D01*
X004681Y018944D01*
X004682Y018950D01*
X004682Y019726D01*
X004370Y020038D01*
X004370Y020854D01*
X003858Y021366D01*
X003820Y021645D01*
X003818Y021638D01*
X003818Y021390D01*
X003826Y021382D01*
X004891Y020428D02*
X004962Y020422D01*
X004962Y020430D01*
X005554Y020430D01*
X005589Y020339D01*
X005586Y020454D01*
X005586Y020574D01*
X005714Y020702D01*
X006018Y020702D01*
X006026Y020710D01*
X006026Y020958D01*
X006024Y020960D01*
X006931Y019485D02*
X007266Y019485D01*
X007434Y019318D01*
X007687Y019318D01*
X007702Y019304D01*
X007706Y019270D01*
X007706Y019070D01*
X007786Y018990D01*
X008730Y018990D01*
X009098Y019358D01*
X009866Y019358D01*
X009946Y019278D01*
X009946Y019190D01*
X009954Y019182D01*
X009954Y018934D01*
X009957Y018926D01*
X009637Y018926D02*
X009634Y018886D01*
X009634Y018678D01*
X009642Y018670D01*
X009642Y018574D01*
X009826Y018390D01*
X009826Y017822D01*
X009610Y017606D01*
X009610Y016734D01*
X009858Y016486D01*
X009858Y016110D01*
X009637Y015586D02*
X009634Y015582D01*
X009634Y014270D01*
X009218Y013854D01*
X009050Y013854D01*
X008994Y013798D01*
X008970Y013766D01*
X008962Y013726D01*
X008962Y012726D01*
X008986Y012694D01*
X009386Y012294D01*
X009386Y011094D01*
X009362Y011062D01*
X009386Y011038D01*
X009386Y010734D01*
X009042Y010390D01*
X009018Y010390D01*
X008978Y010406D01*
X008706Y010406D01*
X007570Y009270D01*
X007114Y009270D01*
X007082Y009246D01*
X007082Y008790D01*
X007058Y008758D01*
X007058Y008742D01*
X006298Y007982D01*
X006298Y007534D01*
X006130Y007366D01*
X005794Y007366D01*
X005754Y007406D01*
X005722Y007430D01*
X003898Y007430D01*
X003458Y007870D01*
X003457Y007874D01*
X003898Y008430D02*
X003458Y008870D01*
X003457Y008874D01*
X003898Y008430D02*
X004890Y008430D01*
X005122Y008662D01*
X005594Y008662D01*
X005596Y008660D01*
X005594Y008622D01*
X005594Y008406D01*
X006018Y007982D01*
X006018Y007638D01*
X006194Y007198D02*
X006458Y007462D01*
X006458Y007902D01*
X007218Y008662D01*
X007218Y008686D01*
X007242Y008718D01*
X007242Y008886D01*
X007354Y008998D01*
X007458Y009542D02*
X007610Y009542D01*
X008490Y010422D01*
X008514Y010446D01*
X008922Y010854D01*
X008949Y010885D01*
X008946Y010886D01*
X008650Y011182D01*
X008650Y011214D01*
X008650Y011254D01*
X008650Y011414D01*
X008490Y011574D01*
X008338Y011574D01*
X008266Y011646D01*
X008258Y011678D01*
X008258Y013726D01*
X008266Y013758D01*
X008242Y013790D01*
X008026Y014006D01*
X007346Y014006D01*
X007298Y014054D01*
X007298Y014502D01*
X007178Y014502D01*
X007298Y014502D02*
X007298Y014550D01*
X007546Y014798D01*
X007866Y014798D01*
X007871Y014801D01*
X007874Y014302D02*
X007871Y014301D01*
X007874Y014302D02*
X008122Y014302D01*
X008202Y014222D01*
X008898Y014222D01*
X008899Y014219D01*
X008938Y014222D01*
X009154Y014222D01*
X009346Y014414D01*
X009786Y013870D02*
X009770Y013854D01*
X009770Y011526D01*
X009802Y011502D01*
X009954Y011502D01*
X010146Y011310D01*
X010146Y011278D01*
X010386Y011038D01*
X010386Y010582D01*
X010930Y010038D01*
X010930Y009918D01*
X010949Y009885D01*
X010994Y009822D01*
X011138Y009678D01*
X011138Y007742D01*
X011162Y007710D01*
X011890Y006982D01*
X011890Y005590D01*
X011889Y005549D01*
X011890Y005550D01*
X011042Y005550D02*
X011039Y005549D01*
X011018Y005830D01*
X010306Y006542D01*
X010306Y007214D01*
X010458Y007366D01*
X010146Y007662D02*
X010170Y007694D01*
X010370Y007894D01*
X010058Y007814D02*
X009978Y007734D01*
X009978Y006214D01*
X009570Y005806D01*
X009474Y005806D01*
X009466Y005798D01*
X009466Y005550D01*
X009464Y005549D01*
X010146Y005902D02*
X010250Y005798D01*
X010250Y005550D01*
X010252Y005549D01*
X010146Y005902D02*
X010146Y007662D01*
X010058Y007814D02*
X010058Y008022D01*
X010386Y008350D01*
X010410Y008382D01*
X010746Y008718D01*
X010746Y009086D01*
X010722Y009118D01*
X010514Y009326D01*
X010514Y010222D01*
X010418Y010318D01*
X010410Y010318D01*
X010386Y010350D01*
X010018Y010718D01*
X009978Y010718D01*
X009949Y010885D01*
X009946Y010878D01*
X009946Y010742D01*
X009514Y010310D01*
X009514Y009678D01*
X008058Y008222D01*
X007162Y008222D01*
X007442Y008062D02*
X007290Y007910D01*
X007250Y007894D01*
X007122Y007894D01*
X006266Y007038D01*
X005570Y007038D01*
X005378Y006846D01*
X005354Y006814D01*
X004946Y006406D01*
X004106Y006406D01*
X004074Y006382D01*
X003586Y006870D01*
X003458Y006870D01*
X003457Y006874D01*
X004457Y006874D02*
X004458Y006878D01*
X005170Y006878D01*
X005202Y006902D01*
X005562Y007262D01*
X005666Y007262D01*
X005730Y007198D01*
X006194Y007198D01*
X005354Y006822D02*
X005354Y006814D01*
X004457Y007874D02*
X004458Y007878D01*
X004850Y008270D01*
X005114Y008270D01*
X004457Y008874D02*
X004458Y008878D01*
X005042Y009462D01*
X005594Y009462D01*
X005600Y009465D01*
X005602Y009502D01*
X005602Y009718D01*
X005706Y009822D01*
X006658Y009822D01*
X006002Y010094D02*
X006002Y010270D01*
X005978Y010302D01*
X006082Y010406D01*
X006074Y010438D01*
X006074Y012262D01*
X006058Y012278D01*
X006058Y012366D01*
X006050Y012374D01*
X006050Y013046D01*
X006074Y013070D01*
X006074Y013726D01*
X006082Y013734D01*
X006106Y013766D01*
X006258Y013918D01*
X006986Y014110D02*
X007010Y014110D01*
X007282Y013838D01*
X007362Y013838D01*
X007450Y013750D01*
X007450Y011894D01*
X007994Y011350D01*
X008002Y011350D01*
X008026Y011318D01*
X008058Y011302D01*
X008378Y011302D01*
X008362Y010750D02*
X008370Y010750D01*
X008362Y010750D02*
X006618Y012494D01*
X006618Y012798D01*
X005794Y011750D02*
X005914Y011630D01*
X005914Y010574D01*
X005714Y010374D01*
X005338Y010934D02*
X005362Y010966D01*
X005362Y011062D01*
X005338Y010934D02*
X005114Y010934D01*
X004642Y010462D01*
X004642Y010438D01*
X004514Y010310D01*
X003890Y010310D01*
X003458Y009878D01*
X003457Y009874D01*
X003457Y010874D02*
X003458Y010878D01*
X003458Y011278D01*
X003898Y011718D01*
X003898Y011910D01*
X004298Y012310D01*
X004490Y012310D01*
X004898Y012718D01*
X004898Y012758D01*
X004898Y014078D01*
X004770Y014206D01*
X004770Y014430D01*
X004818Y014478D01*
X004842Y014510D01*
X004898Y014566D01*
X004898Y015270D01*
X004826Y015350D01*
X004850Y015350D01*
X004898Y015302D01*
X005042Y014326D02*
X005042Y014318D01*
X005058Y014286D01*
X005058Y013142D01*
X005242Y012958D01*
X005082Y012670D02*
X005154Y012598D01*
X005170Y012566D01*
X005482Y012566D01*
X005482Y012413D01*
X005490Y011918D02*
X005482Y011918D01*
X005482Y011743D01*
X005488Y011750D01*
X005794Y011750D01*
X005082Y012670D02*
X005050Y012694D01*
X004930Y012694D01*
X004898Y012718D01*
X004170Y013406D02*
X003986Y013406D01*
X003458Y012878D01*
X003457Y012874D01*
X005170Y010606D02*
X005154Y010574D01*
X004458Y009878D01*
X004457Y009874D01*
X007442Y008062D02*
X008138Y008062D01*
X008950Y008874D01*
X008978Y008846D01*
X009530Y008294D01*
X009746Y008982D02*
X010402Y008982D01*
X010434Y008974D01*
X009986Y009870D02*
X009949Y009885D01*
X009922Y009846D01*
X008950Y008874D01*
X009706Y007526D02*
X009482Y007302D01*
X007874Y007302D01*
X007834Y007342D01*
X007802Y007366D01*
X007754Y007414D01*
X008026Y007142D02*
X008026Y007030D01*
X008026Y007142D02*
X009706Y007142D01*
X011042Y005798D02*
X011042Y005550D01*
X010970Y009854D02*
X010949Y009885D01*
X010949Y010885D02*
X010930Y010918D01*
X010546Y011302D01*
X010570Y011334D01*
X010570Y012694D01*
X010602Y012726D01*
X010602Y013846D01*
X010482Y013966D01*
X010378Y013966D01*
X010346Y013990D01*
X010346Y014014D01*
X011290Y014342D02*
X011290Y015318D01*
X011218Y015390D01*
X011218Y015334D01*
X011218Y015390D02*
X011218Y015582D01*
X011217Y015586D01*
X011527Y015586D02*
X011530Y015582D01*
X011530Y015550D01*
X012146Y015550D01*
X012146Y015382D01*
X012149Y015378D01*
X012146Y015342D01*
X012146Y015134D01*
X012250Y015030D01*
X012250Y014798D01*
X012247Y014795D01*
X012700Y014225D02*
X012650Y014174D01*
X012650Y013958D01*
X012594Y013902D01*
X011938Y013902D01*
X011826Y014014D01*
X011826Y014078D01*
X011691Y014213D01*
X011656Y014213D01*
X011650Y014214D01*
X011418Y014214D01*
X011290Y014342D01*
X011914Y013286D02*
X011914Y013286D01*
X011882Y013006D01*
X011722Y012846D01*
X011722Y012326D01*
X012162Y011886D01*
X011914Y013030D02*
X011914Y013286D01*
X010954Y010886D02*
X010949Y010885D01*
X009949Y009885D02*
X009946Y009878D01*
X009322Y015358D02*
X008954Y015358D01*
X009322Y015358D02*
X009330Y015366D01*
X009330Y015582D01*
X009327Y015586D01*
X008546Y015614D02*
X008410Y015614D01*
X008354Y015558D01*
X007386Y015558D01*
X007154Y015790D01*
X006082Y015790D01*
X006074Y015798D01*
X005826Y015798D01*
X005824Y015801D01*
X005824Y015301D02*
X006954Y015301D01*
X006970Y015286D01*
X006018Y016590D02*
X006020Y016592D01*
X006018Y016590D02*
X005362Y016590D01*
X005258Y016694D01*
X005010Y016694D01*
X005007Y016696D01*
X004810Y017614D02*
X006450Y017614D01*
X006666Y017398D01*
X008114Y017398D01*
X008757Y017416D02*
X008762Y017414D01*
X009010Y017414D01*
X009082Y017486D01*
X009282Y017486D01*
X009106Y017734D02*
X009018Y017734D01*
X009010Y017726D01*
X008762Y017726D01*
X008757Y017726D01*
X009106Y017734D02*
X009242Y017870D01*
X009282Y017870D01*
X009282Y018262D02*
X009282Y018494D01*
X009314Y018526D01*
X009338Y018558D01*
X009338Y018670D01*
X009330Y018678D01*
X009330Y018718D01*
X009327Y018926D01*
X009326Y018924D01*
X009326Y018754D01*
X009634Y018926D02*
X009637Y018926D01*
X010448Y019631D02*
X010586Y019544D01*
X010586Y018934D01*
X010587Y018926D01*
X011216Y019339D02*
X010995Y019559D01*
X011216Y019339D02*
X011216Y019004D01*
X011527Y018926D02*
X011530Y018926D01*
X011530Y018678D01*
X011522Y018670D01*
X011522Y018518D01*
X010946Y017942D01*
X010642Y017942D01*
X010546Y017846D01*
X010546Y017686D01*
X010946Y017670D02*
X010946Y017710D01*
X011594Y018358D01*
X012058Y018358D01*
X012097Y018356D01*
X012098Y018358D01*
X012346Y018358D01*
X012354Y018350D01*
X012618Y018534D02*
X012618Y018102D01*
X012786Y018102D01*
X012793Y018102D01*
X012500Y017726D02*
X012793Y017433D01*
X012500Y017726D02*
X012097Y017726D01*
X012090Y017726D01*
X011618Y017726D01*
X010794Y016902D01*
X010642Y016902D01*
X010834Y017174D02*
X010130Y017174D01*
X010642Y016518D02*
X011538Y017414D01*
X012090Y017414D01*
X012097Y017416D01*
X012097Y017096D02*
X012090Y017094D01*
X011602Y017094D01*
X011570Y017062D01*
X011522Y016782D02*
X011834Y016782D01*
X011842Y016790D01*
X012090Y016790D01*
X012097Y016786D01*
X012090Y016470D02*
X012097Y016466D01*
X012090Y016470D02*
X011602Y016470D01*
X011570Y016446D01*
X011522Y016782D02*
X011186Y016446D01*
X010834Y017174D02*
X011706Y018046D01*
X012090Y018046D01*
X012097Y018046D01*
X011930Y019566D02*
X011530Y019566D01*
X011528Y019568D01*
X011930Y019590D02*
X011930Y019566D01*
X011930Y019590D02*
X011934Y019592D01*
X011866Y016158D02*
X012090Y016158D01*
X012097Y016156D01*
X011866Y016158D02*
X011858Y016150D01*
X011858Y015822D01*
X008152Y021796D02*
X008228Y021872D01*
X007706Y019926D02*
X007658Y019926D01*
X007653Y019925D01*
X007706Y019926D02*
X007706Y019350D01*
X007702Y019304D01*
X006994Y018270D02*
X006850Y018270D01*
X006810Y018269D01*
X006809Y018269D01*
X006994Y018270D02*
X006994Y017878D01*
X006962Y017854D01*
X006946Y017838D01*
X006842Y017838D01*
X006274Y017262D02*
X006450Y017086D01*
X006474Y017086D01*
X006274Y017262D02*
X006026Y017262D01*
X006020Y017261D01*
X005020Y020339D02*
X004891Y020428D01*
D37*
X005482Y018374D03*
X004714Y017862D03*
X005586Y016950D03*
X006474Y017086D03*
X006842Y017838D03*
X007018Y016302D03*
X007674Y016454D03*
X007882Y016790D03*
X008546Y015614D03*
X008954Y015358D03*
X009346Y014414D03*
X009786Y013870D03*
X010346Y013990D03*
X011498Y013838D03*
X011786Y015094D03*
X011858Y015822D03*
X011570Y016446D03*
X011186Y016446D03*
X010642Y016518D03*
X010642Y016902D03*
X010130Y017174D03*
X010546Y017686D03*
X010850Y018230D03*
X010946Y017670D03*
X011570Y017062D03*
X012618Y018534D03*
X012282Y019502D03*
X012922Y020022D03*
X011634Y022390D03*
X010954Y021046D03*
X009506Y022110D03*
X007602Y021014D03*
X008066Y018574D03*
X009282Y018262D03*
X009282Y017870D03*
X009282Y017486D03*
X010098Y018374D03*
X009858Y016110D03*
X012162Y011886D03*
X012922Y012350D03*
X012922Y015758D03*
X010434Y008974D03*
X009746Y008982D03*
X009530Y008294D03*
X009706Y007526D03*
X009706Y007142D03*
X010458Y007366D03*
X010370Y007894D03*
X008370Y010750D03*
X008378Y011302D03*
X007450Y011278D03*
X006658Y009822D03*
X006002Y010094D03*
X005714Y010374D03*
X005362Y011062D03*
X005170Y010606D03*
X005114Y008270D03*
X006018Y007638D03*
X006722Y006190D03*
X007754Y007414D03*
X008026Y007030D03*
X008210Y006190D03*
X007162Y008222D03*
X007354Y008998D03*
X007458Y009542D03*
X006618Y012798D03*
X006258Y013918D03*
X006986Y014110D03*
X007178Y014502D03*
X006970Y015286D03*
X005330Y013806D03*
X005042Y014318D03*
X004826Y015350D03*
X004370Y016006D03*
X004378Y016390D03*
X004170Y013406D03*
X005242Y012958D03*
M02*
