G75*
%MOIN*%
%OFA0B0*%
%FSLAX24Y24*%
%IPPOS*%
%LPD*%
%AMOC8*
5,1,8,0,0,1.08239X$1,22.5*
%
%ADD10R,0.0926X0.0296*%
%ADD11R,0.0510X0.0460*%
%ADD12R,0.0493X0.0454*%
%ADD13R,0.0473X0.0485*%
%ADD14R,0.0651X0.0651*%
%ADD15C,0.0651*%
%ADD16R,0.0485X0.0473*%
%ADD17R,0.0454X0.0493*%
%ADD18R,0.0847X0.0769*%
%ADD19R,0.0336X0.0414*%
%ADD20OC8,0.0720*%
%ADD21OC8,0.0660*%
%ADD22R,0.0260X0.0640*%
%ADD23R,0.0640X0.0260*%
%ADD24R,0.0414X0.0336*%
%ADD25R,0.0532X0.0532*%
%ADD26R,0.0690X0.0847*%
%ADD27R,0.0277X0.0532*%
%ADD28R,0.0690X0.0520*%
%ADD29R,0.0720X0.0060*%
%ADD30C,0.0928*%
%ADD31R,0.0280X0.0580*%
%ADD32R,0.0370X0.0410*%
%ADD33R,0.0480X0.0920*%
%ADD34OC8,0.0910*%
%ADD35R,0.0374X0.0413*%
%ADD36C,0.0020*%
%ADD37C,0.0360*%
D10*
X005824Y014301D03*
X005824Y014801D03*
X005824Y015301D03*
X005824Y015801D03*
X007871Y015801D03*
X007871Y015301D03*
X007871Y014801D03*
X007871Y014301D03*
D11*
X007610Y017919D03*
X007610Y018619D03*
X006810Y018269D03*
D12*
X006020Y017261D03*
X006020Y016592D03*
X005162Y017279D03*
X005162Y017949D03*
X004891Y020428D03*
X004891Y021097D03*
X007653Y019925D03*
X008322Y019925D03*
X008899Y014889D03*
X008899Y014219D03*
X012793Y017433D03*
X012793Y018102D03*
D13*
X012862Y018986D03*
X012173Y018986D03*
X011294Y020640D03*
X010605Y020640D03*
X006419Y013417D03*
X005730Y013417D03*
D14*
X011949Y010885D03*
D15*
X011949Y009885D03*
X010949Y009885D03*
X010949Y010885D03*
X009949Y010885D03*
X009949Y009885D03*
X008949Y009885D03*
X008949Y010885D03*
D16*
X007184Y020684D03*
X007184Y021373D03*
X005569Y021434D03*
X005569Y022123D03*
D17*
X005589Y020339D03*
X006259Y020339D03*
X006931Y020155D03*
X006931Y019485D03*
X005350Y018944D03*
X004681Y018944D03*
X005482Y012413D03*
X005482Y011743D03*
X005600Y009465D03*
X005596Y008660D03*
X006265Y008660D03*
X006270Y009465D03*
D18*
X008228Y020770D03*
X008228Y021872D03*
D19*
X008214Y019304D03*
X007702Y019304D03*
X012149Y015378D03*
X012661Y015378D03*
D20*
X012421Y021557D03*
X011633Y021557D03*
D21*
X003457Y005874D03*
X003457Y006874D03*
X003457Y007874D03*
X003457Y008874D03*
X003457Y009874D03*
X003457Y010874D03*
X003457Y011874D03*
X003457Y012874D03*
X003457Y013874D03*
X003457Y014874D03*
X004457Y014874D03*
X004457Y013874D03*
X004457Y012874D03*
X004457Y011874D03*
X004457Y010874D03*
X004457Y009874D03*
X004457Y008874D03*
X004457Y007874D03*
X004457Y006874D03*
X004457Y005874D03*
D22*
X009327Y015586D03*
X009637Y015586D03*
X009957Y015586D03*
X010267Y015586D03*
X010587Y015586D03*
X010897Y015586D03*
X011217Y015586D03*
X011527Y015586D03*
X011527Y018926D03*
X011217Y018926D03*
X010897Y018926D03*
X010587Y018926D03*
X010267Y018926D03*
X009957Y018926D03*
X009637Y018926D03*
X009327Y018926D03*
D23*
X008757Y018356D03*
X008757Y018046D03*
X008757Y017726D03*
X008757Y017416D03*
X008757Y017096D03*
X008757Y016786D03*
X008757Y016466D03*
X008757Y016156D03*
X012097Y016156D03*
X012097Y016466D03*
X012097Y016786D03*
X012097Y017096D03*
X012097Y017416D03*
X012097Y017726D03*
X012097Y018046D03*
X012097Y018356D03*
D24*
X011528Y019568D03*
X011528Y020080D03*
X010995Y020071D03*
X010995Y019559D03*
X010448Y019631D03*
X010448Y020143D03*
X010249Y014874D03*
X010249Y014362D03*
X010973Y014383D03*
X010973Y014895D03*
X011656Y014724D03*
X011656Y014213D03*
D25*
X005007Y015869D03*
X005007Y016696D03*
D26*
X003819Y016288D03*
X003819Y018414D03*
X003820Y019519D03*
X003820Y021645D03*
D27*
X011934Y020616D03*
X012308Y020616D03*
X012682Y020616D03*
X012682Y019592D03*
X011934Y019592D03*
D28*
X010314Y021346D03*
X010314Y021946D03*
X006030Y019530D03*
X006030Y018930D03*
X006030Y018330D03*
D29*
X010314Y021646D03*
D30*
X009173Y021499D03*
X009173Y006551D03*
D31*
X006764Y020960D03*
X006394Y020960D03*
X006024Y020960D03*
X006024Y021980D03*
X006394Y021980D03*
X006764Y021980D03*
D32*
X009272Y020758D03*
X009652Y019958D03*
X010032Y020758D03*
D33*
X010252Y013286D03*
X011076Y013286D03*
X011914Y013286D03*
X012701Y013286D03*
X009402Y013286D03*
X008614Y013286D03*
X007827Y013286D03*
X007102Y013286D03*
X007102Y005549D03*
X007827Y005549D03*
X008614Y005549D03*
X009464Y005549D03*
X010252Y005549D03*
X011039Y005549D03*
X011889Y005549D03*
X012727Y005549D03*
D34*
X005946Y005766D03*
D35*
X012247Y014225D03*
X012700Y014225D03*
X012247Y014795D03*
D36*
X012523Y014804D02*
X012877Y014804D01*
X012877Y014822D02*
X012523Y014822D01*
X012523Y014841D02*
X012877Y014841D01*
X012877Y014859D02*
X012523Y014859D01*
X012523Y014878D02*
X012877Y014878D01*
X012877Y014896D02*
X012523Y014896D01*
X012523Y014915D02*
X012877Y014915D01*
X012877Y014933D02*
X012523Y014933D01*
X012523Y014952D02*
X012877Y014952D01*
X012877Y014970D02*
X012523Y014970D01*
X012523Y014989D02*
X012877Y014989D01*
X012877Y014992D02*
X012877Y014599D01*
X012651Y014599D01*
X012523Y014727D01*
X012523Y014992D01*
X012877Y014992D01*
X012877Y014785D02*
X012523Y014785D01*
X012523Y014767D02*
X012877Y014767D01*
X012877Y014748D02*
X012523Y014748D01*
X012523Y014730D02*
X012877Y014730D01*
X012877Y014711D02*
X012538Y014711D01*
X012557Y014693D02*
X012877Y014693D01*
X012877Y014674D02*
X012575Y014674D01*
X012594Y014656D02*
X012877Y014656D01*
X012877Y014637D02*
X012612Y014637D01*
X012631Y014619D02*
X012877Y014619D01*
X012877Y014600D02*
X012649Y014600D01*
D37*
X012922Y015758D03*
X011858Y015822D03*
X011570Y016446D03*
X011186Y016446D03*
X010642Y016518D03*
X010642Y016902D03*
X010130Y017174D03*
X010546Y017686D03*
X010850Y018230D03*
X010946Y017670D03*
X011570Y017062D03*
X012618Y018534D03*
X012282Y019502D03*
X012922Y020022D03*
X011634Y022390D03*
X010954Y021046D03*
X009506Y022110D03*
X007602Y021014D03*
X008066Y018574D03*
X007882Y016790D03*
X007674Y016454D03*
X007018Y016302D03*
X006474Y017086D03*
X006842Y017838D03*
X005586Y016950D03*
X005482Y018374D03*
X004714Y017862D03*
X004378Y016390D03*
X004370Y016006D03*
X004826Y015350D03*
X005042Y014318D03*
X005330Y013806D03*
X005242Y012958D03*
X006258Y013918D03*
X006986Y014110D03*
X007178Y014502D03*
X006970Y015286D03*
X008546Y015614D03*
X008954Y015358D03*
X009346Y014414D03*
X009786Y013870D03*
X010346Y013990D03*
X011498Y013838D03*
X011786Y015094D03*
X012922Y012350D03*
X012162Y011886D03*
X010434Y008974D03*
X009746Y008982D03*
X009530Y008294D03*
X009706Y007526D03*
X009706Y007142D03*
X010458Y007366D03*
X010370Y007894D03*
X008370Y010750D03*
X008378Y011302D03*
X007450Y011278D03*
X006658Y009822D03*
X006002Y010094D03*
X005714Y010374D03*
X005362Y011062D03*
X005170Y010606D03*
X005114Y008270D03*
X006018Y007638D03*
X006722Y006190D03*
X007754Y007414D03*
X008026Y007030D03*
X008210Y006190D03*
X007162Y008222D03*
X007354Y008998D03*
X007458Y009542D03*
X006618Y012798D03*
X004170Y013406D03*
X009282Y017486D03*
X009282Y017870D03*
X009282Y018262D03*
X010098Y018374D03*
X009858Y016110D03*
M02*
