G75*
%MOIN*%
%OFA0B0*%
%FSLAX24Y24*%
%IPPOS*%
%LPD*%
%AMOC8*
5,1,8,0,0,1.08239X$1,22.5*
%
%ADD10R,0.0651X0.0651*%
%ADD11C,0.0651*%
%ADD12OC8,0.0720*%
%ADD13OC8,0.0660*%
%ADD14C,0.0928*%
%ADD15OC8,0.0910*%
%ADD16R,0.1084X0.1477*%
%ADD17C,0.0360*%
D10*
X011949Y010885D03*
D11*
X011949Y009885D03*
X010949Y009885D03*
X010949Y010885D03*
X009949Y010885D03*
X009949Y009885D03*
X008949Y009885D03*
X008949Y010885D03*
D12*
X011633Y021557D03*
X012421Y021557D03*
D13*
X003457Y005874D03*
X003457Y006874D03*
X003457Y007874D03*
X003457Y008874D03*
X003457Y009874D03*
X003457Y010874D03*
X003457Y011874D03*
X003457Y012874D03*
X003457Y013874D03*
X003457Y014874D03*
X004457Y014874D03*
X004457Y013874D03*
X004457Y012874D03*
X004457Y011874D03*
X004457Y010874D03*
X004457Y009874D03*
X004457Y008874D03*
X004457Y007874D03*
X004457Y006874D03*
X004457Y005874D03*
D14*
X009173Y006551D03*
X009173Y021499D03*
D15*
X005946Y005766D03*
D16*
G36*
X011680Y013124D02*
X012302Y012237D01*
X011094Y011390D01*
X010472Y012277D01*
X011680Y013124D01*
G37*
G36*
X005064Y022574D02*
X005686Y021687D01*
X004478Y020840D01*
X003856Y021727D01*
X005064Y022574D01*
G37*
D17*
X007602Y021014D03*
X008066Y018574D03*
X007882Y016790D03*
X007674Y016454D03*
X007018Y016302D03*
X006474Y017086D03*
X006842Y017838D03*
X005586Y016950D03*
X005482Y018374D03*
X004714Y017862D03*
X004378Y016390D03*
X004370Y016006D03*
X004826Y015350D03*
X005042Y014318D03*
X005330Y013806D03*
X005242Y012958D03*
X006258Y013918D03*
X006986Y014110D03*
X007178Y014502D03*
X006970Y015286D03*
X008546Y015614D03*
X008954Y015358D03*
X009346Y014414D03*
X009786Y013870D03*
X010346Y013990D03*
X011498Y013838D03*
X011786Y015094D03*
X011858Y015822D03*
X011570Y016446D03*
X011186Y016446D03*
X010642Y016518D03*
X010642Y016902D03*
X010130Y017174D03*
X010546Y017686D03*
X010850Y018230D03*
X010946Y017670D03*
X011570Y017062D03*
X012618Y018534D03*
X012282Y019502D03*
X012922Y020022D03*
X011634Y022390D03*
X010954Y021046D03*
X009506Y022110D03*
X010098Y018374D03*
X009282Y018262D03*
X009282Y017870D03*
X009282Y017486D03*
X009858Y016110D03*
X012162Y011886D03*
X012922Y012350D03*
X012922Y015758D03*
X010434Y008974D03*
X009746Y008982D03*
X009530Y008294D03*
X009706Y007526D03*
X009706Y007142D03*
X010458Y007366D03*
X010370Y007894D03*
X008370Y010750D03*
X008378Y011302D03*
X007450Y011278D03*
X006658Y009822D03*
X006002Y010094D03*
X005714Y010374D03*
X005362Y011062D03*
X005170Y010606D03*
X005114Y008270D03*
X006018Y007638D03*
X006722Y006190D03*
X007754Y007414D03*
X008026Y007030D03*
X008210Y006190D03*
X007162Y008222D03*
X007354Y008998D03*
X007458Y009542D03*
X006618Y012798D03*
X004170Y013406D03*
M02*
