%TF.GenerationSoftware,KiCad,Pcbnew,7.0.10-7.0.10~ubuntu20.04.1*%
%TF.CreationDate,2024-06-08T20:33:00+02:00*%
%TF.ProjectId,MySMotherboard,4d79534d-6f74-4686-9572-626f6172642e,1.4*%
%TF.SameCoordinates,Original*%
%TF.FileFunction,Drillmap*%
%TF.FilePolarity,Positive*%
%FSLAX45Y45*%
G04 Gerber Fmt 4.5, Leading zero omitted, Abs format (unit mm)*
G04 Created by KiCad (PCBNEW 7.0.10-7.0.10~ubuntu20.04.1) date 2024-06-08 20:33:00*
%MOMM*%
%LPD*%
G01*
G04 APERTURE LIST*
%ADD10C,0.050000*%
%ADD11C,0.200000*%
%ADD12C,0.100000*%
%ADD13C,0.110000*%
%ADD14C,0.147000*%
G04 APERTURE END LIST*
D10*
X13542010Y-8246910D02*
X13542010Y-12753810D01*
X16158210Y-12753810D02*
X16158210Y-8246910D01*
X16158210Y-8246910D02*
X13542010Y-8246910D01*
X13542010Y-12754000D02*
X16158210Y-12754000D01*
D11*
D12*
X14065000Y-10855000D02*
X14095000Y-10885000D01*
X14095000Y-10855000D02*
X14065000Y-10885000D01*
X14067500Y-10700000D02*
X14097500Y-10730000D01*
X14097500Y-10700000D02*
X14067500Y-10730000D01*
X14075000Y-12187500D02*
X14105000Y-12217500D01*
X14105000Y-12187500D02*
X14075000Y-12217500D01*
X14080000Y-11997500D02*
X14110000Y-12027500D01*
X14110000Y-11997500D02*
X14080000Y-12027500D01*
X14187500Y-12067500D02*
X14217500Y-12097500D01*
X14217500Y-12067500D02*
X14187500Y-12097500D01*
X14285000Y-10577500D02*
X14315000Y-10607500D01*
X14315000Y-10577500D02*
X14285000Y-10607500D01*
X14287500Y-11212500D02*
X14317500Y-11242500D01*
X14317500Y-11212500D02*
X14287500Y-11242500D01*
X14350000Y-11127500D02*
X14380000Y-11157500D01*
X14380000Y-11127500D02*
X14350000Y-11157500D01*
X14382500Y-12040000D02*
X14412500Y-12070000D01*
X14412500Y-12040000D02*
X14382500Y-12070000D01*
X14402500Y-11232500D02*
X14432500Y-11262500D01*
X14432500Y-11232500D02*
X14402500Y-11262500D01*
X14845000Y-12067500D02*
X14875000Y-12097500D01*
X14875000Y-12067500D02*
X14845000Y-12097500D01*
X14880000Y-11750000D02*
X14910000Y-11780000D01*
X14910000Y-11750000D02*
X14880000Y-11780000D01*
X15292500Y-12082500D02*
X15322500Y-12112500D01*
X15322500Y-12082500D02*
X15292500Y-12112500D01*
X15302500Y-10510000D02*
X15332500Y-10540000D01*
X15332500Y-10510000D02*
X15302500Y-10540000D01*
X15312500Y-11732500D02*
X15342500Y-11762500D01*
X15342500Y-11732500D02*
X15312500Y-11762500D01*
X15430000Y-9770000D02*
X15460000Y-9800000D01*
X15460000Y-9770000D02*
X15430000Y-9800000D01*
X15457500Y-11400000D02*
X15487500Y-11430000D01*
X15487500Y-11400000D02*
X15457500Y-11430000D01*
X15492500Y-10437500D02*
X15522500Y-10467500D01*
X15522500Y-10437500D02*
X15492500Y-10467500D01*
X15792500Y-10547500D02*
X15822500Y-10577500D01*
X15822500Y-10547500D02*
X15792500Y-10577500D01*
X14145000Y-8885000D02*
G75*
G03*
X14105000Y-8885000I-20000J0D01*
G01*
X14105000Y-8885000D02*
G75*
G03*
X14145000Y-8885000I20000J0D01*
G01*
X14745000Y-8830000D02*
G75*
G03*
X14705000Y-8830000I-20000J0D01*
G01*
X14705000Y-8830000D02*
G75*
G03*
X14745000Y-8830000I20000J0D01*
G01*
X15004760Y-11272740D02*
G75*
G03*
X14964760Y-11272740I-20000J0D01*
G01*
X14964760Y-11272740D02*
G75*
G03*
X15004760Y-11272740I20000J0D01*
G01*
X15047500Y-8855000D02*
G75*
G03*
X15007500Y-8855000I-20000J0D01*
G01*
X15007500Y-8855000D02*
G75*
G03*
X15047500Y-8855000I20000J0D01*
G01*
X15065000Y-11085000D02*
G75*
G03*
X15025000Y-11085000I-20000J0D01*
G01*
X15025000Y-11085000D02*
G75*
G03*
X15065000Y-11085000I20000J0D01*
G01*
X15452500Y-8672500D02*
G75*
G03*
X15412500Y-8672500I-20000J0D01*
G01*
X15412500Y-8672500D02*
G75*
G03*
X15452500Y-8672500I20000J0D01*
G01*
X15490000Y-11037500D02*
G75*
G03*
X15450000Y-11037500I-20000J0D01*
G01*
X15450000Y-11037500D02*
G75*
G03*
X15490000Y-11037500I20000J0D01*
G01*
X15831030Y-11093530D02*
G75*
G03*
X15791030Y-11093530I-20000J0D01*
G01*
X15791030Y-11093530D02*
G75*
G03*
X15831030Y-11093530I20000J0D01*
G01*
X13856970Y-10587266D02*
X13856970Y-10627906D01*
X13836650Y-10607586D02*
X13877290Y-10607586D01*
X13907770Y-9926866D02*
X13907770Y-9967506D01*
X13887450Y-9947186D02*
X13928090Y-9947186D01*
X13909802Y-9829330D02*
X13909802Y-9869970D01*
X13889482Y-9849650D02*
X13930122Y-9849650D01*
X13995146Y-9455442D02*
X13995146Y-9496082D01*
X13974826Y-9475762D02*
X14015466Y-9475762D01*
X14023594Y-10093490D02*
X14023594Y-10134130D01*
X14003274Y-10113810D02*
X14043914Y-10113810D01*
X14078458Y-10355618D02*
X14078458Y-10396258D01*
X14058138Y-10375938D02*
X14098778Y-10375938D01*
X14096746Y-11891810D02*
X14096746Y-11932450D01*
X14076426Y-11912130D02*
X14117066Y-11912130D01*
X14110970Y-11298466D02*
X14110970Y-11339106D01*
X14090650Y-11318786D02*
X14131290Y-11318786D01*
X14159738Y-11182642D02*
X14159738Y-11223282D01*
X14139418Y-11202962D02*
X14180058Y-11202962D01*
X14190218Y-9325394D02*
X14190218Y-9366034D01*
X14169898Y-9345714D02*
X14210538Y-9345714D01*
X14216634Y-9687090D02*
X14216634Y-9727730D01*
X14196314Y-9707410D02*
X14236954Y-9707410D01*
X14230000Y-10692180D02*
X14230000Y-10732820D01*
X14209680Y-10712500D02*
X14250320Y-10712500D01*
X14285000Y-11432180D02*
X14285000Y-11472820D01*
X14264680Y-11452500D02*
X14305320Y-11452500D01*
X14387322Y-10457218D02*
X14387322Y-10497858D01*
X14367002Y-10477538D02*
X14407642Y-10477538D01*
X14442186Y-9652546D02*
X14442186Y-9693186D01*
X14421866Y-9672866D02*
X14462506Y-9672866D01*
X14445840Y-11497602D02*
X14445840Y-11538242D01*
X14425520Y-11517922D02*
X14466160Y-11517922D01*
X14505178Y-12420130D02*
X14505178Y-12460770D01*
X14484858Y-12440450D02*
X14525498Y-12440450D01*
X14514160Y-10722533D02*
X14514160Y-10763173D01*
X14493840Y-10742853D02*
X14534480Y-10742853D01*
X14535658Y-9461538D02*
X14535658Y-9502178D01*
X14515338Y-9481858D02*
X14555978Y-9481858D01*
X14568170Y-10109746D02*
X14568170Y-10150386D01*
X14547850Y-10130066D02*
X14588490Y-10130066D01*
X14572234Y-10408450D02*
X14572234Y-10449090D01*
X14551914Y-10428770D02*
X14592554Y-10428770D01*
X14575640Y-11092802D02*
X14575640Y-11133442D01*
X14555320Y-11113122D02*
X14595960Y-11113122D01*
X14579149Y-11578919D02*
X14579149Y-11619559D01*
X14558829Y-11599239D02*
X14599469Y-11599239D01*
X14580362Y-9851682D02*
X14580362Y-9892322D01*
X14560042Y-9872002D02*
X14600682Y-9872002D01*
X14621002Y-10308882D02*
X14621002Y-10349522D01*
X14600682Y-10329202D02*
X14641322Y-10329202D01*
X14746986Y-9813074D02*
X14746986Y-9853714D01*
X14726666Y-9833394D02*
X14767306Y-9833394D01*
X14799818Y-9727730D02*
X14799818Y-9768370D01*
X14779498Y-9748050D02*
X14820138Y-9748050D01*
X14890000Y-9274594D02*
X14890000Y-9315234D01*
X14869680Y-9294914D02*
X14910320Y-9294914D01*
X14945000Y-12407180D02*
X14945000Y-12447820D01*
X14924680Y-12427500D02*
X14965320Y-12427500D01*
X14968474Y-10026434D02*
X14968474Y-10067074D01*
X14948154Y-10046754D02*
X14988794Y-10046754D01*
X15072106Y-10091458D02*
X15072106Y-10132098D01*
X15051786Y-10111778D02*
X15092426Y-10111778D01*
X15155418Y-9453410D02*
X15155418Y-9494050D01*
X15135098Y-9473730D02*
X15175738Y-9473730D01*
X15155418Y-9550946D02*
X15155418Y-9591586D01*
X15135098Y-9571266D02*
X15175738Y-9571266D01*
X15170000Y-9348254D02*
X15170000Y-9388894D01*
X15149680Y-9368574D02*
X15190320Y-9368574D01*
X15171674Y-10331234D02*
X15171674Y-10371874D01*
X15151354Y-10351554D02*
X15191994Y-10351554D01*
X15212314Y-8376450D02*
X15212314Y-8417090D01*
X15191994Y-8396770D02*
X15232634Y-8396770D01*
X15301722Y-9900450D02*
X15301722Y-9941090D01*
X15281402Y-9920770D02*
X15322042Y-9920770D01*
X15362682Y-9325394D02*
X15362682Y-9366034D01*
X15342362Y-9345714D02*
X15383002Y-9345714D01*
X15370810Y-9630194D02*
X15370810Y-9670834D01*
X15350490Y-9650514D02*
X15391130Y-9650514D01*
X15476474Y-9500146D02*
X15476474Y-9540786D01*
X15456154Y-9520466D02*
X15496794Y-9520466D01*
X15553690Y-9361970D02*
X15553690Y-9402610D01*
X15533370Y-9382290D02*
X15574010Y-9382290D01*
X15556986Y-9693266D02*
X15556986Y-9733906D01*
X15536666Y-9713586D02*
X15577306Y-9713586D01*
X15578074Y-9504210D02*
X15578074Y-9544850D01*
X15557754Y-9524530D02*
X15598394Y-9524530D01*
X15580106Y-8646706D02*
X15580106Y-8687346D01*
X15559786Y-8667026D02*
X15600426Y-8667026D01*
X15639034Y-9815106D02*
X15639034Y-9855746D01*
X15618714Y-9835426D02*
X15659354Y-9835426D01*
X15718282Y-10477538D02*
X15718282Y-10518178D01*
X15697962Y-10497858D02*
X15738602Y-10497858D01*
X15736570Y-9658642D02*
X15736570Y-9699282D01*
X15716250Y-9678962D02*
X15756890Y-9678962D01*
X15736570Y-9815106D02*
X15736570Y-9855746D01*
X15716250Y-9835426D02*
X15756890Y-9835426D01*
X15752826Y-8305330D02*
X15752826Y-8345970D01*
X15732506Y-8325650D02*
X15773146Y-8325650D01*
X15791434Y-10158514D02*
X15791434Y-10199154D01*
X15771114Y-10178834D02*
X15811754Y-10178834D01*
X15809722Y-9973602D02*
X15809722Y-10014242D01*
X15789402Y-9993922D02*
X15830042Y-9993922D01*
X15917418Y-9038882D02*
X15917418Y-9079522D01*
X15897098Y-9059202D02*
X15937738Y-9059202D01*
X16098266Y-9971570D02*
X16098266Y-10012210D01*
X16077946Y-9991890D02*
X16118586Y-9991890D01*
X16098266Y-8952180D02*
X16098266Y-8992820D01*
X16077946Y-8972500D02*
X16118586Y-8972500D01*
X16101557Y-10943233D02*
X16101557Y-10983873D01*
X16081237Y-10963553D02*
X16121877Y-10963553D01*
X15781517Y-8569017D02*
X15781517Y-8515983D01*
X15728483Y-8515983D01*
X15728483Y-8569017D01*
X15781517Y-8569017D01*
X15981517Y-8569017D02*
X15981517Y-8515983D01*
X15928483Y-8515983D01*
X15928483Y-8569017D01*
X15981517Y-8569017D01*
X13675000Y-10285000D02*
X13725000Y-10235000D01*
X13675000Y-10185000D01*
X13625000Y-10235000D01*
X13675000Y-10285000D01*
X13675000Y-10539000D02*
X13725000Y-10489000D01*
X13675000Y-10439000D01*
X13625000Y-10489000D01*
X13675000Y-10539000D01*
X13675000Y-10793000D02*
X13725000Y-10743000D01*
X13675000Y-10693000D01*
X13625000Y-10743000D01*
X13675000Y-10793000D01*
X13675000Y-11047000D02*
X13725000Y-10997000D01*
X13675000Y-10947000D01*
X13625000Y-10997000D01*
X13675000Y-11047000D01*
X13675000Y-11301000D02*
X13725000Y-11251000D01*
X13675000Y-11201000D01*
X13625000Y-11251000D01*
X13675000Y-11301000D01*
X13675000Y-11555000D02*
X13725000Y-11505000D01*
X13675000Y-11455000D01*
X13625000Y-11505000D01*
X13675000Y-11555000D01*
X13675000Y-11809000D02*
X13725000Y-11759000D01*
X13675000Y-11709000D01*
X13625000Y-11759000D01*
X13675000Y-11809000D01*
X13675000Y-12063000D02*
X13725000Y-12013000D01*
X13675000Y-11963000D01*
X13625000Y-12013000D01*
X13675000Y-12063000D01*
X13675000Y-12317000D02*
X13725000Y-12267000D01*
X13675000Y-12217000D01*
X13625000Y-12267000D01*
X13675000Y-12317000D01*
X13675000Y-12571000D02*
X13725000Y-12521000D01*
X13675000Y-12471000D01*
X13625000Y-12521000D01*
X13675000Y-12571000D01*
X13929000Y-10285000D02*
X13979000Y-10235000D01*
X13929000Y-10185000D01*
X13879000Y-10235000D01*
X13929000Y-10285000D01*
X13929000Y-10539000D02*
X13979000Y-10489000D01*
X13929000Y-10439000D01*
X13879000Y-10489000D01*
X13929000Y-10539000D01*
X13929000Y-10793000D02*
X13979000Y-10743000D01*
X13929000Y-10693000D01*
X13879000Y-10743000D01*
X13929000Y-10793000D01*
X13929000Y-11047000D02*
X13979000Y-10997000D01*
X13929000Y-10947000D01*
X13879000Y-10997000D01*
X13929000Y-11047000D01*
X13929000Y-11301000D02*
X13979000Y-11251000D01*
X13929000Y-11201000D01*
X13879000Y-11251000D01*
X13929000Y-11301000D01*
X13929000Y-11555000D02*
X13979000Y-11505000D01*
X13929000Y-11455000D01*
X13879000Y-11505000D01*
X13929000Y-11555000D01*
X13929000Y-11809000D02*
X13979000Y-11759000D01*
X13929000Y-11709000D01*
X13879000Y-11759000D01*
X13929000Y-11809000D01*
X13929000Y-12063000D02*
X13979000Y-12013000D01*
X13929000Y-11963000D01*
X13879000Y-12013000D01*
X13929000Y-12063000D01*
X13929000Y-12317000D02*
X13979000Y-12267000D01*
X13929000Y-12217000D01*
X13879000Y-12267000D01*
X13929000Y-12317000D01*
X13929000Y-12571000D02*
X13979000Y-12521000D01*
X13929000Y-12471000D01*
X13879000Y-12521000D01*
X13929000Y-12571000D01*
X14312500Y-12595000D02*
X14362500Y-12545000D01*
X14312500Y-12495000D01*
X14262500Y-12545000D01*
X14312500Y-12595000D01*
D13*
X15897500Y-11371000D02*
X16007500Y-11481000D01*
X16007500Y-11371000D02*
X15897500Y-11481000D01*
X16007500Y-11426000D02*
G75*
G03*
X15897500Y-11426000I-55000J0D01*
G01*
X15897500Y-11426000D02*
G75*
G03*
X16007500Y-11426000I55000J0D01*
G01*
X15897500Y-11625000D02*
X16007500Y-11735000D01*
X16007500Y-11625000D02*
X15897500Y-11735000D01*
X16007500Y-11680000D02*
G75*
G03*
X15897500Y-11680000I-55000J0D01*
G01*
X15897500Y-11680000D02*
G75*
G03*
X16007500Y-11680000I55000J0D01*
G01*
X15897500Y-11879000D02*
X16007500Y-11989000D01*
X16007500Y-11879000D02*
X15897500Y-11989000D01*
X16007500Y-11934000D02*
G75*
G03*
X15897500Y-11934000I-55000J0D01*
G01*
X15897500Y-11934000D02*
G75*
G03*
X16007500Y-11934000I55000J0D01*
G01*
X15897500Y-12133000D02*
X16007500Y-12243000D01*
X16007500Y-12133000D02*
X15897500Y-12243000D01*
X16007500Y-12188000D02*
G75*
G03*
X15897500Y-12188000I-55000J0D01*
G01*
X15897500Y-12188000D02*
G75*
G03*
X16007500Y-12188000I55000J0D01*
G01*
D14*
X15081500Y-8494000D02*
X15228500Y-8641000D01*
X15228500Y-8494000D02*
X15081500Y-8641000D01*
X15155000Y-8494000D02*
X15155000Y-8641000D01*
X15081500Y-8567500D02*
X15228500Y-8567500D01*
X15081500Y-12291000D02*
X15228500Y-12438000D01*
X15228500Y-12291000D02*
X15081500Y-12438000D01*
X15155000Y-12291000D02*
X15155000Y-12438000D01*
X15081500Y-12364500D02*
X15228500Y-12364500D01*
D11*
X13800287Y-13067984D02*
X13800287Y-12867984D01*
X13800287Y-12867984D02*
X13847906Y-12867984D01*
X13847906Y-12867984D02*
X13876477Y-12877508D01*
X13876477Y-12877508D02*
X13895525Y-12896555D01*
X13895525Y-12896555D02*
X13905049Y-12915603D01*
X13905049Y-12915603D02*
X13914572Y-12953698D01*
X13914572Y-12953698D02*
X13914572Y-12982269D01*
X13914572Y-12982269D02*
X13905049Y-13020365D01*
X13905049Y-13020365D02*
X13895525Y-13039412D01*
X13895525Y-13039412D02*
X13876477Y-13058460D01*
X13876477Y-13058460D02*
X13847906Y-13067984D01*
X13847906Y-13067984D02*
X13800287Y-13067984D01*
X14000287Y-13067984D02*
X14000287Y-12934650D01*
X14000287Y-12972746D02*
X14009811Y-12953698D01*
X14009811Y-12953698D02*
X14019334Y-12944174D01*
X14019334Y-12944174D02*
X14038382Y-12934650D01*
X14038382Y-12934650D02*
X14057430Y-12934650D01*
X14124096Y-13067984D02*
X14124096Y-12934650D01*
X14124096Y-12867984D02*
X14114572Y-12877508D01*
X14114572Y-12877508D02*
X14124096Y-12887031D01*
X14124096Y-12887031D02*
X14133620Y-12877508D01*
X14133620Y-12877508D02*
X14124096Y-12867984D01*
X14124096Y-12867984D02*
X14124096Y-12887031D01*
X14247906Y-13067984D02*
X14228858Y-13058460D01*
X14228858Y-13058460D02*
X14219334Y-13039412D01*
X14219334Y-13039412D02*
X14219334Y-12867984D01*
X14352668Y-13067984D02*
X14333620Y-13058460D01*
X14333620Y-13058460D02*
X14324096Y-13039412D01*
X14324096Y-13039412D02*
X14324096Y-12867984D01*
X14581239Y-13067984D02*
X14581239Y-12867984D01*
X14581239Y-12867984D02*
X14647906Y-13010841D01*
X14647906Y-13010841D02*
X14714572Y-12867984D01*
X14714572Y-12867984D02*
X14714572Y-13067984D01*
X14895525Y-13067984D02*
X14895525Y-12963222D01*
X14895525Y-12963222D02*
X14886001Y-12944174D01*
X14886001Y-12944174D02*
X14866953Y-12934650D01*
X14866953Y-12934650D02*
X14828858Y-12934650D01*
X14828858Y-12934650D02*
X14809811Y-12944174D01*
X14895525Y-13058460D02*
X14876477Y-13067984D01*
X14876477Y-13067984D02*
X14828858Y-13067984D01*
X14828858Y-13067984D02*
X14809811Y-13058460D01*
X14809811Y-13058460D02*
X14800287Y-13039412D01*
X14800287Y-13039412D02*
X14800287Y-13020365D01*
X14800287Y-13020365D02*
X14809811Y-13001317D01*
X14809811Y-13001317D02*
X14828858Y-12991793D01*
X14828858Y-12991793D02*
X14876477Y-12991793D01*
X14876477Y-12991793D02*
X14895525Y-12982269D01*
X14990763Y-12934650D02*
X14990763Y-13134650D01*
X14990763Y-12944174D02*
X15009811Y-12934650D01*
X15009811Y-12934650D02*
X15047906Y-12934650D01*
X15047906Y-12934650D02*
X15066953Y-12944174D01*
X15066953Y-12944174D02*
X15076477Y-12953698D01*
X15076477Y-12953698D02*
X15086001Y-12972746D01*
X15086001Y-12972746D02*
X15086001Y-13029888D01*
X15086001Y-13029888D02*
X15076477Y-13048936D01*
X15076477Y-13048936D02*
X15066953Y-13058460D01*
X15066953Y-13058460D02*
X15047906Y-13067984D01*
X15047906Y-13067984D02*
X15009811Y-13067984D01*
X15009811Y-13067984D02*
X14990763Y-13058460D01*
X15171715Y-13048936D02*
X15181239Y-13058460D01*
X15181239Y-13058460D02*
X15171715Y-13067984D01*
X15171715Y-13067984D02*
X15162192Y-13058460D01*
X15162192Y-13058460D02*
X15171715Y-13048936D01*
X15171715Y-13048936D02*
X15171715Y-13067984D01*
X15171715Y-12944174D02*
X15181239Y-12953698D01*
X15181239Y-12953698D02*
X15171715Y-12963222D01*
X15171715Y-12963222D02*
X15162192Y-12953698D01*
X15162192Y-12953698D02*
X15171715Y-12944174D01*
X15171715Y-12944174D02*
X15171715Y-12963222D01*
D12*
X13509510Y-13381500D02*
X13539510Y-13411500D01*
X13539510Y-13381500D02*
X13509510Y-13411500D01*
D11*
X13838382Y-13287984D02*
X13857430Y-13287984D01*
X13857430Y-13287984D02*
X13876477Y-13297508D01*
X13876477Y-13297508D02*
X13886001Y-13307031D01*
X13886001Y-13307031D02*
X13895525Y-13326079D01*
X13895525Y-13326079D02*
X13905049Y-13364174D01*
X13905049Y-13364174D02*
X13905049Y-13411793D01*
X13905049Y-13411793D02*
X13895525Y-13449888D01*
X13895525Y-13449888D02*
X13886001Y-13468936D01*
X13886001Y-13468936D02*
X13876477Y-13478460D01*
X13876477Y-13478460D02*
X13857430Y-13487984D01*
X13857430Y-13487984D02*
X13838382Y-13487984D01*
X13838382Y-13487984D02*
X13819334Y-13478460D01*
X13819334Y-13478460D02*
X13809811Y-13468936D01*
X13809811Y-13468936D02*
X13800287Y-13449888D01*
X13800287Y-13449888D02*
X13790763Y-13411793D01*
X13790763Y-13411793D02*
X13790763Y-13364174D01*
X13790763Y-13364174D02*
X13800287Y-13326079D01*
X13800287Y-13326079D02*
X13809811Y-13307031D01*
X13809811Y-13307031D02*
X13819334Y-13297508D01*
X13819334Y-13297508D02*
X13838382Y-13287984D01*
X13990763Y-13468936D02*
X14000287Y-13478460D01*
X14000287Y-13478460D02*
X13990763Y-13487984D01*
X13990763Y-13487984D02*
X13981239Y-13478460D01*
X13981239Y-13478460D02*
X13990763Y-13468936D01*
X13990763Y-13468936D02*
X13990763Y-13487984D01*
X14066953Y-13287984D02*
X14190763Y-13287984D01*
X14190763Y-13287984D02*
X14124096Y-13364174D01*
X14124096Y-13364174D02*
X14152668Y-13364174D01*
X14152668Y-13364174D02*
X14171715Y-13373698D01*
X14171715Y-13373698D02*
X14181239Y-13383222D01*
X14181239Y-13383222D02*
X14190763Y-13402269D01*
X14190763Y-13402269D02*
X14190763Y-13449888D01*
X14190763Y-13449888D02*
X14181239Y-13468936D01*
X14181239Y-13468936D02*
X14171715Y-13478460D01*
X14171715Y-13478460D02*
X14152668Y-13487984D01*
X14152668Y-13487984D02*
X14095525Y-13487984D01*
X14095525Y-13487984D02*
X14076477Y-13478460D01*
X14076477Y-13478460D02*
X14066953Y-13468936D01*
X14314572Y-13287984D02*
X14333620Y-13287984D01*
X14333620Y-13287984D02*
X14352668Y-13297508D01*
X14352668Y-13297508D02*
X14362192Y-13307031D01*
X14362192Y-13307031D02*
X14371715Y-13326079D01*
X14371715Y-13326079D02*
X14381239Y-13364174D01*
X14381239Y-13364174D02*
X14381239Y-13411793D01*
X14381239Y-13411793D02*
X14371715Y-13449888D01*
X14371715Y-13449888D02*
X14362192Y-13468936D01*
X14362192Y-13468936D02*
X14352668Y-13478460D01*
X14352668Y-13478460D02*
X14333620Y-13487984D01*
X14333620Y-13487984D02*
X14314572Y-13487984D01*
X14314572Y-13487984D02*
X14295525Y-13478460D01*
X14295525Y-13478460D02*
X14286001Y-13468936D01*
X14286001Y-13468936D02*
X14276477Y-13449888D01*
X14276477Y-13449888D02*
X14266953Y-13411793D01*
X14266953Y-13411793D02*
X14266953Y-13364174D01*
X14266953Y-13364174D02*
X14276477Y-13326079D01*
X14276477Y-13326079D02*
X14286001Y-13307031D01*
X14286001Y-13307031D02*
X14295525Y-13297508D01*
X14295525Y-13297508D02*
X14314572Y-13287984D01*
X14505049Y-13287984D02*
X14524096Y-13287984D01*
X14524096Y-13287984D02*
X14543144Y-13297508D01*
X14543144Y-13297508D02*
X14552668Y-13307031D01*
X14552668Y-13307031D02*
X14562192Y-13326079D01*
X14562192Y-13326079D02*
X14571715Y-13364174D01*
X14571715Y-13364174D02*
X14571715Y-13411793D01*
X14571715Y-13411793D02*
X14562192Y-13449888D01*
X14562192Y-13449888D02*
X14552668Y-13468936D01*
X14552668Y-13468936D02*
X14543144Y-13478460D01*
X14543144Y-13478460D02*
X14524096Y-13487984D01*
X14524096Y-13487984D02*
X14505049Y-13487984D01*
X14505049Y-13487984D02*
X14486001Y-13478460D01*
X14486001Y-13478460D02*
X14476477Y-13468936D01*
X14476477Y-13468936D02*
X14466953Y-13449888D01*
X14466953Y-13449888D02*
X14457430Y-13411793D01*
X14457430Y-13411793D02*
X14457430Y-13364174D01*
X14457430Y-13364174D02*
X14466953Y-13326079D01*
X14466953Y-13326079D02*
X14476477Y-13307031D01*
X14476477Y-13307031D02*
X14486001Y-13297508D01*
X14486001Y-13297508D02*
X14505049Y-13287984D01*
X14657430Y-13487984D02*
X14657430Y-13354650D01*
X14657430Y-13373698D02*
X14666953Y-13364174D01*
X14666953Y-13364174D02*
X14686001Y-13354650D01*
X14686001Y-13354650D02*
X14714573Y-13354650D01*
X14714573Y-13354650D02*
X14733620Y-13364174D01*
X14733620Y-13364174D02*
X14743144Y-13383222D01*
X14743144Y-13383222D02*
X14743144Y-13487984D01*
X14743144Y-13383222D02*
X14752668Y-13364174D01*
X14752668Y-13364174D02*
X14771715Y-13354650D01*
X14771715Y-13354650D02*
X14800287Y-13354650D01*
X14800287Y-13354650D02*
X14819334Y-13364174D01*
X14819334Y-13364174D02*
X14828858Y-13383222D01*
X14828858Y-13383222D02*
X14828858Y-13487984D01*
X14924096Y-13487984D02*
X14924096Y-13354650D01*
X14924096Y-13373698D02*
X14933620Y-13364174D01*
X14933620Y-13364174D02*
X14952668Y-13354650D01*
X14952668Y-13354650D02*
X14981239Y-13354650D01*
X14981239Y-13354650D02*
X15000287Y-13364174D01*
X15000287Y-13364174D02*
X15009811Y-13383222D01*
X15009811Y-13383222D02*
X15009811Y-13487984D01*
X15009811Y-13383222D02*
X15019334Y-13364174D01*
X15019334Y-13364174D02*
X15038382Y-13354650D01*
X15038382Y-13354650D02*
X15066953Y-13354650D01*
X15066953Y-13354650D02*
X15086001Y-13364174D01*
X15086001Y-13364174D02*
X15095525Y-13383222D01*
X15095525Y-13383222D02*
X15095525Y-13487984D01*
X15486001Y-13278460D02*
X15314573Y-13535603D01*
X15743144Y-13287984D02*
X15762192Y-13287984D01*
X15762192Y-13287984D02*
X15781239Y-13297508D01*
X15781239Y-13297508D02*
X15790763Y-13307031D01*
X15790763Y-13307031D02*
X15800287Y-13326079D01*
X15800287Y-13326079D02*
X15809811Y-13364174D01*
X15809811Y-13364174D02*
X15809811Y-13411793D01*
X15809811Y-13411793D02*
X15800287Y-13449888D01*
X15800287Y-13449888D02*
X15790763Y-13468936D01*
X15790763Y-13468936D02*
X15781239Y-13478460D01*
X15781239Y-13478460D02*
X15762192Y-13487984D01*
X15762192Y-13487984D02*
X15743144Y-13487984D01*
X15743144Y-13487984D02*
X15724096Y-13478460D01*
X15724096Y-13478460D02*
X15714573Y-13468936D01*
X15714573Y-13468936D02*
X15705049Y-13449888D01*
X15705049Y-13449888D02*
X15695525Y-13411793D01*
X15695525Y-13411793D02*
X15695525Y-13364174D01*
X15695525Y-13364174D02*
X15705049Y-13326079D01*
X15705049Y-13326079D02*
X15714573Y-13307031D01*
X15714573Y-13307031D02*
X15724096Y-13297508D01*
X15724096Y-13297508D02*
X15743144Y-13287984D01*
X15895525Y-13468936D02*
X15905049Y-13478460D01*
X15905049Y-13478460D02*
X15895525Y-13487984D01*
X15895525Y-13487984D02*
X15886001Y-13478460D01*
X15886001Y-13478460D02*
X15895525Y-13468936D01*
X15895525Y-13468936D02*
X15895525Y-13487984D01*
X16028858Y-13287984D02*
X16047906Y-13287984D01*
X16047906Y-13287984D02*
X16066954Y-13297508D01*
X16066954Y-13297508D02*
X16076477Y-13307031D01*
X16076477Y-13307031D02*
X16086001Y-13326079D01*
X16086001Y-13326079D02*
X16095525Y-13364174D01*
X16095525Y-13364174D02*
X16095525Y-13411793D01*
X16095525Y-13411793D02*
X16086001Y-13449888D01*
X16086001Y-13449888D02*
X16076477Y-13468936D01*
X16076477Y-13468936D02*
X16066954Y-13478460D01*
X16066954Y-13478460D02*
X16047906Y-13487984D01*
X16047906Y-13487984D02*
X16028858Y-13487984D01*
X16028858Y-13487984D02*
X16009811Y-13478460D01*
X16009811Y-13478460D02*
X16000287Y-13468936D01*
X16000287Y-13468936D02*
X15990763Y-13449888D01*
X15990763Y-13449888D02*
X15981239Y-13411793D01*
X15981239Y-13411793D02*
X15981239Y-13364174D01*
X15981239Y-13364174D02*
X15990763Y-13326079D01*
X15990763Y-13326079D02*
X16000287Y-13307031D01*
X16000287Y-13307031D02*
X16009811Y-13297508D01*
X16009811Y-13297508D02*
X16028858Y-13287984D01*
X16286001Y-13487984D02*
X16171716Y-13487984D01*
X16228858Y-13487984D02*
X16228858Y-13287984D01*
X16228858Y-13287984D02*
X16209811Y-13316555D01*
X16209811Y-13316555D02*
X16190763Y-13335603D01*
X16190763Y-13335603D02*
X16171716Y-13345127D01*
X16476477Y-13487984D02*
X16362192Y-13487984D01*
X16419335Y-13487984D02*
X16419335Y-13287984D01*
X16419335Y-13287984D02*
X16400287Y-13316555D01*
X16400287Y-13316555D02*
X16381239Y-13335603D01*
X16381239Y-13335603D02*
X16362192Y-13345127D01*
X16590763Y-13373698D02*
X16571716Y-13364174D01*
X16571716Y-13364174D02*
X16562192Y-13354650D01*
X16562192Y-13354650D02*
X16552668Y-13335603D01*
X16552668Y-13335603D02*
X16552668Y-13326079D01*
X16552668Y-13326079D02*
X16562192Y-13307031D01*
X16562192Y-13307031D02*
X16571716Y-13297508D01*
X16571716Y-13297508D02*
X16590763Y-13287984D01*
X16590763Y-13287984D02*
X16628858Y-13287984D01*
X16628858Y-13287984D02*
X16647906Y-13297508D01*
X16647906Y-13297508D02*
X16657430Y-13307031D01*
X16657430Y-13307031D02*
X16666954Y-13326079D01*
X16666954Y-13326079D02*
X16666954Y-13335603D01*
X16666954Y-13335603D02*
X16657430Y-13354650D01*
X16657430Y-13354650D02*
X16647906Y-13364174D01*
X16647906Y-13364174D02*
X16628858Y-13373698D01*
X16628858Y-13373698D02*
X16590763Y-13373698D01*
X16590763Y-13373698D02*
X16571716Y-13383222D01*
X16571716Y-13383222D02*
X16562192Y-13392746D01*
X16562192Y-13392746D02*
X16552668Y-13411793D01*
X16552668Y-13411793D02*
X16552668Y-13449888D01*
X16552668Y-13449888D02*
X16562192Y-13468936D01*
X16562192Y-13468936D02*
X16571716Y-13478460D01*
X16571716Y-13478460D02*
X16590763Y-13487984D01*
X16590763Y-13487984D02*
X16628858Y-13487984D01*
X16628858Y-13487984D02*
X16647906Y-13478460D01*
X16647906Y-13478460D02*
X16657430Y-13468936D01*
X16657430Y-13468936D02*
X16666954Y-13449888D01*
X16666954Y-13449888D02*
X16666954Y-13411793D01*
X16666954Y-13411793D02*
X16657430Y-13392746D01*
X16657430Y-13392746D02*
X16647906Y-13383222D01*
X16647906Y-13383222D02*
X16628858Y-13373698D01*
X16743144Y-13287984D02*
X16743144Y-13326079D01*
X16819335Y-13287984D02*
X16819335Y-13326079D01*
X17114573Y-13564174D02*
X17105049Y-13554650D01*
X17105049Y-13554650D02*
X17086001Y-13526079D01*
X17086001Y-13526079D02*
X17076478Y-13507031D01*
X17076478Y-13507031D02*
X17066954Y-13478460D01*
X17066954Y-13478460D02*
X17057430Y-13430841D01*
X17057430Y-13430841D02*
X17057430Y-13392746D01*
X17057430Y-13392746D02*
X17066954Y-13345127D01*
X17066954Y-13345127D02*
X17076478Y-13316555D01*
X17076478Y-13316555D02*
X17086001Y-13297508D01*
X17086001Y-13297508D02*
X17105049Y-13268936D01*
X17105049Y-13268936D02*
X17114573Y-13259412D01*
X17295525Y-13487984D02*
X17181240Y-13487984D01*
X17238382Y-13487984D02*
X17238382Y-13287984D01*
X17238382Y-13287984D02*
X17219335Y-13316555D01*
X17219335Y-13316555D02*
X17200287Y-13335603D01*
X17200287Y-13335603D02*
X17181240Y-13345127D01*
X17390763Y-13487984D02*
X17428859Y-13487984D01*
X17428859Y-13487984D02*
X17447906Y-13478460D01*
X17447906Y-13478460D02*
X17457430Y-13468936D01*
X17457430Y-13468936D02*
X17476478Y-13440365D01*
X17476478Y-13440365D02*
X17486001Y-13402269D01*
X17486001Y-13402269D02*
X17486001Y-13326079D01*
X17486001Y-13326079D02*
X17476478Y-13307031D01*
X17476478Y-13307031D02*
X17466954Y-13297508D01*
X17466954Y-13297508D02*
X17447906Y-13287984D01*
X17447906Y-13287984D02*
X17409811Y-13287984D01*
X17409811Y-13287984D02*
X17390763Y-13297508D01*
X17390763Y-13297508D02*
X17381240Y-13307031D01*
X17381240Y-13307031D02*
X17371716Y-13326079D01*
X17371716Y-13326079D02*
X17371716Y-13373698D01*
X17371716Y-13373698D02*
X17381240Y-13392746D01*
X17381240Y-13392746D02*
X17390763Y-13402269D01*
X17390763Y-13402269D02*
X17409811Y-13411793D01*
X17409811Y-13411793D02*
X17447906Y-13411793D01*
X17447906Y-13411793D02*
X17466954Y-13402269D01*
X17466954Y-13402269D02*
X17476478Y-13392746D01*
X17476478Y-13392746D02*
X17486001Y-13373698D01*
X17724097Y-13487984D02*
X17724097Y-13287984D01*
X17809811Y-13487984D02*
X17809811Y-13383222D01*
X17809811Y-13383222D02*
X17800287Y-13364174D01*
X17800287Y-13364174D02*
X17781240Y-13354650D01*
X17781240Y-13354650D02*
X17752668Y-13354650D01*
X17752668Y-13354650D02*
X17733621Y-13364174D01*
X17733621Y-13364174D02*
X17724097Y-13373698D01*
X17933621Y-13487984D02*
X17914573Y-13478460D01*
X17914573Y-13478460D02*
X17905049Y-13468936D01*
X17905049Y-13468936D02*
X17895525Y-13449888D01*
X17895525Y-13449888D02*
X17895525Y-13392746D01*
X17895525Y-13392746D02*
X17905049Y-13373698D01*
X17905049Y-13373698D02*
X17914573Y-13364174D01*
X17914573Y-13364174D02*
X17933621Y-13354650D01*
X17933621Y-13354650D02*
X17962192Y-13354650D01*
X17962192Y-13354650D02*
X17981240Y-13364174D01*
X17981240Y-13364174D02*
X17990763Y-13373698D01*
X17990763Y-13373698D02*
X18000287Y-13392746D01*
X18000287Y-13392746D02*
X18000287Y-13449888D01*
X18000287Y-13449888D02*
X17990763Y-13468936D01*
X17990763Y-13468936D02*
X17981240Y-13478460D01*
X17981240Y-13478460D02*
X17962192Y-13487984D01*
X17962192Y-13487984D02*
X17933621Y-13487984D01*
X18114573Y-13487984D02*
X18095525Y-13478460D01*
X18095525Y-13478460D02*
X18086002Y-13459412D01*
X18086002Y-13459412D02*
X18086002Y-13287984D01*
X18266954Y-13478460D02*
X18247906Y-13487984D01*
X18247906Y-13487984D02*
X18209811Y-13487984D01*
X18209811Y-13487984D02*
X18190763Y-13478460D01*
X18190763Y-13478460D02*
X18181240Y-13459412D01*
X18181240Y-13459412D02*
X18181240Y-13383222D01*
X18181240Y-13383222D02*
X18190763Y-13364174D01*
X18190763Y-13364174D02*
X18209811Y-13354650D01*
X18209811Y-13354650D02*
X18247906Y-13354650D01*
X18247906Y-13354650D02*
X18266954Y-13364174D01*
X18266954Y-13364174D02*
X18276478Y-13383222D01*
X18276478Y-13383222D02*
X18276478Y-13402269D01*
X18276478Y-13402269D02*
X18181240Y-13421317D01*
X18352668Y-13478460D02*
X18371716Y-13487984D01*
X18371716Y-13487984D02*
X18409811Y-13487984D01*
X18409811Y-13487984D02*
X18428859Y-13478460D01*
X18428859Y-13478460D02*
X18438383Y-13459412D01*
X18438383Y-13459412D02*
X18438383Y-13449888D01*
X18438383Y-13449888D02*
X18428859Y-13430841D01*
X18428859Y-13430841D02*
X18409811Y-13421317D01*
X18409811Y-13421317D02*
X18381240Y-13421317D01*
X18381240Y-13421317D02*
X18362192Y-13411793D01*
X18362192Y-13411793D02*
X18352668Y-13392746D01*
X18352668Y-13392746D02*
X18352668Y-13383222D01*
X18352668Y-13383222D02*
X18362192Y-13364174D01*
X18362192Y-13364174D02*
X18381240Y-13354650D01*
X18381240Y-13354650D02*
X18409811Y-13354650D01*
X18409811Y-13354650D02*
X18428859Y-13364174D01*
X18505049Y-13564174D02*
X18514573Y-13554650D01*
X18514573Y-13554650D02*
X18533621Y-13526079D01*
X18533621Y-13526079D02*
X18543144Y-13507031D01*
X18543144Y-13507031D02*
X18552668Y-13478460D01*
X18552668Y-13478460D02*
X18562192Y-13430841D01*
X18562192Y-13430841D02*
X18562192Y-13392746D01*
X18562192Y-13392746D02*
X18552668Y-13345127D01*
X18552668Y-13345127D02*
X18543144Y-13316555D01*
X18543144Y-13316555D02*
X18533621Y-13297508D01*
X18533621Y-13297508D02*
X18514573Y-13268936D01*
X18514573Y-13268936D02*
X18505049Y-13259412D01*
D12*
X13539510Y-13660500D02*
G75*
G03*
X13499510Y-13660500I-20000J0D01*
G01*
X13499510Y-13660500D02*
G75*
G03*
X13539510Y-13660500I20000J0D01*
G01*
D11*
X13838382Y-13551984D02*
X13857430Y-13551984D01*
X13857430Y-13551984D02*
X13876477Y-13561508D01*
X13876477Y-13561508D02*
X13886001Y-13571031D01*
X13886001Y-13571031D02*
X13895525Y-13590079D01*
X13895525Y-13590079D02*
X13905049Y-13628174D01*
X13905049Y-13628174D02*
X13905049Y-13675793D01*
X13905049Y-13675793D02*
X13895525Y-13713888D01*
X13895525Y-13713888D02*
X13886001Y-13732936D01*
X13886001Y-13732936D02*
X13876477Y-13742460D01*
X13876477Y-13742460D02*
X13857430Y-13751984D01*
X13857430Y-13751984D02*
X13838382Y-13751984D01*
X13838382Y-13751984D02*
X13819334Y-13742460D01*
X13819334Y-13742460D02*
X13809811Y-13732936D01*
X13809811Y-13732936D02*
X13800287Y-13713888D01*
X13800287Y-13713888D02*
X13790763Y-13675793D01*
X13790763Y-13675793D02*
X13790763Y-13628174D01*
X13790763Y-13628174D02*
X13800287Y-13590079D01*
X13800287Y-13590079D02*
X13809811Y-13571031D01*
X13809811Y-13571031D02*
X13819334Y-13561508D01*
X13819334Y-13561508D02*
X13838382Y-13551984D01*
X13990763Y-13732936D02*
X14000287Y-13742460D01*
X14000287Y-13742460D02*
X13990763Y-13751984D01*
X13990763Y-13751984D02*
X13981239Y-13742460D01*
X13981239Y-13742460D02*
X13990763Y-13732936D01*
X13990763Y-13732936D02*
X13990763Y-13751984D01*
X14171715Y-13618650D02*
X14171715Y-13751984D01*
X14124096Y-13542460D02*
X14076477Y-13685317D01*
X14076477Y-13685317D02*
X14200287Y-13685317D01*
X14314572Y-13551984D02*
X14333620Y-13551984D01*
X14333620Y-13551984D02*
X14352668Y-13561508D01*
X14352668Y-13561508D02*
X14362192Y-13571031D01*
X14362192Y-13571031D02*
X14371715Y-13590079D01*
X14371715Y-13590079D02*
X14381239Y-13628174D01*
X14381239Y-13628174D02*
X14381239Y-13675793D01*
X14381239Y-13675793D02*
X14371715Y-13713888D01*
X14371715Y-13713888D02*
X14362192Y-13732936D01*
X14362192Y-13732936D02*
X14352668Y-13742460D01*
X14352668Y-13742460D02*
X14333620Y-13751984D01*
X14333620Y-13751984D02*
X14314572Y-13751984D01*
X14314572Y-13751984D02*
X14295525Y-13742460D01*
X14295525Y-13742460D02*
X14286001Y-13732936D01*
X14286001Y-13732936D02*
X14276477Y-13713888D01*
X14276477Y-13713888D02*
X14266953Y-13675793D01*
X14266953Y-13675793D02*
X14266953Y-13628174D01*
X14266953Y-13628174D02*
X14276477Y-13590079D01*
X14276477Y-13590079D02*
X14286001Y-13571031D01*
X14286001Y-13571031D02*
X14295525Y-13561508D01*
X14295525Y-13561508D02*
X14314572Y-13551984D01*
X14505049Y-13551984D02*
X14524096Y-13551984D01*
X14524096Y-13551984D02*
X14543144Y-13561508D01*
X14543144Y-13561508D02*
X14552668Y-13571031D01*
X14552668Y-13571031D02*
X14562192Y-13590079D01*
X14562192Y-13590079D02*
X14571715Y-13628174D01*
X14571715Y-13628174D02*
X14571715Y-13675793D01*
X14571715Y-13675793D02*
X14562192Y-13713888D01*
X14562192Y-13713888D02*
X14552668Y-13732936D01*
X14552668Y-13732936D02*
X14543144Y-13742460D01*
X14543144Y-13742460D02*
X14524096Y-13751984D01*
X14524096Y-13751984D02*
X14505049Y-13751984D01*
X14505049Y-13751984D02*
X14486001Y-13742460D01*
X14486001Y-13742460D02*
X14476477Y-13732936D01*
X14476477Y-13732936D02*
X14466953Y-13713888D01*
X14466953Y-13713888D02*
X14457430Y-13675793D01*
X14457430Y-13675793D02*
X14457430Y-13628174D01*
X14457430Y-13628174D02*
X14466953Y-13590079D01*
X14466953Y-13590079D02*
X14476477Y-13571031D01*
X14476477Y-13571031D02*
X14486001Y-13561508D01*
X14486001Y-13561508D02*
X14505049Y-13551984D01*
X14657430Y-13751984D02*
X14657430Y-13618650D01*
X14657430Y-13637698D02*
X14666953Y-13628174D01*
X14666953Y-13628174D02*
X14686001Y-13618650D01*
X14686001Y-13618650D02*
X14714573Y-13618650D01*
X14714573Y-13618650D02*
X14733620Y-13628174D01*
X14733620Y-13628174D02*
X14743144Y-13647222D01*
X14743144Y-13647222D02*
X14743144Y-13751984D01*
X14743144Y-13647222D02*
X14752668Y-13628174D01*
X14752668Y-13628174D02*
X14771715Y-13618650D01*
X14771715Y-13618650D02*
X14800287Y-13618650D01*
X14800287Y-13618650D02*
X14819334Y-13628174D01*
X14819334Y-13628174D02*
X14828858Y-13647222D01*
X14828858Y-13647222D02*
X14828858Y-13751984D01*
X14924096Y-13751984D02*
X14924096Y-13618650D01*
X14924096Y-13637698D02*
X14933620Y-13628174D01*
X14933620Y-13628174D02*
X14952668Y-13618650D01*
X14952668Y-13618650D02*
X14981239Y-13618650D01*
X14981239Y-13618650D02*
X15000287Y-13628174D01*
X15000287Y-13628174D02*
X15009811Y-13647222D01*
X15009811Y-13647222D02*
X15009811Y-13751984D01*
X15009811Y-13647222D02*
X15019334Y-13628174D01*
X15019334Y-13628174D02*
X15038382Y-13618650D01*
X15038382Y-13618650D02*
X15066953Y-13618650D01*
X15066953Y-13618650D02*
X15086001Y-13628174D01*
X15086001Y-13628174D02*
X15095525Y-13647222D01*
X15095525Y-13647222D02*
X15095525Y-13751984D01*
X15486001Y-13542460D02*
X15314573Y-13799603D01*
X15743144Y-13551984D02*
X15762192Y-13551984D01*
X15762192Y-13551984D02*
X15781239Y-13561508D01*
X15781239Y-13561508D02*
X15790763Y-13571031D01*
X15790763Y-13571031D02*
X15800287Y-13590079D01*
X15800287Y-13590079D02*
X15809811Y-13628174D01*
X15809811Y-13628174D02*
X15809811Y-13675793D01*
X15809811Y-13675793D02*
X15800287Y-13713888D01*
X15800287Y-13713888D02*
X15790763Y-13732936D01*
X15790763Y-13732936D02*
X15781239Y-13742460D01*
X15781239Y-13742460D02*
X15762192Y-13751984D01*
X15762192Y-13751984D02*
X15743144Y-13751984D01*
X15743144Y-13751984D02*
X15724096Y-13742460D01*
X15724096Y-13742460D02*
X15714573Y-13732936D01*
X15714573Y-13732936D02*
X15705049Y-13713888D01*
X15705049Y-13713888D02*
X15695525Y-13675793D01*
X15695525Y-13675793D02*
X15695525Y-13628174D01*
X15695525Y-13628174D02*
X15705049Y-13590079D01*
X15705049Y-13590079D02*
X15714573Y-13571031D01*
X15714573Y-13571031D02*
X15724096Y-13561508D01*
X15724096Y-13561508D02*
X15743144Y-13551984D01*
X15895525Y-13732936D02*
X15905049Y-13742460D01*
X15905049Y-13742460D02*
X15895525Y-13751984D01*
X15895525Y-13751984D02*
X15886001Y-13742460D01*
X15886001Y-13742460D02*
X15895525Y-13732936D01*
X15895525Y-13732936D02*
X15895525Y-13751984D01*
X16028858Y-13551984D02*
X16047906Y-13551984D01*
X16047906Y-13551984D02*
X16066954Y-13561508D01*
X16066954Y-13561508D02*
X16076477Y-13571031D01*
X16076477Y-13571031D02*
X16086001Y-13590079D01*
X16086001Y-13590079D02*
X16095525Y-13628174D01*
X16095525Y-13628174D02*
X16095525Y-13675793D01*
X16095525Y-13675793D02*
X16086001Y-13713888D01*
X16086001Y-13713888D02*
X16076477Y-13732936D01*
X16076477Y-13732936D02*
X16066954Y-13742460D01*
X16066954Y-13742460D02*
X16047906Y-13751984D01*
X16047906Y-13751984D02*
X16028858Y-13751984D01*
X16028858Y-13751984D02*
X16009811Y-13742460D01*
X16009811Y-13742460D02*
X16000287Y-13732936D01*
X16000287Y-13732936D02*
X15990763Y-13713888D01*
X15990763Y-13713888D02*
X15981239Y-13675793D01*
X15981239Y-13675793D02*
X15981239Y-13628174D01*
X15981239Y-13628174D02*
X15990763Y-13590079D01*
X15990763Y-13590079D02*
X16000287Y-13571031D01*
X16000287Y-13571031D02*
X16009811Y-13561508D01*
X16009811Y-13561508D02*
X16028858Y-13551984D01*
X16286001Y-13751984D02*
X16171716Y-13751984D01*
X16228858Y-13751984D02*
X16228858Y-13551984D01*
X16228858Y-13551984D02*
X16209811Y-13580555D01*
X16209811Y-13580555D02*
X16190763Y-13599603D01*
X16190763Y-13599603D02*
X16171716Y-13609127D01*
X16466954Y-13551984D02*
X16371716Y-13551984D01*
X16371716Y-13551984D02*
X16362192Y-13647222D01*
X16362192Y-13647222D02*
X16371716Y-13637698D01*
X16371716Y-13637698D02*
X16390763Y-13628174D01*
X16390763Y-13628174D02*
X16438382Y-13628174D01*
X16438382Y-13628174D02*
X16457430Y-13637698D01*
X16457430Y-13637698D02*
X16466954Y-13647222D01*
X16466954Y-13647222D02*
X16476477Y-13666269D01*
X16476477Y-13666269D02*
X16476477Y-13713888D01*
X16476477Y-13713888D02*
X16466954Y-13732936D01*
X16466954Y-13732936D02*
X16457430Y-13742460D01*
X16457430Y-13742460D02*
X16438382Y-13751984D01*
X16438382Y-13751984D02*
X16390763Y-13751984D01*
X16390763Y-13751984D02*
X16371716Y-13742460D01*
X16371716Y-13742460D02*
X16362192Y-13732936D01*
X16543144Y-13551984D02*
X16676477Y-13551984D01*
X16676477Y-13551984D02*
X16590763Y-13751984D01*
X16743144Y-13551984D02*
X16743144Y-13590079D01*
X16819335Y-13551984D02*
X16819335Y-13590079D01*
X17114573Y-13828174D02*
X17105049Y-13818650D01*
X17105049Y-13818650D02*
X17086001Y-13790079D01*
X17086001Y-13790079D02*
X17076478Y-13771031D01*
X17076478Y-13771031D02*
X17066954Y-13742460D01*
X17066954Y-13742460D02*
X17057430Y-13694841D01*
X17057430Y-13694841D02*
X17057430Y-13656746D01*
X17057430Y-13656746D02*
X17066954Y-13609127D01*
X17066954Y-13609127D02*
X17076478Y-13580555D01*
X17076478Y-13580555D02*
X17086001Y-13561508D01*
X17086001Y-13561508D02*
X17105049Y-13532936D01*
X17105049Y-13532936D02*
X17114573Y-13523412D01*
X17219335Y-13637698D02*
X17200287Y-13628174D01*
X17200287Y-13628174D02*
X17190763Y-13618650D01*
X17190763Y-13618650D02*
X17181240Y-13599603D01*
X17181240Y-13599603D02*
X17181240Y-13590079D01*
X17181240Y-13590079D02*
X17190763Y-13571031D01*
X17190763Y-13571031D02*
X17200287Y-13561508D01*
X17200287Y-13561508D02*
X17219335Y-13551984D01*
X17219335Y-13551984D02*
X17257430Y-13551984D01*
X17257430Y-13551984D02*
X17276478Y-13561508D01*
X17276478Y-13561508D02*
X17286001Y-13571031D01*
X17286001Y-13571031D02*
X17295525Y-13590079D01*
X17295525Y-13590079D02*
X17295525Y-13599603D01*
X17295525Y-13599603D02*
X17286001Y-13618650D01*
X17286001Y-13618650D02*
X17276478Y-13628174D01*
X17276478Y-13628174D02*
X17257430Y-13637698D01*
X17257430Y-13637698D02*
X17219335Y-13637698D01*
X17219335Y-13637698D02*
X17200287Y-13647222D01*
X17200287Y-13647222D02*
X17190763Y-13656746D01*
X17190763Y-13656746D02*
X17181240Y-13675793D01*
X17181240Y-13675793D02*
X17181240Y-13713888D01*
X17181240Y-13713888D02*
X17190763Y-13732936D01*
X17190763Y-13732936D02*
X17200287Y-13742460D01*
X17200287Y-13742460D02*
X17219335Y-13751984D01*
X17219335Y-13751984D02*
X17257430Y-13751984D01*
X17257430Y-13751984D02*
X17276478Y-13742460D01*
X17276478Y-13742460D02*
X17286001Y-13732936D01*
X17286001Y-13732936D02*
X17295525Y-13713888D01*
X17295525Y-13713888D02*
X17295525Y-13675793D01*
X17295525Y-13675793D02*
X17286001Y-13656746D01*
X17286001Y-13656746D02*
X17276478Y-13647222D01*
X17276478Y-13647222D02*
X17257430Y-13637698D01*
X17533621Y-13751984D02*
X17533621Y-13551984D01*
X17619335Y-13751984D02*
X17619335Y-13647222D01*
X17619335Y-13647222D02*
X17609811Y-13628174D01*
X17609811Y-13628174D02*
X17590763Y-13618650D01*
X17590763Y-13618650D02*
X17562192Y-13618650D01*
X17562192Y-13618650D02*
X17543144Y-13628174D01*
X17543144Y-13628174D02*
X17533621Y-13637698D01*
X17743144Y-13751984D02*
X17724097Y-13742460D01*
X17724097Y-13742460D02*
X17714573Y-13732936D01*
X17714573Y-13732936D02*
X17705049Y-13713888D01*
X17705049Y-13713888D02*
X17705049Y-13656746D01*
X17705049Y-13656746D02*
X17714573Y-13637698D01*
X17714573Y-13637698D02*
X17724097Y-13628174D01*
X17724097Y-13628174D02*
X17743144Y-13618650D01*
X17743144Y-13618650D02*
X17771716Y-13618650D01*
X17771716Y-13618650D02*
X17790763Y-13628174D01*
X17790763Y-13628174D02*
X17800287Y-13637698D01*
X17800287Y-13637698D02*
X17809811Y-13656746D01*
X17809811Y-13656746D02*
X17809811Y-13713888D01*
X17809811Y-13713888D02*
X17800287Y-13732936D01*
X17800287Y-13732936D02*
X17790763Y-13742460D01*
X17790763Y-13742460D02*
X17771716Y-13751984D01*
X17771716Y-13751984D02*
X17743144Y-13751984D01*
X17924097Y-13751984D02*
X17905049Y-13742460D01*
X17905049Y-13742460D02*
X17895525Y-13723412D01*
X17895525Y-13723412D02*
X17895525Y-13551984D01*
X18076478Y-13742460D02*
X18057430Y-13751984D01*
X18057430Y-13751984D02*
X18019335Y-13751984D01*
X18019335Y-13751984D02*
X18000287Y-13742460D01*
X18000287Y-13742460D02*
X17990763Y-13723412D01*
X17990763Y-13723412D02*
X17990763Y-13647222D01*
X17990763Y-13647222D02*
X18000287Y-13628174D01*
X18000287Y-13628174D02*
X18019335Y-13618650D01*
X18019335Y-13618650D02*
X18057430Y-13618650D01*
X18057430Y-13618650D02*
X18076478Y-13628174D01*
X18076478Y-13628174D02*
X18086002Y-13647222D01*
X18086002Y-13647222D02*
X18086002Y-13666269D01*
X18086002Y-13666269D02*
X17990763Y-13685317D01*
X18162192Y-13742460D02*
X18181240Y-13751984D01*
X18181240Y-13751984D02*
X18219335Y-13751984D01*
X18219335Y-13751984D02*
X18238383Y-13742460D01*
X18238383Y-13742460D02*
X18247906Y-13723412D01*
X18247906Y-13723412D02*
X18247906Y-13713888D01*
X18247906Y-13713888D02*
X18238383Y-13694841D01*
X18238383Y-13694841D02*
X18219335Y-13685317D01*
X18219335Y-13685317D02*
X18190763Y-13685317D01*
X18190763Y-13685317D02*
X18171716Y-13675793D01*
X18171716Y-13675793D02*
X18162192Y-13656746D01*
X18162192Y-13656746D02*
X18162192Y-13647222D01*
X18162192Y-13647222D02*
X18171716Y-13628174D01*
X18171716Y-13628174D02*
X18190763Y-13618650D01*
X18190763Y-13618650D02*
X18219335Y-13618650D01*
X18219335Y-13618650D02*
X18238383Y-13628174D01*
X18314573Y-13828174D02*
X18324097Y-13818650D01*
X18324097Y-13818650D02*
X18343144Y-13790079D01*
X18343144Y-13790079D02*
X18352668Y-13771031D01*
X18352668Y-13771031D02*
X18362192Y-13742460D01*
X18362192Y-13742460D02*
X18371716Y-13694841D01*
X18371716Y-13694841D02*
X18371716Y-13656746D01*
X18371716Y-13656746D02*
X18362192Y-13609127D01*
X18362192Y-13609127D02*
X18352668Y-13580555D01*
X18352668Y-13580555D02*
X18343144Y-13561508D01*
X18343144Y-13561508D02*
X18324097Y-13532936D01*
X18324097Y-13532936D02*
X18314573Y-13523412D01*
D12*
X13519190Y-13904180D02*
X13519190Y-13944820D01*
X13498870Y-13924500D02*
X13539510Y-13924500D01*
D11*
X13838382Y-13815984D02*
X13857430Y-13815984D01*
X13857430Y-13815984D02*
X13876477Y-13825508D01*
X13876477Y-13825508D02*
X13886001Y-13835031D01*
X13886001Y-13835031D02*
X13895525Y-13854079D01*
X13895525Y-13854079D02*
X13905049Y-13892174D01*
X13905049Y-13892174D02*
X13905049Y-13939793D01*
X13905049Y-13939793D02*
X13895525Y-13977888D01*
X13895525Y-13977888D02*
X13886001Y-13996936D01*
X13886001Y-13996936D02*
X13876477Y-14006460D01*
X13876477Y-14006460D02*
X13857430Y-14015984D01*
X13857430Y-14015984D02*
X13838382Y-14015984D01*
X13838382Y-14015984D02*
X13819334Y-14006460D01*
X13819334Y-14006460D02*
X13809811Y-13996936D01*
X13809811Y-13996936D02*
X13800287Y-13977888D01*
X13800287Y-13977888D02*
X13790763Y-13939793D01*
X13790763Y-13939793D02*
X13790763Y-13892174D01*
X13790763Y-13892174D02*
X13800287Y-13854079D01*
X13800287Y-13854079D02*
X13809811Y-13835031D01*
X13809811Y-13835031D02*
X13819334Y-13825508D01*
X13819334Y-13825508D02*
X13838382Y-13815984D01*
X13990763Y-13996936D02*
X14000287Y-14006460D01*
X14000287Y-14006460D02*
X13990763Y-14015984D01*
X13990763Y-14015984D02*
X13981239Y-14006460D01*
X13981239Y-14006460D02*
X13990763Y-13996936D01*
X13990763Y-13996936D02*
X13990763Y-14015984D01*
X14171715Y-13882650D02*
X14171715Y-14015984D01*
X14124096Y-13806460D02*
X14076477Y-13949317D01*
X14076477Y-13949317D02*
X14200287Y-13949317D01*
X14314572Y-13815984D02*
X14333620Y-13815984D01*
X14333620Y-13815984D02*
X14352668Y-13825508D01*
X14352668Y-13825508D02*
X14362192Y-13835031D01*
X14362192Y-13835031D02*
X14371715Y-13854079D01*
X14371715Y-13854079D02*
X14381239Y-13892174D01*
X14381239Y-13892174D02*
X14381239Y-13939793D01*
X14381239Y-13939793D02*
X14371715Y-13977888D01*
X14371715Y-13977888D02*
X14362192Y-13996936D01*
X14362192Y-13996936D02*
X14352668Y-14006460D01*
X14352668Y-14006460D02*
X14333620Y-14015984D01*
X14333620Y-14015984D02*
X14314572Y-14015984D01*
X14314572Y-14015984D02*
X14295525Y-14006460D01*
X14295525Y-14006460D02*
X14286001Y-13996936D01*
X14286001Y-13996936D02*
X14276477Y-13977888D01*
X14276477Y-13977888D02*
X14266953Y-13939793D01*
X14266953Y-13939793D02*
X14266953Y-13892174D01*
X14266953Y-13892174D02*
X14276477Y-13854079D01*
X14276477Y-13854079D02*
X14286001Y-13835031D01*
X14286001Y-13835031D02*
X14295525Y-13825508D01*
X14295525Y-13825508D02*
X14314572Y-13815984D01*
X14552668Y-13815984D02*
X14514572Y-13815984D01*
X14514572Y-13815984D02*
X14495525Y-13825508D01*
X14495525Y-13825508D02*
X14486001Y-13835031D01*
X14486001Y-13835031D02*
X14466953Y-13863603D01*
X14466953Y-13863603D02*
X14457430Y-13901698D01*
X14457430Y-13901698D02*
X14457430Y-13977888D01*
X14457430Y-13977888D02*
X14466953Y-13996936D01*
X14466953Y-13996936D02*
X14476477Y-14006460D01*
X14476477Y-14006460D02*
X14495525Y-14015984D01*
X14495525Y-14015984D02*
X14533620Y-14015984D01*
X14533620Y-14015984D02*
X14552668Y-14006460D01*
X14552668Y-14006460D02*
X14562192Y-13996936D01*
X14562192Y-13996936D02*
X14571715Y-13977888D01*
X14571715Y-13977888D02*
X14571715Y-13930269D01*
X14571715Y-13930269D02*
X14562192Y-13911222D01*
X14562192Y-13911222D02*
X14552668Y-13901698D01*
X14552668Y-13901698D02*
X14533620Y-13892174D01*
X14533620Y-13892174D02*
X14495525Y-13892174D01*
X14495525Y-13892174D02*
X14476477Y-13901698D01*
X14476477Y-13901698D02*
X14466953Y-13911222D01*
X14466953Y-13911222D02*
X14457430Y-13930269D01*
X14657430Y-14015984D02*
X14657430Y-13882650D01*
X14657430Y-13901698D02*
X14666953Y-13892174D01*
X14666953Y-13892174D02*
X14686001Y-13882650D01*
X14686001Y-13882650D02*
X14714573Y-13882650D01*
X14714573Y-13882650D02*
X14733620Y-13892174D01*
X14733620Y-13892174D02*
X14743144Y-13911222D01*
X14743144Y-13911222D02*
X14743144Y-14015984D01*
X14743144Y-13911222D02*
X14752668Y-13892174D01*
X14752668Y-13892174D02*
X14771715Y-13882650D01*
X14771715Y-13882650D02*
X14800287Y-13882650D01*
X14800287Y-13882650D02*
X14819334Y-13892174D01*
X14819334Y-13892174D02*
X14828858Y-13911222D01*
X14828858Y-13911222D02*
X14828858Y-14015984D01*
X14924096Y-14015984D02*
X14924096Y-13882650D01*
X14924096Y-13901698D02*
X14933620Y-13892174D01*
X14933620Y-13892174D02*
X14952668Y-13882650D01*
X14952668Y-13882650D02*
X14981239Y-13882650D01*
X14981239Y-13882650D02*
X15000287Y-13892174D01*
X15000287Y-13892174D02*
X15009811Y-13911222D01*
X15009811Y-13911222D02*
X15009811Y-14015984D01*
X15009811Y-13911222D02*
X15019334Y-13892174D01*
X15019334Y-13892174D02*
X15038382Y-13882650D01*
X15038382Y-13882650D02*
X15066953Y-13882650D01*
X15066953Y-13882650D02*
X15086001Y-13892174D01*
X15086001Y-13892174D02*
X15095525Y-13911222D01*
X15095525Y-13911222D02*
X15095525Y-14015984D01*
X15486001Y-13806460D02*
X15314573Y-14063603D01*
X15743144Y-13815984D02*
X15762192Y-13815984D01*
X15762192Y-13815984D02*
X15781239Y-13825508D01*
X15781239Y-13825508D02*
X15790763Y-13835031D01*
X15790763Y-13835031D02*
X15800287Y-13854079D01*
X15800287Y-13854079D02*
X15809811Y-13892174D01*
X15809811Y-13892174D02*
X15809811Y-13939793D01*
X15809811Y-13939793D02*
X15800287Y-13977888D01*
X15800287Y-13977888D02*
X15790763Y-13996936D01*
X15790763Y-13996936D02*
X15781239Y-14006460D01*
X15781239Y-14006460D02*
X15762192Y-14015984D01*
X15762192Y-14015984D02*
X15743144Y-14015984D01*
X15743144Y-14015984D02*
X15724096Y-14006460D01*
X15724096Y-14006460D02*
X15714573Y-13996936D01*
X15714573Y-13996936D02*
X15705049Y-13977888D01*
X15705049Y-13977888D02*
X15695525Y-13939793D01*
X15695525Y-13939793D02*
X15695525Y-13892174D01*
X15695525Y-13892174D02*
X15705049Y-13854079D01*
X15705049Y-13854079D02*
X15714573Y-13835031D01*
X15714573Y-13835031D02*
X15724096Y-13825508D01*
X15724096Y-13825508D02*
X15743144Y-13815984D01*
X15895525Y-13996936D02*
X15905049Y-14006460D01*
X15905049Y-14006460D02*
X15895525Y-14015984D01*
X15895525Y-14015984D02*
X15886001Y-14006460D01*
X15886001Y-14006460D02*
X15895525Y-13996936D01*
X15895525Y-13996936D02*
X15895525Y-14015984D01*
X16028858Y-13815984D02*
X16047906Y-13815984D01*
X16047906Y-13815984D02*
X16066954Y-13825508D01*
X16066954Y-13825508D02*
X16076477Y-13835031D01*
X16076477Y-13835031D02*
X16086001Y-13854079D01*
X16086001Y-13854079D02*
X16095525Y-13892174D01*
X16095525Y-13892174D02*
X16095525Y-13939793D01*
X16095525Y-13939793D02*
X16086001Y-13977888D01*
X16086001Y-13977888D02*
X16076477Y-13996936D01*
X16076477Y-13996936D02*
X16066954Y-14006460D01*
X16066954Y-14006460D02*
X16047906Y-14015984D01*
X16047906Y-14015984D02*
X16028858Y-14015984D01*
X16028858Y-14015984D02*
X16009811Y-14006460D01*
X16009811Y-14006460D02*
X16000287Y-13996936D01*
X16000287Y-13996936D02*
X15990763Y-13977888D01*
X15990763Y-13977888D02*
X15981239Y-13939793D01*
X15981239Y-13939793D02*
X15981239Y-13892174D01*
X15981239Y-13892174D02*
X15990763Y-13854079D01*
X15990763Y-13854079D02*
X16000287Y-13835031D01*
X16000287Y-13835031D02*
X16009811Y-13825508D01*
X16009811Y-13825508D02*
X16028858Y-13815984D01*
X16286001Y-14015984D02*
X16171716Y-14015984D01*
X16228858Y-14015984D02*
X16228858Y-13815984D01*
X16228858Y-13815984D02*
X16209811Y-13844555D01*
X16209811Y-13844555D02*
X16190763Y-13863603D01*
X16190763Y-13863603D02*
X16171716Y-13873127D01*
X16457430Y-13815984D02*
X16419335Y-13815984D01*
X16419335Y-13815984D02*
X16400287Y-13825508D01*
X16400287Y-13825508D02*
X16390763Y-13835031D01*
X16390763Y-13835031D02*
X16371716Y-13863603D01*
X16371716Y-13863603D02*
X16362192Y-13901698D01*
X16362192Y-13901698D02*
X16362192Y-13977888D01*
X16362192Y-13977888D02*
X16371716Y-13996936D01*
X16371716Y-13996936D02*
X16381239Y-14006460D01*
X16381239Y-14006460D02*
X16400287Y-14015984D01*
X16400287Y-14015984D02*
X16438382Y-14015984D01*
X16438382Y-14015984D02*
X16457430Y-14006460D01*
X16457430Y-14006460D02*
X16466954Y-13996936D01*
X16466954Y-13996936D02*
X16476477Y-13977888D01*
X16476477Y-13977888D02*
X16476477Y-13930269D01*
X16476477Y-13930269D02*
X16466954Y-13911222D01*
X16466954Y-13911222D02*
X16457430Y-13901698D01*
X16457430Y-13901698D02*
X16438382Y-13892174D01*
X16438382Y-13892174D02*
X16400287Y-13892174D01*
X16400287Y-13892174D02*
X16381239Y-13901698D01*
X16381239Y-13901698D02*
X16371716Y-13911222D01*
X16371716Y-13911222D02*
X16362192Y-13930269D01*
X16600287Y-13815984D02*
X16619335Y-13815984D01*
X16619335Y-13815984D02*
X16638382Y-13825508D01*
X16638382Y-13825508D02*
X16647906Y-13835031D01*
X16647906Y-13835031D02*
X16657430Y-13854079D01*
X16657430Y-13854079D02*
X16666954Y-13892174D01*
X16666954Y-13892174D02*
X16666954Y-13939793D01*
X16666954Y-13939793D02*
X16657430Y-13977888D01*
X16657430Y-13977888D02*
X16647906Y-13996936D01*
X16647906Y-13996936D02*
X16638382Y-14006460D01*
X16638382Y-14006460D02*
X16619335Y-14015984D01*
X16619335Y-14015984D02*
X16600287Y-14015984D01*
X16600287Y-14015984D02*
X16581239Y-14006460D01*
X16581239Y-14006460D02*
X16571716Y-13996936D01*
X16571716Y-13996936D02*
X16562192Y-13977888D01*
X16562192Y-13977888D02*
X16552668Y-13939793D01*
X16552668Y-13939793D02*
X16552668Y-13892174D01*
X16552668Y-13892174D02*
X16562192Y-13854079D01*
X16562192Y-13854079D02*
X16571716Y-13835031D01*
X16571716Y-13835031D02*
X16581239Y-13825508D01*
X16581239Y-13825508D02*
X16600287Y-13815984D01*
X16743144Y-13815984D02*
X16743144Y-13854079D01*
X16819335Y-13815984D02*
X16819335Y-13854079D01*
X17114573Y-14092174D02*
X17105049Y-14082650D01*
X17105049Y-14082650D02*
X17086001Y-14054079D01*
X17086001Y-14054079D02*
X17076478Y-14035031D01*
X17076478Y-14035031D02*
X17066954Y-14006460D01*
X17066954Y-14006460D02*
X17057430Y-13958841D01*
X17057430Y-13958841D02*
X17057430Y-13920746D01*
X17057430Y-13920746D02*
X17066954Y-13873127D01*
X17066954Y-13873127D02*
X17076478Y-13844555D01*
X17076478Y-13844555D02*
X17086001Y-13825508D01*
X17086001Y-13825508D02*
X17105049Y-13796936D01*
X17105049Y-13796936D02*
X17114573Y-13787412D01*
X17286001Y-13815984D02*
X17190763Y-13815984D01*
X17190763Y-13815984D02*
X17181240Y-13911222D01*
X17181240Y-13911222D02*
X17190763Y-13901698D01*
X17190763Y-13901698D02*
X17209811Y-13892174D01*
X17209811Y-13892174D02*
X17257430Y-13892174D01*
X17257430Y-13892174D02*
X17276478Y-13901698D01*
X17276478Y-13901698D02*
X17286001Y-13911222D01*
X17286001Y-13911222D02*
X17295525Y-13930269D01*
X17295525Y-13930269D02*
X17295525Y-13977888D01*
X17295525Y-13977888D02*
X17286001Y-13996936D01*
X17286001Y-13996936D02*
X17276478Y-14006460D01*
X17276478Y-14006460D02*
X17257430Y-14015984D01*
X17257430Y-14015984D02*
X17209811Y-14015984D01*
X17209811Y-14015984D02*
X17190763Y-14006460D01*
X17190763Y-14006460D02*
X17181240Y-13996936D01*
X17476478Y-13815984D02*
X17381240Y-13815984D01*
X17381240Y-13815984D02*
X17371716Y-13911222D01*
X17371716Y-13911222D02*
X17381240Y-13901698D01*
X17381240Y-13901698D02*
X17400287Y-13892174D01*
X17400287Y-13892174D02*
X17447906Y-13892174D01*
X17447906Y-13892174D02*
X17466954Y-13901698D01*
X17466954Y-13901698D02*
X17476478Y-13911222D01*
X17476478Y-13911222D02*
X17486001Y-13930269D01*
X17486001Y-13930269D02*
X17486001Y-13977888D01*
X17486001Y-13977888D02*
X17476478Y-13996936D01*
X17476478Y-13996936D02*
X17466954Y-14006460D01*
X17466954Y-14006460D02*
X17447906Y-14015984D01*
X17447906Y-14015984D02*
X17400287Y-14015984D01*
X17400287Y-14015984D02*
X17381240Y-14006460D01*
X17381240Y-14006460D02*
X17371716Y-13996936D01*
X17724097Y-14015984D02*
X17724097Y-13815984D01*
X17809811Y-14015984D02*
X17809811Y-13911222D01*
X17809811Y-13911222D02*
X17800287Y-13892174D01*
X17800287Y-13892174D02*
X17781240Y-13882650D01*
X17781240Y-13882650D02*
X17752668Y-13882650D01*
X17752668Y-13882650D02*
X17733621Y-13892174D01*
X17733621Y-13892174D02*
X17724097Y-13901698D01*
X17933621Y-14015984D02*
X17914573Y-14006460D01*
X17914573Y-14006460D02*
X17905049Y-13996936D01*
X17905049Y-13996936D02*
X17895525Y-13977888D01*
X17895525Y-13977888D02*
X17895525Y-13920746D01*
X17895525Y-13920746D02*
X17905049Y-13901698D01*
X17905049Y-13901698D02*
X17914573Y-13892174D01*
X17914573Y-13892174D02*
X17933621Y-13882650D01*
X17933621Y-13882650D02*
X17962192Y-13882650D01*
X17962192Y-13882650D02*
X17981240Y-13892174D01*
X17981240Y-13892174D02*
X17990763Y-13901698D01*
X17990763Y-13901698D02*
X18000287Y-13920746D01*
X18000287Y-13920746D02*
X18000287Y-13977888D01*
X18000287Y-13977888D02*
X17990763Y-13996936D01*
X17990763Y-13996936D02*
X17981240Y-14006460D01*
X17981240Y-14006460D02*
X17962192Y-14015984D01*
X17962192Y-14015984D02*
X17933621Y-14015984D01*
X18114573Y-14015984D02*
X18095525Y-14006460D01*
X18095525Y-14006460D02*
X18086002Y-13987412D01*
X18086002Y-13987412D02*
X18086002Y-13815984D01*
X18266954Y-14006460D02*
X18247906Y-14015984D01*
X18247906Y-14015984D02*
X18209811Y-14015984D01*
X18209811Y-14015984D02*
X18190763Y-14006460D01*
X18190763Y-14006460D02*
X18181240Y-13987412D01*
X18181240Y-13987412D02*
X18181240Y-13911222D01*
X18181240Y-13911222D02*
X18190763Y-13892174D01*
X18190763Y-13892174D02*
X18209811Y-13882650D01*
X18209811Y-13882650D02*
X18247906Y-13882650D01*
X18247906Y-13882650D02*
X18266954Y-13892174D01*
X18266954Y-13892174D02*
X18276478Y-13911222D01*
X18276478Y-13911222D02*
X18276478Y-13930269D01*
X18276478Y-13930269D02*
X18181240Y-13949317D01*
X18352668Y-14006460D02*
X18371716Y-14015984D01*
X18371716Y-14015984D02*
X18409811Y-14015984D01*
X18409811Y-14015984D02*
X18428859Y-14006460D01*
X18428859Y-14006460D02*
X18438383Y-13987412D01*
X18438383Y-13987412D02*
X18438383Y-13977888D01*
X18438383Y-13977888D02*
X18428859Y-13958841D01*
X18428859Y-13958841D02*
X18409811Y-13949317D01*
X18409811Y-13949317D02*
X18381240Y-13949317D01*
X18381240Y-13949317D02*
X18362192Y-13939793D01*
X18362192Y-13939793D02*
X18352668Y-13920746D01*
X18352668Y-13920746D02*
X18352668Y-13911222D01*
X18352668Y-13911222D02*
X18362192Y-13892174D01*
X18362192Y-13892174D02*
X18381240Y-13882650D01*
X18381240Y-13882650D02*
X18409811Y-13882650D01*
X18409811Y-13882650D02*
X18428859Y-13892174D01*
X18505049Y-14092174D02*
X18514573Y-14082650D01*
X18514573Y-14082650D02*
X18533621Y-14054079D01*
X18533621Y-14054079D02*
X18543144Y-14035031D01*
X18543144Y-14035031D02*
X18552668Y-14006460D01*
X18552668Y-14006460D02*
X18562192Y-13958841D01*
X18562192Y-13958841D02*
X18562192Y-13920746D01*
X18562192Y-13920746D02*
X18552668Y-13873127D01*
X18552668Y-13873127D02*
X18543144Y-13844555D01*
X18543144Y-13844555D02*
X18533621Y-13825508D01*
X18533621Y-13825508D02*
X18514573Y-13796936D01*
X18514573Y-13796936D02*
X18505049Y-13787412D01*
D12*
X13528527Y-14215017D02*
X13528527Y-14161983D01*
X13475493Y-14161983D01*
X13475493Y-14215017D01*
X13528527Y-14215017D01*
D11*
X13838382Y-14079984D02*
X13857430Y-14079984D01*
X13857430Y-14079984D02*
X13876477Y-14089508D01*
X13876477Y-14089508D02*
X13886001Y-14099031D01*
X13886001Y-14099031D02*
X13895525Y-14118079D01*
X13895525Y-14118079D02*
X13905049Y-14156174D01*
X13905049Y-14156174D02*
X13905049Y-14203793D01*
X13905049Y-14203793D02*
X13895525Y-14241888D01*
X13895525Y-14241888D02*
X13886001Y-14260936D01*
X13886001Y-14260936D02*
X13876477Y-14270460D01*
X13876477Y-14270460D02*
X13857430Y-14279984D01*
X13857430Y-14279984D02*
X13838382Y-14279984D01*
X13838382Y-14279984D02*
X13819334Y-14270460D01*
X13819334Y-14270460D02*
X13809811Y-14260936D01*
X13809811Y-14260936D02*
X13800287Y-14241888D01*
X13800287Y-14241888D02*
X13790763Y-14203793D01*
X13790763Y-14203793D02*
X13790763Y-14156174D01*
X13790763Y-14156174D02*
X13800287Y-14118079D01*
X13800287Y-14118079D02*
X13809811Y-14099031D01*
X13809811Y-14099031D02*
X13819334Y-14089508D01*
X13819334Y-14089508D02*
X13838382Y-14079984D01*
X13990763Y-14260936D02*
X14000287Y-14270460D01*
X14000287Y-14270460D02*
X13990763Y-14279984D01*
X13990763Y-14279984D02*
X13981239Y-14270460D01*
X13981239Y-14270460D02*
X13990763Y-14260936D01*
X13990763Y-14260936D02*
X13990763Y-14279984D01*
X14066953Y-14079984D02*
X14200287Y-14079984D01*
X14200287Y-14079984D02*
X14114572Y-14279984D01*
X14371715Y-14079984D02*
X14276477Y-14079984D01*
X14276477Y-14079984D02*
X14266953Y-14175222D01*
X14266953Y-14175222D02*
X14276477Y-14165698D01*
X14276477Y-14165698D02*
X14295525Y-14156174D01*
X14295525Y-14156174D02*
X14343144Y-14156174D01*
X14343144Y-14156174D02*
X14362192Y-14165698D01*
X14362192Y-14165698D02*
X14371715Y-14175222D01*
X14371715Y-14175222D02*
X14381239Y-14194269D01*
X14381239Y-14194269D02*
X14381239Y-14241888D01*
X14381239Y-14241888D02*
X14371715Y-14260936D01*
X14371715Y-14260936D02*
X14362192Y-14270460D01*
X14362192Y-14270460D02*
X14343144Y-14279984D01*
X14343144Y-14279984D02*
X14295525Y-14279984D01*
X14295525Y-14279984D02*
X14276477Y-14270460D01*
X14276477Y-14270460D02*
X14266953Y-14260936D01*
X14505049Y-14079984D02*
X14524096Y-14079984D01*
X14524096Y-14079984D02*
X14543144Y-14089508D01*
X14543144Y-14089508D02*
X14552668Y-14099031D01*
X14552668Y-14099031D02*
X14562192Y-14118079D01*
X14562192Y-14118079D02*
X14571715Y-14156174D01*
X14571715Y-14156174D02*
X14571715Y-14203793D01*
X14571715Y-14203793D02*
X14562192Y-14241888D01*
X14562192Y-14241888D02*
X14552668Y-14260936D01*
X14552668Y-14260936D02*
X14543144Y-14270460D01*
X14543144Y-14270460D02*
X14524096Y-14279984D01*
X14524096Y-14279984D02*
X14505049Y-14279984D01*
X14505049Y-14279984D02*
X14486001Y-14270460D01*
X14486001Y-14270460D02*
X14476477Y-14260936D01*
X14476477Y-14260936D02*
X14466953Y-14241888D01*
X14466953Y-14241888D02*
X14457430Y-14203793D01*
X14457430Y-14203793D02*
X14457430Y-14156174D01*
X14457430Y-14156174D02*
X14466953Y-14118079D01*
X14466953Y-14118079D02*
X14476477Y-14099031D01*
X14476477Y-14099031D02*
X14486001Y-14089508D01*
X14486001Y-14089508D02*
X14505049Y-14079984D01*
X14657430Y-14279984D02*
X14657430Y-14146650D01*
X14657430Y-14165698D02*
X14666953Y-14156174D01*
X14666953Y-14156174D02*
X14686001Y-14146650D01*
X14686001Y-14146650D02*
X14714573Y-14146650D01*
X14714573Y-14146650D02*
X14733620Y-14156174D01*
X14733620Y-14156174D02*
X14743144Y-14175222D01*
X14743144Y-14175222D02*
X14743144Y-14279984D01*
X14743144Y-14175222D02*
X14752668Y-14156174D01*
X14752668Y-14156174D02*
X14771715Y-14146650D01*
X14771715Y-14146650D02*
X14800287Y-14146650D01*
X14800287Y-14146650D02*
X14819334Y-14156174D01*
X14819334Y-14156174D02*
X14828858Y-14175222D01*
X14828858Y-14175222D02*
X14828858Y-14279984D01*
X14924096Y-14279984D02*
X14924096Y-14146650D01*
X14924096Y-14165698D02*
X14933620Y-14156174D01*
X14933620Y-14156174D02*
X14952668Y-14146650D01*
X14952668Y-14146650D02*
X14981239Y-14146650D01*
X14981239Y-14146650D02*
X15000287Y-14156174D01*
X15000287Y-14156174D02*
X15009811Y-14175222D01*
X15009811Y-14175222D02*
X15009811Y-14279984D01*
X15009811Y-14175222D02*
X15019334Y-14156174D01*
X15019334Y-14156174D02*
X15038382Y-14146650D01*
X15038382Y-14146650D02*
X15066953Y-14146650D01*
X15066953Y-14146650D02*
X15086001Y-14156174D01*
X15086001Y-14156174D02*
X15095525Y-14175222D01*
X15095525Y-14175222D02*
X15095525Y-14279984D01*
X15486001Y-14070460D02*
X15314573Y-14327603D01*
X15743144Y-14079984D02*
X15762192Y-14079984D01*
X15762192Y-14079984D02*
X15781239Y-14089508D01*
X15781239Y-14089508D02*
X15790763Y-14099031D01*
X15790763Y-14099031D02*
X15800287Y-14118079D01*
X15800287Y-14118079D02*
X15809811Y-14156174D01*
X15809811Y-14156174D02*
X15809811Y-14203793D01*
X15809811Y-14203793D02*
X15800287Y-14241888D01*
X15800287Y-14241888D02*
X15790763Y-14260936D01*
X15790763Y-14260936D02*
X15781239Y-14270460D01*
X15781239Y-14270460D02*
X15762192Y-14279984D01*
X15762192Y-14279984D02*
X15743144Y-14279984D01*
X15743144Y-14279984D02*
X15724096Y-14270460D01*
X15724096Y-14270460D02*
X15714573Y-14260936D01*
X15714573Y-14260936D02*
X15705049Y-14241888D01*
X15705049Y-14241888D02*
X15695525Y-14203793D01*
X15695525Y-14203793D02*
X15695525Y-14156174D01*
X15695525Y-14156174D02*
X15705049Y-14118079D01*
X15705049Y-14118079D02*
X15714573Y-14099031D01*
X15714573Y-14099031D02*
X15724096Y-14089508D01*
X15724096Y-14089508D02*
X15743144Y-14079984D01*
X15895525Y-14260936D02*
X15905049Y-14270460D01*
X15905049Y-14270460D02*
X15895525Y-14279984D01*
X15895525Y-14279984D02*
X15886001Y-14270460D01*
X15886001Y-14270460D02*
X15895525Y-14260936D01*
X15895525Y-14260936D02*
X15895525Y-14279984D01*
X16028858Y-14079984D02*
X16047906Y-14079984D01*
X16047906Y-14079984D02*
X16066954Y-14089508D01*
X16066954Y-14089508D02*
X16076477Y-14099031D01*
X16076477Y-14099031D02*
X16086001Y-14118079D01*
X16086001Y-14118079D02*
X16095525Y-14156174D01*
X16095525Y-14156174D02*
X16095525Y-14203793D01*
X16095525Y-14203793D02*
X16086001Y-14241888D01*
X16086001Y-14241888D02*
X16076477Y-14260936D01*
X16076477Y-14260936D02*
X16066954Y-14270460D01*
X16066954Y-14270460D02*
X16047906Y-14279984D01*
X16047906Y-14279984D02*
X16028858Y-14279984D01*
X16028858Y-14279984D02*
X16009811Y-14270460D01*
X16009811Y-14270460D02*
X16000287Y-14260936D01*
X16000287Y-14260936D02*
X15990763Y-14241888D01*
X15990763Y-14241888D02*
X15981239Y-14203793D01*
X15981239Y-14203793D02*
X15981239Y-14156174D01*
X15981239Y-14156174D02*
X15990763Y-14118079D01*
X15990763Y-14118079D02*
X16000287Y-14099031D01*
X16000287Y-14099031D02*
X16009811Y-14089508D01*
X16009811Y-14089508D02*
X16028858Y-14079984D01*
X16171716Y-14099031D02*
X16181239Y-14089508D01*
X16181239Y-14089508D02*
X16200287Y-14079984D01*
X16200287Y-14079984D02*
X16247906Y-14079984D01*
X16247906Y-14079984D02*
X16266954Y-14089508D01*
X16266954Y-14089508D02*
X16276477Y-14099031D01*
X16276477Y-14099031D02*
X16286001Y-14118079D01*
X16286001Y-14118079D02*
X16286001Y-14137127D01*
X16286001Y-14137127D02*
X16276477Y-14165698D01*
X16276477Y-14165698D02*
X16162192Y-14279984D01*
X16162192Y-14279984D02*
X16286001Y-14279984D01*
X16381239Y-14279984D02*
X16419335Y-14279984D01*
X16419335Y-14279984D02*
X16438382Y-14270460D01*
X16438382Y-14270460D02*
X16447906Y-14260936D01*
X16447906Y-14260936D02*
X16466954Y-14232365D01*
X16466954Y-14232365D02*
X16476477Y-14194269D01*
X16476477Y-14194269D02*
X16476477Y-14118079D01*
X16476477Y-14118079D02*
X16466954Y-14099031D01*
X16466954Y-14099031D02*
X16457430Y-14089508D01*
X16457430Y-14089508D02*
X16438382Y-14079984D01*
X16438382Y-14079984D02*
X16400287Y-14079984D01*
X16400287Y-14079984D02*
X16381239Y-14089508D01*
X16381239Y-14089508D02*
X16371716Y-14099031D01*
X16371716Y-14099031D02*
X16362192Y-14118079D01*
X16362192Y-14118079D02*
X16362192Y-14165698D01*
X16362192Y-14165698D02*
X16371716Y-14184746D01*
X16371716Y-14184746D02*
X16381239Y-14194269D01*
X16381239Y-14194269D02*
X16400287Y-14203793D01*
X16400287Y-14203793D02*
X16438382Y-14203793D01*
X16438382Y-14203793D02*
X16457430Y-14194269D01*
X16457430Y-14194269D02*
X16466954Y-14184746D01*
X16466954Y-14184746D02*
X16476477Y-14165698D01*
X16657430Y-14079984D02*
X16562192Y-14079984D01*
X16562192Y-14079984D02*
X16552668Y-14175222D01*
X16552668Y-14175222D02*
X16562192Y-14165698D01*
X16562192Y-14165698D02*
X16581239Y-14156174D01*
X16581239Y-14156174D02*
X16628858Y-14156174D01*
X16628858Y-14156174D02*
X16647906Y-14165698D01*
X16647906Y-14165698D02*
X16657430Y-14175222D01*
X16657430Y-14175222D02*
X16666954Y-14194269D01*
X16666954Y-14194269D02*
X16666954Y-14241888D01*
X16666954Y-14241888D02*
X16657430Y-14260936D01*
X16657430Y-14260936D02*
X16647906Y-14270460D01*
X16647906Y-14270460D02*
X16628858Y-14279984D01*
X16628858Y-14279984D02*
X16581239Y-14279984D01*
X16581239Y-14279984D02*
X16562192Y-14270460D01*
X16562192Y-14270460D02*
X16552668Y-14260936D01*
X16743144Y-14079984D02*
X16743144Y-14118079D01*
X16819335Y-14079984D02*
X16819335Y-14118079D01*
X17114573Y-14356174D02*
X17105049Y-14346650D01*
X17105049Y-14346650D02*
X17086001Y-14318079D01*
X17086001Y-14318079D02*
X17076478Y-14299031D01*
X17076478Y-14299031D02*
X17066954Y-14270460D01*
X17066954Y-14270460D02*
X17057430Y-14222841D01*
X17057430Y-14222841D02*
X17057430Y-14184746D01*
X17057430Y-14184746D02*
X17066954Y-14137127D01*
X17066954Y-14137127D02*
X17076478Y-14108555D01*
X17076478Y-14108555D02*
X17086001Y-14089508D01*
X17086001Y-14089508D02*
X17105049Y-14060936D01*
X17105049Y-14060936D02*
X17114573Y-14051412D01*
X17181240Y-14099031D02*
X17190763Y-14089508D01*
X17190763Y-14089508D02*
X17209811Y-14079984D01*
X17209811Y-14079984D02*
X17257430Y-14079984D01*
X17257430Y-14079984D02*
X17276478Y-14089508D01*
X17276478Y-14089508D02*
X17286001Y-14099031D01*
X17286001Y-14099031D02*
X17295525Y-14118079D01*
X17295525Y-14118079D02*
X17295525Y-14137127D01*
X17295525Y-14137127D02*
X17286001Y-14165698D01*
X17286001Y-14165698D02*
X17171716Y-14279984D01*
X17171716Y-14279984D02*
X17295525Y-14279984D01*
X17533621Y-14279984D02*
X17533621Y-14079984D01*
X17619335Y-14279984D02*
X17619335Y-14175222D01*
X17619335Y-14175222D02*
X17609811Y-14156174D01*
X17609811Y-14156174D02*
X17590763Y-14146650D01*
X17590763Y-14146650D02*
X17562192Y-14146650D01*
X17562192Y-14146650D02*
X17543144Y-14156174D01*
X17543144Y-14156174D02*
X17533621Y-14165698D01*
X17743144Y-14279984D02*
X17724097Y-14270460D01*
X17724097Y-14270460D02*
X17714573Y-14260936D01*
X17714573Y-14260936D02*
X17705049Y-14241888D01*
X17705049Y-14241888D02*
X17705049Y-14184746D01*
X17705049Y-14184746D02*
X17714573Y-14165698D01*
X17714573Y-14165698D02*
X17724097Y-14156174D01*
X17724097Y-14156174D02*
X17743144Y-14146650D01*
X17743144Y-14146650D02*
X17771716Y-14146650D01*
X17771716Y-14146650D02*
X17790763Y-14156174D01*
X17790763Y-14156174D02*
X17800287Y-14165698D01*
X17800287Y-14165698D02*
X17809811Y-14184746D01*
X17809811Y-14184746D02*
X17809811Y-14241888D01*
X17809811Y-14241888D02*
X17800287Y-14260936D01*
X17800287Y-14260936D02*
X17790763Y-14270460D01*
X17790763Y-14270460D02*
X17771716Y-14279984D01*
X17771716Y-14279984D02*
X17743144Y-14279984D01*
X17924097Y-14279984D02*
X17905049Y-14270460D01*
X17905049Y-14270460D02*
X17895525Y-14251412D01*
X17895525Y-14251412D02*
X17895525Y-14079984D01*
X18076478Y-14270460D02*
X18057430Y-14279984D01*
X18057430Y-14279984D02*
X18019335Y-14279984D01*
X18019335Y-14279984D02*
X18000287Y-14270460D01*
X18000287Y-14270460D02*
X17990763Y-14251412D01*
X17990763Y-14251412D02*
X17990763Y-14175222D01*
X17990763Y-14175222D02*
X18000287Y-14156174D01*
X18000287Y-14156174D02*
X18019335Y-14146650D01*
X18019335Y-14146650D02*
X18057430Y-14146650D01*
X18057430Y-14146650D02*
X18076478Y-14156174D01*
X18076478Y-14156174D02*
X18086002Y-14175222D01*
X18086002Y-14175222D02*
X18086002Y-14194269D01*
X18086002Y-14194269D02*
X17990763Y-14213317D01*
X18162192Y-14270460D02*
X18181240Y-14279984D01*
X18181240Y-14279984D02*
X18219335Y-14279984D01*
X18219335Y-14279984D02*
X18238383Y-14270460D01*
X18238383Y-14270460D02*
X18247906Y-14251412D01*
X18247906Y-14251412D02*
X18247906Y-14241888D01*
X18247906Y-14241888D02*
X18238383Y-14222841D01*
X18238383Y-14222841D02*
X18219335Y-14213317D01*
X18219335Y-14213317D02*
X18190763Y-14213317D01*
X18190763Y-14213317D02*
X18171716Y-14203793D01*
X18171716Y-14203793D02*
X18162192Y-14184746D01*
X18162192Y-14184746D02*
X18162192Y-14175222D01*
X18162192Y-14175222D02*
X18171716Y-14156174D01*
X18171716Y-14156174D02*
X18190763Y-14146650D01*
X18190763Y-14146650D02*
X18219335Y-14146650D01*
X18219335Y-14146650D02*
X18238383Y-14156174D01*
X18314573Y-14356174D02*
X18324097Y-14346650D01*
X18324097Y-14346650D02*
X18343144Y-14318079D01*
X18343144Y-14318079D02*
X18352668Y-14299031D01*
X18352668Y-14299031D02*
X18362192Y-14270460D01*
X18362192Y-14270460D02*
X18371716Y-14222841D01*
X18371716Y-14222841D02*
X18371716Y-14184746D01*
X18371716Y-14184746D02*
X18362192Y-14137127D01*
X18362192Y-14137127D02*
X18352668Y-14108555D01*
X18352668Y-14108555D02*
X18343144Y-14089508D01*
X18343144Y-14089508D02*
X18324097Y-14060936D01*
X18324097Y-14060936D02*
X18314573Y-14051412D01*
D12*
X13489510Y-14502500D02*
X13539510Y-14452500D01*
X13489510Y-14402500D01*
X13439510Y-14452500D01*
X13489510Y-14502500D01*
D11*
X13905049Y-14543984D02*
X13790763Y-14543984D01*
X13847906Y-14543984D02*
X13847906Y-14343984D01*
X13847906Y-14343984D02*
X13828858Y-14372555D01*
X13828858Y-14372555D02*
X13809811Y-14391603D01*
X13809811Y-14391603D02*
X13790763Y-14401127D01*
X13990763Y-14524936D02*
X14000287Y-14534460D01*
X14000287Y-14534460D02*
X13990763Y-14543984D01*
X13990763Y-14543984D02*
X13981239Y-14534460D01*
X13981239Y-14534460D02*
X13990763Y-14524936D01*
X13990763Y-14524936D02*
X13990763Y-14543984D01*
X14124096Y-14343984D02*
X14143144Y-14343984D01*
X14143144Y-14343984D02*
X14162192Y-14353508D01*
X14162192Y-14353508D02*
X14171715Y-14363031D01*
X14171715Y-14363031D02*
X14181239Y-14382079D01*
X14181239Y-14382079D02*
X14190763Y-14420174D01*
X14190763Y-14420174D02*
X14190763Y-14467793D01*
X14190763Y-14467793D02*
X14181239Y-14505888D01*
X14181239Y-14505888D02*
X14171715Y-14524936D01*
X14171715Y-14524936D02*
X14162192Y-14534460D01*
X14162192Y-14534460D02*
X14143144Y-14543984D01*
X14143144Y-14543984D02*
X14124096Y-14543984D01*
X14124096Y-14543984D02*
X14105049Y-14534460D01*
X14105049Y-14534460D02*
X14095525Y-14524936D01*
X14095525Y-14524936D02*
X14086001Y-14505888D01*
X14086001Y-14505888D02*
X14076477Y-14467793D01*
X14076477Y-14467793D02*
X14076477Y-14420174D01*
X14076477Y-14420174D02*
X14086001Y-14382079D01*
X14086001Y-14382079D02*
X14095525Y-14363031D01*
X14095525Y-14363031D02*
X14105049Y-14353508D01*
X14105049Y-14353508D02*
X14124096Y-14343984D01*
X14314572Y-14343984D02*
X14333620Y-14343984D01*
X14333620Y-14343984D02*
X14352668Y-14353508D01*
X14352668Y-14353508D02*
X14362192Y-14363031D01*
X14362192Y-14363031D02*
X14371715Y-14382079D01*
X14371715Y-14382079D02*
X14381239Y-14420174D01*
X14381239Y-14420174D02*
X14381239Y-14467793D01*
X14381239Y-14467793D02*
X14371715Y-14505888D01*
X14371715Y-14505888D02*
X14362192Y-14524936D01*
X14362192Y-14524936D02*
X14352668Y-14534460D01*
X14352668Y-14534460D02*
X14333620Y-14543984D01*
X14333620Y-14543984D02*
X14314572Y-14543984D01*
X14314572Y-14543984D02*
X14295525Y-14534460D01*
X14295525Y-14534460D02*
X14286001Y-14524936D01*
X14286001Y-14524936D02*
X14276477Y-14505888D01*
X14276477Y-14505888D02*
X14266953Y-14467793D01*
X14266953Y-14467793D02*
X14266953Y-14420174D01*
X14266953Y-14420174D02*
X14276477Y-14382079D01*
X14276477Y-14382079D02*
X14286001Y-14363031D01*
X14286001Y-14363031D02*
X14295525Y-14353508D01*
X14295525Y-14353508D02*
X14314572Y-14343984D01*
X14505049Y-14343984D02*
X14524096Y-14343984D01*
X14524096Y-14343984D02*
X14543144Y-14353508D01*
X14543144Y-14353508D02*
X14552668Y-14363031D01*
X14552668Y-14363031D02*
X14562192Y-14382079D01*
X14562192Y-14382079D02*
X14571715Y-14420174D01*
X14571715Y-14420174D02*
X14571715Y-14467793D01*
X14571715Y-14467793D02*
X14562192Y-14505888D01*
X14562192Y-14505888D02*
X14552668Y-14524936D01*
X14552668Y-14524936D02*
X14543144Y-14534460D01*
X14543144Y-14534460D02*
X14524096Y-14543984D01*
X14524096Y-14543984D02*
X14505049Y-14543984D01*
X14505049Y-14543984D02*
X14486001Y-14534460D01*
X14486001Y-14534460D02*
X14476477Y-14524936D01*
X14476477Y-14524936D02*
X14466953Y-14505888D01*
X14466953Y-14505888D02*
X14457430Y-14467793D01*
X14457430Y-14467793D02*
X14457430Y-14420174D01*
X14457430Y-14420174D02*
X14466953Y-14382079D01*
X14466953Y-14382079D02*
X14476477Y-14363031D01*
X14476477Y-14363031D02*
X14486001Y-14353508D01*
X14486001Y-14353508D02*
X14505049Y-14343984D01*
X14657430Y-14543984D02*
X14657430Y-14410650D01*
X14657430Y-14429698D02*
X14666953Y-14420174D01*
X14666953Y-14420174D02*
X14686001Y-14410650D01*
X14686001Y-14410650D02*
X14714573Y-14410650D01*
X14714573Y-14410650D02*
X14733620Y-14420174D01*
X14733620Y-14420174D02*
X14743144Y-14439222D01*
X14743144Y-14439222D02*
X14743144Y-14543984D01*
X14743144Y-14439222D02*
X14752668Y-14420174D01*
X14752668Y-14420174D02*
X14771715Y-14410650D01*
X14771715Y-14410650D02*
X14800287Y-14410650D01*
X14800287Y-14410650D02*
X14819334Y-14420174D01*
X14819334Y-14420174D02*
X14828858Y-14439222D01*
X14828858Y-14439222D02*
X14828858Y-14543984D01*
X14924096Y-14543984D02*
X14924096Y-14410650D01*
X14924096Y-14429698D02*
X14933620Y-14420174D01*
X14933620Y-14420174D02*
X14952668Y-14410650D01*
X14952668Y-14410650D02*
X14981239Y-14410650D01*
X14981239Y-14410650D02*
X15000287Y-14420174D01*
X15000287Y-14420174D02*
X15009811Y-14439222D01*
X15009811Y-14439222D02*
X15009811Y-14543984D01*
X15009811Y-14439222D02*
X15019334Y-14420174D01*
X15019334Y-14420174D02*
X15038382Y-14410650D01*
X15038382Y-14410650D02*
X15066953Y-14410650D01*
X15066953Y-14410650D02*
X15086001Y-14420174D01*
X15086001Y-14420174D02*
X15095525Y-14439222D01*
X15095525Y-14439222D02*
X15095525Y-14543984D01*
X15486001Y-14334460D02*
X15314573Y-14591603D01*
X15743144Y-14343984D02*
X15762192Y-14343984D01*
X15762192Y-14343984D02*
X15781239Y-14353508D01*
X15781239Y-14353508D02*
X15790763Y-14363031D01*
X15790763Y-14363031D02*
X15800287Y-14382079D01*
X15800287Y-14382079D02*
X15809811Y-14420174D01*
X15809811Y-14420174D02*
X15809811Y-14467793D01*
X15809811Y-14467793D02*
X15800287Y-14505888D01*
X15800287Y-14505888D02*
X15790763Y-14524936D01*
X15790763Y-14524936D02*
X15781239Y-14534460D01*
X15781239Y-14534460D02*
X15762192Y-14543984D01*
X15762192Y-14543984D02*
X15743144Y-14543984D01*
X15743144Y-14543984D02*
X15724096Y-14534460D01*
X15724096Y-14534460D02*
X15714573Y-14524936D01*
X15714573Y-14524936D02*
X15705049Y-14505888D01*
X15705049Y-14505888D02*
X15695525Y-14467793D01*
X15695525Y-14467793D02*
X15695525Y-14420174D01*
X15695525Y-14420174D02*
X15705049Y-14382079D01*
X15705049Y-14382079D02*
X15714573Y-14363031D01*
X15714573Y-14363031D02*
X15724096Y-14353508D01*
X15724096Y-14353508D02*
X15743144Y-14343984D01*
X15895525Y-14524936D02*
X15905049Y-14534460D01*
X15905049Y-14534460D02*
X15895525Y-14543984D01*
X15895525Y-14543984D02*
X15886001Y-14534460D01*
X15886001Y-14534460D02*
X15895525Y-14524936D01*
X15895525Y-14524936D02*
X15895525Y-14543984D01*
X16028858Y-14343984D02*
X16047906Y-14343984D01*
X16047906Y-14343984D02*
X16066954Y-14353508D01*
X16066954Y-14353508D02*
X16076477Y-14363031D01*
X16076477Y-14363031D02*
X16086001Y-14382079D01*
X16086001Y-14382079D02*
X16095525Y-14420174D01*
X16095525Y-14420174D02*
X16095525Y-14467793D01*
X16095525Y-14467793D02*
X16086001Y-14505888D01*
X16086001Y-14505888D02*
X16076477Y-14524936D01*
X16076477Y-14524936D02*
X16066954Y-14534460D01*
X16066954Y-14534460D02*
X16047906Y-14543984D01*
X16047906Y-14543984D02*
X16028858Y-14543984D01*
X16028858Y-14543984D02*
X16009811Y-14534460D01*
X16009811Y-14534460D02*
X16000287Y-14524936D01*
X16000287Y-14524936D02*
X15990763Y-14505888D01*
X15990763Y-14505888D02*
X15981239Y-14467793D01*
X15981239Y-14467793D02*
X15981239Y-14420174D01*
X15981239Y-14420174D02*
X15990763Y-14382079D01*
X15990763Y-14382079D02*
X16000287Y-14363031D01*
X16000287Y-14363031D02*
X16009811Y-14353508D01*
X16009811Y-14353508D02*
X16028858Y-14343984D01*
X16162192Y-14343984D02*
X16286001Y-14343984D01*
X16286001Y-14343984D02*
X16219335Y-14420174D01*
X16219335Y-14420174D02*
X16247906Y-14420174D01*
X16247906Y-14420174D02*
X16266954Y-14429698D01*
X16266954Y-14429698D02*
X16276477Y-14439222D01*
X16276477Y-14439222D02*
X16286001Y-14458269D01*
X16286001Y-14458269D02*
X16286001Y-14505888D01*
X16286001Y-14505888D02*
X16276477Y-14524936D01*
X16276477Y-14524936D02*
X16266954Y-14534460D01*
X16266954Y-14534460D02*
X16247906Y-14543984D01*
X16247906Y-14543984D02*
X16190763Y-14543984D01*
X16190763Y-14543984D02*
X16171716Y-14534460D01*
X16171716Y-14534460D02*
X16162192Y-14524936D01*
X16381239Y-14543984D02*
X16419335Y-14543984D01*
X16419335Y-14543984D02*
X16438382Y-14534460D01*
X16438382Y-14534460D02*
X16447906Y-14524936D01*
X16447906Y-14524936D02*
X16466954Y-14496365D01*
X16466954Y-14496365D02*
X16476477Y-14458269D01*
X16476477Y-14458269D02*
X16476477Y-14382079D01*
X16476477Y-14382079D02*
X16466954Y-14363031D01*
X16466954Y-14363031D02*
X16457430Y-14353508D01*
X16457430Y-14353508D02*
X16438382Y-14343984D01*
X16438382Y-14343984D02*
X16400287Y-14343984D01*
X16400287Y-14343984D02*
X16381239Y-14353508D01*
X16381239Y-14353508D02*
X16371716Y-14363031D01*
X16371716Y-14363031D02*
X16362192Y-14382079D01*
X16362192Y-14382079D02*
X16362192Y-14429698D01*
X16362192Y-14429698D02*
X16371716Y-14448746D01*
X16371716Y-14448746D02*
X16381239Y-14458269D01*
X16381239Y-14458269D02*
X16400287Y-14467793D01*
X16400287Y-14467793D02*
X16438382Y-14467793D01*
X16438382Y-14467793D02*
X16457430Y-14458269D01*
X16457430Y-14458269D02*
X16466954Y-14448746D01*
X16466954Y-14448746D02*
X16476477Y-14429698D01*
X16647906Y-14410650D02*
X16647906Y-14543984D01*
X16600287Y-14334460D02*
X16552668Y-14477317D01*
X16552668Y-14477317D02*
X16676477Y-14477317D01*
X16743144Y-14343984D02*
X16743144Y-14382079D01*
X16819335Y-14343984D02*
X16819335Y-14382079D01*
X17114573Y-14620174D02*
X17105049Y-14610650D01*
X17105049Y-14610650D02*
X17086001Y-14582079D01*
X17086001Y-14582079D02*
X17076478Y-14563031D01*
X17076478Y-14563031D02*
X17066954Y-14534460D01*
X17066954Y-14534460D02*
X17057430Y-14486841D01*
X17057430Y-14486841D02*
X17057430Y-14448746D01*
X17057430Y-14448746D02*
X17066954Y-14401127D01*
X17066954Y-14401127D02*
X17076478Y-14372555D01*
X17076478Y-14372555D02*
X17086001Y-14353508D01*
X17086001Y-14353508D02*
X17105049Y-14324936D01*
X17105049Y-14324936D02*
X17114573Y-14315412D01*
X17181240Y-14363031D02*
X17190763Y-14353508D01*
X17190763Y-14353508D02*
X17209811Y-14343984D01*
X17209811Y-14343984D02*
X17257430Y-14343984D01*
X17257430Y-14343984D02*
X17276478Y-14353508D01*
X17276478Y-14353508D02*
X17286001Y-14363031D01*
X17286001Y-14363031D02*
X17295525Y-14382079D01*
X17295525Y-14382079D02*
X17295525Y-14401127D01*
X17295525Y-14401127D02*
X17286001Y-14429698D01*
X17286001Y-14429698D02*
X17171716Y-14543984D01*
X17171716Y-14543984D02*
X17295525Y-14543984D01*
X17486001Y-14543984D02*
X17371716Y-14543984D01*
X17428859Y-14543984D02*
X17428859Y-14343984D01*
X17428859Y-14343984D02*
X17409811Y-14372555D01*
X17409811Y-14372555D02*
X17390763Y-14391603D01*
X17390763Y-14391603D02*
X17371716Y-14401127D01*
X17724097Y-14543984D02*
X17724097Y-14343984D01*
X17809811Y-14543984D02*
X17809811Y-14439222D01*
X17809811Y-14439222D02*
X17800287Y-14420174D01*
X17800287Y-14420174D02*
X17781240Y-14410650D01*
X17781240Y-14410650D02*
X17752668Y-14410650D01*
X17752668Y-14410650D02*
X17733621Y-14420174D01*
X17733621Y-14420174D02*
X17724097Y-14429698D01*
X17933621Y-14543984D02*
X17914573Y-14534460D01*
X17914573Y-14534460D02*
X17905049Y-14524936D01*
X17905049Y-14524936D02*
X17895525Y-14505888D01*
X17895525Y-14505888D02*
X17895525Y-14448746D01*
X17895525Y-14448746D02*
X17905049Y-14429698D01*
X17905049Y-14429698D02*
X17914573Y-14420174D01*
X17914573Y-14420174D02*
X17933621Y-14410650D01*
X17933621Y-14410650D02*
X17962192Y-14410650D01*
X17962192Y-14410650D02*
X17981240Y-14420174D01*
X17981240Y-14420174D02*
X17990763Y-14429698D01*
X17990763Y-14429698D02*
X18000287Y-14448746D01*
X18000287Y-14448746D02*
X18000287Y-14505888D01*
X18000287Y-14505888D02*
X17990763Y-14524936D01*
X17990763Y-14524936D02*
X17981240Y-14534460D01*
X17981240Y-14534460D02*
X17962192Y-14543984D01*
X17962192Y-14543984D02*
X17933621Y-14543984D01*
X18114573Y-14543984D02*
X18095525Y-14534460D01*
X18095525Y-14534460D02*
X18086002Y-14515412D01*
X18086002Y-14515412D02*
X18086002Y-14343984D01*
X18266954Y-14534460D02*
X18247906Y-14543984D01*
X18247906Y-14543984D02*
X18209811Y-14543984D01*
X18209811Y-14543984D02*
X18190763Y-14534460D01*
X18190763Y-14534460D02*
X18181240Y-14515412D01*
X18181240Y-14515412D02*
X18181240Y-14439222D01*
X18181240Y-14439222D02*
X18190763Y-14420174D01*
X18190763Y-14420174D02*
X18209811Y-14410650D01*
X18209811Y-14410650D02*
X18247906Y-14410650D01*
X18247906Y-14410650D02*
X18266954Y-14420174D01*
X18266954Y-14420174D02*
X18276478Y-14439222D01*
X18276478Y-14439222D02*
X18276478Y-14458269D01*
X18276478Y-14458269D02*
X18181240Y-14477317D01*
X18352668Y-14534460D02*
X18371716Y-14543984D01*
X18371716Y-14543984D02*
X18409811Y-14543984D01*
X18409811Y-14543984D02*
X18428859Y-14534460D01*
X18428859Y-14534460D02*
X18438383Y-14515412D01*
X18438383Y-14515412D02*
X18438383Y-14505888D01*
X18438383Y-14505888D02*
X18428859Y-14486841D01*
X18428859Y-14486841D02*
X18409811Y-14477317D01*
X18409811Y-14477317D02*
X18381240Y-14477317D01*
X18381240Y-14477317D02*
X18362192Y-14467793D01*
X18362192Y-14467793D02*
X18352668Y-14448746D01*
X18352668Y-14448746D02*
X18352668Y-14439222D01*
X18352668Y-14439222D02*
X18362192Y-14420174D01*
X18362192Y-14420174D02*
X18381240Y-14410650D01*
X18381240Y-14410650D02*
X18409811Y-14410650D01*
X18409811Y-14410650D02*
X18428859Y-14420174D01*
X18505049Y-14620174D02*
X18514573Y-14610650D01*
X18514573Y-14610650D02*
X18533621Y-14582079D01*
X18533621Y-14582079D02*
X18543144Y-14563031D01*
X18543144Y-14563031D02*
X18552668Y-14534460D01*
X18552668Y-14534460D02*
X18562192Y-14486841D01*
X18562192Y-14486841D02*
X18562192Y-14448746D01*
X18562192Y-14448746D02*
X18552668Y-14401127D01*
X18552668Y-14401127D02*
X18543144Y-14372555D01*
X18543144Y-14372555D02*
X18533621Y-14353508D01*
X18533621Y-14353508D02*
X18514573Y-14324936D01*
X18514573Y-14324936D02*
X18505049Y-14315412D01*
D13*
X13429510Y-14661500D02*
X13539510Y-14771500D01*
X13539510Y-14661500D02*
X13429510Y-14771500D01*
X13539510Y-14716500D02*
G75*
G03*
X13429510Y-14716500I-55000J0D01*
G01*
X13429510Y-14716500D02*
G75*
G03*
X13539510Y-14716500I55000J0D01*
G01*
D11*
X13905049Y-14807984D02*
X13790763Y-14807984D01*
X13847906Y-14807984D02*
X13847906Y-14607984D01*
X13847906Y-14607984D02*
X13828858Y-14636555D01*
X13828858Y-14636555D02*
X13809811Y-14655603D01*
X13809811Y-14655603D02*
X13790763Y-14665127D01*
X13990763Y-14788936D02*
X14000287Y-14798460D01*
X14000287Y-14798460D02*
X13990763Y-14807984D01*
X13990763Y-14807984D02*
X13981239Y-14798460D01*
X13981239Y-14798460D02*
X13990763Y-14788936D01*
X13990763Y-14788936D02*
X13990763Y-14807984D01*
X14190763Y-14807984D02*
X14076477Y-14807984D01*
X14133620Y-14807984D02*
X14133620Y-14607984D01*
X14133620Y-14607984D02*
X14114572Y-14636555D01*
X14114572Y-14636555D02*
X14095525Y-14655603D01*
X14095525Y-14655603D02*
X14076477Y-14665127D01*
X14314572Y-14607984D02*
X14333620Y-14607984D01*
X14333620Y-14607984D02*
X14352668Y-14617508D01*
X14352668Y-14617508D02*
X14362192Y-14627031D01*
X14362192Y-14627031D02*
X14371715Y-14646079D01*
X14371715Y-14646079D02*
X14381239Y-14684174D01*
X14381239Y-14684174D02*
X14381239Y-14731793D01*
X14381239Y-14731793D02*
X14371715Y-14769888D01*
X14371715Y-14769888D02*
X14362192Y-14788936D01*
X14362192Y-14788936D02*
X14352668Y-14798460D01*
X14352668Y-14798460D02*
X14333620Y-14807984D01*
X14333620Y-14807984D02*
X14314572Y-14807984D01*
X14314572Y-14807984D02*
X14295525Y-14798460D01*
X14295525Y-14798460D02*
X14286001Y-14788936D01*
X14286001Y-14788936D02*
X14276477Y-14769888D01*
X14276477Y-14769888D02*
X14266953Y-14731793D01*
X14266953Y-14731793D02*
X14266953Y-14684174D01*
X14266953Y-14684174D02*
X14276477Y-14646079D01*
X14276477Y-14646079D02*
X14286001Y-14627031D01*
X14286001Y-14627031D02*
X14295525Y-14617508D01*
X14295525Y-14617508D02*
X14314572Y-14607984D01*
X14505049Y-14607984D02*
X14524096Y-14607984D01*
X14524096Y-14607984D02*
X14543144Y-14617508D01*
X14543144Y-14617508D02*
X14552668Y-14627031D01*
X14552668Y-14627031D02*
X14562192Y-14646079D01*
X14562192Y-14646079D02*
X14571715Y-14684174D01*
X14571715Y-14684174D02*
X14571715Y-14731793D01*
X14571715Y-14731793D02*
X14562192Y-14769888D01*
X14562192Y-14769888D02*
X14552668Y-14788936D01*
X14552668Y-14788936D02*
X14543144Y-14798460D01*
X14543144Y-14798460D02*
X14524096Y-14807984D01*
X14524096Y-14807984D02*
X14505049Y-14807984D01*
X14505049Y-14807984D02*
X14486001Y-14798460D01*
X14486001Y-14798460D02*
X14476477Y-14788936D01*
X14476477Y-14788936D02*
X14466953Y-14769888D01*
X14466953Y-14769888D02*
X14457430Y-14731793D01*
X14457430Y-14731793D02*
X14457430Y-14684174D01*
X14457430Y-14684174D02*
X14466953Y-14646079D01*
X14466953Y-14646079D02*
X14476477Y-14627031D01*
X14476477Y-14627031D02*
X14486001Y-14617508D01*
X14486001Y-14617508D02*
X14505049Y-14607984D01*
X14657430Y-14807984D02*
X14657430Y-14674650D01*
X14657430Y-14693698D02*
X14666953Y-14684174D01*
X14666953Y-14684174D02*
X14686001Y-14674650D01*
X14686001Y-14674650D02*
X14714573Y-14674650D01*
X14714573Y-14674650D02*
X14733620Y-14684174D01*
X14733620Y-14684174D02*
X14743144Y-14703222D01*
X14743144Y-14703222D02*
X14743144Y-14807984D01*
X14743144Y-14703222D02*
X14752668Y-14684174D01*
X14752668Y-14684174D02*
X14771715Y-14674650D01*
X14771715Y-14674650D02*
X14800287Y-14674650D01*
X14800287Y-14674650D02*
X14819334Y-14684174D01*
X14819334Y-14684174D02*
X14828858Y-14703222D01*
X14828858Y-14703222D02*
X14828858Y-14807984D01*
X14924096Y-14807984D02*
X14924096Y-14674650D01*
X14924096Y-14693698D02*
X14933620Y-14684174D01*
X14933620Y-14684174D02*
X14952668Y-14674650D01*
X14952668Y-14674650D02*
X14981239Y-14674650D01*
X14981239Y-14674650D02*
X15000287Y-14684174D01*
X15000287Y-14684174D02*
X15009811Y-14703222D01*
X15009811Y-14703222D02*
X15009811Y-14807984D01*
X15009811Y-14703222D02*
X15019334Y-14684174D01*
X15019334Y-14684174D02*
X15038382Y-14674650D01*
X15038382Y-14674650D02*
X15066953Y-14674650D01*
X15066953Y-14674650D02*
X15086001Y-14684174D01*
X15086001Y-14684174D02*
X15095525Y-14703222D01*
X15095525Y-14703222D02*
X15095525Y-14807984D01*
X15486001Y-14598460D02*
X15314573Y-14855603D01*
X15743144Y-14607984D02*
X15762192Y-14607984D01*
X15762192Y-14607984D02*
X15781239Y-14617508D01*
X15781239Y-14617508D02*
X15790763Y-14627031D01*
X15790763Y-14627031D02*
X15800287Y-14646079D01*
X15800287Y-14646079D02*
X15809811Y-14684174D01*
X15809811Y-14684174D02*
X15809811Y-14731793D01*
X15809811Y-14731793D02*
X15800287Y-14769888D01*
X15800287Y-14769888D02*
X15790763Y-14788936D01*
X15790763Y-14788936D02*
X15781239Y-14798460D01*
X15781239Y-14798460D02*
X15762192Y-14807984D01*
X15762192Y-14807984D02*
X15743144Y-14807984D01*
X15743144Y-14807984D02*
X15724096Y-14798460D01*
X15724096Y-14798460D02*
X15714573Y-14788936D01*
X15714573Y-14788936D02*
X15705049Y-14769888D01*
X15705049Y-14769888D02*
X15695525Y-14731793D01*
X15695525Y-14731793D02*
X15695525Y-14684174D01*
X15695525Y-14684174D02*
X15705049Y-14646079D01*
X15705049Y-14646079D02*
X15714573Y-14627031D01*
X15714573Y-14627031D02*
X15724096Y-14617508D01*
X15724096Y-14617508D02*
X15743144Y-14607984D01*
X15895525Y-14788936D02*
X15905049Y-14798460D01*
X15905049Y-14798460D02*
X15895525Y-14807984D01*
X15895525Y-14807984D02*
X15886001Y-14798460D01*
X15886001Y-14798460D02*
X15895525Y-14788936D01*
X15895525Y-14788936D02*
X15895525Y-14807984D01*
X16028858Y-14607984D02*
X16047906Y-14607984D01*
X16047906Y-14607984D02*
X16066954Y-14617508D01*
X16066954Y-14617508D02*
X16076477Y-14627031D01*
X16076477Y-14627031D02*
X16086001Y-14646079D01*
X16086001Y-14646079D02*
X16095525Y-14684174D01*
X16095525Y-14684174D02*
X16095525Y-14731793D01*
X16095525Y-14731793D02*
X16086001Y-14769888D01*
X16086001Y-14769888D02*
X16076477Y-14788936D01*
X16076477Y-14788936D02*
X16066954Y-14798460D01*
X16066954Y-14798460D02*
X16047906Y-14807984D01*
X16047906Y-14807984D02*
X16028858Y-14807984D01*
X16028858Y-14807984D02*
X16009811Y-14798460D01*
X16009811Y-14798460D02*
X16000287Y-14788936D01*
X16000287Y-14788936D02*
X15990763Y-14769888D01*
X15990763Y-14769888D02*
X15981239Y-14731793D01*
X15981239Y-14731793D02*
X15981239Y-14684174D01*
X15981239Y-14684174D02*
X15990763Y-14646079D01*
X15990763Y-14646079D02*
X16000287Y-14627031D01*
X16000287Y-14627031D02*
X16009811Y-14617508D01*
X16009811Y-14617508D02*
X16028858Y-14607984D01*
X16266954Y-14674650D02*
X16266954Y-14807984D01*
X16219335Y-14598460D02*
X16171716Y-14741317D01*
X16171716Y-14741317D02*
X16295525Y-14741317D01*
X16352668Y-14607984D02*
X16476477Y-14607984D01*
X16476477Y-14607984D02*
X16409811Y-14684174D01*
X16409811Y-14684174D02*
X16438382Y-14684174D01*
X16438382Y-14684174D02*
X16457430Y-14693698D01*
X16457430Y-14693698D02*
X16466954Y-14703222D01*
X16466954Y-14703222D02*
X16476477Y-14722269D01*
X16476477Y-14722269D02*
X16476477Y-14769888D01*
X16476477Y-14769888D02*
X16466954Y-14788936D01*
X16466954Y-14788936D02*
X16457430Y-14798460D01*
X16457430Y-14798460D02*
X16438382Y-14807984D01*
X16438382Y-14807984D02*
X16381239Y-14807984D01*
X16381239Y-14807984D02*
X16362192Y-14798460D01*
X16362192Y-14798460D02*
X16352668Y-14788936D01*
X16543144Y-14607984D02*
X16666954Y-14607984D01*
X16666954Y-14607984D02*
X16600287Y-14684174D01*
X16600287Y-14684174D02*
X16628858Y-14684174D01*
X16628858Y-14684174D02*
X16647906Y-14693698D01*
X16647906Y-14693698D02*
X16657430Y-14703222D01*
X16657430Y-14703222D02*
X16666954Y-14722269D01*
X16666954Y-14722269D02*
X16666954Y-14769888D01*
X16666954Y-14769888D02*
X16657430Y-14788936D01*
X16657430Y-14788936D02*
X16647906Y-14798460D01*
X16647906Y-14798460D02*
X16628858Y-14807984D01*
X16628858Y-14807984D02*
X16571716Y-14807984D01*
X16571716Y-14807984D02*
X16552668Y-14798460D01*
X16552668Y-14798460D02*
X16543144Y-14788936D01*
X16743144Y-14607984D02*
X16743144Y-14646079D01*
X16819335Y-14607984D02*
X16819335Y-14646079D01*
X17114573Y-14884174D02*
X17105049Y-14874650D01*
X17105049Y-14874650D02*
X17086001Y-14846079D01*
X17086001Y-14846079D02*
X17076478Y-14827031D01*
X17076478Y-14827031D02*
X17066954Y-14798460D01*
X17066954Y-14798460D02*
X17057430Y-14750841D01*
X17057430Y-14750841D02*
X17057430Y-14712746D01*
X17057430Y-14712746D02*
X17066954Y-14665127D01*
X17066954Y-14665127D02*
X17076478Y-14636555D01*
X17076478Y-14636555D02*
X17086001Y-14617508D01*
X17086001Y-14617508D02*
X17105049Y-14588936D01*
X17105049Y-14588936D02*
X17114573Y-14579412D01*
X17276478Y-14674650D02*
X17276478Y-14807984D01*
X17228859Y-14598460D02*
X17181240Y-14741317D01*
X17181240Y-14741317D02*
X17305049Y-14741317D01*
X17533621Y-14807984D02*
X17533621Y-14607984D01*
X17619335Y-14807984D02*
X17619335Y-14703222D01*
X17619335Y-14703222D02*
X17609811Y-14684174D01*
X17609811Y-14684174D02*
X17590763Y-14674650D01*
X17590763Y-14674650D02*
X17562192Y-14674650D01*
X17562192Y-14674650D02*
X17543144Y-14684174D01*
X17543144Y-14684174D02*
X17533621Y-14693698D01*
X17743144Y-14807984D02*
X17724097Y-14798460D01*
X17724097Y-14798460D02*
X17714573Y-14788936D01*
X17714573Y-14788936D02*
X17705049Y-14769888D01*
X17705049Y-14769888D02*
X17705049Y-14712746D01*
X17705049Y-14712746D02*
X17714573Y-14693698D01*
X17714573Y-14693698D02*
X17724097Y-14684174D01*
X17724097Y-14684174D02*
X17743144Y-14674650D01*
X17743144Y-14674650D02*
X17771716Y-14674650D01*
X17771716Y-14674650D02*
X17790763Y-14684174D01*
X17790763Y-14684174D02*
X17800287Y-14693698D01*
X17800287Y-14693698D02*
X17809811Y-14712746D01*
X17809811Y-14712746D02*
X17809811Y-14769888D01*
X17809811Y-14769888D02*
X17800287Y-14788936D01*
X17800287Y-14788936D02*
X17790763Y-14798460D01*
X17790763Y-14798460D02*
X17771716Y-14807984D01*
X17771716Y-14807984D02*
X17743144Y-14807984D01*
X17924097Y-14807984D02*
X17905049Y-14798460D01*
X17905049Y-14798460D02*
X17895525Y-14779412D01*
X17895525Y-14779412D02*
X17895525Y-14607984D01*
X18076478Y-14798460D02*
X18057430Y-14807984D01*
X18057430Y-14807984D02*
X18019335Y-14807984D01*
X18019335Y-14807984D02*
X18000287Y-14798460D01*
X18000287Y-14798460D02*
X17990763Y-14779412D01*
X17990763Y-14779412D02*
X17990763Y-14703222D01*
X17990763Y-14703222D02*
X18000287Y-14684174D01*
X18000287Y-14684174D02*
X18019335Y-14674650D01*
X18019335Y-14674650D02*
X18057430Y-14674650D01*
X18057430Y-14674650D02*
X18076478Y-14684174D01*
X18076478Y-14684174D02*
X18086002Y-14703222D01*
X18086002Y-14703222D02*
X18086002Y-14722269D01*
X18086002Y-14722269D02*
X17990763Y-14741317D01*
X18162192Y-14798460D02*
X18181240Y-14807984D01*
X18181240Y-14807984D02*
X18219335Y-14807984D01*
X18219335Y-14807984D02*
X18238383Y-14798460D01*
X18238383Y-14798460D02*
X18247906Y-14779412D01*
X18247906Y-14779412D02*
X18247906Y-14769888D01*
X18247906Y-14769888D02*
X18238383Y-14750841D01*
X18238383Y-14750841D02*
X18219335Y-14741317D01*
X18219335Y-14741317D02*
X18190763Y-14741317D01*
X18190763Y-14741317D02*
X18171716Y-14731793D01*
X18171716Y-14731793D02*
X18162192Y-14712746D01*
X18162192Y-14712746D02*
X18162192Y-14703222D01*
X18162192Y-14703222D02*
X18171716Y-14684174D01*
X18171716Y-14684174D02*
X18190763Y-14674650D01*
X18190763Y-14674650D02*
X18219335Y-14674650D01*
X18219335Y-14674650D02*
X18238383Y-14684174D01*
X18314573Y-14884174D02*
X18324097Y-14874650D01*
X18324097Y-14874650D02*
X18343144Y-14846079D01*
X18343144Y-14846079D02*
X18352668Y-14827031D01*
X18352668Y-14827031D02*
X18362192Y-14798460D01*
X18362192Y-14798460D02*
X18371716Y-14750841D01*
X18371716Y-14750841D02*
X18371716Y-14712746D01*
X18371716Y-14712746D02*
X18362192Y-14665127D01*
X18362192Y-14665127D02*
X18352668Y-14636555D01*
X18352668Y-14636555D02*
X18343144Y-14617508D01*
X18343144Y-14617508D02*
X18324097Y-14588936D01*
X18324097Y-14588936D02*
X18314573Y-14579412D01*
D14*
X13392510Y-14907000D02*
X13539510Y-15054000D01*
X13539510Y-14907000D02*
X13392510Y-15054000D01*
X13466010Y-14907000D02*
X13466010Y-15054000D01*
X13392510Y-14980500D02*
X13539510Y-14980500D01*
D11*
X13905049Y-15071984D02*
X13790763Y-15071984D01*
X13847906Y-15071984D02*
X13847906Y-14871984D01*
X13847906Y-14871984D02*
X13828858Y-14900555D01*
X13828858Y-14900555D02*
X13809811Y-14919603D01*
X13809811Y-14919603D02*
X13790763Y-14929127D01*
X13990763Y-15052936D02*
X14000287Y-15062460D01*
X14000287Y-15062460D02*
X13990763Y-15071984D01*
X13990763Y-15071984D02*
X13981239Y-15062460D01*
X13981239Y-15062460D02*
X13990763Y-15052936D01*
X13990763Y-15052936D02*
X13990763Y-15071984D01*
X14171715Y-14938650D02*
X14171715Y-15071984D01*
X14124096Y-14862460D02*
X14076477Y-15005317D01*
X14076477Y-15005317D02*
X14200287Y-15005317D01*
X14257430Y-14871984D02*
X14390763Y-14871984D01*
X14390763Y-14871984D02*
X14305049Y-15071984D01*
X14505049Y-14871984D02*
X14524096Y-14871984D01*
X14524096Y-14871984D02*
X14543144Y-14881508D01*
X14543144Y-14881508D02*
X14552668Y-14891031D01*
X14552668Y-14891031D02*
X14562192Y-14910079D01*
X14562192Y-14910079D02*
X14571715Y-14948174D01*
X14571715Y-14948174D02*
X14571715Y-14995793D01*
X14571715Y-14995793D02*
X14562192Y-15033888D01*
X14562192Y-15033888D02*
X14552668Y-15052936D01*
X14552668Y-15052936D02*
X14543144Y-15062460D01*
X14543144Y-15062460D02*
X14524096Y-15071984D01*
X14524096Y-15071984D02*
X14505049Y-15071984D01*
X14505049Y-15071984D02*
X14486001Y-15062460D01*
X14486001Y-15062460D02*
X14476477Y-15052936D01*
X14476477Y-15052936D02*
X14466953Y-15033888D01*
X14466953Y-15033888D02*
X14457430Y-14995793D01*
X14457430Y-14995793D02*
X14457430Y-14948174D01*
X14457430Y-14948174D02*
X14466953Y-14910079D01*
X14466953Y-14910079D02*
X14476477Y-14891031D01*
X14476477Y-14891031D02*
X14486001Y-14881508D01*
X14486001Y-14881508D02*
X14505049Y-14871984D01*
X14657430Y-15071984D02*
X14657430Y-14938650D01*
X14657430Y-14957698D02*
X14666953Y-14948174D01*
X14666953Y-14948174D02*
X14686001Y-14938650D01*
X14686001Y-14938650D02*
X14714573Y-14938650D01*
X14714573Y-14938650D02*
X14733620Y-14948174D01*
X14733620Y-14948174D02*
X14743144Y-14967222D01*
X14743144Y-14967222D02*
X14743144Y-15071984D01*
X14743144Y-14967222D02*
X14752668Y-14948174D01*
X14752668Y-14948174D02*
X14771715Y-14938650D01*
X14771715Y-14938650D02*
X14800287Y-14938650D01*
X14800287Y-14938650D02*
X14819334Y-14948174D01*
X14819334Y-14948174D02*
X14828858Y-14967222D01*
X14828858Y-14967222D02*
X14828858Y-15071984D01*
X14924096Y-15071984D02*
X14924096Y-14938650D01*
X14924096Y-14957698D02*
X14933620Y-14948174D01*
X14933620Y-14948174D02*
X14952668Y-14938650D01*
X14952668Y-14938650D02*
X14981239Y-14938650D01*
X14981239Y-14938650D02*
X15000287Y-14948174D01*
X15000287Y-14948174D02*
X15009811Y-14967222D01*
X15009811Y-14967222D02*
X15009811Y-15071984D01*
X15009811Y-14967222D02*
X15019334Y-14948174D01*
X15019334Y-14948174D02*
X15038382Y-14938650D01*
X15038382Y-14938650D02*
X15066953Y-14938650D01*
X15066953Y-14938650D02*
X15086001Y-14948174D01*
X15086001Y-14948174D02*
X15095525Y-14967222D01*
X15095525Y-14967222D02*
X15095525Y-15071984D01*
X15486001Y-14862460D02*
X15314573Y-15119603D01*
X15743144Y-14871984D02*
X15762192Y-14871984D01*
X15762192Y-14871984D02*
X15781239Y-14881508D01*
X15781239Y-14881508D02*
X15790763Y-14891031D01*
X15790763Y-14891031D02*
X15800287Y-14910079D01*
X15800287Y-14910079D02*
X15809811Y-14948174D01*
X15809811Y-14948174D02*
X15809811Y-14995793D01*
X15809811Y-14995793D02*
X15800287Y-15033888D01*
X15800287Y-15033888D02*
X15790763Y-15052936D01*
X15790763Y-15052936D02*
X15781239Y-15062460D01*
X15781239Y-15062460D02*
X15762192Y-15071984D01*
X15762192Y-15071984D02*
X15743144Y-15071984D01*
X15743144Y-15071984D02*
X15724096Y-15062460D01*
X15724096Y-15062460D02*
X15714573Y-15052936D01*
X15714573Y-15052936D02*
X15705049Y-15033888D01*
X15705049Y-15033888D02*
X15695525Y-14995793D01*
X15695525Y-14995793D02*
X15695525Y-14948174D01*
X15695525Y-14948174D02*
X15705049Y-14910079D01*
X15705049Y-14910079D02*
X15714573Y-14891031D01*
X15714573Y-14891031D02*
X15724096Y-14881508D01*
X15724096Y-14881508D02*
X15743144Y-14871984D01*
X15895525Y-15052936D02*
X15905049Y-15062460D01*
X15905049Y-15062460D02*
X15895525Y-15071984D01*
X15895525Y-15071984D02*
X15886001Y-15062460D01*
X15886001Y-15062460D02*
X15895525Y-15052936D01*
X15895525Y-15052936D02*
X15895525Y-15071984D01*
X16028858Y-14871984D02*
X16047906Y-14871984D01*
X16047906Y-14871984D02*
X16066954Y-14881508D01*
X16066954Y-14881508D02*
X16076477Y-14891031D01*
X16076477Y-14891031D02*
X16086001Y-14910079D01*
X16086001Y-14910079D02*
X16095525Y-14948174D01*
X16095525Y-14948174D02*
X16095525Y-14995793D01*
X16095525Y-14995793D02*
X16086001Y-15033888D01*
X16086001Y-15033888D02*
X16076477Y-15052936D01*
X16076477Y-15052936D02*
X16066954Y-15062460D01*
X16066954Y-15062460D02*
X16047906Y-15071984D01*
X16047906Y-15071984D02*
X16028858Y-15071984D01*
X16028858Y-15071984D02*
X16009811Y-15062460D01*
X16009811Y-15062460D02*
X16000287Y-15052936D01*
X16000287Y-15052936D02*
X15990763Y-15033888D01*
X15990763Y-15033888D02*
X15981239Y-14995793D01*
X15981239Y-14995793D02*
X15981239Y-14948174D01*
X15981239Y-14948174D02*
X15990763Y-14910079D01*
X15990763Y-14910079D02*
X16000287Y-14891031D01*
X16000287Y-14891031D02*
X16009811Y-14881508D01*
X16009811Y-14881508D02*
X16028858Y-14871984D01*
X16276477Y-14871984D02*
X16181239Y-14871984D01*
X16181239Y-14871984D02*
X16171716Y-14967222D01*
X16171716Y-14967222D02*
X16181239Y-14957698D01*
X16181239Y-14957698D02*
X16200287Y-14948174D01*
X16200287Y-14948174D02*
X16247906Y-14948174D01*
X16247906Y-14948174D02*
X16266954Y-14957698D01*
X16266954Y-14957698D02*
X16276477Y-14967222D01*
X16276477Y-14967222D02*
X16286001Y-14986269D01*
X16286001Y-14986269D02*
X16286001Y-15033888D01*
X16286001Y-15033888D02*
X16276477Y-15052936D01*
X16276477Y-15052936D02*
X16266954Y-15062460D01*
X16266954Y-15062460D02*
X16247906Y-15071984D01*
X16247906Y-15071984D02*
X16200287Y-15071984D01*
X16200287Y-15071984D02*
X16181239Y-15062460D01*
X16181239Y-15062460D02*
X16171716Y-15052936D01*
X16352668Y-14871984D02*
X16486001Y-14871984D01*
X16486001Y-14871984D02*
X16400287Y-15071984D01*
X16571716Y-15071984D02*
X16609811Y-15071984D01*
X16609811Y-15071984D02*
X16628858Y-15062460D01*
X16628858Y-15062460D02*
X16638382Y-15052936D01*
X16638382Y-15052936D02*
X16657430Y-15024365D01*
X16657430Y-15024365D02*
X16666954Y-14986269D01*
X16666954Y-14986269D02*
X16666954Y-14910079D01*
X16666954Y-14910079D02*
X16657430Y-14891031D01*
X16657430Y-14891031D02*
X16647906Y-14881508D01*
X16647906Y-14881508D02*
X16628858Y-14871984D01*
X16628858Y-14871984D02*
X16590763Y-14871984D01*
X16590763Y-14871984D02*
X16571716Y-14881508D01*
X16571716Y-14881508D02*
X16562192Y-14891031D01*
X16562192Y-14891031D02*
X16552668Y-14910079D01*
X16552668Y-14910079D02*
X16552668Y-14957698D01*
X16552668Y-14957698D02*
X16562192Y-14976746D01*
X16562192Y-14976746D02*
X16571716Y-14986269D01*
X16571716Y-14986269D02*
X16590763Y-14995793D01*
X16590763Y-14995793D02*
X16628858Y-14995793D01*
X16628858Y-14995793D02*
X16647906Y-14986269D01*
X16647906Y-14986269D02*
X16657430Y-14976746D01*
X16657430Y-14976746D02*
X16666954Y-14957698D01*
X16743144Y-14871984D02*
X16743144Y-14910079D01*
X16819335Y-14871984D02*
X16819335Y-14910079D01*
X17114573Y-15148174D02*
X17105049Y-15138650D01*
X17105049Y-15138650D02*
X17086001Y-15110079D01*
X17086001Y-15110079D02*
X17076478Y-15091031D01*
X17076478Y-15091031D02*
X17066954Y-15062460D01*
X17066954Y-15062460D02*
X17057430Y-15014841D01*
X17057430Y-15014841D02*
X17057430Y-14976746D01*
X17057430Y-14976746D02*
X17066954Y-14929127D01*
X17066954Y-14929127D02*
X17076478Y-14900555D01*
X17076478Y-14900555D02*
X17086001Y-14881508D01*
X17086001Y-14881508D02*
X17105049Y-14852936D01*
X17105049Y-14852936D02*
X17114573Y-14843412D01*
X17181240Y-14891031D02*
X17190763Y-14881508D01*
X17190763Y-14881508D02*
X17209811Y-14871984D01*
X17209811Y-14871984D02*
X17257430Y-14871984D01*
X17257430Y-14871984D02*
X17276478Y-14881508D01*
X17276478Y-14881508D02*
X17286001Y-14891031D01*
X17286001Y-14891031D02*
X17295525Y-14910079D01*
X17295525Y-14910079D02*
X17295525Y-14929127D01*
X17295525Y-14929127D02*
X17286001Y-14957698D01*
X17286001Y-14957698D02*
X17171716Y-15071984D01*
X17171716Y-15071984D02*
X17295525Y-15071984D01*
X17533621Y-15071984D02*
X17533621Y-14871984D01*
X17619335Y-15071984D02*
X17619335Y-14967222D01*
X17619335Y-14967222D02*
X17609811Y-14948174D01*
X17609811Y-14948174D02*
X17590763Y-14938650D01*
X17590763Y-14938650D02*
X17562192Y-14938650D01*
X17562192Y-14938650D02*
X17543144Y-14948174D01*
X17543144Y-14948174D02*
X17533621Y-14957698D01*
X17743144Y-15071984D02*
X17724097Y-15062460D01*
X17724097Y-15062460D02*
X17714573Y-15052936D01*
X17714573Y-15052936D02*
X17705049Y-15033888D01*
X17705049Y-15033888D02*
X17705049Y-14976746D01*
X17705049Y-14976746D02*
X17714573Y-14957698D01*
X17714573Y-14957698D02*
X17724097Y-14948174D01*
X17724097Y-14948174D02*
X17743144Y-14938650D01*
X17743144Y-14938650D02*
X17771716Y-14938650D01*
X17771716Y-14938650D02*
X17790763Y-14948174D01*
X17790763Y-14948174D02*
X17800287Y-14957698D01*
X17800287Y-14957698D02*
X17809811Y-14976746D01*
X17809811Y-14976746D02*
X17809811Y-15033888D01*
X17809811Y-15033888D02*
X17800287Y-15052936D01*
X17800287Y-15052936D02*
X17790763Y-15062460D01*
X17790763Y-15062460D02*
X17771716Y-15071984D01*
X17771716Y-15071984D02*
X17743144Y-15071984D01*
X17924097Y-15071984D02*
X17905049Y-15062460D01*
X17905049Y-15062460D02*
X17895525Y-15043412D01*
X17895525Y-15043412D02*
X17895525Y-14871984D01*
X18076478Y-15062460D02*
X18057430Y-15071984D01*
X18057430Y-15071984D02*
X18019335Y-15071984D01*
X18019335Y-15071984D02*
X18000287Y-15062460D01*
X18000287Y-15062460D02*
X17990763Y-15043412D01*
X17990763Y-15043412D02*
X17990763Y-14967222D01*
X17990763Y-14967222D02*
X18000287Y-14948174D01*
X18000287Y-14948174D02*
X18019335Y-14938650D01*
X18019335Y-14938650D02*
X18057430Y-14938650D01*
X18057430Y-14938650D02*
X18076478Y-14948174D01*
X18076478Y-14948174D02*
X18086002Y-14967222D01*
X18086002Y-14967222D02*
X18086002Y-14986269D01*
X18086002Y-14986269D02*
X17990763Y-15005317D01*
X18162192Y-15062460D02*
X18181240Y-15071984D01*
X18181240Y-15071984D02*
X18219335Y-15071984D01*
X18219335Y-15071984D02*
X18238383Y-15062460D01*
X18238383Y-15062460D02*
X18247906Y-15043412D01*
X18247906Y-15043412D02*
X18247906Y-15033888D01*
X18247906Y-15033888D02*
X18238383Y-15014841D01*
X18238383Y-15014841D02*
X18219335Y-15005317D01*
X18219335Y-15005317D02*
X18190763Y-15005317D01*
X18190763Y-15005317D02*
X18171716Y-14995793D01*
X18171716Y-14995793D02*
X18162192Y-14976746D01*
X18162192Y-14976746D02*
X18162192Y-14967222D01*
X18162192Y-14967222D02*
X18171716Y-14948174D01*
X18171716Y-14948174D02*
X18190763Y-14938650D01*
X18190763Y-14938650D02*
X18219335Y-14938650D01*
X18219335Y-14938650D02*
X18238383Y-14948174D01*
X18314573Y-15148174D02*
X18324097Y-15138650D01*
X18324097Y-15138650D02*
X18343144Y-15110079D01*
X18343144Y-15110079D02*
X18352668Y-15091031D01*
X18352668Y-15091031D02*
X18362192Y-15062460D01*
X18362192Y-15062460D02*
X18371716Y-15014841D01*
X18371716Y-15014841D02*
X18371716Y-14976746D01*
X18371716Y-14976746D02*
X18362192Y-14929127D01*
X18362192Y-14929127D02*
X18352668Y-14900555D01*
X18352668Y-14900555D02*
X18343144Y-14881508D01*
X18343144Y-14881508D02*
X18324097Y-14852936D01*
X18324097Y-14852936D02*
X18314573Y-14843412D01*
M02*
