%
M48
M72
T01C0.0160
T02C0.0320
T03C0.0394
T04C0.0400
T05C0.0579
%
T01
X5114Y8270
X6018Y7638
X6722Y6190
X7754Y7414
X8026Y7030
X8210Y6190
X7162Y8222
X7354Y8998
X7458Y9542
X6658Y9822
X6002Y10094
X5714Y10374
X5362Y11062
X5170Y10606
X5242Y12958
X5330Y13806
X5042Y14318
X4826Y15350
X4370Y16006
X4378Y16390
X4714Y17862
X5482Y18374
X5586Y16950
X6474Y17086
X6842Y17838
X7018Y16302
X7674Y16454
X7882Y16790
X8546Y15614
X8954Y15358
X9346Y14414
X9786Y13870
X10346Y13990
X11498Y13838
X11786Y15094
X11858Y15822
X11570Y16446
X11186Y16446
X10642Y16518
X10642Y16902
X10130Y17174
X10546Y17686
X10850Y18230
X10946Y17670
X11570Y17062
X12618Y18534
X12282Y19502
X12922Y20022
X11634Y22390
X10954Y21046
X9506Y22110
X7602Y21014
X8066Y18574
X9282Y18262
X9282Y17870
X9282Y17486
X10098Y18374
X9858Y16110
X12162Y11886
X12922Y12350
X12922Y15758
X10434Y8974
X9746Y8982
X9530Y8294
X9706Y7526
X9706Y7142
X10458Y7366
X10370Y7894
X8370Y10750
X8378Y11302
X7450Y11278
X6618Y12798
X6258Y13918
X6986Y14110
X7178Y14502
X6970Y15286
X4170Y13406
T02
X11633Y21557
X12421Y21557
T03
X11949Y10885
X11949Y9885
X10949Y9885
X10949Y10885
X9949Y10885
X9949Y9885
X8949Y9885
X8949Y10885
T04
X3457Y5874
X3457Y6874
X3457Y7874
X3457Y8874
X3457Y9874
X3457Y10874
X3457Y11874
X3457Y12874
X3457Y13874
X3457Y14874
X4457Y14874
X4457Y13874
X4457Y12874
X4457Y11874
X4457Y10874
X4457Y9874
X4457Y8874
X4457Y7874
X4457Y6874
X4457Y5874
X5946Y5766
T05
X9173Y6551
X9173Y21499
M30
