G04 #@! TF.GenerationSoftware,KiCad,Pcbnew,8.0.9-8.0.9-0~ubuntu24.04.1*
G04 #@! TF.CreationDate,2025-10-19T20:56:51+02:00*
G04 #@! TF.ProjectId,MySMotherboard,4d79534d-6f74-4686-9572-626f6172642e,1.4*
G04 #@! TF.SameCoordinates,Original*
G04 #@! TF.FileFunction,Soldermask,Top*
G04 #@! TF.FilePolarity,Negative*
%FSLAX46Y46*%
G04 Gerber Fmt 4.6, Leading zero omitted, Abs format (unit mm)*
G04 Created by KiCad (PCBNEW 8.0.9-8.0.9-0~ubuntu24.04.1) date 2025-10-19 20:56:51*
%MOMM*%
%LPD*%
G01*
G04 APERTURE LIST*
G04 Aperture macros list*
%AMRoundRect*
0 Rectangle with rounded corners*
0 $1 Rounding radius*
0 $2 $3 $4 $5 $6 $7 $8 $9 X,Y pos of 4 corners*
0 Add a 4 corners polygon primitive as box body*
4,1,4,$2,$3,$4,$5,$6,$7,$8,$9,$2,$3,0*
0 Add four circle primitives for the rounded corners*
1,1,$1+$1,$2,$3*
1,1,$1+$1,$4,$5*
1,1,$1+$1,$6,$7*
1,1,$1+$1,$8,$9*
0 Add four rect primitives between the rounded corners*
20,1,$1+$1,$2,$3,$4,$5,0*
20,1,$1+$1,$4,$5,$6,$7,0*
20,1,$1+$1,$6,$7,$8,$9,0*
20,1,$1+$1,$8,$9,$2,$3,0*%
%AMFreePoly0*
4,1,19,0.550000,-0.750000,0.000000,-0.750000,0.000000,-0.744911,-0.071157,-0.744911,-0.207708,-0.704816,-0.327430,-0.627875,-0.420627,-0.520320,-0.479746,-0.390866,-0.500000,-0.250000,-0.500000,0.250000,-0.479746,0.390866,-0.420627,0.520320,-0.327430,0.627875,-0.207708,0.704816,-0.071157,0.744911,0.000000,0.744911,0.000000,0.750000,0.550000,0.750000,0.550000,-0.750000,0.550000,-0.750000,
$1*%
%AMFreePoly1*
4,1,19,0.000000,0.744911,0.071157,0.744911,0.207708,0.704816,0.327430,0.627875,0.420627,0.520320,0.479746,0.390866,0.500000,0.250000,0.500000,-0.250000,0.479746,-0.390866,0.420627,-0.520320,0.327430,-0.627875,0.207708,-0.704816,0.071157,-0.744911,0.000000,-0.744911,0.000000,-0.750000,-0.550000,-0.750000,-0.550000,0.750000,0.000000,0.750000,0.000000,0.744911,0.000000,0.744911,
$1*%
%AMFreePoly2*
4,1,19,0.500000,-0.750000,0.000000,-0.750000,0.000000,-0.744911,-0.071157,-0.744911,-0.207708,-0.704816,-0.327430,-0.627875,-0.420627,-0.520320,-0.479746,-0.390866,-0.500000,-0.250000,-0.500000,0.250000,-0.479746,0.390866,-0.420627,0.520320,-0.327430,0.627875,-0.207708,0.704816,-0.071157,0.744911,0.000000,0.744911,0.000000,0.750000,0.500000,0.750000,0.500000,-0.750000,0.500000,-0.750000,
$1*%
%AMFreePoly3*
4,1,19,0.000000,0.744911,0.071157,0.744911,0.207708,0.704816,0.327430,0.627875,0.420627,0.520320,0.479746,0.390866,0.500000,0.250000,0.500000,-0.250000,0.479746,-0.390866,0.420627,-0.520320,0.327430,-0.627875,0.207708,-0.704816,0.071157,-0.744911,0.000000,-0.744911,0.000000,-0.750000,-0.500000,-0.750000,-0.500000,0.750000,0.000000,0.750000,0.000000,0.744911,0.000000,0.744911,
$1*%
G04 Aperture macros list end*
%ADD10RoundRect,0.140000X0.170000X-0.140000X0.170000X0.140000X-0.170000X0.140000X-0.170000X-0.140000X0*%
%ADD11R,0.550000X1.600000*%
%ADD12R,1.600000X0.550000*%
%ADD13RoundRect,0.150000X0.587500X0.150000X-0.587500X0.150000X-0.587500X-0.150000X0.587500X-0.150000X0*%
%ADD14RoundRect,0.140000X0.140000X0.170000X-0.140000X0.170000X-0.140000X-0.170000X0.140000X-0.170000X0*%
%ADD15RoundRect,0.150000X-0.150000X0.512500X-0.150000X-0.512500X0.150000X-0.512500X0.150000X0.512500X0*%
%ADD16R,1.700000X1.700000*%
%ADD17RoundRect,0.200000X0.200000X0.275000X-0.200000X0.275000X-0.200000X-0.275000X0.200000X-0.275000X0*%
%ADD18RoundRect,0.250000X0.325000X0.650000X-0.325000X0.650000X-0.325000X-0.650000X0.325000X-0.650000X0*%
%ADD19RoundRect,0.200000X-0.200000X-0.275000X0.200000X-0.275000X0.200000X0.275000X-0.200000X0.275000X0*%
%ADD20RoundRect,0.250000X0.375000X1.075000X-0.375000X1.075000X-0.375000X-1.075000X0.375000X-1.075000X0*%
%ADD21RoundRect,0.200000X-0.275000X0.200000X-0.275000X-0.200000X0.275000X-0.200000X0.275000X0.200000X0*%
%ADD22RoundRect,0.250001X1.074999X-0.462499X1.074999X0.462499X-1.074999X0.462499X-1.074999X-0.462499X0*%
%ADD23RoundRect,0.250000X-0.450000X0.325000X-0.450000X-0.325000X0.450000X-0.325000X0.450000X0.325000X0*%
%ADD24RoundRect,0.200000X0.275000X-0.200000X0.275000X0.200000X-0.275000X0.200000X-0.275000X-0.200000X0*%
%ADD25FreePoly0,270.000000*%
%ADD26R,1.500000X1.000000*%
%ADD27FreePoly1,270.000000*%
%ADD28RoundRect,0.140000X-0.170000X0.140000X-0.170000X-0.140000X0.170000X-0.140000X0.170000X0.140000X0*%
%ADD29RoundRect,0.250000X0.350000X0.625000X-0.350000X0.625000X-0.350000X-0.625000X0.350000X-0.625000X0*%
%ADD30O,1.200000X1.750000*%
%ADD31O,1.700000X1.700000*%
%ADD32FreePoly0,90.000000*%
%ADD33FreePoly1,90.000000*%
%ADD34FreePoly2,270.000000*%
%ADD35FreePoly3,270.000000*%
%ADD36RoundRect,0.225000X-0.225000X-0.250000X0.225000X-0.250000X0.225000X0.250000X-0.225000X0.250000X0*%
%ADD37RoundRect,0.150000X-0.150000X0.587500X-0.150000X-0.587500X0.150000X-0.587500X0.150000X0.587500X0*%
%ADD38RoundRect,0.140000X-0.140000X-0.170000X0.140000X-0.170000X0.140000X0.170000X-0.140000X0.170000X0*%
%ADD39R,1.600000X2.000000*%
%ADD40RoundRect,0.150000X-0.825000X-0.150000X0.825000X-0.150000X0.825000X0.150000X-0.825000X0.150000X0*%
%ADD41RoundRect,0.225000X0.250000X-0.225000X0.250000X0.225000X-0.250000X0.225000X-0.250000X-0.225000X0*%
%ADD42RoundRect,0.150000X0.512500X0.150000X-0.512500X0.150000X-0.512500X-0.150000X0.512500X-0.150000X0*%
%ADD43R,1.000000X2.500000*%
%ADD44RoundRect,0.250000X-0.325000X-0.650000X0.325000X-0.650000X0.325000X0.650000X-0.325000X0.650000X0*%
%ADD45R,1.000000X1.150000*%
%ADD46RoundRect,0.155000X0.212500X0.155000X-0.212500X0.155000X-0.212500X-0.155000X0.212500X-0.155000X0*%
%ADD47RoundRect,0.150000X-0.587500X-0.150000X0.587500X-0.150000X0.587500X0.150000X-0.587500X0.150000X0*%
%ADD48RoundRect,0.225000X0.225000X0.250000X-0.225000X0.250000X-0.225000X-0.250000X0.225000X-0.250000X0*%
%ADD49RoundRect,0.150000X0.825000X0.150000X-0.825000X0.150000X-0.825000X-0.150000X0.825000X-0.150000X0*%
%ADD50C,2.357400*%
%ADD51R,2.200000X2.200000*%
%ADD52C,2.200000*%
G04 APERTURE END LIST*
D10*
X155575000Y-90276382D03*
X155575000Y-89316382D03*
D11*
X151675000Y-100550000D03*
X152475000Y-100550000D03*
X153275000Y-100550000D03*
X154075000Y-100550000D03*
X154875000Y-100550000D03*
X155675000Y-100550000D03*
X156475000Y-100550000D03*
X157275000Y-100550000D03*
D12*
X158725000Y-99100000D03*
X158725000Y-98300000D03*
X158725000Y-97500000D03*
X158725000Y-96700000D03*
X158725000Y-95900000D03*
X158725000Y-95100000D03*
X158725000Y-94300000D03*
X158725000Y-93500000D03*
D11*
X157275000Y-92050000D03*
X156475000Y-92050000D03*
X155675000Y-92050000D03*
X154875000Y-92050000D03*
X154075000Y-92050000D03*
X153275000Y-92050000D03*
X152475000Y-92050000D03*
X151675000Y-92050000D03*
D12*
X150225000Y-93500000D03*
X150225000Y-94300000D03*
X150225000Y-95100000D03*
X150225000Y-95900000D03*
X150225000Y-96700000D03*
X150225000Y-97500000D03*
X150225000Y-98300000D03*
X150225000Y-99100000D03*
D13*
X147625000Y-94700000D03*
X147625000Y-92800000D03*
X145750000Y-93750000D03*
D14*
X159967740Y-100675000D03*
X159007740Y-100675000D03*
D15*
X144950000Y-84412500D03*
X144000000Y-84412500D03*
X143050000Y-84412500D03*
X143050000Y-86687500D03*
X144000000Y-86687500D03*
X144950000Y-86687500D03*
D10*
X157586378Y-103857244D03*
X157586378Y-102897244D03*
D16*
X143125000Y-125450000D03*
D17*
X143878940Y-116086141D03*
X142228940Y-116086141D03*
D18*
X156250000Y-110775000D03*
X153300000Y-110775000D03*
D19*
X147441440Y-89517860D03*
X149091440Y-89517860D03*
D20*
X151700000Y-114200000D03*
X148900000Y-114200000D03*
D21*
X141089378Y-94525000D03*
X141089378Y-96175000D03*
D22*
X148825000Y-87087500D03*
X148825000Y-84112500D03*
D21*
X150581543Y-102334900D03*
X150581543Y-103984900D03*
D23*
X140700000Y-97675000D03*
X140700000Y-99725000D03*
D10*
X154516737Y-90094460D03*
X154516737Y-89134460D03*
D24*
X143270581Y-97958938D03*
X143270581Y-96308938D03*
D25*
X143500000Y-90725000D03*
D26*
X143500000Y-92025000D03*
D27*
X143500000Y-93325000D03*
D28*
X154012000Y-102517997D03*
X154012000Y-103477997D03*
D29*
X159550000Y-85425000D03*
D30*
X157550000Y-85425000D03*
D15*
X160187500Y-88587500D03*
X159237500Y-88587500D03*
X158287500Y-88587500D03*
X158287500Y-90862500D03*
X160187500Y-90862500D03*
D19*
X153225000Y-104650000D03*
X154875000Y-104650000D03*
D17*
X143866503Y-118130300D03*
X142216503Y-118130300D03*
D16*
X136750000Y-102350000D03*
D31*
X139290000Y-102350000D03*
X136750000Y-104890000D03*
X139290000Y-104890000D03*
X136750000Y-107430000D03*
X139290000Y-107430000D03*
X136750000Y-109970000D03*
X139290000Y-109970000D03*
X136750000Y-112510000D03*
X139290000Y-112510000D03*
X136750000Y-115050000D03*
X139290000Y-115050000D03*
X136750000Y-117590000D03*
X139290000Y-117590000D03*
X136750000Y-120130000D03*
X139290000Y-120130000D03*
X136750000Y-122670000D03*
X139290000Y-122670000D03*
X136750000Y-125210000D03*
X139290000Y-125210000D03*
D32*
X142350000Y-110550000D03*
D26*
X142350000Y-109250000D03*
D33*
X142350000Y-107950000D03*
D21*
X145584478Y-88959641D03*
X145584478Y-90609641D03*
D34*
X153825000Y-84350000D03*
D35*
X153825000Y-85650000D03*
D36*
X159250000Y-92350000D03*
X160800000Y-92350000D03*
D37*
X153187500Y-87762500D03*
X151287500Y-87762500D03*
X152237500Y-89637500D03*
D38*
X147770000Y-91050000D03*
X148730000Y-91050000D03*
D39*
X137450000Y-98725000D03*
X137450000Y-93325000D03*
D40*
X150525000Y-117120000D03*
X150525000Y-118390000D03*
X150525000Y-119660000D03*
X150525000Y-120930000D03*
X155475000Y-120930000D03*
X155475000Y-119660000D03*
X155475000Y-118390000D03*
X155475000Y-117120000D03*
D41*
X146475000Y-87350000D03*
X146475000Y-85800000D03*
D42*
X155887500Y-114625000D03*
X155887500Y-113675000D03*
X155887500Y-112725000D03*
X153612500Y-112725000D03*
X153612500Y-113675000D03*
X153612500Y-114625000D03*
D43*
X160175000Y-107975000D03*
X158175000Y-107975000D03*
X156175000Y-107975000D03*
X154175000Y-107975000D03*
X152175000Y-107975000D03*
X150175000Y-107975000D03*
X148175000Y-107975000D03*
X146175000Y-107975000D03*
X146175000Y-126175000D03*
X148175000Y-126175000D03*
X150175000Y-126175000D03*
X152175000Y-126175000D03*
X154175000Y-126175000D03*
X156175000Y-126175000D03*
X158175000Y-126175000D03*
X160175000Y-126175000D03*
D44*
X148700000Y-111450000D03*
X151650000Y-111450000D03*
D45*
X159075000Y-102000000D03*
X159075000Y-103750000D03*
X160475000Y-103750000D03*
X160475000Y-102000000D03*
D39*
X137425000Y-85175000D03*
X137425000Y-90575000D03*
D46*
X154292500Y-115850000D03*
X153157500Y-115850000D03*
D24*
X141125000Y-92075000D03*
X141125000Y-90425000D03*
D17*
X143875000Y-88450000D03*
X142225000Y-88450000D03*
D41*
X141475000Y-84900000D03*
X141475000Y-83350000D03*
D47*
X158162500Y-110425000D03*
X158162500Y-112325000D03*
X160037500Y-111375000D03*
D10*
X157050000Y-90280000D03*
X157050000Y-89320000D03*
D21*
X140775000Y-86300000D03*
X140775000Y-87950000D03*
D48*
X157325000Y-88125000D03*
X155775000Y-88125000D03*
D49*
X147925000Y-103810000D03*
X147925000Y-102540000D03*
X147925000Y-101270000D03*
X147925000Y-100000000D03*
X142975000Y-100000000D03*
X142975000Y-101270000D03*
X142975000Y-102540000D03*
X142975000Y-103810000D03*
D50*
X151550000Y-85675000D03*
X151550000Y-123645000D03*
D51*
X159525000Y-114260000D03*
D52*
X159525000Y-116800000D03*
X159525000Y-119340000D03*
X159525000Y-121880000D03*
M02*
