M48
; DRILL file {KiCad 7.0.10-7.0.10~ubuntu20.04.1} date sob, 8 cze 2024, 20:32:59
; FORMAT={-:-/ absolute / metric / decimal}
; #@! TF.CreationDate,2024-06-08T20:32:59+02:00
; #@! TF.GenerationSoftware,Kicad,Pcbnew,7.0.10-7.0.10~ubuntu20.04.1
; #@! TF.FileFunction,Plated,1,2,PTH
FMAT,2
METRIC
; #@! TA.AperFunction,Plated,PTH,ViaDrill
T1C0.300
; #@! TA.AperFunction,Plated,PTH,ViaDrill
T2C0.400
; #@! TA.AperFunction,Plated,PTH,ViaDrill
T3C0.406
; #@! TA.AperFunction,Plated,PTH,ComponentDrill
T4C0.750
; #@! TA.AperFunction,Plated,PTH,ComponentDrill
T5C1.000
; #@! TA.AperFunction,Plated,PTH,ComponentDrill
T6C1.100
; #@! TA.AperFunction,Plated,PTH,ComponentDrill
T7C1.470
%
G90
G05
T1
X140.8Y-108.7
X140.825Y-107.15
X140.9Y-122.025
X140.95Y-120.125
X142.025Y-120.825
X143.0Y-105.925
X143.025Y-112.275
X143.65Y-111.425
X143.975Y-120.55
X144.175Y-112.475
X148.6Y-120.825
X148.95Y-117.65
X153.075Y-120.975
X153.175Y-105.25
X153.275Y-117.475
X154.45Y-97.85
X154.725Y-114.15
X155.075Y-104.525
X158.075Y-105.625
T2
X141.25Y-88.85
X147.25Y-88.3
X149.848Y-112.727
X150.275Y-88.55
X150.45Y-110.85
X154.325Y-86.725
X154.7Y-110.375
X158.11Y-110.935
T3
X138.57Y-106.076
X139.078Y-99.472
X139.098Y-98.496
X139.951Y-94.758
X140.236Y-101.138
X140.785Y-103.759
X140.967Y-119.121
X141.11Y-113.188
X141.597Y-112.03
X141.902Y-93.457
X142.166Y-97.074
X142.3Y-107.125
X142.85Y-114.525
X143.873Y-104.775
X144.422Y-96.729
X144.458Y-115.179
X145.052Y-124.404
X145.142Y-107.429
X145.357Y-94.819
X145.682Y-101.301
X145.722Y-104.288
X145.756Y-111.131
X145.791Y-115.992
X145.804Y-98.72
X146.21Y-103.292
X147.47Y-98.334
X147.998Y-97.48
X148.9Y-92.949
X149.45Y-124.275
X149.685Y-100.468
X150.721Y-101.118
X151.554Y-94.737
X151.554Y-95.713
X151.7Y-93.686
X151.717Y-103.516
X152.123Y-83.968
X153.017Y-99.208
X153.627Y-93.457
X153.708Y-96.505
X154.765Y-95.205
X155.537Y-93.823
X155.57Y-97.136
X155.781Y-95.245
X155.801Y-86.67
X156.39Y-98.354
X157.183Y-104.979
X157.366Y-96.79
X157.366Y-98.354
X157.528Y-83.257
X157.914Y-101.788
X158.097Y-99.939
X159.174Y-90.592
X160.983Y-99.919
X160.983Y-89.725
X161.016Y-109.636
T4
X157.55Y-85.425
X159.55Y-85.425
T5
X136.75Y-102.35
X136.75Y-104.89
X136.75Y-107.43
X136.75Y-109.97
X136.75Y-112.51
X136.75Y-115.05
X136.75Y-117.59
X136.75Y-120.13
X136.75Y-122.67
X136.75Y-125.21
X139.29Y-102.35
X139.29Y-104.89
X139.29Y-107.43
X139.29Y-109.97
X139.29Y-112.51
X139.29Y-115.05
X139.29Y-117.59
X139.29Y-120.13
X139.29Y-122.67
X139.29Y-125.21
X143.125Y-125.45
T6
X159.525Y-114.26
X159.525Y-116.8
X159.525Y-119.34
X159.525Y-121.88
T7
X151.55Y-85.675
X151.55Y-123.645
M30
