G75*
%MOIN*%
%OFA0B0*%
%FSLAX24Y24*%
%IPPOS*%
%LPD*%
%AMOC8*
5,1,8,0,0,1.08239X$1,22.5*
%
%ADD10C,0.0030*%
%ADD11C,0.0050*%
%ADD12C,0.0040*%
%ADD13C,0.0060*%
%ADD14R,0.0300X0.0180*%
%ADD15R,0.0180X0.0300*%
%ADD16R,0.0059X0.0118*%
%ADD17R,0.0118X0.0118*%
%ADD18C,0.0080*%
%ADD19C,0.0160*%
%ADD20C,0.0000*%
%ADD21C,0.0010*%
D10*
X005759Y006451D02*
X005759Y006645D01*
X005855Y006741D01*
X005952Y006645D01*
X005952Y006451D01*
X006053Y006451D02*
X006053Y006741D01*
X006247Y006451D01*
X006247Y006741D01*
X006348Y006741D02*
X006541Y006741D01*
X006445Y006741D02*
X006445Y006451D01*
X005952Y006596D02*
X005759Y006596D01*
X005707Y008009D02*
X005707Y008299D01*
X005852Y008299D01*
X005901Y008251D01*
X005901Y008154D01*
X005852Y008106D01*
X005707Y008106D01*
X005804Y008106D02*
X005901Y008009D01*
X006002Y008058D02*
X006050Y008009D01*
X006147Y008009D01*
X006195Y008058D01*
X006195Y008251D01*
X006147Y008299D01*
X006050Y008299D01*
X006002Y008251D01*
X006002Y008203D01*
X006050Y008154D01*
X006195Y008154D01*
X006195Y009776D02*
X006146Y009824D01*
X006340Y010018D01*
X006340Y009824D01*
X006292Y009776D01*
X006195Y009776D01*
X006146Y009824D02*
X006146Y010018D01*
X006195Y010066D01*
X006292Y010066D01*
X006340Y010018D01*
X006045Y009776D02*
X005852Y009776D01*
X005949Y009776D02*
X005949Y010066D01*
X005852Y009970D01*
X005751Y010018D02*
X005751Y009921D01*
X005702Y009873D01*
X005557Y009873D01*
X005654Y009873D02*
X005751Y009776D01*
X005557Y009776D02*
X005557Y010066D01*
X005702Y010066D01*
X005751Y010018D01*
X006172Y010449D02*
X006172Y010634D01*
X006234Y010695D01*
X006357Y010695D01*
X006419Y010634D01*
X006419Y010449D01*
X006419Y010572D02*
X006542Y010695D01*
X006542Y010817D02*
X006172Y010817D01*
X006172Y011064D01*
X006172Y011185D02*
X006295Y011309D01*
X006172Y011432D01*
X006542Y011432D01*
X006480Y011553D02*
X006542Y011615D01*
X006542Y011739D01*
X006480Y011800D01*
X006419Y011800D01*
X006357Y011739D01*
X006357Y011553D01*
X006480Y011553D01*
X006357Y011553D02*
X006234Y011677D01*
X006172Y011800D01*
X006234Y011922D02*
X006295Y011922D01*
X006357Y011983D01*
X006357Y012169D01*
X006480Y012169D02*
X006234Y012169D01*
X006172Y012107D01*
X006172Y011983D01*
X006234Y011922D01*
X006172Y012290D02*
X006542Y012290D01*
X006419Y012414D01*
X006542Y012537D01*
X006172Y012537D01*
X006202Y012812D02*
X006396Y012812D01*
X006299Y012812D02*
X006299Y013102D01*
X006202Y013005D01*
X006101Y013054D02*
X006053Y013102D01*
X005956Y013102D01*
X005907Y013054D01*
X005907Y012860D01*
X005956Y012812D01*
X006053Y012812D01*
X006101Y012860D01*
X006480Y012169D02*
X006542Y012107D01*
X006542Y011983D01*
X006480Y011922D01*
X006542Y011185D02*
X006172Y011185D01*
X006357Y010940D02*
X006357Y010817D01*
X006542Y010449D02*
X006172Y010449D01*
X008072Y010394D02*
X008362Y010394D01*
X008362Y010298D02*
X008362Y010491D01*
X008169Y010298D02*
X008072Y010394D01*
X008120Y010197D02*
X008314Y010003D01*
X008362Y010051D01*
X008362Y010148D01*
X008314Y010197D01*
X008120Y010197D01*
X008072Y010148D01*
X008072Y010051D01*
X008120Y010003D01*
X008314Y010003D01*
X008362Y009902D02*
X008362Y009708D01*
X008072Y009708D01*
X008072Y009559D02*
X008217Y009414D01*
X008217Y009607D01*
X008362Y009559D02*
X008072Y009559D01*
X008120Y009313D02*
X008072Y009264D01*
X008072Y009167D01*
X008120Y009119D01*
X008072Y009018D02*
X008072Y008824D01*
X008362Y008824D01*
X008362Y008723D02*
X008265Y008627D01*
X008265Y008675D02*
X008265Y008530D01*
X008362Y008530D02*
X008072Y008530D01*
X008072Y008675D01*
X008120Y008723D01*
X008217Y008723D01*
X008265Y008675D01*
X008217Y008824D02*
X008217Y008921D01*
X008362Y009119D02*
X008169Y009313D01*
X008120Y009313D01*
X008362Y009313D02*
X008362Y009119D01*
X008362Y008429D02*
X008072Y008429D01*
X008072Y008235D02*
X008362Y008429D01*
X008362Y008235D02*
X008072Y008235D01*
X005340Y014167D02*
X005049Y014361D01*
X005098Y014462D02*
X005049Y014511D01*
X005049Y014607D01*
X005098Y014656D01*
X005146Y014656D01*
X005340Y014462D01*
X005340Y014656D01*
X005340Y014361D02*
X005049Y014167D01*
X004127Y015526D02*
X004127Y015817D01*
X003933Y015817D02*
X003933Y015526D01*
X004127Y015526D02*
X003933Y015817D01*
X003832Y015817D02*
X003639Y015817D01*
X003735Y015817D02*
X003735Y015526D01*
X003537Y015575D02*
X003489Y015526D01*
X003344Y015526D01*
X003344Y015817D01*
X003489Y015817D01*
X003537Y015768D01*
X003537Y015720D01*
X003489Y015672D01*
X003344Y015672D01*
X003489Y015672D02*
X003537Y015623D01*
X003537Y015575D01*
X004594Y016943D02*
X004594Y017088D01*
X004643Y017137D01*
X004739Y017137D01*
X004788Y017088D01*
X004788Y016943D01*
X004885Y016943D02*
X004594Y016943D01*
X004788Y017040D02*
X004885Y017137D01*
X004885Y017238D02*
X004885Y017431D01*
X004885Y017334D02*
X004594Y017334D01*
X004691Y017238D01*
X004691Y017532D02*
X004594Y017629D01*
X004885Y017629D01*
X004885Y017532D02*
X004885Y017726D01*
X004840Y018281D02*
X004744Y018377D01*
X004792Y018377D02*
X004647Y018377D01*
X004647Y018281D02*
X004647Y018571D01*
X004792Y018571D01*
X004840Y018523D01*
X004840Y018426D01*
X004792Y018377D01*
X004942Y018329D02*
X004942Y018281D01*
X004942Y018329D02*
X005135Y018523D01*
X005135Y018571D01*
X004942Y018571D01*
X005224Y019330D02*
X005224Y019427D01*
X005224Y019379D02*
X005466Y019379D01*
X005515Y019330D01*
X005515Y019282D01*
X005466Y019234D01*
X005515Y019528D02*
X005515Y019722D01*
X005515Y019625D02*
X005224Y019625D01*
X005321Y019528D01*
X004938Y019698D02*
X004648Y019698D01*
X004648Y019843D01*
X004696Y019892D01*
X004793Y019892D01*
X004841Y019843D01*
X004841Y019698D01*
X004841Y019795D02*
X004938Y019892D01*
X004793Y019993D02*
X004793Y020186D01*
X004648Y020138D02*
X004793Y019993D01*
X004938Y020138D02*
X004648Y020138D01*
X005333Y020648D02*
X005333Y020939D01*
X005478Y020939D01*
X005527Y020890D01*
X005527Y020794D01*
X005478Y020745D01*
X005333Y020745D01*
X005430Y020745D02*
X005527Y020648D01*
X005628Y020697D02*
X005676Y020648D01*
X005773Y020648D01*
X005821Y020697D01*
X005821Y020745D01*
X005773Y020794D01*
X005724Y020794D01*
X005773Y020794D02*
X005821Y020842D01*
X005821Y020890D01*
X005773Y020939D01*
X005676Y020939D01*
X005628Y020890D01*
X005170Y021742D02*
X005218Y021791D01*
X005218Y021888D01*
X005170Y021936D01*
X005170Y022037D02*
X005218Y022085D01*
X005218Y022182D01*
X005170Y022231D01*
X005122Y022231D01*
X005073Y022182D01*
X005073Y022134D01*
X005073Y022182D02*
X005025Y022231D01*
X004977Y022231D01*
X004928Y022182D01*
X004928Y022085D01*
X004977Y022037D01*
X004977Y021936D02*
X004928Y021888D01*
X004928Y021791D01*
X004977Y021742D01*
X005170Y021742D01*
X006055Y022325D02*
X006151Y022325D01*
X006103Y022325D02*
X006103Y022615D01*
X006055Y022615D02*
X006151Y022615D01*
X006251Y022567D02*
X006251Y022373D01*
X006299Y022325D01*
X006396Y022325D01*
X006445Y022373D01*
X006546Y022470D02*
X006739Y022470D01*
X006691Y022325D02*
X006691Y022615D01*
X006546Y022470D01*
X006445Y022567D02*
X006396Y022615D01*
X006299Y022615D01*
X006251Y022567D01*
X007027Y022295D02*
X007341Y021981D01*
X007309Y021945D02*
X007212Y021945D01*
X007164Y021896D01*
X007164Y021703D01*
X007212Y021655D01*
X007309Y021655D01*
X007358Y021703D01*
X007459Y021655D02*
X007652Y021848D01*
X007652Y021896D01*
X007604Y021945D01*
X007507Y021945D01*
X007459Y021896D01*
X007358Y021896D02*
X007309Y021945D01*
X007184Y021981D02*
X007184Y022295D01*
X007341Y022295D02*
X007027Y021981D01*
X007027Y022138D02*
X007341Y022138D01*
X007459Y021655D02*
X007652Y021655D01*
X008700Y020566D02*
X008991Y020566D01*
X008991Y020470D02*
X008991Y020663D01*
X008797Y020470D02*
X008700Y020566D01*
X008749Y020369D02*
X008700Y020320D01*
X008700Y020223D01*
X008749Y020175D01*
X008942Y020175D01*
X008991Y020223D01*
X008991Y020320D01*
X008942Y020369D01*
X008749Y020369D01*
X008894Y020272D02*
X008991Y020369D01*
X009123Y020018D02*
X009026Y019970D01*
X008930Y019873D01*
X009075Y019873D01*
X009123Y019825D01*
X009123Y019776D01*
X009075Y019728D01*
X008978Y019728D01*
X008930Y019776D01*
X008930Y019873D01*
X008828Y019873D02*
X008780Y019825D01*
X008635Y019825D01*
X008732Y019825D02*
X008828Y019728D01*
X008828Y019873D02*
X008828Y019970D01*
X008780Y020018D01*
X008635Y020018D01*
X008635Y019728D01*
X008386Y019067D02*
X008241Y018922D01*
X008435Y018922D01*
X008386Y018777D02*
X008386Y019067D01*
X008140Y019019D02*
X008092Y019067D01*
X007995Y019067D01*
X007947Y019019D01*
X007947Y018825D01*
X007995Y018777D01*
X008092Y018777D01*
X008140Y018825D01*
X008201Y018218D02*
X008298Y018218D01*
X008346Y018169D01*
X008346Y018073D01*
X008298Y018024D01*
X008201Y018024D02*
X008153Y018121D01*
X008153Y018169D01*
X008201Y018218D01*
X008056Y018218D02*
X008056Y018024D01*
X008201Y018024D01*
X008104Y017923D02*
X008056Y017875D01*
X008056Y017778D01*
X008104Y017730D01*
X008298Y017730D01*
X008346Y017778D01*
X008346Y017875D01*
X008298Y017923D01*
X008346Y017630D02*
X008346Y017533D01*
X008346Y017582D02*
X008056Y017582D01*
X008056Y017630D02*
X008056Y017533D01*
X008088Y016263D02*
X008039Y016215D01*
X008088Y016263D02*
X008184Y016263D01*
X008233Y016215D01*
X008233Y016166D01*
X008039Y015973D01*
X008233Y015973D01*
X007938Y016021D02*
X007890Y015973D01*
X007793Y015973D01*
X007745Y016021D01*
X007745Y016215D01*
X007793Y016263D01*
X007890Y016263D01*
X007938Y016215D01*
X007645Y016263D02*
X007548Y016263D01*
X007597Y016263D02*
X007597Y015973D01*
X007645Y015973D02*
X007548Y015973D01*
X006217Y017538D02*
X006265Y017586D01*
X006265Y017634D01*
X006217Y017683D01*
X006120Y017683D01*
X006072Y017731D01*
X006072Y017780D01*
X006120Y017828D01*
X006217Y017828D01*
X006265Y017780D01*
X006265Y017731D01*
X006217Y017683D01*
X006120Y017683D02*
X006072Y017634D01*
X006072Y017586D01*
X006120Y017538D01*
X006217Y017538D01*
X005970Y017538D02*
X005874Y017634D01*
X005922Y017634D02*
X005777Y017634D01*
X005777Y017538D02*
X005777Y017828D01*
X005922Y017828D01*
X005970Y017780D01*
X005970Y017683D01*
X005922Y017634D01*
X005652Y016741D02*
X005652Y016548D01*
X005652Y016645D02*
X005362Y016645D01*
X005459Y016548D01*
X005410Y016447D02*
X005362Y016398D01*
X005362Y016253D01*
X005652Y016253D01*
X005652Y016398D01*
X005604Y016447D01*
X005410Y016447D01*
X006574Y018701D02*
X006574Y018846D01*
X006622Y018894D01*
X006719Y018894D01*
X006768Y018846D01*
X006768Y018701D01*
X006864Y018701D02*
X006574Y018701D01*
X006768Y018798D02*
X006864Y018894D01*
X006816Y018996D02*
X006864Y019044D01*
X006864Y019141D01*
X006816Y019189D01*
X006719Y019189D01*
X006671Y019141D01*
X006671Y019092D01*
X006719Y018996D01*
X006574Y018996D01*
X006574Y019189D01*
X008911Y022189D02*
X009105Y022189D01*
X009206Y022189D02*
X009399Y022189D01*
X009303Y022189D02*
X009303Y022480D01*
X009206Y022383D01*
X008911Y022480D02*
X008911Y022189D01*
X009581Y022411D02*
X009630Y022363D01*
X009678Y022363D01*
X009726Y022411D01*
X009726Y022653D01*
X009678Y022653D02*
X009775Y022653D01*
X009876Y022605D02*
X009924Y022653D01*
X010021Y022653D01*
X010069Y022605D01*
X010069Y022557D01*
X009876Y022363D01*
X010069Y022363D01*
X010317Y022366D02*
X010510Y022657D01*
X010612Y022560D02*
X010708Y022657D01*
X010708Y022366D01*
X010612Y022366D02*
X010805Y022366D01*
X010510Y022366D02*
X010317Y022657D01*
X009869Y021732D02*
X009578Y021732D01*
X009724Y021587D01*
X009724Y021781D01*
X009869Y021486D02*
X009869Y021293D01*
X009869Y021389D02*
X009578Y021389D01*
X009675Y021293D01*
X009627Y021192D02*
X009578Y021143D01*
X009578Y021046D01*
X009627Y020998D01*
X009820Y020998D01*
X009869Y021046D01*
X009869Y021143D01*
X009820Y021192D01*
X009917Y020131D02*
X010111Y019937D01*
X010159Y019986D01*
X010159Y020082D01*
X010111Y020131D01*
X009917Y020131D01*
X009869Y020082D01*
X009869Y019986D01*
X009917Y019937D01*
X010111Y019937D01*
X010159Y019836D02*
X010159Y019643D01*
X010159Y019739D02*
X009869Y019739D01*
X009965Y019643D01*
X009917Y019541D02*
X009869Y019493D01*
X009869Y019396D01*
X009917Y019348D01*
X010111Y019348D01*
X010159Y019396D01*
X010159Y019493D01*
X010111Y019541D01*
X010869Y020258D02*
X011063Y020258D01*
X011111Y020306D01*
X011111Y020403D01*
X011063Y020451D01*
X011063Y020552D02*
X011111Y020552D01*
X011063Y020552D02*
X010869Y020746D01*
X010821Y020746D01*
X010821Y020552D01*
X010869Y020451D02*
X010821Y020403D01*
X010821Y020306D01*
X010869Y020258D01*
X011520Y020265D02*
X011569Y020217D01*
X011762Y020217D01*
X011811Y020265D01*
X011811Y020362D01*
X011762Y020411D01*
X011811Y020512D02*
X011811Y020705D01*
X011811Y020608D02*
X011520Y020608D01*
X011617Y020512D01*
X011569Y020411D02*
X011520Y020362D01*
X011520Y020265D01*
X011569Y020806D02*
X011520Y020855D01*
X011520Y020951D01*
X011569Y021000D01*
X011617Y021000D01*
X011811Y020806D01*
X011811Y021000D01*
X012912Y020763D02*
X013203Y020763D01*
X013203Y020666D02*
X013203Y020860D01*
X013009Y020666D02*
X012912Y020763D01*
X012961Y020565D02*
X012912Y020517D01*
X012912Y020420D01*
X012961Y020372D01*
X013154Y020372D01*
X013203Y020420D01*
X013203Y020517D01*
X013154Y020565D01*
X013203Y020272D02*
X013203Y020175D01*
X013203Y020224D02*
X012912Y020224D01*
X012912Y020272D02*
X012912Y020175D01*
X012925Y020023D02*
X012973Y019974D01*
X013022Y020023D01*
X013070Y020023D01*
X013119Y019974D01*
X013119Y019878D01*
X013070Y019829D01*
X013119Y019728D02*
X013119Y019535D01*
X013119Y019631D02*
X012828Y019631D01*
X012925Y019535D01*
X012877Y019434D02*
X012828Y019385D01*
X012828Y019288D01*
X012877Y019240D01*
X013070Y019240D01*
X013119Y019288D01*
X013119Y019385D01*
X013070Y019434D01*
X012877Y019829D02*
X012828Y019878D01*
X012828Y019974D01*
X012877Y020023D01*
X012925Y020023D01*
X012973Y019974D02*
X012973Y019926D01*
X012958Y017111D02*
X012958Y016918D01*
X012958Y017014D02*
X012668Y017014D01*
X012765Y016918D01*
X012813Y016816D02*
X012716Y016816D01*
X012668Y016768D01*
X012668Y016623D01*
X012958Y016623D01*
X012861Y016623D02*
X012861Y016768D01*
X012813Y016816D01*
X012861Y016720D02*
X012958Y016816D01*
X012573Y015967D02*
X012476Y015967D01*
X012427Y015919D01*
X012427Y015871D01*
X012476Y015822D01*
X012573Y015822D01*
X012621Y015774D01*
X012621Y015725D01*
X012573Y015677D01*
X012476Y015677D01*
X012427Y015725D01*
X012427Y015774D01*
X012476Y015822D01*
X012573Y015822D02*
X012621Y015871D01*
X012621Y015919D01*
X012573Y015967D01*
X012326Y015919D02*
X012278Y015967D01*
X012181Y015967D01*
X012133Y015919D01*
X012133Y015725D01*
X012181Y015677D01*
X012278Y015677D01*
X012326Y015725D01*
X012836Y015475D02*
X012836Y015379D01*
X012885Y015330D01*
X012885Y015229D02*
X013078Y015229D01*
X013127Y015181D01*
X013127Y015084D01*
X013078Y015036D01*
X012885Y015036D01*
X012836Y015084D01*
X012836Y015181D01*
X012885Y015229D01*
X013030Y015132D02*
X013127Y015229D01*
X013127Y015330D02*
X012933Y015524D01*
X012885Y015524D01*
X012836Y015475D01*
X013127Y015524D02*
X013127Y015330D01*
X011464Y014776D02*
X011464Y014680D01*
X011415Y014631D01*
X011415Y014530D02*
X011464Y014482D01*
X011464Y014385D01*
X011415Y014337D01*
X011222Y014337D01*
X011173Y014385D01*
X011173Y014482D01*
X011222Y014530D01*
X011222Y014631D02*
X011270Y014631D01*
X011319Y014680D01*
X011319Y014825D01*
X011415Y014825D02*
X011222Y014825D01*
X011173Y014776D01*
X011173Y014680D01*
X011222Y014631D01*
X011415Y014825D02*
X011464Y014776D01*
X010753Y014768D02*
X010705Y014720D01*
X010608Y014720D01*
X010608Y014865D01*
X010656Y014913D01*
X010705Y014913D01*
X010753Y014865D01*
X010753Y014768D01*
X010608Y014720D02*
X010511Y014816D01*
X010463Y014913D01*
X010511Y014618D02*
X010463Y014570D01*
X010463Y014473D01*
X010511Y014425D01*
X010705Y014425D01*
X010753Y014473D01*
X010753Y014570D01*
X010705Y014618D01*
X009997Y014590D02*
X009997Y014687D01*
X009949Y014735D01*
X009949Y014837D02*
X009997Y014885D01*
X009997Y014982D01*
X009949Y015030D01*
X009852Y015030D01*
X009803Y014982D01*
X009803Y014933D01*
X009852Y014837D01*
X009707Y014837D01*
X009707Y015030D01*
X009493Y014953D02*
X009299Y015146D01*
X009251Y015146D01*
X009202Y015098D01*
X009202Y015001D01*
X009251Y014953D01*
X009174Y014988D02*
X008860Y014988D01*
X008860Y015145D02*
X009174Y014831D01*
X009202Y014803D02*
X009251Y014851D01*
X009348Y014851D01*
X009396Y014803D01*
X009396Y014658D01*
X009493Y014658D02*
X009202Y014658D01*
X009202Y014803D01*
X009017Y014831D02*
X009017Y015145D01*
X009174Y015145D02*
X008860Y014831D01*
X009396Y014755D02*
X009493Y014851D01*
X009493Y014953D02*
X009493Y015146D01*
X009755Y014735D02*
X009707Y014687D01*
X009707Y014590D01*
X009755Y014542D01*
X009949Y014542D01*
X009997Y014590D01*
X004248Y022484D02*
X004054Y022484D01*
X004151Y022484D02*
X004151Y022194D01*
X003953Y022243D02*
X003953Y022291D01*
X003905Y022339D01*
X003808Y022339D01*
X003760Y022388D01*
X003760Y022436D01*
X003808Y022484D01*
X003905Y022484D01*
X003953Y022436D01*
X003953Y022243D02*
X003905Y022194D01*
X003808Y022194D01*
X003760Y022243D01*
X003658Y022194D02*
X003562Y022291D01*
X003610Y022291D02*
X003465Y022291D01*
X003465Y022194D02*
X003465Y022484D01*
X003610Y022484D01*
X003658Y022436D01*
X003658Y022339D01*
X003610Y022291D01*
D11*
X006960Y018844D02*
X006960Y018544D01*
X006960Y018844D02*
X007310Y018844D01*
X007460Y018344D02*
X007460Y018194D01*
X007310Y017694D02*
X006960Y017694D01*
X006960Y017994D01*
X007004Y013286D02*
X006690Y013286D01*
X006690Y005549D01*
X007004Y005549D01*
X007006Y005567D01*
X007011Y005584D01*
X007019Y005601D01*
X007030Y005615D01*
X007043Y005627D01*
X007058Y005637D01*
X007075Y005643D01*
X007093Y005647D01*
X007111Y005647D01*
X007129Y005643D01*
X007146Y005637D01*
X007161Y005627D01*
X007174Y005615D01*
X007185Y005601D01*
X007193Y005584D01*
X007198Y005567D01*
X007200Y005549D01*
X007728Y005549D01*
X007729Y005549D02*
X007731Y005567D01*
X007736Y005584D01*
X007744Y005601D01*
X007755Y005615D01*
X007768Y005627D01*
X007783Y005637D01*
X007800Y005643D01*
X007818Y005647D01*
X007836Y005647D01*
X007854Y005643D01*
X007871Y005637D01*
X007886Y005627D01*
X007899Y005615D01*
X007910Y005601D01*
X007918Y005584D01*
X007923Y005567D01*
X007925Y005549D01*
X008516Y005549D01*
X008518Y005567D01*
X008523Y005584D01*
X008531Y005601D01*
X008542Y005615D01*
X008555Y005627D01*
X008570Y005637D01*
X008587Y005643D01*
X008605Y005647D01*
X008623Y005647D01*
X008641Y005643D01*
X008658Y005637D01*
X008673Y005627D01*
X008686Y005615D01*
X008697Y005601D01*
X008705Y005584D01*
X008710Y005567D01*
X008712Y005549D01*
X008713Y005549D02*
X009366Y005549D01*
X009368Y005567D01*
X009373Y005584D01*
X009381Y005601D01*
X009392Y005615D01*
X009405Y005627D01*
X009420Y005637D01*
X009437Y005643D01*
X009455Y005647D01*
X009473Y005647D01*
X009491Y005643D01*
X009508Y005637D01*
X009523Y005627D01*
X009536Y005615D01*
X009547Y005601D01*
X009555Y005584D01*
X009560Y005567D01*
X009562Y005549D01*
X009563Y005549D02*
X010153Y005549D01*
X010154Y005549D02*
X010156Y005567D01*
X010161Y005584D01*
X010169Y005601D01*
X010180Y005615D01*
X010193Y005627D01*
X010208Y005637D01*
X010225Y005643D01*
X010243Y005647D01*
X010261Y005647D01*
X010279Y005643D01*
X010296Y005637D01*
X010311Y005627D01*
X010324Y005615D01*
X010335Y005601D01*
X010343Y005584D01*
X010348Y005567D01*
X010350Y005549D01*
X010941Y005549D01*
X010943Y005567D01*
X010948Y005584D01*
X010956Y005601D01*
X010967Y005615D01*
X010980Y005627D01*
X010995Y005637D01*
X011012Y005643D01*
X011030Y005647D01*
X011048Y005647D01*
X011066Y005643D01*
X011083Y005637D01*
X011098Y005627D01*
X011111Y005615D01*
X011122Y005601D01*
X011130Y005584D01*
X011135Y005567D01*
X011137Y005549D01*
X011790Y005549D01*
X011791Y005549D02*
X011793Y005567D01*
X011798Y005584D01*
X011806Y005601D01*
X011817Y005615D01*
X011830Y005627D01*
X011845Y005637D01*
X011862Y005643D01*
X011880Y005647D01*
X011898Y005647D01*
X011916Y005643D01*
X011933Y005637D01*
X011948Y005627D01*
X011961Y005615D01*
X011972Y005601D01*
X011980Y005584D01*
X011985Y005567D01*
X011987Y005549D01*
X012603Y005549D01*
X012605Y005567D01*
X012610Y005584D01*
X012618Y005601D01*
X012629Y005615D01*
X012642Y005627D01*
X012657Y005637D01*
X012674Y005643D01*
X012692Y005647D01*
X012710Y005647D01*
X012728Y005643D01*
X012745Y005637D01*
X012760Y005627D01*
X012773Y005615D01*
X012784Y005601D01*
X012792Y005584D01*
X012797Y005567D01*
X012799Y005549D01*
X012800Y005549D02*
X013114Y005549D01*
X013114Y013286D01*
X012800Y013286D01*
X012799Y013286D02*
X012797Y013268D01*
X012792Y013251D01*
X012784Y013234D01*
X012773Y013220D01*
X012760Y013208D01*
X012745Y013198D01*
X012728Y013192D01*
X012710Y013188D01*
X012692Y013188D01*
X012674Y013192D01*
X012657Y013198D01*
X012642Y013208D01*
X012629Y013220D01*
X012618Y013234D01*
X012610Y013251D01*
X012605Y013268D01*
X012603Y013286D01*
X011987Y013286D01*
X011985Y013268D01*
X011980Y013251D01*
X011972Y013234D01*
X011961Y013220D01*
X011948Y013208D01*
X011933Y013198D01*
X011916Y013192D01*
X011898Y013188D01*
X011880Y013188D01*
X011862Y013192D01*
X011845Y013198D01*
X011830Y013208D01*
X011817Y013220D01*
X011806Y013234D01*
X011798Y013251D01*
X011793Y013268D01*
X011791Y013286D01*
X011790Y013286D02*
X011137Y013286D01*
X011135Y013268D01*
X011130Y013251D01*
X011122Y013234D01*
X011111Y013220D01*
X011098Y013208D01*
X011083Y013198D01*
X011066Y013192D01*
X011048Y013188D01*
X011030Y013188D01*
X011012Y013192D01*
X010995Y013198D01*
X010980Y013208D01*
X010967Y013220D01*
X010956Y013234D01*
X010948Y013251D01*
X010943Y013268D01*
X010941Y013286D01*
X010350Y013286D01*
X010348Y013268D01*
X010343Y013251D01*
X010335Y013234D01*
X010324Y013220D01*
X010311Y013208D01*
X010296Y013198D01*
X010279Y013192D01*
X010261Y013188D01*
X010243Y013188D01*
X010225Y013192D01*
X010208Y013198D01*
X010193Y013208D01*
X010180Y013220D01*
X010169Y013234D01*
X010161Y013251D01*
X010156Y013268D01*
X010154Y013286D01*
X010153Y013286D02*
X009500Y013286D01*
X009498Y013268D01*
X009493Y013251D01*
X009485Y013234D01*
X009474Y013220D01*
X009461Y013208D01*
X009446Y013198D01*
X009429Y013192D01*
X009411Y013188D01*
X009393Y013188D01*
X009375Y013192D01*
X009358Y013198D01*
X009343Y013208D01*
X009330Y013220D01*
X009319Y013234D01*
X009311Y013251D01*
X009306Y013268D01*
X009304Y013286D01*
X009303Y013286D02*
X008713Y013286D01*
X008712Y013286D02*
X008710Y013268D01*
X008705Y013251D01*
X008697Y013234D01*
X008686Y013220D01*
X008673Y013208D01*
X008658Y013198D01*
X008641Y013192D01*
X008623Y013188D01*
X008605Y013188D01*
X008587Y013192D01*
X008570Y013198D01*
X008555Y013208D01*
X008542Y013220D01*
X008531Y013234D01*
X008523Y013251D01*
X008518Y013268D01*
X008516Y013286D01*
X007925Y013286D01*
X007923Y013268D01*
X007918Y013251D01*
X007910Y013234D01*
X007899Y013220D01*
X007886Y013208D01*
X007871Y013198D01*
X007854Y013192D01*
X007836Y013188D01*
X007818Y013188D01*
X007800Y013192D01*
X007783Y013198D01*
X007768Y013208D01*
X007755Y013220D01*
X007744Y013234D01*
X007736Y013251D01*
X007731Y013268D01*
X007729Y013286D01*
X007728Y013286D02*
X007200Y013286D01*
X007198Y013268D01*
X007193Y013251D01*
X007185Y013234D01*
X007174Y013220D01*
X007161Y013208D01*
X007146Y013198D01*
X007129Y013192D01*
X007111Y013188D01*
X007093Y013188D01*
X007075Y013192D01*
X007058Y013198D01*
X007043Y013208D01*
X007030Y013220D01*
X007019Y013234D01*
X007011Y013251D01*
X007006Y013268D01*
X007004Y013286D01*
X008127Y012099D02*
X008127Y010724D01*
X008190Y010724D02*
X009565Y010724D01*
X009565Y012099D01*
X008127Y012099D01*
X008699Y011385D02*
X008449Y011135D01*
X008449Y010635D01*
X008699Y010385D01*
X008449Y010135D01*
X008449Y009635D01*
X008699Y009385D01*
X009199Y009385D01*
X009449Y009635D01*
X009699Y009385D01*
X010199Y009385D01*
X010449Y009635D01*
X010699Y009385D01*
X011199Y009385D01*
X011449Y009635D01*
X011699Y009385D01*
X012199Y009385D01*
X012449Y009635D01*
X012449Y011135D01*
X012199Y011385D01*
X011699Y011385D01*
X011449Y011135D01*
X011199Y011385D01*
X010699Y011385D01*
X010449Y011135D01*
X010199Y011385D01*
X009699Y011385D01*
X009449Y011135D01*
X009199Y011385D01*
X008699Y011385D01*
X006699Y011545D02*
X012599Y011545D01*
X012599Y002685D01*
X006699Y002685D01*
X006699Y011545D01*
X005506Y006239D02*
X005206Y006239D01*
X005506Y005938D01*
X005582Y006013D01*
X005582Y006164D01*
X005506Y006239D01*
X005506Y005938D02*
X005206Y005938D01*
X005131Y006013D01*
X005131Y006164D01*
X005206Y006239D01*
X005206Y005778D02*
X005131Y005703D01*
X005131Y005553D01*
X005206Y005478D01*
X005206Y005778D02*
X005281Y005778D01*
X005582Y005478D01*
X005582Y005778D01*
X006699Y002685D02*
X006699Y000125D01*
X012599Y000125D01*
X012599Y002685D01*
X012940Y007036D02*
X011065Y007036D01*
X011065Y012286D01*
X012940Y012286D01*
X012940Y007036D01*
X013189Y020888D02*
X012185Y020888D01*
X012185Y021124D01*
X012952Y021124D01*
X012952Y021439D01*
X013189Y021439D01*
X013189Y020888D01*
X013189Y021439D02*
X013189Y021794D01*
X012952Y021794D01*
X012952Y021439D01*
X012952Y021794D02*
X012952Y022424D01*
X011102Y022424D01*
X011102Y021794D01*
X010866Y021794D01*
X010866Y021439D01*
X011102Y021439D01*
X011102Y021124D01*
X011870Y021124D01*
X011870Y020888D01*
X012185Y020888D01*
X011870Y020888D02*
X010866Y020888D01*
X010866Y021439D01*
X011102Y021439D02*
X011102Y021794D01*
X010866Y021794D02*
X010866Y022660D01*
X013189Y022660D01*
X013189Y021794D01*
X002782Y014939D02*
X002782Y014638D01*
X002782Y014789D02*
X002331Y014789D01*
X002481Y014638D01*
D12*
X007044Y017278D02*
X007138Y017278D01*
X007091Y017278D02*
X007091Y017558D01*
X007044Y017558D02*
X007138Y017558D01*
X007241Y017511D02*
X007241Y017325D01*
X007287Y017278D01*
X007381Y017278D01*
X007427Y017325D01*
X007535Y017325D02*
X007582Y017278D01*
X007675Y017278D01*
X007722Y017325D01*
X007722Y017371D01*
X007675Y017418D01*
X007629Y017418D01*
X007675Y017418D02*
X007722Y017465D01*
X007722Y017511D01*
X007675Y017558D01*
X007582Y017558D01*
X007535Y017511D01*
X007427Y017511D02*
X007381Y017558D01*
X007287Y017558D01*
X007241Y017511D01*
X011815Y011011D02*
X012275Y011011D01*
X012122Y010857D01*
X012275Y010704D01*
X011815Y010704D01*
X011815Y010550D02*
X012275Y010550D01*
X012275Y010243D02*
X011815Y010243D01*
X011892Y010090D02*
X011815Y010013D01*
X011815Y009860D01*
X011892Y009783D01*
X011968Y009783D01*
X012045Y009860D01*
X012045Y010090D01*
X011892Y010090D02*
X012199Y010090D01*
X012275Y010013D01*
X012275Y009860D01*
X012199Y009783D01*
X012199Y009630D02*
X012122Y009630D01*
X012045Y009553D01*
X012045Y009323D01*
X012199Y009323D01*
X012275Y009399D01*
X012275Y009553D01*
X012199Y009630D01*
X011892Y009476D02*
X012045Y009323D01*
X011892Y009476D02*
X011815Y009630D01*
X011815Y009169D02*
X012275Y009169D01*
X012275Y008862D02*
X011815Y008862D01*
X011968Y009016D01*
X011815Y009169D01*
X011815Y008709D02*
X011815Y008402D01*
X012275Y008402D01*
X012275Y008248D02*
X012122Y008095D01*
X012122Y008172D02*
X012122Y007942D01*
X012275Y007942D02*
X011815Y007942D01*
X011815Y008172D01*
X011892Y008248D01*
X012045Y008248D01*
X012122Y008172D01*
X012045Y008402D02*
X012045Y008555D01*
X012045Y010243D02*
X012045Y010550D01*
X012401Y020200D02*
X012708Y020200D01*
X012555Y020200D02*
X012555Y020660D01*
X012401Y020507D01*
D13*
X002957Y005624D02*
X003207Y005374D01*
X004707Y005374D01*
X004957Y005624D01*
X004957Y006124D01*
X004707Y006374D01*
X004957Y006624D01*
X004957Y007124D01*
X004707Y007374D01*
X004957Y007624D01*
X004957Y008124D01*
X004707Y008374D01*
X004957Y008624D01*
X004957Y009124D01*
X004707Y009374D01*
X004957Y009624D01*
X004957Y010124D01*
X004707Y010374D01*
X004957Y010624D01*
X004957Y011124D01*
X004707Y011374D01*
X004957Y011624D01*
X004957Y012124D01*
X004707Y012374D01*
X004957Y012624D01*
X004957Y013124D01*
X004707Y013374D01*
X004957Y013624D01*
X004957Y014124D01*
X004707Y014374D01*
X004957Y014624D01*
X004957Y015124D01*
X004707Y015374D01*
X003207Y015374D01*
X002957Y015124D01*
X002957Y014624D01*
X003207Y014374D01*
X002957Y014124D01*
X002957Y013624D01*
X003207Y013374D01*
X002957Y013124D01*
X002957Y012624D01*
X003207Y012374D01*
X002957Y012124D01*
X002957Y011624D01*
X003207Y011374D01*
X002957Y011124D01*
X002957Y010624D01*
X003207Y010374D01*
X002957Y010124D01*
X002957Y009624D01*
X003207Y009374D01*
X002957Y009124D01*
X002957Y008624D01*
X003207Y008374D01*
X002957Y008124D01*
X002957Y007624D01*
X003207Y007374D01*
X002957Y007124D01*
X002957Y006624D01*
X003207Y006374D01*
X002957Y006124D01*
X002957Y005624D01*
X005496Y005516D02*
X005496Y005316D01*
X005696Y005316D01*
X006196Y005316D02*
X006396Y005316D01*
X006396Y005516D01*
X006396Y006016D02*
X006396Y006216D01*
X006196Y006216D01*
X005696Y006216D02*
X005496Y006216D01*
X005496Y006016D01*
X007636Y001756D02*
X007850Y001542D01*
X007850Y001115D01*
X008067Y001115D02*
X008067Y001756D01*
X008494Y001115D01*
X008494Y001756D01*
X008712Y001756D02*
X009139Y001756D01*
X008926Y001756D02*
X008926Y001115D01*
X009357Y001115D02*
X009357Y001756D01*
X009784Y001756D01*
X010001Y001756D02*
X010428Y001115D01*
X010428Y001756D01*
X010646Y001756D02*
X011073Y001115D01*
X011073Y001756D01*
X011290Y001542D02*
X011504Y001756D01*
X011717Y001542D01*
X011717Y001115D01*
X011717Y001435D02*
X011290Y001435D01*
X011290Y001542D02*
X011290Y001115D01*
X010646Y001115D02*
X010646Y001756D01*
X010001Y001756D02*
X010001Y001115D01*
X009784Y001115D02*
X009357Y001115D01*
X009357Y001435D02*
X009570Y001435D01*
X007850Y001435D02*
X007423Y001435D01*
X007423Y001542D02*
X007423Y001115D01*
X007423Y001542D02*
X007636Y001756D01*
X009027Y015856D02*
X009097Y015856D01*
X009027Y015856D02*
X009027Y015926D01*
X009177Y016216D02*
X009387Y016006D01*
X008337Y016786D02*
X007937Y016786D01*
X009027Y018586D02*
X009027Y018656D01*
X009097Y018656D01*
X009082Y020208D02*
X009082Y020508D01*
X010222Y020508D01*
X010222Y020208D01*
X009082Y020208D01*
X009914Y021096D02*
X009914Y022196D01*
X009916Y022213D01*
X009920Y022230D01*
X009927Y022246D01*
X009937Y022260D01*
X009950Y022273D01*
X009964Y022283D01*
X009980Y022290D01*
X009997Y022294D01*
X010014Y022296D01*
X010614Y022296D01*
X010631Y022294D01*
X010648Y022290D01*
X010664Y022283D01*
X010678Y022273D01*
X010691Y022260D01*
X010701Y022246D01*
X010708Y022230D01*
X010712Y022213D01*
X010714Y022196D01*
X010714Y021096D01*
X010712Y021079D01*
X010708Y021062D01*
X010701Y021046D01*
X010691Y021032D01*
X010678Y021019D01*
X010664Y021009D01*
X010648Y021002D01*
X010631Y020998D01*
X010614Y020996D01*
X010014Y020996D01*
X009997Y020998D01*
X009980Y021002D01*
X009964Y021009D01*
X009950Y021019D01*
X009937Y021032D01*
X009927Y021046D01*
X009920Y021062D01*
X009916Y021079D01*
X009914Y021096D01*
X010577Y019756D02*
X010577Y019356D01*
X010577Y019756D01*
X010577Y019356D01*
X010577Y019756D01*
X011748Y019795D02*
X011785Y019795D01*
X011748Y019795D02*
X011748Y020413D01*
X011785Y020413D01*
X012102Y020413D02*
X012139Y020413D01*
X012476Y020413D02*
X012513Y020413D01*
X012830Y020413D02*
X012867Y020413D01*
X012867Y019795D01*
X012830Y019795D01*
X012513Y019795D02*
X012102Y019795D01*
X011827Y018656D02*
X011757Y018656D01*
X011827Y018656D02*
X011827Y018586D01*
X012517Y016456D02*
X012917Y016456D01*
X012517Y016456D01*
X012917Y016456D01*
X011827Y015926D02*
X011827Y015856D01*
X011757Y015856D01*
X007004Y021250D02*
X007004Y021350D01*
X007004Y021590D01*
X007004Y021690D01*
X006330Y019880D02*
X005730Y019880D01*
X005713Y019878D01*
X005696Y019874D01*
X005680Y019867D01*
X005666Y019857D01*
X005653Y019844D01*
X005643Y019830D01*
X005636Y019814D01*
X005632Y019797D01*
X005630Y019780D01*
X005630Y018080D01*
X005632Y018063D01*
X005636Y018046D01*
X005643Y018030D01*
X005653Y018016D01*
X005666Y018003D01*
X005680Y017993D01*
X005696Y017986D01*
X005713Y017982D01*
X005730Y017980D01*
X006330Y017980D01*
X006347Y017982D01*
X006364Y017986D01*
X006380Y017993D01*
X006394Y018003D01*
X006407Y018016D01*
X006417Y018030D01*
X006424Y018046D01*
X006428Y018063D01*
X006430Y018080D01*
X006430Y019780D01*
X006428Y019797D01*
X006424Y019814D01*
X006417Y019830D01*
X006407Y019844D01*
X006394Y019857D01*
X006380Y019867D01*
X006364Y019874D01*
X006347Y019878D01*
X006330Y019880D01*
X005784Y021250D02*
X005784Y021690D01*
D14*
X006931Y019820D03*
X005482Y012078D03*
D15*
X007987Y019925D03*
D16*
X005244Y016341D03*
X004771Y016341D03*
D17*
X005007Y016341D03*
D18*
X004508Y016170D02*
X004311Y016170D01*
X004508Y016170D02*
X004508Y018532D01*
X004311Y018532D01*
X004114Y017843D02*
X004114Y016859D01*
X003524Y016878D02*
X003524Y017843D01*
X003327Y018532D02*
X003130Y018532D01*
X003130Y016170D01*
X003327Y016170D01*
X003328Y019401D02*
X003131Y019401D01*
X003131Y021763D01*
X003328Y021763D01*
X003525Y021075D02*
X003525Y020090D01*
X004116Y020090D02*
X004116Y021055D01*
X004313Y021763D02*
X004509Y021763D01*
X004509Y019401D01*
X004313Y019401D01*
D19*
X011644Y014468D02*
X011668Y014468D01*
X012405Y015366D02*
X012405Y015390D01*
D20*
X007004Y021350D02*
X006983Y021352D01*
X006963Y021357D01*
X006944Y021366D01*
X006927Y021378D01*
X006912Y021393D01*
X006900Y021410D01*
X006891Y021429D01*
X006886Y021449D01*
X006884Y021470D01*
X006886Y021491D01*
X006891Y021511D01*
X006900Y021530D01*
X006912Y021547D01*
X006927Y021562D01*
X006944Y021574D01*
X006963Y021583D01*
X006983Y021588D01*
X007004Y021590D01*
D21*
X005937Y012386D02*
X005937Y012286D01*
X005837Y012386D01*
X005812Y012386D01*
X005786Y012361D01*
X005786Y012311D01*
X005812Y012286D01*
X005786Y012188D02*
X005937Y012188D01*
X005937Y012138D02*
X005937Y012238D01*
X005837Y012138D02*
X005786Y012188D01*
X005812Y012091D02*
X005862Y012091D01*
X005887Y012066D01*
X005887Y011991D01*
X005937Y011991D02*
X005786Y011991D01*
X005786Y012066D01*
X005812Y012091D01*
X005887Y012041D02*
X005937Y012091D01*
M02*
