G04 #@! TF.GenerationSoftware,KiCad,Pcbnew,7.0.10-7.0.10~ubuntu20.04.1*
G04 #@! TF.CreationDate,2024-06-08T20:32:56+02:00*
G04 #@! TF.ProjectId,MySMotherboard,4d79534d-6f74-4686-9572-626f6172642e,1.4*
G04 #@! TF.SameCoordinates,Original*
G04 #@! TF.FileFunction,Copper,L2,Bot*
G04 #@! TF.FilePolarity,Positive*
%FSLAX46Y46*%
G04 Gerber Fmt 4.6, Leading zero omitted, Abs format (unit mm)*
G04 Created by KiCad (PCBNEW 7.0.10-7.0.10~ubuntu20.04.1) date 2024-06-08 20:32:56*
%MOMM*%
%LPD*%
G01*
G04 APERTURE LIST*
G04 Aperture macros list*
%AMRoundRect*
0 Rectangle with rounded corners*
0 $1 Rounding radius*
0 $2 $3 $4 $5 $6 $7 $8 $9 X,Y pos of 4 corners*
0 Add a 4 corners polygon primitive as box body*
4,1,4,$2,$3,$4,$5,$6,$7,$8,$9,$2,$3,0*
0 Add four circle primitives for the rounded corners*
1,1,$1+$1,$2,$3*
1,1,$1+$1,$4,$5*
1,1,$1+$1,$6,$7*
1,1,$1+$1,$8,$9*
0 Add four rect primitives between the rounded corners*
20,1,$1+$1,$2,$3,$4,$5,0*
20,1,$1+$1,$4,$5,$6,$7,0*
20,1,$1+$1,$6,$7,$8,$9,0*
20,1,$1+$1,$8,$9,$2,$3,0*%
%AMRotRect*
0 Rectangle, with rotation*
0 The origin of the aperture is its center*
0 $1 length*
0 $2 width*
0 $3 Rotation angle, in degrees counterclockwise*
0 Add horizontal line*
21,1,$1,$2,0,0,$3*%
G04 Aperture macros list end*
G04 #@! TA.AperFunction,ComponentPad*
%ADD10R,1.700000X1.700000*%
G04 #@! TD*
G04 #@! TA.AperFunction,ComponentPad*
%ADD11RoundRect,0.250000X0.350000X0.625000X-0.350000X0.625000X-0.350000X-0.625000X0.350000X-0.625000X0*%
G04 #@! TD*
G04 #@! TA.AperFunction,ComponentPad*
%ADD12O,1.200000X1.750000*%
G04 #@! TD*
G04 #@! TA.AperFunction,ComponentPad*
%ADD13O,1.700000X1.700000*%
G04 #@! TD*
G04 #@! TA.AperFunction,SMDPad,CuDef*
%ADD14RotRect,2.600000X3.600000X125.000000*%
G04 #@! TD*
G04 #@! TA.AperFunction,SMDPad,CuDef*
%ADD15RoundRect,0.250000X-1.000000X-0.650000X1.000000X-0.650000X1.000000X0.650000X-1.000000X0.650000X0*%
G04 #@! TD*
G04 #@! TA.AperFunction,SMDPad,CuDef*
%ADD16RoundRect,0.250001X-0.462499X-0.624999X0.462499X-0.624999X0.462499X0.624999X-0.462499X0.624999X0*%
G04 #@! TD*
G04 #@! TA.AperFunction,ComponentPad*
%ADD17C,2.205000*%
G04 #@! TD*
G04 #@! TA.AperFunction,ComponentPad*
%ADD18R,2.200000X2.200000*%
G04 #@! TD*
G04 #@! TA.AperFunction,ComponentPad*
%ADD19C,2.200000*%
G04 #@! TD*
G04 #@! TA.AperFunction,ViaPad*
%ADD20C,0.762000*%
G04 #@! TD*
G04 #@! TA.AperFunction,ViaPad*
%ADD21C,0.800000*%
G04 #@! TD*
G04 #@! TA.AperFunction,ViaPad*
%ADD22C,0.600000*%
G04 #@! TD*
G04 #@! TA.AperFunction,Conductor*
%ADD23C,0.406400*%
G04 #@! TD*
G04 #@! TA.AperFunction,Conductor*
%ADD24C,0.400000*%
G04 #@! TD*
G04 #@! TA.AperFunction,Conductor*
%ADD25C,0.203200*%
G04 #@! TD*
G04 #@! TA.AperFunction,Conductor*
%ADD26C,0.200000*%
G04 #@! TD*
G04 APERTURE END LIST*
D10*
X143125000Y-125450000D03*
D11*
X159550000Y-85425000D03*
D12*
X157550000Y-85425000D03*
D10*
X136750000Y-102350000D03*
D13*
X139290000Y-102350000D03*
X136750000Y-104890000D03*
X139290000Y-104890000D03*
X136750000Y-107430000D03*
X139290000Y-107430000D03*
X136750000Y-109970000D03*
X139290000Y-109970000D03*
X136750000Y-112510000D03*
X139290000Y-112510000D03*
X136750000Y-115050000D03*
X139290000Y-115050000D03*
X136750000Y-117590000D03*
X139290000Y-117590000D03*
X136750000Y-120130000D03*
X139290000Y-120130000D03*
X136750000Y-122670000D03*
X139290000Y-122670000D03*
X136750000Y-125210000D03*
X139290000Y-125210000D03*
D14*
X140100000Y-85000000D03*
X156905790Y-109001154D03*
D15*
X145425000Y-119175000D03*
X149425000Y-119175000D03*
D16*
X151962500Y-116850000D03*
X154937500Y-116850000D03*
X151962500Y-119900000D03*
X154937500Y-119900000D03*
D17*
X151550000Y-85675000D03*
X151550000Y-123645000D03*
D18*
X159525000Y-114260000D03*
D19*
X159525000Y-116800000D03*
X159525000Y-119340000D03*
X159525000Y-121880000D03*
D15*
X148275000Y-113975000D03*
X152275000Y-113975000D03*
D20*
X145356581Y-94818579D03*
D21*
X154700000Y-110375000D03*
D20*
X161015567Y-109635526D03*
D21*
X141250000Y-88850000D03*
X154325000Y-86725000D03*
D20*
X145803621Y-98720019D03*
X157528262Y-83256500D03*
D21*
X158110300Y-110935300D03*
D20*
X157914340Y-101788341D03*
X149450000Y-124275000D03*
D21*
X150275000Y-88550000D03*
D20*
X142166340Y-97074100D03*
X160982662Y-89725000D03*
X145051781Y-124404500D03*
X160982659Y-99918900D03*
X157182821Y-104978579D03*
X145756400Y-111131224D03*
X155536900Y-93822900D03*
D21*
X150450000Y-110850000D03*
D20*
X148900000Y-92949141D03*
X153626821Y-93457141D03*
D22*
X154725000Y-114150000D03*
D21*
X149847600Y-112727400D03*
X147250000Y-88300000D03*
D20*
X155801062Y-86670260D03*
X152123143Y-83967700D03*
X141902181Y-93457141D03*
X159174181Y-90592019D03*
X157365700Y-96789619D03*
X151716740Y-103515541D03*
X155780740Y-95245300D03*
D22*
X142025000Y-120825000D03*
D20*
X146210021Y-103292019D03*
X149684740Y-100467541D03*
X145141598Y-107428527D03*
D22*
X140900000Y-122025000D03*
X140950000Y-120125000D03*
D20*
X153708100Y-96505141D03*
X145722340Y-104287700D03*
D22*
X143975000Y-120550000D03*
D20*
X145681700Y-101300660D03*
X154764740Y-95204660D03*
D22*
X153175000Y-105250000D03*
X154450000Y-97850000D03*
D20*
X155569861Y-97135862D03*
D22*
X155075000Y-104525000D03*
D20*
X140235940Y-101138100D03*
X139077700Y-99471860D03*
X141597381Y-112029619D03*
X158097218Y-99939219D03*
X157365700Y-98354260D03*
X141109700Y-113187860D03*
X156390340Y-98354260D03*
X140967459Y-119121300D03*
X153017218Y-99207700D03*
D22*
X148950000Y-117650000D03*
X143000000Y-105925000D03*
X144175000Y-112475000D03*
D20*
X147998181Y-97480500D03*
X147469859Y-98333941D03*
D22*
X140825000Y-107150000D03*
X140800000Y-108700000D03*
X148600000Y-120825000D03*
X143025000Y-112275000D03*
D20*
X138569700Y-106075860D03*
D22*
X143650000Y-111425000D03*
X158075000Y-105625000D03*
D20*
X139951459Y-94757619D03*
X143873218Y-104775379D03*
X144421862Y-96728660D03*
X151700000Y-93685741D03*
X142850000Y-114525000D03*
X151554181Y-95712660D03*
X145791495Y-115992390D03*
X144458400Y-115179219D03*
X151554181Y-94737300D03*
X150721062Y-101117779D03*
X140784581Y-103759379D03*
X139098021Y-98496500D03*
X142300000Y-107125000D03*
D22*
X153075000Y-120975000D03*
X153275000Y-117475000D03*
D23*
X160982659Y-99918900D02*
X160982662Y-99918903D01*
D24*
X139290000Y-104890000D02*
X141346240Y-104890000D01*
X149895000Y-123645000D02*
X151550000Y-123645000D01*
X148275000Y-115176166D02*
X151573834Y-118475000D01*
X158110300Y-110935300D02*
X158110300Y-110205664D01*
X158110300Y-110205664D02*
X156905790Y-109001154D01*
D23*
X141597381Y-102540179D02*
X142613381Y-101524179D01*
X161028200Y-112802338D02*
X161028200Y-122621800D01*
X160982662Y-109668431D02*
X160982662Y-112756800D01*
X154125000Y-123850000D02*
X151639100Y-123850000D01*
D24*
X141250000Y-88850000D02*
X145635945Y-88850000D01*
D23*
X139362181Y-105080179D02*
X139298540Y-104887700D01*
X157914340Y-101788341D02*
X158259781Y-102133779D01*
D24*
X154700000Y-110375000D02*
X155531944Y-110375000D01*
D23*
X157284421Y-104795700D02*
X157182821Y-104978579D01*
X160982662Y-99918903D02*
X160982662Y-109602621D01*
D25*
X143243300Y-97439860D02*
X143141700Y-97622741D01*
X143243300Y-96931860D02*
X143243300Y-97439860D01*
D23*
X142714981Y-97622741D02*
X143141700Y-97622741D01*
D24*
X151573834Y-118475000D02*
X152575000Y-118475000D01*
D23*
X158259781Y-103820341D02*
X157284421Y-104795700D01*
X149320500Y-124404500D02*
X149450000Y-124275000D01*
D24*
X155531944Y-110375000D02*
X156905790Y-109001154D01*
D23*
X160982662Y-89725000D02*
X160982662Y-91775000D01*
D24*
X146938345Y-87547600D02*
X149272600Y-87547600D01*
D23*
X161028200Y-122621800D02*
X159800000Y-123850000D01*
D24*
X149272600Y-87547600D02*
X150275000Y-88550000D01*
D23*
X142613381Y-98902900D02*
X142613381Y-97805619D01*
D24*
X141346240Y-104890000D02*
X141597381Y-104638859D01*
D23*
X159800000Y-123850000D02*
X154125000Y-123850000D01*
D24*
X145425000Y-119175000D02*
X149895000Y-123645000D01*
D23*
X145803621Y-98720019D02*
X145620740Y-98902900D01*
X160982662Y-112756800D02*
X161028200Y-112802338D01*
X142166340Y-97074100D02*
X142714981Y-97622741D01*
X145620740Y-98902900D02*
X142613381Y-98902900D01*
X160982662Y-98862260D02*
X160982662Y-91775000D01*
D25*
X145356581Y-94818579D02*
X143243300Y-96931860D01*
D24*
X160957662Y-91800000D02*
X160982662Y-91775000D01*
D23*
X157528262Y-83256500D02*
X157528262Y-85369779D01*
D24*
X154325000Y-86725000D02*
X152500000Y-88550000D01*
D23*
X142613381Y-101524179D02*
X142613381Y-98902900D01*
X157528262Y-85369779D02*
X157527700Y-85371100D01*
X139301218Y-104876979D02*
X139298540Y-104887700D01*
X160982659Y-99918900D02*
X160982659Y-98862260D01*
X145051781Y-124404500D02*
X149320500Y-124404500D01*
X141597381Y-103860979D02*
X141597381Y-102540179D01*
X151639100Y-123850000D02*
X151277700Y-123488600D01*
X160982662Y-109602621D02*
X161015567Y-109635526D01*
X161015567Y-109635526D02*
X160982662Y-109668431D01*
D24*
X141597381Y-104638859D02*
X141597381Y-103860979D01*
X153825000Y-119725000D02*
X153825000Y-123550000D01*
X152575000Y-118475000D02*
X153825000Y-119725000D01*
X152500000Y-88550000D02*
X150275000Y-88550000D01*
X153825000Y-123550000D02*
X154125000Y-123850000D01*
D23*
X142613381Y-97805619D02*
X142714981Y-97622741D01*
X158259781Y-102133779D02*
X158259781Y-103820341D01*
D24*
X148275000Y-113975000D02*
X148275000Y-115176166D01*
D23*
X160982659Y-98862260D02*
X160982662Y-98862260D01*
D24*
X145635945Y-88850000D02*
X146938345Y-87547600D01*
D23*
X152570181Y-92949141D02*
X152753062Y-93050741D01*
X158889700Y-105985300D02*
X158889700Y-97175700D01*
X148900000Y-92949141D02*
X152570181Y-92949141D01*
X151458394Y-109850000D02*
X154153194Y-107155200D01*
X153159462Y-93457141D02*
X153626821Y-93457141D01*
X148511562Y-109850000D02*
X150450000Y-109850000D01*
D24*
X150450000Y-110850000D02*
X150450000Y-109850000D01*
D23*
X156010552Y-106475000D02*
X158400000Y-106475000D01*
X155330352Y-107155200D02*
X156010552Y-106475000D01*
X158889700Y-97175700D02*
X155536900Y-93822900D01*
X158400000Y-106475000D02*
X158889700Y-105985300D01*
X150450000Y-109850000D02*
X151458394Y-109850000D01*
X154153194Y-107155200D02*
X155330352Y-107155200D01*
X152753062Y-93050741D02*
X153159462Y-93457141D01*
X145756400Y-111131224D02*
X147230338Y-111131224D01*
X147230338Y-111131224D02*
X148511562Y-109850000D01*
X150355300Y-83073619D02*
X151290021Y-84008341D01*
D24*
X160273340Y-101726660D02*
X160275000Y-101725000D01*
X154725000Y-112502000D02*
X150073000Y-112502000D01*
D23*
X140114021Y-84983700D02*
X140096887Y-84992244D01*
D24*
X160249259Y-86124259D02*
X159550000Y-85425000D01*
D23*
X141719300Y-83256500D02*
X140114021Y-84861779D01*
X151290021Y-85512019D02*
X151277700Y-85518600D01*
X141820900Y-83073619D02*
X150355300Y-83073619D01*
D24*
X160273340Y-111251660D02*
X160273340Y-101726660D01*
X160275000Y-101725000D02*
X160249259Y-101699259D01*
X150073000Y-112502000D02*
X149847600Y-112727400D01*
D23*
X151290021Y-84008341D02*
X151290021Y-85512019D01*
D24*
X159023000Y-112502000D02*
X160273340Y-111251660D01*
D23*
X140114021Y-84861779D02*
X140114021Y-84983700D01*
D24*
X160249259Y-101699259D02*
X160249259Y-86124259D01*
X154725000Y-112502000D02*
X159023000Y-112502000D01*
D23*
X141719300Y-83256500D02*
X141820900Y-83073619D01*
D26*
X154725000Y-114150000D02*
X154725000Y-112502000D01*
D23*
X147510500Y-89982419D02*
X147286981Y-89758900D01*
D24*
X147250000Y-88300000D02*
X147250000Y-89721919D01*
X147250000Y-89721919D02*
X147286981Y-89758900D01*
D23*
X155801062Y-86670260D02*
X152488900Y-89982419D01*
X152488900Y-89982419D02*
X147510500Y-89982419D01*
X148628100Y-85959060D02*
X146961862Y-85959060D01*
D24*
X153052500Y-84897057D02*
X153052500Y-86297356D01*
X152172356Y-87177500D02*
X149846540Y-87177500D01*
X153052500Y-86297356D02*
X152172356Y-87177500D01*
X152123143Y-83967700D02*
X153052500Y-84897057D01*
D23*
X146961862Y-85959060D02*
X145600421Y-87320500D01*
X145315940Y-87523700D02*
X136009381Y-87523700D01*
X145417540Y-87422100D02*
X145315940Y-87523700D01*
X145417540Y-87422100D02*
X145600421Y-87320500D01*
X136740900Y-102336979D02*
X136758540Y-102347700D01*
X136009381Y-101605460D02*
X136009381Y-87523700D01*
X149745700Y-87076660D02*
X148628100Y-85959060D01*
X136740900Y-102336979D02*
X136009381Y-101605460D01*
D24*
X149846540Y-87177500D02*
X149745700Y-87076660D01*
D23*
X152123140Y-83967700D02*
X152123143Y-83967700D01*
D24*
X159150000Y-90616200D02*
X159174181Y-90592019D01*
X159250000Y-90516200D02*
X159174181Y-90592019D01*
D23*
X159174181Y-90592019D02*
X149705062Y-90592019D01*
X146839940Y-93457141D02*
X141902181Y-93457141D01*
X149705062Y-90592019D02*
X146839940Y-93457141D01*
D25*
X151716740Y-99512500D02*
X154906981Y-96322260D01*
X151716740Y-103515541D02*
X151716740Y-99512500D01*
X154906981Y-96322260D02*
X156898340Y-96322260D01*
X156898340Y-96322260D02*
X157365700Y-96789619D01*
X155780740Y-95895541D02*
X154480259Y-95895541D01*
X149481540Y-99695379D02*
X148221700Y-100955219D01*
X155780740Y-95895541D02*
X155780740Y-95245300D01*
D26*
X142025000Y-121720244D02*
X141075244Y-122670000D01*
D25*
X147774662Y-101016179D02*
X146758662Y-102032179D01*
X153200100Y-95631379D02*
X149481540Y-99349941D01*
X146758662Y-102032179D02*
X146758662Y-102113460D01*
X149481540Y-99349941D02*
X149481540Y-99695379D01*
X146758662Y-102113460D02*
X146210021Y-102662100D01*
X154216100Y-95631379D02*
X153200100Y-95631379D01*
X148140421Y-101016179D02*
X148221700Y-100955219D01*
D26*
X142025000Y-120825000D02*
X142025000Y-121720244D01*
D25*
X146210021Y-102662100D02*
X146210021Y-103292019D01*
X148140421Y-101016179D02*
X147774662Y-101016179D01*
X154480259Y-95895541D02*
X154216100Y-95631379D01*
D26*
X141075244Y-122670000D02*
X139290000Y-122670000D01*
D25*
X149491700Y-100274500D02*
X152001218Y-97764979D01*
X148628100Y-104978579D02*
X148628100Y-101138100D01*
X145234662Y-106136819D02*
X145295618Y-106055541D01*
X152082500Y-97704019D02*
X153281381Y-96505141D01*
X147551140Y-106055541D02*
X148628100Y-104978579D01*
X148628100Y-101138100D02*
X149491700Y-100274500D01*
X145141598Y-107428527D02*
X145234662Y-107335463D01*
X145234662Y-107335463D02*
X145234662Y-106136819D01*
X149562821Y-100345619D02*
X149491700Y-100274500D01*
X152082500Y-97704019D02*
X152001218Y-97764979D01*
D26*
X140395000Y-121520000D02*
X137900000Y-121520000D01*
D25*
X145295618Y-106055541D02*
X147551140Y-106055541D01*
X153281381Y-96505141D02*
X153708100Y-96505141D01*
X149684740Y-100467541D02*
X149562821Y-100345619D01*
D26*
X137900000Y-121520000D02*
X136750000Y-122670000D01*
X140900000Y-122025000D02*
X140395000Y-121520000D01*
X140950000Y-120125000D02*
X140950000Y-121975000D01*
X140950000Y-121975000D02*
X140900000Y-122025000D01*
D25*
X145803621Y-102723060D02*
X145803621Y-102479219D01*
X145519140Y-103007541D02*
X145803621Y-102723060D01*
X153037540Y-95204660D02*
X149075140Y-99167060D01*
X147977859Y-100609779D02*
X147591781Y-100609779D01*
D26*
X139766346Y-126360000D02*
X137900000Y-126360000D01*
D25*
X146392900Y-101849300D02*
X146433540Y-101768019D01*
X145681700Y-101300660D02*
X145966181Y-101300660D01*
X145966181Y-101300660D02*
X146433540Y-101768019D01*
X145519140Y-104084500D02*
X145519140Y-103007541D01*
X146331940Y-101930579D02*
X146392900Y-101849300D01*
X149075140Y-99512500D02*
X147977859Y-100609779D01*
D26*
X143975000Y-122151346D02*
X139766346Y-126360000D01*
D25*
X146331940Y-101950900D02*
X146331940Y-101930579D01*
D26*
X143975000Y-120550000D02*
X143975000Y-122151346D01*
D25*
X154764740Y-95204660D02*
X153037540Y-95204660D01*
X145803621Y-102479219D02*
X146331940Y-101950900D01*
X147591781Y-100609779D02*
X146433540Y-101768019D01*
X149075140Y-99167060D02*
X149075140Y-99512500D01*
D26*
X137900000Y-126360000D02*
X136750000Y-125210000D01*
D25*
X145722340Y-104287700D02*
X145519140Y-104084500D01*
D26*
X154450000Y-97850000D02*
X154450000Y-103975000D01*
X154450000Y-103975000D02*
X153175000Y-105250000D01*
X155125000Y-104350000D02*
X155125000Y-104475000D01*
X155125000Y-97580723D02*
X155125000Y-104350000D01*
X155569861Y-97135862D02*
X155125000Y-97580723D01*
D25*
X140235940Y-101138100D02*
X139077700Y-99979860D01*
X139077700Y-99979860D02*
X139077700Y-99471860D01*
X157995621Y-100691060D02*
X158097218Y-100650419D01*
D26*
X151252158Y-108925000D02*
X146937200Y-108925000D01*
D25*
X145823940Y-110038260D02*
X145397221Y-110038260D01*
D26*
X153926079Y-106251079D02*
X151252158Y-108925000D01*
D25*
X145397221Y-110038260D02*
X145234662Y-110200819D01*
X142694662Y-110891700D02*
X141597381Y-111988979D01*
X156491940Y-102215060D02*
X157934662Y-100772341D01*
X141597381Y-111988979D02*
X141597381Y-112029619D01*
X144604740Y-110810419D02*
X145153381Y-110261779D01*
X146921221Y-108940979D02*
X145823940Y-110038260D01*
D26*
X155163631Y-106251079D02*
X153926079Y-106251079D01*
D25*
X142755621Y-110810419D02*
X144604740Y-110810419D01*
D26*
X156491940Y-102215060D02*
X156491940Y-104922770D01*
X146937200Y-108925000D02*
X146921221Y-108940979D01*
D25*
X157934662Y-100772341D02*
X157995621Y-100691060D01*
X142694662Y-110891700D02*
X142755621Y-110810419D01*
X145234662Y-110200819D02*
X145153381Y-110261779D01*
X158097218Y-99939219D02*
X158097218Y-100650419D01*
D26*
X156491940Y-104922770D02*
X155163631Y-106251079D01*
D25*
X142674340Y-110404019D02*
X144401540Y-110404019D01*
D26*
X155069540Y-105880460D02*
X153834250Y-105880460D01*
X151180131Y-108534579D02*
X146738340Y-108534579D01*
D25*
X156105859Y-99614100D02*
X157365700Y-98354260D01*
D26*
X153834250Y-105880460D02*
X151180131Y-108534579D01*
D25*
X141617700Y-111338741D02*
X142593059Y-110363379D01*
X155069540Y-105880460D02*
X156105859Y-104844141D01*
X144848581Y-109977300D02*
X144990818Y-109835060D01*
X144401540Y-110404019D02*
X144767300Y-110038260D01*
X144767300Y-110038260D02*
X144848581Y-109977300D01*
X156105859Y-104844141D02*
X156105859Y-99614100D01*
X145722340Y-109550579D02*
X146738340Y-108534579D01*
X141109700Y-111338741D02*
X141617700Y-111338741D01*
X144990818Y-109835060D02*
X145072100Y-109774100D01*
X145295621Y-109550579D02*
X145722340Y-109550579D01*
X141109700Y-113187860D02*
X140825221Y-112903379D01*
X142593059Y-110363379D02*
X142674340Y-110404019D01*
X140825221Y-112903379D02*
X140825221Y-111623219D01*
X145072100Y-109774100D02*
X145295621Y-109550579D01*
X140825221Y-111623219D02*
X141109700Y-111338741D01*
X155679140Y-99451541D02*
X155679140Y-100548819D01*
X155679140Y-100548819D02*
X155618181Y-100630100D01*
X145539462Y-109144179D02*
X143405862Y-109144179D01*
X155618181Y-100630100D02*
X155618181Y-100873941D01*
X155658821Y-100955219D02*
X155658821Y-104766179D01*
X140500000Y-118653841D02*
X140967459Y-119121300D01*
X140474700Y-113450886D02*
X140500000Y-113476186D01*
X142471140Y-109388019D02*
X140474700Y-111384459D01*
X153750000Y-105500000D02*
X151121821Y-108128179D01*
X155618181Y-100873941D02*
X155658821Y-100955219D01*
X151121821Y-108128179D02*
X146555462Y-108128179D01*
X156390340Y-98354260D02*
X156390340Y-98740341D01*
X140474700Y-111384459D02*
X140474700Y-113450886D01*
X154925000Y-105500000D02*
X153750000Y-105500000D01*
X140500000Y-113476186D02*
X140500000Y-118653841D01*
X143405862Y-109144179D02*
X143162021Y-109388019D01*
X156390340Y-98740341D02*
X155679140Y-99451541D01*
X143162021Y-109388019D02*
X142471140Y-109388019D01*
X155658821Y-104766179D02*
X154925000Y-105500000D01*
X146555462Y-108128179D02*
X145539462Y-109144179D01*
X141435206Y-109956979D02*
X142430885Y-108961300D01*
X139504421Y-109956979D02*
X141435206Y-109956979D01*
X153464262Y-101605460D02*
X153078181Y-101219379D01*
X153078181Y-101219379D02*
X153017218Y-101138100D01*
X139301218Y-109956979D02*
X139298540Y-109967700D01*
X147876259Y-106908979D02*
X149725381Y-105059860D01*
X149725381Y-105059860D02*
X149725381Y-104490900D01*
X147104100Y-106990260D02*
X147205700Y-106990260D01*
X139298540Y-109967700D02*
X139504421Y-109956979D01*
X153017218Y-101138100D02*
X153017218Y-99207700D01*
X142430885Y-108961300D02*
X142999459Y-108961300D01*
X149725381Y-104490900D02*
X150009859Y-104206419D01*
X153078181Y-104206419D02*
X153464262Y-103820341D01*
X145356581Y-108737779D02*
X147104100Y-106990260D01*
X153464262Y-103820341D02*
X153464262Y-101605460D01*
X139402818Y-109956979D02*
X139298540Y-109967700D01*
X142999459Y-108961300D02*
X143222981Y-108737779D01*
X143222981Y-108737779D02*
X145356581Y-108737779D01*
X150009859Y-104206419D02*
X153078181Y-104206419D01*
X147205700Y-106990260D02*
X147266659Y-106908979D01*
X147266659Y-106908979D02*
X147876259Y-106908979D01*
D26*
X145466277Y-117275000D02*
X143825000Y-115633723D01*
D25*
X147652740Y-99756341D02*
X148262340Y-99146741D01*
D26*
X148950000Y-117650000D02*
X148575000Y-117275000D01*
D25*
X139301218Y-107416979D02*
X139298540Y-107427700D01*
X140256262Y-106441619D02*
X141820900Y-106441619D01*
X144015462Y-102174419D02*
X144015459Y-102276019D01*
X148262340Y-97744660D02*
X147998181Y-97480500D01*
X147266659Y-99756341D02*
X147652740Y-99756341D01*
D26*
X148575000Y-117275000D02*
X145466277Y-117275000D01*
X143825000Y-115633723D02*
X143825000Y-112825000D01*
X148950000Y-117850000D02*
X148925000Y-117875000D01*
D25*
X139362181Y-107335700D02*
X139298540Y-107427700D01*
X147165062Y-99796979D02*
X147266659Y-99756341D01*
X143446500Y-104226741D02*
X143446500Y-102844979D01*
X148262340Y-99146741D02*
X148262340Y-97744660D01*
X141820900Y-106441619D02*
X142613381Y-105649141D01*
X142613381Y-105059860D02*
X143446500Y-104226741D01*
D26*
X143825000Y-112825000D02*
X144175000Y-112475000D01*
D25*
X143934181Y-102336979D02*
X144015459Y-102276019D01*
X144015462Y-102174419D02*
X144015462Y-101260019D01*
D26*
X148950000Y-117650000D02*
X148950000Y-117850000D01*
X143000000Y-105925000D02*
X142889240Y-105925000D01*
D25*
X147144740Y-99817300D02*
X147165062Y-99796979D01*
D26*
X142889240Y-105925000D02*
X142613381Y-105649141D01*
D25*
X143446500Y-102844979D02*
X143934181Y-102357300D01*
X143934181Y-102357300D02*
X143934181Y-102336979D01*
X144015462Y-101260019D02*
X145458181Y-99817300D01*
X139362181Y-107335700D02*
X140256262Y-106441619D01*
X145458181Y-99817300D02*
X147144740Y-99817300D01*
X142613381Y-105649141D02*
X142613381Y-105059860D01*
X139707621Y-106014900D02*
X139626340Y-106075860D01*
D26*
X143483400Y-115754571D02*
X145703829Y-117975000D01*
X143483400Y-112733400D02*
X143483400Y-115754571D01*
D25*
X143609062Y-101077141D02*
X145275300Y-99410900D01*
X143609062Y-101320979D02*
X143609062Y-101077141D01*
X147469859Y-98333941D02*
X147469859Y-98963860D01*
X143141700Y-101788341D02*
X143060421Y-101849300D01*
D26*
X140800000Y-108700000D02*
X140800000Y-107175000D01*
D25*
X142186662Y-104795700D02*
X142186662Y-103739060D01*
X142206981Y-104816019D02*
X142186662Y-104795700D01*
X138569700Y-106075860D02*
X139626340Y-106075860D01*
X139707621Y-106014900D02*
X141658340Y-106014900D01*
X146961862Y-99410900D02*
X147368262Y-99004500D01*
D26*
X147450000Y-118765256D02*
X147450000Y-119675000D01*
X145703829Y-117975000D02*
X146659744Y-117975000D01*
X146659744Y-117975000D02*
X147450000Y-118765256D01*
D25*
X143141700Y-101788341D02*
X143609062Y-101320979D01*
X147368262Y-99004500D02*
X147469859Y-98963860D01*
D26*
X143025000Y-112275000D02*
X143483400Y-112733400D01*
X147450000Y-119675000D02*
X148600000Y-120825000D01*
X140800000Y-107175000D02*
X140825000Y-107150000D01*
D25*
X145275300Y-99410900D02*
X146961862Y-99410900D01*
X142206981Y-105466260D02*
X142206981Y-104816019D01*
X142125700Y-103657779D02*
X142125700Y-102784019D01*
X142125700Y-102784019D02*
X143060421Y-101849300D01*
X142125700Y-103657779D02*
X142186662Y-103739060D01*
X141658340Y-106014900D02*
X142206981Y-105466260D01*
D26*
X153975000Y-106725000D02*
X151410100Y-109289900D01*
X144852841Y-111139019D02*
X143935981Y-111139019D01*
X143935981Y-111139019D02*
X143650000Y-111425000D01*
X145625000Y-110366860D02*
X144852841Y-111139019D01*
X155152158Y-106725000D02*
X156252158Y-105625000D01*
X145960051Y-110366860D02*
X145625000Y-110366860D01*
X147039900Y-109289900D02*
X147038455Y-109288455D01*
X153975000Y-106725000D02*
X155152158Y-106725000D01*
X156252158Y-105625000D02*
X158075000Y-105625000D01*
X147038455Y-109288455D02*
X145960051Y-110366860D01*
X151410100Y-109289900D02*
X147039900Y-109289900D01*
D25*
X137901600Y-103598400D02*
X138100000Y-103400000D01*
X137901600Y-107907009D02*
X137901600Y-103598400D01*
X136801859Y-109875697D02*
X137878818Y-108798738D01*
X137878818Y-108798738D02*
X137878818Y-107929791D01*
X137878818Y-107929791D02*
X137901600Y-107907009D01*
X136758540Y-109967700D02*
X136801859Y-109875697D01*
X138100000Y-96609078D02*
X139951459Y-94757619D01*
X138100000Y-103400000D02*
X138100000Y-96609078D01*
X149826981Y-93477460D02*
X148993862Y-94310579D01*
X144279621Y-102621460D02*
X144198340Y-102682419D01*
X147327621Y-100223700D02*
X147429218Y-100183060D01*
X148282662Y-96647379D02*
X148221700Y-96728660D01*
X145641062Y-100223700D02*
X147327621Y-100223700D01*
X144442181Y-101422579D02*
X145641062Y-100223700D01*
X148689062Y-98902900D02*
X148668740Y-98984179D01*
X140142300Y-125207700D02*
X139298540Y-125207700D01*
X142850000Y-114525000D02*
X142675000Y-114700000D01*
X142675000Y-122675000D02*
X140142300Y-125207700D01*
X144198340Y-102682419D02*
X143873218Y-103007541D01*
X142675000Y-114700000D02*
X142675000Y-122675000D01*
X148668740Y-99329619D02*
X147815300Y-100183060D01*
X144442181Y-102458900D02*
X144442181Y-101422579D01*
X148689062Y-98902900D02*
X148689062Y-97175700D01*
X148689062Y-97175700D02*
X148302981Y-96789619D01*
X144421862Y-96728660D02*
X148221700Y-96728660D01*
X147815300Y-100183060D02*
X147429218Y-100183060D01*
X151491719Y-93477460D02*
X149826981Y-93477460D01*
X148993862Y-94310579D02*
X148932900Y-94391860D01*
X143873218Y-103007541D02*
X143873218Y-104775379D01*
X148932900Y-94391860D02*
X148282662Y-95042100D01*
X148302981Y-96789619D02*
X148221700Y-96728660D01*
X148668740Y-98984179D02*
X148668740Y-99329619D01*
X144279621Y-102621460D02*
X144442181Y-102458900D01*
X148282662Y-95042100D02*
X148282662Y-96647379D01*
X151700000Y-93685741D02*
X151491719Y-93477460D01*
X159377381Y-106604179D02*
X159397700Y-106685460D01*
X155252421Y-93132019D02*
X155821381Y-93132019D01*
X156288740Y-93863541D02*
X158666181Y-96240979D01*
X154785062Y-94087060D02*
X154785062Y-93599379D01*
X153890981Y-94798260D02*
X153931621Y-94757619D01*
X153931621Y-94757619D02*
X154012900Y-94798260D01*
X156105862Y-93396179D02*
X156227781Y-93518100D01*
X158666181Y-96261300D02*
X159316421Y-96911541D01*
X155821381Y-93132019D02*
X156004262Y-93314900D01*
X159397700Y-106502579D02*
X159377381Y-106604179D01*
X159377381Y-97033460D02*
X159397700Y-97135060D01*
X159397700Y-97135060D02*
X159397700Y-106502579D01*
X151940262Y-95712660D02*
X152854662Y-94798260D01*
X159316421Y-96911541D02*
X159316421Y-96952179D01*
X156227781Y-93782260D02*
X156288740Y-93863541D01*
X159397700Y-106685460D02*
X159397700Y-108880019D01*
D26*
X145791495Y-113533505D02*
X147580145Y-111744855D01*
D25*
X158666181Y-96240979D02*
X158666181Y-96261300D01*
X151554181Y-95712660D02*
X151940262Y-95712660D01*
X154785062Y-93599379D02*
X155252421Y-93132019D01*
D26*
X159425913Y-111032769D02*
X159425913Y-108908232D01*
X159425913Y-108908232D02*
X159397700Y-108880019D01*
D25*
X154012900Y-94798260D02*
X154073862Y-94798260D01*
X154073862Y-94798260D02*
X154785062Y-94087060D01*
X156227781Y-93518100D02*
X156227781Y-93782260D01*
X156044900Y-93314900D02*
X156105862Y-93396179D01*
X156004262Y-93314900D02*
X156044900Y-93314900D01*
D26*
X145791495Y-115992390D02*
X145791495Y-113533505D01*
X158710682Y-111748000D02*
X159425913Y-111032769D01*
D25*
X152854662Y-94798260D02*
X153890981Y-94798260D01*
D26*
X157419855Y-111744855D02*
X157423000Y-111748000D01*
D25*
X159316421Y-96952179D02*
X159377381Y-97033460D01*
D26*
X147580145Y-111744855D02*
X157419855Y-111744855D01*
X157423000Y-111748000D02*
X158710682Y-111748000D01*
X144458400Y-115179219D02*
X144458400Y-115783400D01*
D25*
X159727900Y-108620941D02*
X159804100Y-108697141D01*
D26*
X159804100Y-111117030D02*
X159804100Y-108697141D01*
D25*
X151554181Y-94737300D02*
X152326340Y-94737300D01*
X152854662Y-94208979D02*
X154053540Y-94208979D01*
X156248100Y-92908500D02*
X156654500Y-93314900D01*
X154053540Y-94208979D02*
X154114500Y-94127700D01*
D26*
X146675000Y-113140256D02*
X147740256Y-112075000D01*
D25*
X159727900Y-96835727D02*
X159727900Y-108620941D01*
D26*
X158846130Y-112075000D02*
X159804100Y-111117030D01*
D25*
X152326340Y-94737300D02*
X152854662Y-94208979D01*
D26*
X144458400Y-115783400D02*
X145575000Y-116900000D01*
D25*
X154378662Y-93457141D02*
X154419300Y-93375860D01*
X156187140Y-92908500D02*
X156248100Y-92908500D01*
D26*
X145575000Y-116900000D02*
X146375000Y-116900000D01*
X146675000Y-116600000D02*
X146675000Y-113140256D01*
D25*
X154378662Y-93863541D02*
X154378662Y-93457141D01*
X154419300Y-93375860D02*
X155069540Y-92725619D01*
X156004262Y-92725619D02*
X156187140Y-92908500D01*
D26*
X147740256Y-112075000D02*
X158846130Y-112075000D01*
X146375000Y-116900000D02*
X146675000Y-116600000D01*
D25*
X156634181Y-93742008D02*
X159727900Y-96835727D01*
X154114500Y-94127700D02*
X154378662Y-93863541D01*
X156634181Y-93375860D02*
X156634181Y-93742008D01*
X156654500Y-93355541D02*
X156634181Y-93375860D01*
X155069540Y-92725619D02*
X156004262Y-92725619D01*
X156654500Y-93314900D02*
X156654500Y-93355541D01*
X139788900Y-99187379D02*
X139890500Y-99228019D01*
X147002500Y-106522900D02*
X147104100Y-106482260D01*
X139788900Y-99187379D02*
X139098021Y-98496500D01*
X142816581Y-108554900D02*
X143060421Y-108311060D01*
X140804900Y-103739060D02*
X141069062Y-103474900D01*
X142350000Y-107175000D02*
X142300000Y-107125000D01*
D26*
X142350000Y-108554900D02*
X142350000Y-108577475D01*
X142350000Y-108577475D02*
X141299096Y-109628379D01*
D25*
X149298662Y-104897300D02*
X149298662Y-104328341D01*
D26*
X138140000Y-111360000D02*
X139290000Y-112510000D01*
D25*
X149298662Y-104328341D02*
X150721062Y-102905941D01*
D26*
X139766346Y-108820000D02*
X138813654Y-108820000D01*
D25*
X142350000Y-108554900D02*
X142816581Y-108554900D01*
X146921221Y-106583860D02*
X147002500Y-106522900D01*
D26*
X138140000Y-109493654D02*
X138140000Y-111360000D01*
X141299096Y-109628379D02*
X140574725Y-109628379D01*
D25*
X139890500Y-99817300D02*
X139890500Y-99228019D01*
X142350000Y-108554900D02*
X142350000Y-107175000D01*
X147713700Y-106482260D02*
X149298662Y-104897300D01*
X143060421Y-108311060D02*
X145194021Y-108311060D01*
X141069062Y-103474900D02*
X141069062Y-100995860D01*
D26*
X140574725Y-109628379D02*
X139766346Y-108820000D01*
D25*
X150721062Y-102905941D02*
X150721062Y-101117779D01*
X145194021Y-108311060D02*
X146921221Y-106583860D01*
X141069062Y-100995860D02*
X139890500Y-99817300D01*
X147104100Y-106482260D02*
X147713700Y-106482260D01*
D26*
X138813654Y-108820000D02*
X138140000Y-109493654D01*
D25*
X140804900Y-103739060D02*
X140784581Y-103759379D01*
D26*
X151962500Y-119350000D02*
X151962500Y-119837500D01*
X151962500Y-119862500D02*
X153075000Y-120975000D01*
X151962500Y-119350000D02*
X151962500Y-119862500D01*
X149600000Y-119350000D02*
X149425000Y-119175000D01*
X151962500Y-119350000D02*
X149600000Y-119350000D01*
X151987500Y-114262500D02*
X152275000Y-113975000D01*
X151987500Y-116850000D02*
X151987500Y-114262500D01*
X153275000Y-117475000D02*
X152612500Y-117475000D01*
X152612500Y-117475000D02*
X151987500Y-116850000D01*
X155012500Y-116800000D02*
X154962500Y-116850000D01*
X159525000Y-116800000D02*
X155012500Y-116800000D01*
X154947500Y-119340000D02*
X154937500Y-119350000D01*
X159525000Y-119340000D02*
X154947500Y-119340000D01*
G04 #@! TA.AperFunction,Conductor*
G36*
X159132956Y-109670704D02*
G01*
X159168617Y-109721634D01*
X159173013Y-109751047D01*
X159173013Y-110886344D01*
X159153800Y-110945475D01*
X159143548Y-110957479D01*
X158635392Y-111465635D01*
X158579994Y-111493861D01*
X158564257Y-111495100D01*
X157470485Y-111495100D01*
X157450860Y-111493167D01*
X157444766Y-111491955D01*
X157444765Y-111491954D01*
X157419855Y-111487000D01*
X157404662Y-111490022D01*
X157385036Y-111491955D01*
X156729811Y-111491955D01*
X156670680Y-111472742D01*
X156634135Y-111422442D01*
X156634135Y-111360268D01*
X156670680Y-111309968D01*
X156672109Y-111308948D01*
X159014711Y-109668640D01*
X159074169Y-109650462D01*
X159132956Y-109670704D01*
G37*
G04 #@! TD.AperFunction*
G04 #@! TA.AperFunction,Conductor*
G36*
X156682826Y-106850313D02*
G01*
X156719371Y-106900613D01*
X156719371Y-106962787D01*
X156682826Y-107013087D01*
X156681397Y-107014107D01*
X154378859Y-108626361D01*
X154378845Y-108626372D01*
X154355258Y-108646416D01*
X154355254Y-108646421D01*
X154274944Y-108758123D01*
X154274941Y-108758129D01*
X154231124Y-108888542D01*
X154231124Y-108888544D01*
X154227693Y-109026085D01*
X154264958Y-109158527D01*
X154280270Y-109185436D01*
X154926564Y-110108440D01*
X156879423Y-108741034D01*
X156938881Y-108722856D01*
X156997668Y-108743098D01*
X157019532Y-108765739D01*
X157165908Y-108974787D01*
X157184086Y-109034245D01*
X157163844Y-109093032D01*
X157141203Y-109114896D01*
X155188344Y-110482302D01*
X155784468Y-111333653D01*
X155802646Y-111393111D01*
X155782404Y-111451898D01*
X155731474Y-111487559D01*
X155702061Y-111491955D01*
X150817983Y-111491955D01*
X150758852Y-111472742D01*
X150722307Y-111422442D01*
X150722307Y-111360268D01*
X150756740Y-111311545D01*
X150844333Y-111244333D01*
X150932957Y-111128836D01*
X150988669Y-110994336D01*
X151000951Y-110901042D01*
X151007671Y-110850003D01*
X151007671Y-110849996D01*
X150988670Y-110705667D01*
X150932959Y-110571169D01*
X150932958Y-110571167D01*
X150932957Y-110571166D01*
X150932957Y-110571165D01*
X150844333Y-110455667D01*
X150842252Y-110454070D01*
X150841188Y-110452522D01*
X150839671Y-110451005D01*
X150839952Y-110450723D01*
X150807040Y-110402827D01*
X150802900Y-110374263D01*
X150802900Y-110306700D01*
X150822113Y-110247569D01*
X150872413Y-110211024D01*
X150903500Y-110206100D01*
X151411026Y-110206100D01*
X151431670Y-110208240D01*
X151443475Y-110210716D01*
X151474304Y-110206872D01*
X151486749Y-110206100D01*
X151487901Y-110206100D01*
X151487902Y-110206100D01*
X151507714Y-110202793D01*
X151511790Y-110202200D01*
X151561407Y-110196015D01*
X151568573Y-110193881D01*
X151575615Y-110191464D01*
X151575616Y-110191463D01*
X151575618Y-110191463D01*
X151619620Y-110167649D01*
X151623255Y-110165778D01*
X151668176Y-110143819D01*
X151668179Y-110143815D01*
X151674285Y-110139456D01*
X151680137Y-110134901D01*
X151680137Y-110134900D01*
X151680140Y-110134899D01*
X151714019Y-110098094D01*
X151716852Y-110095141D01*
X154271230Y-107540765D01*
X154326628Y-107512539D01*
X154342365Y-107511300D01*
X155282984Y-107511300D01*
X155303628Y-107513440D01*
X155315433Y-107515916D01*
X155346262Y-107512072D01*
X155358707Y-107511300D01*
X155359859Y-107511300D01*
X155359860Y-107511300D01*
X155379672Y-107507993D01*
X155383748Y-107507400D01*
X155433365Y-107501215D01*
X155440531Y-107499081D01*
X155447573Y-107496664D01*
X155447574Y-107496663D01*
X155447576Y-107496663D01*
X155491578Y-107472849D01*
X155495213Y-107470978D01*
X155540134Y-107449019D01*
X155540137Y-107449015D01*
X155546243Y-107444656D01*
X155552095Y-107440101D01*
X155552095Y-107440100D01*
X155552098Y-107440099D01*
X155585977Y-107403294D01*
X155588810Y-107400341D01*
X156128588Y-106860565D01*
X156183986Y-106832339D01*
X156199723Y-106831100D01*
X156623695Y-106831100D01*
X156682826Y-106850313D01*
G37*
G04 #@! TD.AperFunction*
G04 #@! TA.AperFunction,Conductor*
G36*
X158498386Y-100704272D02*
G01*
X158530836Y-100757306D01*
X158533600Y-100780725D01*
X158533600Y-105197126D01*
X158514387Y-105256257D01*
X158464087Y-105292802D01*
X158401913Y-105292802D01*
X158378612Y-105281756D01*
X158265076Y-105208792D01*
X158265075Y-105208791D01*
X158176808Y-105182873D01*
X158140117Y-105172100D01*
X158009883Y-105172100D01*
X157981520Y-105180428D01*
X157884924Y-105208791D01*
X157884923Y-105208792D01*
X157775364Y-105279200D01*
X157775363Y-105279201D01*
X157724953Y-105337379D01*
X157671710Y-105369485D01*
X157648924Y-105372100D01*
X156643133Y-105372100D01*
X156584002Y-105352887D01*
X156547457Y-105302587D01*
X156547457Y-105240413D01*
X156571998Y-105200366D01*
X156646142Y-105126221D01*
X156661387Y-105113709D01*
X156674271Y-105105101D01*
X156730167Y-105021447D01*
X156744840Y-104947681D01*
X156744840Y-104947680D01*
X156749795Y-104922770D01*
X156746773Y-104907577D01*
X156744840Y-104887951D01*
X156744840Y-102363747D01*
X156764053Y-102304616D01*
X156774305Y-102292612D01*
X156959302Y-102107615D01*
X158107812Y-100959107D01*
X158111751Y-100955377D01*
X158123224Y-100945092D01*
X158123228Y-100945087D01*
X158123537Y-100944751D01*
X158132037Y-100934950D01*
X158132336Y-100934584D01*
X158132346Y-100934575D01*
X158133586Y-100932719D01*
X158134389Y-100932085D01*
X158135488Y-100930747D01*
X158135781Y-100930987D01*
X158182409Y-100894224D01*
X158195824Y-100890440D01*
X158196512Y-100890154D01*
X158196519Y-100890153D01*
X158236849Y-100863203D01*
X158237708Y-100862637D01*
X158278455Y-100836124D01*
X158278456Y-100836122D01*
X158278529Y-100836075D01*
X158279135Y-100835470D01*
X158279994Y-100834621D01*
X158280651Y-100833979D01*
X158280890Y-100833622D01*
X158307650Y-100793570D01*
X158308246Y-100792690D01*
X158335725Y-100752631D01*
X158335725Y-100752628D01*
X158335776Y-100752555D01*
X158336120Y-100751726D01*
X158336585Y-100750622D01*
X158339037Y-100744898D01*
X158339293Y-100744070D01*
X158340084Y-100742164D01*
X158380495Y-100694914D01*
X158440961Y-100680440D01*
X158498386Y-100704272D01*
G37*
G04 #@! TD.AperFunction*
G04 #@! TA.AperFunction,Conductor*
G36*
X140747541Y-101462579D02*
G01*
X140796868Y-101500427D01*
X140814562Y-101557409D01*
X140814562Y-103128700D01*
X140795349Y-103187831D01*
X140745049Y-103224376D01*
X140727094Y-103228439D01*
X140645204Y-103239220D01*
X140515332Y-103293015D01*
X140515325Y-103293019D01*
X140403802Y-103378594D01*
X140403796Y-103378600D01*
X140318221Y-103490123D01*
X140318217Y-103490130D01*
X140264422Y-103620003D01*
X140246074Y-103759375D01*
X140246074Y-103765973D01*
X140244668Y-103765973D01*
X140234666Y-103819933D01*
X140189566Y-103862730D01*
X140127923Y-103870844D01*
X140088556Y-103854336D01*
X139945697Y-103754305D01*
X139945689Y-103754300D01*
X139738525Y-103657697D01*
X139518200Y-103598661D01*
X139518200Y-104444542D01*
X139432315Y-104405320D01*
X139325763Y-104390000D01*
X139254237Y-104390000D01*
X139147685Y-104405320D01*
X139061800Y-104444542D01*
X139061800Y-103598661D01*
X139061799Y-103598661D01*
X138841474Y-103657697D01*
X138634310Y-103754300D01*
X138634302Y-103754305D01*
X138447052Y-103885419D01*
X138327835Y-104004637D01*
X138272437Y-104032863D01*
X138211029Y-104023137D01*
X138167065Y-103979173D01*
X138156100Y-103933502D01*
X138156100Y-103745487D01*
X138175313Y-103686356D01*
X138185565Y-103674353D01*
X138255231Y-103604686D01*
X138270468Y-103592179D01*
X138283484Y-103583484D01*
X138292937Y-103569336D01*
X138292947Y-103569322D01*
X138297682Y-103562235D01*
X138297684Y-103562234D01*
X138339734Y-103499301D01*
X138359486Y-103400000D01*
X138356433Y-103384651D01*
X138354500Y-103365025D01*
X138354500Y-103072129D01*
X138373713Y-103012998D01*
X138424013Y-102976453D01*
X138486187Y-102976453D01*
X138532863Y-103008308D01*
X138577411Y-103062589D01*
X138730122Y-103187916D01*
X138904350Y-103281042D01*
X138904352Y-103281042D01*
X138904353Y-103281043D01*
X139093393Y-103338388D01*
X139093394Y-103338388D01*
X139093397Y-103338389D01*
X139290000Y-103357753D01*
X139486603Y-103338389D01*
X139675650Y-103281042D01*
X139849878Y-103187916D01*
X140002589Y-103062589D01*
X140127916Y-102909878D01*
X140221042Y-102735650D01*
X140278389Y-102546603D01*
X140297753Y-102350000D01*
X140278389Y-102153397D01*
X140243308Y-102037751D01*
X140221043Y-101964352D01*
X140221040Y-101964346D01*
X140146361Y-101824629D01*
X140135431Y-101763423D01*
X140162564Y-101707482D01*
X140217397Y-101678174D01*
X140235082Y-101676607D01*
X140235943Y-101676607D01*
X140375316Y-101658258D01*
X140465729Y-101620808D01*
X140505194Y-101604461D01*
X140616722Y-101518882D01*
X140634150Y-101496168D01*
X140685388Y-101460952D01*
X140747541Y-101462579D01*
G37*
G04 #@! TD.AperFunction*
G04 #@! TA.AperFunction,Conductor*
G36*
X161515131Y-82513813D02*
G01*
X161551676Y-82564113D01*
X161556600Y-82595200D01*
X161556600Y-127413900D01*
X161537387Y-127473031D01*
X161487087Y-127509576D01*
X161456000Y-127514500D01*
X135546200Y-127514500D01*
X135487069Y-127495287D01*
X135450524Y-127444987D01*
X135445600Y-127413900D01*
X135445600Y-120130000D01*
X135742247Y-120130000D01*
X135761611Y-120326606D01*
X135818956Y-120515646D01*
X135912084Y-120689878D01*
X136022973Y-120824997D01*
X136037411Y-120842589D01*
X136190122Y-120967916D01*
X136364350Y-121061042D01*
X136364352Y-121061042D01*
X136364353Y-121061043D01*
X136553393Y-121118388D01*
X136553394Y-121118388D01*
X136553397Y-121118389D01*
X136750000Y-121137753D01*
X136946603Y-121118389D01*
X137135650Y-121061042D01*
X137309878Y-120967916D01*
X137462589Y-120842589D01*
X137587916Y-120689878D01*
X137681042Y-120515650D01*
X137738389Y-120326603D01*
X137757753Y-120130000D01*
X137738389Y-119933397D01*
X137719594Y-119871440D01*
X137681043Y-119744353D01*
X137681042Y-119744352D01*
X137681042Y-119744350D01*
X137587916Y-119570122D01*
X137462589Y-119417411D01*
X137309878Y-119292084D01*
X137135650Y-119198958D01*
X137135649Y-119198957D01*
X137135646Y-119198956D01*
X136946606Y-119141611D01*
X136750000Y-119122247D01*
X136553393Y-119141611D01*
X136364353Y-119198956D01*
X136190121Y-119292084D01*
X136037411Y-119417410D01*
X136037410Y-119417411D01*
X135912084Y-119570121D01*
X135818956Y-119744353D01*
X135761611Y-119933393D01*
X135742247Y-120130000D01*
X135445600Y-120130000D01*
X135445600Y-117590000D01*
X135742247Y-117590000D01*
X135761611Y-117786606D01*
X135818956Y-117975646D01*
X135818957Y-117975649D01*
X135818958Y-117975650D01*
X135904779Y-118136211D01*
X135912084Y-118149878D01*
X135994918Y-118250812D01*
X136037411Y-118302589D01*
X136190122Y-118427916D01*
X136364350Y-118521042D01*
X136364352Y-118521042D01*
X136364353Y-118521043D01*
X136553393Y-118578388D01*
X136553394Y-118578388D01*
X136553397Y-118578389D01*
X136750000Y-118597753D01*
X136946603Y-118578389D01*
X137135650Y-118521042D01*
X137309878Y-118427916D01*
X137462589Y-118302589D01*
X137587916Y-118149878D01*
X137681042Y-117975650D01*
X137738389Y-117786603D01*
X137757753Y-117590000D01*
X137738389Y-117393397D01*
X137711332Y-117304204D01*
X137681043Y-117204353D01*
X137681042Y-117204352D01*
X137681042Y-117204350D01*
X137587916Y-117030122D01*
X137462589Y-116877411D01*
X137309878Y-116752084D01*
X137135650Y-116658958D01*
X137135649Y-116658957D01*
X137135646Y-116658956D01*
X136946606Y-116601611D01*
X136750000Y-116582247D01*
X136553393Y-116601611D01*
X136364353Y-116658956D01*
X136190121Y-116752084D01*
X136037411Y-116877410D01*
X136037410Y-116877411D01*
X135912084Y-117030121D01*
X135818956Y-117204353D01*
X135761611Y-117393393D01*
X135742247Y-117590000D01*
X135445600Y-117590000D01*
X135445600Y-115050000D01*
X135742247Y-115050000D01*
X135761611Y-115246606D01*
X135818956Y-115435646D01*
X135818957Y-115435649D01*
X135818958Y-115435650D01*
X135860248Y-115512899D01*
X135912084Y-115609878D01*
X136029202Y-115752587D01*
X136037411Y-115762589D01*
X136190122Y-115887916D01*
X136364350Y-115981042D01*
X136364352Y-115981042D01*
X136364353Y-115981043D01*
X136553393Y-116038388D01*
X136553394Y-116038388D01*
X136553397Y-116038389D01*
X136750000Y-116057753D01*
X136946603Y-116038389D01*
X137135650Y-115981042D01*
X137309878Y-115887916D01*
X137462589Y-115762589D01*
X137587916Y-115609878D01*
X137681042Y-115435650D01*
X137738389Y-115246603D01*
X137757753Y-115050000D01*
X137738389Y-114853397D01*
X137721715Y-114798432D01*
X137681043Y-114664353D01*
X137681042Y-114664352D01*
X137681042Y-114664350D01*
X137587916Y-114490122D01*
X137462589Y-114337411D01*
X137309878Y-114212084D01*
X137135650Y-114118958D01*
X137135649Y-114118957D01*
X137135646Y-114118956D01*
X136946606Y-114061611D01*
X136750000Y-114042247D01*
X136553393Y-114061611D01*
X136364353Y-114118956D01*
X136190121Y-114212084D01*
X136037411Y-114337410D01*
X136037410Y-114337411D01*
X135912084Y-114490121D01*
X135818956Y-114664353D01*
X135761611Y-114853393D01*
X135742247Y-115050000D01*
X135445600Y-115050000D01*
X135445600Y-112510000D01*
X135742247Y-112510000D01*
X135761611Y-112706606D01*
X135818956Y-112895646D01*
X135912084Y-113069878D01*
X136018003Y-113198941D01*
X136037411Y-113222589D01*
X136190122Y-113347916D01*
X136364350Y-113441042D01*
X136364352Y-113441042D01*
X136364353Y-113441043D01*
X136553393Y-113498388D01*
X136553394Y-113498388D01*
X136553397Y-113498389D01*
X136750000Y-113517753D01*
X136946603Y-113498389D01*
X137135650Y-113441042D01*
X137309878Y-113347916D01*
X137462589Y-113222589D01*
X137587916Y-113069878D01*
X137681042Y-112895650D01*
X137738389Y-112706603D01*
X137757753Y-112510000D01*
X137738389Y-112313397D01*
X137738116Y-112312498D01*
X137681043Y-112124353D01*
X137681042Y-112124352D01*
X137681042Y-112124350D01*
X137587916Y-111950122D01*
X137462589Y-111797411D01*
X137430157Y-111770795D01*
X137309878Y-111672084D01*
X137271147Y-111651382D01*
X137135650Y-111578958D01*
X137135649Y-111578957D01*
X137135646Y-111578956D01*
X136946606Y-111521611D01*
X136750000Y-111502247D01*
X136553393Y-111521611D01*
X136364353Y-111578956D01*
X136190121Y-111672084D01*
X136037411Y-111797410D01*
X136037410Y-111797411D01*
X135912084Y-111950121D01*
X135818956Y-112124353D01*
X135761611Y-112313393D01*
X135742247Y-112510000D01*
X135445600Y-112510000D01*
X135445600Y-101590542D01*
X135648664Y-101590542D01*
X135652508Y-101621367D01*
X135653281Y-101633813D01*
X135653281Y-101634970D01*
X135656584Y-101654767D01*
X135657183Y-101658877D01*
X135663366Y-101708475D01*
X135665494Y-101715626D01*
X135667918Y-101722684D01*
X135684079Y-101752548D01*
X135691713Y-101766653D01*
X135693616Y-101770351D01*
X135715562Y-101815242D01*
X135719903Y-101821323D01*
X135724480Y-101827202D01*
X135724482Y-101827206D01*
X135724484Y-101827208D01*
X135725884Y-101829006D01*
X135727145Y-101832490D01*
X135727863Y-101833453D01*
X135728446Y-101834530D01*
X135727975Y-101834784D01*
X135747045Y-101887469D01*
X135747100Y-101890801D01*
X135747100Y-103215055D01*
X135755971Y-103259657D01*
X135755973Y-103259661D01*
X135789764Y-103310232D01*
X135789766Y-103310234D01*
X135840342Y-103344028D01*
X135884943Y-103352900D01*
X137571865Y-103352899D01*
X137630996Y-103372112D01*
X137667541Y-103422412D01*
X137667541Y-103484586D01*
X137664808Y-103491996D01*
X137661866Y-103499098D01*
X137658597Y-103515537D01*
X137658596Y-103515541D01*
X137642114Y-103598400D01*
X137645167Y-103613748D01*
X137647100Y-103633374D01*
X137647100Y-104121079D01*
X137627887Y-104180210D01*
X137577587Y-104216755D01*
X137515413Y-104216755D01*
X137468738Y-104184902D01*
X137462593Y-104177415D01*
X137462588Y-104177410D01*
X137309878Y-104052084D01*
X137266004Y-104028633D01*
X137135650Y-103958958D01*
X137135649Y-103958957D01*
X137135646Y-103958956D01*
X136946606Y-103901611D01*
X136750000Y-103882247D01*
X136553393Y-103901611D01*
X136364353Y-103958956D01*
X136190121Y-104052084D01*
X136037411Y-104177410D01*
X136037410Y-104177411D01*
X135912084Y-104330121D01*
X135818956Y-104504353D01*
X135761611Y-104693393D01*
X135742247Y-104890000D01*
X135761611Y-105086606D01*
X135818956Y-105275646D01*
X135818957Y-105275649D01*
X135818958Y-105275650D01*
X135870511Y-105372100D01*
X135912084Y-105449878D01*
X136031838Y-105595799D01*
X136037411Y-105602589D01*
X136190122Y-105727916D01*
X136364350Y-105821042D01*
X136364352Y-105821042D01*
X136364353Y-105821043D01*
X136553393Y-105878388D01*
X136553394Y-105878388D01*
X136553397Y-105878389D01*
X136750000Y-105897753D01*
X136946603Y-105878389D01*
X137135650Y-105821042D01*
X137309878Y-105727916D01*
X137462589Y-105602589D01*
X137468735Y-105595099D01*
X137521099Y-105561580D01*
X137583165Y-105565240D01*
X137631227Y-105604682D01*
X137647100Y-105658920D01*
X137647100Y-106661079D01*
X137627887Y-106720210D01*
X137577587Y-106756755D01*
X137515413Y-106756755D01*
X137468738Y-106724902D01*
X137462593Y-106717415D01*
X137462588Y-106717410D01*
X137309878Y-106592084D01*
X137191258Y-106528681D01*
X137135650Y-106498958D01*
X137135649Y-106498957D01*
X137135646Y-106498956D01*
X136946606Y-106441611D01*
X136750000Y-106422247D01*
X136553393Y-106441611D01*
X136364353Y-106498956D01*
X136190121Y-106592084D01*
X136037411Y-106717410D01*
X136037410Y-106717411D01*
X135912084Y-106870121D01*
X135818956Y-107044353D01*
X135761611Y-107233393D01*
X135742247Y-107430000D01*
X135761611Y-107626606D01*
X135818956Y-107815646D01*
X135818957Y-107815649D01*
X135818958Y-107815650D01*
X135887310Y-107943529D01*
X135912084Y-107989878D01*
X136020625Y-108122136D01*
X136037411Y-108142589D01*
X136190122Y-108267916D01*
X136364350Y-108361042D01*
X136364352Y-108361042D01*
X136364353Y-108361043D01*
X136553393Y-108418388D01*
X136553394Y-108418388D01*
X136553397Y-108418389D01*
X136750000Y-108437753D01*
X136946603Y-108418389D01*
X137135650Y-108361042D01*
X137309878Y-108267916D01*
X137459899Y-108144796D01*
X137517795Y-108122136D01*
X137577955Y-108137835D01*
X137617398Y-108185896D01*
X137624318Y-108222562D01*
X137624318Y-108651649D01*
X137605105Y-108710780D01*
X137594853Y-108722784D01*
X137281615Y-109036021D01*
X137226217Y-109064247D01*
X137164808Y-109054521D01*
X137163059Y-109053608D01*
X137135646Y-109038956D01*
X136946606Y-108981611D01*
X136750000Y-108962247D01*
X136553393Y-108981611D01*
X136364353Y-109038956D01*
X136190121Y-109132084D01*
X136037411Y-109257410D01*
X136037410Y-109257411D01*
X135912084Y-109410121D01*
X135818956Y-109584353D01*
X135761611Y-109773393D01*
X135742247Y-109970000D01*
X135761611Y-110166606D01*
X135818956Y-110355646D01*
X135818957Y-110355649D01*
X135818958Y-110355650D01*
X135852900Y-110419151D01*
X135912084Y-110529878D01*
X136022863Y-110664863D01*
X136037411Y-110682589D01*
X136190122Y-110807916D01*
X136364350Y-110901042D01*
X136364352Y-110901042D01*
X136364353Y-110901043D01*
X136553393Y-110958388D01*
X136553394Y-110958388D01*
X136553397Y-110958389D01*
X136750000Y-110977753D01*
X136946603Y-110958389D01*
X137135650Y-110901042D01*
X137309878Y-110807916D01*
X137462589Y-110682589D01*
X137587916Y-110529878D01*
X137681042Y-110355650D01*
X137684829Y-110343166D01*
X137690232Y-110325357D01*
X137725782Y-110274349D01*
X137784525Y-110253978D01*
X137844022Y-110272026D01*
X137881547Y-110321599D01*
X137887100Y-110354559D01*
X137887100Y-111325181D01*
X137885167Y-111344807D01*
X137883089Y-111355256D01*
X137882145Y-111360000D01*
X137887100Y-111384910D01*
X137887100Y-111384911D01*
X137894466Y-111421944D01*
X137898119Y-111440310D01*
X137901773Y-111458678D01*
X137930884Y-111502246D01*
X137937404Y-111512003D01*
X137957669Y-111542331D01*
X137970547Y-111550935D01*
X137985794Y-111563448D01*
X138371594Y-111949249D01*
X138399820Y-112004647D01*
X138390094Y-112066056D01*
X138389181Y-112067805D01*
X138358956Y-112124353D01*
X138301611Y-112313393D01*
X138282247Y-112510000D01*
X138301611Y-112706606D01*
X138358956Y-112895646D01*
X138452084Y-113069878D01*
X138558003Y-113198941D01*
X138577411Y-113222589D01*
X138730122Y-113347916D01*
X138904350Y-113441042D01*
X138904352Y-113441042D01*
X138904353Y-113441043D01*
X139093393Y-113498388D01*
X139093394Y-113498388D01*
X139093397Y-113498389D01*
X139290000Y-113517753D01*
X139486603Y-113498389D01*
X139675650Y-113441042D01*
X139849878Y-113347916D01*
X140002589Y-113222589D01*
X140041836Y-113174766D01*
X140094199Y-113141247D01*
X140156265Y-113144907D01*
X140204327Y-113184349D01*
X140220200Y-113238587D01*
X140220200Y-113415911D01*
X140218267Y-113435537D01*
X140215214Y-113450885D01*
X140234669Y-113548697D01*
X140234966Y-113550187D01*
X140234967Y-113550189D01*
X140237841Y-113557125D01*
X140245500Y-113595627D01*
X140245500Y-114352240D01*
X140226287Y-114411371D01*
X140175987Y-114447916D01*
X140113813Y-114447916D01*
X140067135Y-114416060D01*
X140002589Y-114337411D01*
X140002588Y-114337410D01*
X139849878Y-114212084D01*
X139722914Y-114144221D01*
X139675650Y-114118958D01*
X139675649Y-114118957D01*
X139675646Y-114118956D01*
X139486606Y-114061611D01*
X139290000Y-114042247D01*
X139093393Y-114061611D01*
X138904353Y-114118956D01*
X138730121Y-114212084D01*
X138577411Y-114337410D01*
X138577410Y-114337411D01*
X138452084Y-114490121D01*
X138358956Y-114664353D01*
X138301611Y-114853393D01*
X138282247Y-115050000D01*
X138301611Y-115246606D01*
X138358956Y-115435646D01*
X138358957Y-115435649D01*
X138358958Y-115435650D01*
X138400248Y-115512899D01*
X138452084Y-115609878D01*
X138569202Y-115752587D01*
X138577411Y-115762589D01*
X138730122Y-115887916D01*
X138904350Y-115981042D01*
X138904352Y-115981042D01*
X138904353Y-115981043D01*
X139093393Y-116038388D01*
X139093394Y-116038388D01*
X139093397Y-116038389D01*
X139290000Y-116057753D01*
X139486603Y-116038389D01*
X139675650Y-115981042D01*
X139849878Y-115887916D01*
X140002589Y-115762589D01*
X140067136Y-115683938D01*
X140119499Y-115650419D01*
X140181565Y-115654079D01*
X140229627Y-115693521D01*
X140245500Y-115747759D01*
X140245500Y-116892240D01*
X140226287Y-116951371D01*
X140175987Y-116987916D01*
X140113813Y-116987916D01*
X140067135Y-116956060D01*
X140002589Y-116877411D01*
X140002588Y-116877410D01*
X139849878Y-116752084D01*
X139849874Y-116752082D01*
X139675650Y-116658958D01*
X139675649Y-116658957D01*
X139675646Y-116658956D01*
X139486606Y-116601611D01*
X139290000Y-116582247D01*
X139093393Y-116601611D01*
X138904353Y-116658956D01*
X138730121Y-116752084D01*
X138577411Y-116877410D01*
X138577410Y-116877411D01*
X138452084Y-117030121D01*
X138358956Y-117204353D01*
X138301611Y-117393393D01*
X138282247Y-117590000D01*
X138301611Y-117786606D01*
X138358956Y-117975646D01*
X138358957Y-117975649D01*
X138358958Y-117975650D01*
X138444779Y-118136211D01*
X138452084Y-118149878D01*
X138534918Y-118250812D01*
X138577411Y-118302589D01*
X138730122Y-118427916D01*
X138904350Y-118521042D01*
X138904352Y-118521042D01*
X138904353Y-118521043D01*
X139093393Y-118578388D01*
X139093394Y-118578388D01*
X139093397Y-118578389D01*
X139290000Y-118597753D01*
X139486603Y-118578389D01*
X139675650Y-118521042D01*
X139849878Y-118427916D01*
X140002589Y-118302589D01*
X140067136Y-118223938D01*
X140119499Y-118190419D01*
X140181565Y-118194079D01*
X140229627Y-118233521D01*
X140245500Y-118287759D01*
X140245500Y-118618866D01*
X140243566Y-118638492D01*
X140240514Y-118653841D01*
X140240733Y-118654940D01*
X140260265Y-118753141D01*
X140260266Y-118753142D01*
X140302316Y-118816075D01*
X140302319Y-118816078D01*
X140305062Y-118820183D01*
X140305066Y-118820189D01*
X140316515Y-118837324D01*
X140329523Y-118846016D01*
X140344767Y-118858526D01*
X140414648Y-118928407D01*
X140442874Y-118983805D01*
X140443252Y-119012672D01*
X140428952Y-119121295D01*
X140428952Y-119121303D01*
X140447300Y-119260676D01*
X140501095Y-119390549D01*
X140501099Y-119390556D01*
X140586674Y-119502079D01*
X140586679Y-119502084D01*
X140698742Y-119588073D01*
X140733958Y-119639312D01*
X140732331Y-119701465D01*
X140694482Y-119750791D01*
X140691890Y-119752514D01*
X140650361Y-119779203D01*
X140650360Y-119779204D01*
X140565078Y-119877626D01*
X140510976Y-119996091D01*
X140494858Y-120108199D01*
X140487501Y-120123162D01*
X140495442Y-120145865D01*
X140510976Y-120253908D01*
X140565078Y-120372373D01*
X140650359Y-120470795D01*
X140650362Y-120470797D01*
X140650364Y-120470799D01*
X140650883Y-120471132D01*
X140651209Y-120471531D01*
X140655798Y-120475507D01*
X140655110Y-120476301D01*
X140690242Y-120519259D01*
X140697100Y-120555765D01*
X140697100Y-121229486D01*
X140677887Y-121288617D01*
X140627587Y-121325162D01*
X140565413Y-121325162D01*
X140540610Y-121313132D01*
X140493677Y-121281773D01*
X140493678Y-121281773D01*
X140395000Y-121262145D01*
X140379807Y-121265167D01*
X140360181Y-121267100D01*
X139674559Y-121267100D01*
X139615428Y-121247887D01*
X139578883Y-121197587D01*
X139578883Y-121135413D01*
X139615428Y-121085113D01*
X139645357Y-121070232D01*
X139675644Y-121061044D01*
X139675644Y-121061043D01*
X139675650Y-121061042D01*
X139849878Y-120967916D01*
X140002589Y-120842589D01*
X140127916Y-120689878D01*
X140221042Y-120515650D01*
X140278389Y-120326603D01*
X140295751Y-120150317D01*
X140303699Y-120132147D01*
X140295167Y-120103747D01*
X140278389Y-119933397D01*
X140221042Y-119744350D01*
X140127916Y-119570122D01*
X140002589Y-119417411D01*
X139849878Y-119292084D01*
X139675650Y-119198958D01*
X139675649Y-119198957D01*
X139675646Y-119198956D01*
X139486606Y-119141611D01*
X139290000Y-119122247D01*
X139093393Y-119141611D01*
X138904353Y-119198956D01*
X138730121Y-119292084D01*
X138577411Y-119417410D01*
X138577410Y-119417411D01*
X138452084Y-119570121D01*
X138358956Y-119744353D01*
X138301611Y-119933393D01*
X138282247Y-120130000D01*
X138301611Y-120326606D01*
X138358956Y-120515646D01*
X138452084Y-120689878D01*
X138562973Y-120824997D01*
X138577411Y-120842589D01*
X138730122Y-120967916D01*
X138904350Y-121061042D01*
X138904352Y-121061042D01*
X138904355Y-121061044D01*
X138934643Y-121070232D01*
X138985651Y-121105782D01*
X139006022Y-121164525D01*
X138987974Y-121224022D01*
X138938401Y-121261547D01*
X138905441Y-121267100D01*
X137934819Y-121267100D01*
X137915193Y-121265167D01*
X137900000Y-121262145D01*
X137879942Y-121266134D01*
X137879936Y-121266136D01*
X137801321Y-121281773D01*
X137717668Y-121337669D01*
X137709062Y-121350549D01*
X137696553Y-121365791D01*
X137310749Y-121751594D01*
X137255351Y-121779820D01*
X137193942Y-121770094D01*
X137192233Y-121769201D01*
X137135650Y-121738958D01*
X137135649Y-121738957D01*
X137135648Y-121738957D01*
X137135647Y-121738956D01*
X136946606Y-121681611D01*
X136750000Y-121662247D01*
X136553393Y-121681611D01*
X136364353Y-121738956D01*
X136190121Y-121832084D01*
X136037411Y-121957410D01*
X136037410Y-121957411D01*
X135912084Y-122110121D01*
X135818956Y-122284353D01*
X135761611Y-122473393D01*
X135742247Y-122670000D01*
X135761611Y-122866606D01*
X135818956Y-123055646D01*
X135818957Y-123055649D01*
X135818958Y-123055650D01*
X135862535Y-123137178D01*
X135912084Y-123229878D01*
X135945875Y-123271053D01*
X136037411Y-123382589D01*
X136190122Y-123507916D01*
X136364350Y-123601042D01*
X136364352Y-123601042D01*
X136364353Y-123601043D01*
X136553393Y-123658388D01*
X136553394Y-123658388D01*
X136553397Y-123658389D01*
X136750000Y-123677753D01*
X136946603Y-123658389D01*
X137135650Y-123601042D01*
X137309878Y-123507916D01*
X137462589Y-123382589D01*
X137587916Y-123229878D01*
X137681042Y-123055650D01*
X137738389Y-122866603D01*
X137757753Y-122670000D01*
X137738389Y-122473397D01*
X137725225Y-122430000D01*
X137681043Y-122284352D01*
X137681040Y-122284346D01*
X137650819Y-122227805D01*
X137639889Y-122166599D01*
X137667022Y-122110658D01*
X137668353Y-122109300D01*
X137975289Y-121802365D01*
X138030687Y-121774139D01*
X138046424Y-121772900D01*
X138521080Y-121772900D01*
X138580211Y-121792113D01*
X138616756Y-121842413D01*
X138616756Y-121904587D01*
X138584900Y-121951265D01*
X138577410Y-121957411D01*
X138452084Y-122110121D01*
X138358956Y-122284353D01*
X138301611Y-122473393D01*
X138282247Y-122670000D01*
X138301611Y-122866606D01*
X138358956Y-123055646D01*
X138358957Y-123055649D01*
X138358958Y-123055650D01*
X138402535Y-123137178D01*
X138452084Y-123229878D01*
X138485875Y-123271053D01*
X138577411Y-123382589D01*
X138730122Y-123507916D01*
X138904350Y-123601042D01*
X138904352Y-123601042D01*
X138904353Y-123601043D01*
X139093393Y-123658388D01*
X139093394Y-123658388D01*
X139093397Y-123658389D01*
X139290000Y-123677753D01*
X139486603Y-123658389D01*
X139675650Y-123601042D01*
X139849878Y-123507916D01*
X140002589Y-123382589D01*
X140127916Y-123229878D01*
X140221042Y-123055650D01*
X140239653Y-122994295D01*
X140275202Y-122943290D01*
X140333945Y-122922919D01*
X140335921Y-122922900D01*
X141040425Y-122922900D01*
X141060051Y-122924833D01*
X141075244Y-122927855D01*
X141173921Y-122908227D01*
X141236457Y-122866442D01*
X141236457Y-122866440D01*
X141247351Y-122859162D01*
X141247351Y-122859163D01*
X141247356Y-122859159D01*
X141252429Y-122855768D01*
X141257575Y-122852331D01*
X141266179Y-122839451D01*
X141278686Y-122824210D01*
X142179207Y-121923689D01*
X142194447Y-121911183D01*
X142207331Y-121902575D01*
X142236254Y-121859289D01*
X142285081Y-121820797D01*
X142347207Y-121818356D01*
X142398903Y-121852898D01*
X142420422Y-121911230D01*
X142420500Y-121915179D01*
X142420500Y-122527911D01*
X142401287Y-122587042D01*
X142391035Y-122599046D01*
X140297690Y-124692390D01*
X140242292Y-124720616D01*
X140180884Y-124710890D01*
X140137833Y-124668676D01*
X140127916Y-124650122D01*
X140002589Y-124497411D01*
X139993272Y-124489765D01*
X139849878Y-124372084D01*
X139675646Y-124278956D01*
X139486606Y-124221611D01*
X139290000Y-124202247D01*
X139093393Y-124221611D01*
X138904353Y-124278956D01*
X138730121Y-124372084D01*
X138577411Y-124497410D01*
X138577410Y-124497411D01*
X138452084Y-124650121D01*
X138358956Y-124824353D01*
X138301611Y-125013393D01*
X138282247Y-125210000D01*
X138301611Y-125406606D01*
X138358956Y-125595646D01*
X138358957Y-125595647D01*
X138358958Y-125595650D01*
X138424351Y-125717993D01*
X138452084Y-125769878D01*
X138577410Y-125922588D01*
X138584900Y-125928735D01*
X138618420Y-125981099D01*
X138614760Y-126043165D01*
X138575318Y-126091227D01*
X138521080Y-126107100D01*
X138046424Y-126107100D01*
X137987293Y-126087887D01*
X137975289Y-126077635D01*
X137668405Y-125770750D01*
X137640179Y-125715352D01*
X137649905Y-125653943D01*
X137650796Y-125652234D01*
X137681042Y-125595650D01*
X137738389Y-125406603D01*
X137757753Y-125210000D01*
X137738389Y-125013397D01*
X137681042Y-124824350D01*
X137587916Y-124650122D01*
X137462589Y-124497411D01*
X137453272Y-124489765D01*
X137309878Y-124372084D01*
X137135646Y-124278956D01*
X136946606Y-124221611D01*
X136750000Y-124202247D01*
X136553393Y-124221611D01*
X136364353Y-124278956D01*
X136190121Y-124372084D01*
X136037411Y-124497410D01*
X136037410Y-124497411D01*
X135912084Y-124650121D01*
X135818956Y-124824353D01*
X135761611Y-125013393D01*
X135742247Y-125210000D01*
X135761611Y-125406606D01*
X135818956Y-125595646D01*
X135818957Y-125595647D01*
X135818958Y-125595650D01*
X135912084Y-125769878D01*
X136037411Y-125922589D01*
X136190122Y-126047916D01*
X136364350Y-126141042D01*
X136364352Y-126141042D01*
X136364353Y-126141043D01*
X136553393Y-126198388D01*
X136553394Y-126198388D01*
X136553397Y-126198389D01*
X136750000Y-126217753D01*
X136946603Y-126198389D01*
X137135650Y-126141042D01*
X137192193Y-126110818D01*
X137253398Y-126099889D01*
X137309339Y-126127021D01*
X137310750Y-126128405D01*
X137696549Y-126514203D01*
X137709059Y-126529446D01*
X137717669Y-126542331D01*
X137801323Y-126598227D01*
X137875089Y-126612900D01*
X137875090Y-126612900D01*
X137900000Y-126617855D01*
X137915193Y-126614833D01*
X137934819Y-126612900D01*
X139731527Y-126612900D01*
X139751153Y-126614833D01*
X139766346Y-126617855D01*
X139865023Y-126598227D01*
X139927559Y-126556442D01*
X139927559Y-126556440D01*
X139938453Y-126549162D01*
X139938453Y-126549163D01*
X139938458Y-126549159D01*
X139943531Y-126545768D01*
X139948677Y-126542331D01*
X139957282Y-126529451D01*
X139969789Y-126514210D01*
X141950366Y-124533633D01*
X142005763Y-124505408D01*
X142067171Y-124515134D01*
X142111135Y-124559098D01*
X142122100Y-124604769D01*
X142122100Y-126315055D01*
X142130971Y-126359657D01*
X142130973Y-126359661D01*
X142164764Y-126410232D01*
X142164765Y-126410233D01*
X142164766Y-126410234D01*
X142215342Y-126444028D01*
X142259943Y-126452900D01*
X143990056Y-126452899D01*
X144034658Y-126444028D01*
X144085234Y-126410234D01*
X144119028Y-126359658D01*
X144127900Y-126315057D01*
X144127899Y-124584944D01*
X144119028Y-124540342D01*
X144119026Y-124540338D01*
X144085235Y-124489767D01*
X144085233Y-124489765D01*
X144034657Y-124455971D01*
X143998928Y-124448864D01*
X143990057Y-124447100D01*
X143990056Y-124447100D01*
X142279768Y-124447100D01*
X142220637Y-124427887D01*
X142184092Y-124377587D01*
X142184092Y-124315413D01*
X142208630Y-124275368D01*
X142610798Y-123873200D01*
X150004240Y-123873200D01*
X150005532Y-123889620D01*
X150005532Y-123889623D01*
X150062812Y-124128212D01*
X150062812Y-124128213D01*
X150156712Y-124354908D01*
X150156713Y-124354910D01*
X150284923Y-124564131D01*
X150444283Y-124750716D01*
X150630868Y-124910076D01*
X150840089Y-125038286D01*
X150840091Y-125038287D01*
X151066787Y-125132187D01*
X151305377Y-125189467D01*
X151321800Y-125190760D01*
X151321800Y-124346276D01*
X151464091Y-124380000D01*
X151592812Y-124380000D01*
X151720657Y-124365057D01*
X151778200Y-124344113D01*
X151778200Y-125190759D01*
X151794620Y-125189467D01*
X151794623Y-125189467D01*
X152033212Y-125132187D01*
X152033213Y-125132187D01*
X152259908Y-125038287D01*
X152259910Y-125038286D01*
X152469131Y-124910076D01*
X152655716Y-124750716D01*
X152815076Y-124564131D01*
X152943286Y-124354910D01*
X152943287Y-124354908D01*
X153037187Y-124128213D01*
X153037187Y-124128212D01*
X153094467Y-123889623D01*
X153094467Y-123889620D01*
X153095760Y-123873200D01*
X152248914Y-123873200D01*
X152278762Y-123773500D01*
X152288752Y-123601973D01*
X152258916Y-123432764D01*
X152252030Y-123416800D01*
X153095760Y-123416800D01*
X153094467Y-123400379D01*
X153094467Y-123400376D01*
X153037187Y-123161787D01*
X153037187Y-123161786D01*
X152943287Y-122935091D01*
X152943286Y-122935089D01*
X152815076Y-122725868D01*
X152655716Y-122539283D01*
X152469131Y-122379923D01*
X152259910Y-122251713D01*
X152259908Y-122251712D01*
X152033214Y-122157812D01*
X151794628Y-122100533D01*
X151794613Y-122100531D01*
X151778200Y-122099238D01*
X151778200Y-122943723D01*
X151635909Y-122910000D01*
X151507188Y-122910000D01*
X151379343Y-122924943D01*
X151321800Y-122945886D01*
X151321800Y-122099239D01*
X151321799Y-122099238D01*
X151305386Y-122100531D01*
X151305371Y-122100533D01*
X151066785Y-122157812D01*
X150840091Y-122251712D01*
X150840089Y-122251713D01*
X150630868Y-122379923D01*
X150444283Y-122539283D01*
X150284923Y-122725868D01*
X150156713Y-122935089D01*
X150156712Y-122935091D01*
X150062812Y-123161786D01*
X150062812Y-123161787D01*
X150005532Y-123400376D01*
X150005532Y-123400379D01*
X150004240Y-123416800D01*
X150851086Y-123416800D01*
X150821238Y-123516500D01*
X150811248Y-123688027D01*
X150841084Y-123857236D01*
X150847970Y-123873200D01*
X150004240Y-123873200D01*
X142610798Y-123873200D01*
X144129207Y-122354791D01*
X144144447Y-122342285D01*
X144157331Y-122333677D01*
X144213227Y-122250023D01*
X144227900Y-122176257D01*
X144227900Y-122176256D01*
X144232855Y-122151346D01*
X144229833Y-122136153D01*
X144227900Y-122116527D01*
X144227900Y-120980765D01*
X144247113Y-120921634D01*
X144269329Y-120900653D01*
X144269202Y-120900507D01*
X144272619Y-120897545D01*
X144274114Y-120896133D01*
X144274636Y-120895799D01*
X144274638Y-120895795D01*
X144274640Y-120895795D01*
X144335984Y-120824999D01*
X144359921Y-120797374D01*
X144414023Y-120678909D01*
X144422826Y-120617682D01*
X144450258Y-120561887D01*
X144505247Y-120532872D01*
X144522402Y-120531399D01*
X145196800Y-120531399D01*
X145196800Y-119403200D01*
X143718601Y-119403200D01*
X143718601Y-119882098D01*
X143725067Y-119953263D01*
X143725067Y-119953268D01*
X143759130Y-120062580D01*
X143758378Y-120124750D01*
X143721228Y-120174604D01*
X143717475Y-120177137D01*
X143675363Y-120204201D01*
X143675360Y-120204204D01*
X143590078Y-120302626D01*
X143535977Y-120421091D01*
X143519906Y-120532872D01*
X143517443Y-120550000D01*
X143535977Y-120678909D01*
X143543824Y-120696091D01*
X143590078Y-120797373D01*
X143675359Y-120895795D01*
X143675362Y-120895797D01*
X143675364Y-120895799D01*
X143675883Y-120896132D01*
X143676209Y-120896531D01*
X143680798Y-120900507D01*
X143680110Y-120901301D01*
X143715242Y-120944259D01*
X143722100Y-120980765D01*
X143722100Y-122004920D01*
X143702887Y-122064051D01*
X143692635Y-122076055D01*
X143101235Y-122667455D01*
X143045837Y-122695681D01*
X142984429Y-122685955D01*
X142940465Y-122641991D01*
X142929500Y-122596320D01*
X142929500Y-115137178D01*
X142948713Y-115078047D01*
X142991602Y-115044236D01*
X143091402Y-115002898D01*
X143153385Y-114998020D01*
X143206397Y-115030506D01*
X143230190Y-115087947D01*
X143230500Y-115095840D01*
X143230500Y-115719752D01*
X143228567Y-115739378D01*
X143225545Y-115754570D01*
X143225545Y-115754574D01*
X143229534Y-115774631D01*
X143229536Y-115774635D01*
X143245172Y-115853247D01*
X143301069Y-115936902D01*
X143313945Y-115945505D01*
X143329191Y-115958017D01*
X144410909Y-117039735D01*
X145018040Y-117646865D01*
X145046266Y-117702263D01*
X145036540Y-117763671D01*
X144992576Y-117807635D01*
X144946905Y-117818600D01*
X144367901Y-117818600D01*
X144296736Y-117825067D01*
X144296734Y-117825067D01*
X144132954Y-117876102D01*
X144132952Y-117876104D01*
X143986149Y-117964850D01*
X143864850Y-118086149D01*
X143776104Y-118232952D01*
X143776102Y-118232954D01*
X143725069Y-118396727D01*
X143725068Y-118396732D01*
X143718600Y-118467912D01*
X143718600Y-118946800D01*
X145552600Y-118946800D01*
X145611731Y-118966013D01*
X145648276Y-119016313D01*
X145653200Y-119047400D01*
X145653200Y-120531399D01*
X146482098Y-120531399D01*
X146553263Y-120524932D01*
X146553265Y-120524932D01*
X146717045Y-120473897D01*
X146717047Y-120473895D01*
X146863850Y-120385149D01*
X146985149Y-120263850D01*
X147073895Y-120117047D01*
X147073897Y-120117045D01*
X147124930Y-119953274D01*
X147125957Y-119941969D01*
X147150440Y-119884818D01*
X147203840Y-119852973D01*
X147265759Y-119858597D01*
X147297280Y-119879934D01*
X148119393Y-120702047D01*
X148147619Y-120757445D01*
X148147834Y-120787497D01*
X148142443Y-120824997D01*
X148142443Y-120825000D01*
X148160977Y-120953909D01*
X148170609Y-120974999D01*
X148215078Y-121072373D01*
X148300360Y-121170795D01*
X148300364Y-121170799D01*
X148409924Y-121241208D01*
X148534883Y-121277900D01*
X148534884Y-121277900D01*
X148665116Y-121277900D01*
X148665117Y-121277900D01*
X148790076Y-121241208D01*
X148899636Y-121170799D01*
X148984921Y-121072374D01*
X149039023Y-120953909D01*
X149057557Y-120825000D01*
X149039023Y-120696091D01*
X148984921Y-120577626D01*
X148946142Y-120532872D01*
X148899639Y-120479204D01*
X148899637Y-120479203D01*
X148899636Y-120479201D01*
X148796825Y-120413129D01*
X148757469Y-120364999D01*
X148753919Y-120302926D01*
X148787532Y-120250622D01*
X148845470Y-120228064D01*
X148851214Y-120227900D01*
X150456710Y-120227900D01*
X150456714Y-120227899D01*
X150551055Y-120212957D01*
X150664771Y-120155016D01*
X150755016Y-120064771D01*
X150812957Y-119951055D01*
X150827900Y-119856708D01*
X150827900Y-119703500D01*
X150847113Y-119644369D01*
X150897413Y-119607824D01*
X150928500Y-119602900D01*
X150996500Y-119602900D01*
X151055631Y-119622113D01*
X151092176Y-119672413D01*
X151097100Y-119703500D01*
X151097100Y-120556704D01*
X151100414Y-120577626D01*
X151112043Y-120651054D01*
X151112043Y-120651055D01*
X151112044Y-120651057D01*
X151169981Y-120764766D01*
X151169982Y-120764767D01*
X151169984Y-120764770D01*
X151260230Y-120855016D01*
X151260232Y-120855017D01*
X151260233Y-120855018D01*
X151373942Y-120912955D01*
X151373946Y-120912957D01*
X151468293Y-120927900D01*
X152456706Y-120927899D01*
X152506454Y-120920020D01*
X152567861Y-120929747D01*
X152611825Y-120973711D01*
X152621765Y-121005065D01*
X152635976Y-121103908D01*
X152690078Y-121222373D01*
X152775360Y-121320795D01*
X152775364Y-121320799D01*
X152884924Y-121391208D01*
X153009883Y-121427900D01*
X153009884Y-121427900D01*
X153140116Y-121427900D01*
X153140117Y-121427900D01*
X153265076Y-121391208D01*
X153374636Y-121320799D01*
X153459921Y-121222374D01*
X153514023Y-121103909D01*
X153532557Y-120975000D01*
X153531538Y-120967916D01*
X153528137Y-120944259D01*
X153514023Y-120846091D01*
X153459921Y-120727626D01*
X153432596Y-120696091D01*
X153374639Y-120629204D01*
X153374635Y-120629200D01*
X153265076Y-120558792D01*
X153265075Y-120558791D01*
X153171786Y-120531399D01*
X153140117Y-120522100D01*
X153021424Y-120522100D01*
X152962293Y-120502887D01*
X152950289Y-120492635D01*
X152857364Y-120399710D01*
X152829138Y-120344312D01*
X152827899Y-120328575D01*
X152827899Y-119243295D01*
X152820877Y-119198958D01*
X152812957Y-119148946D01*
X152761217Y-119047400D01*
X152755018Y-119035233D01*
X152755017Y-119035232D01*
X152755016Y-119035230D01*
X152664770Y-118944984D01*
X152664767Y-118944982D01*
X152664766Y-118944981D01*
X152664767Y-118944981D01*
X152551057Y-118887044D01*
X152551051Y-118887042D01*
X152456711Y-118872100D01*
X151468295Y-118872100D01*
X151402565Y-118882510D01*
X151373946Y-118887043D01*
X151373944Y-118887043D01*
X151373942Y-118887044D01*
X151260233Y-118944981D01*
X151169982Y-119035232D01*
X151166448Y-119042170D01*
X151122485Y-119086134D01*
X151076812Y-119097100D01*
X150928500Y-119097100D01*
X150869369Y-119077887D01*
X150832824Y-119027587D01*
X150827900Y-118996500D01*
X150827900Y-118493290D01*
X150827899Y-118493285D01*
X150823880Y-118467912D01*
X150812957Y-118398945D01*
X150801550Y-118376557D01*
X150755018Y-118285232D01*
X150755017Y-118285231D01*
X150755016Y-118285229D01*
X150664771Y-118194984D01*
X150664768Y-118194982D01*
X150664767Y-118194981D01*
X150664768Y-118194981D01*
X150551058Y-118137044D01*
X150551052Y-118137042D01*
X150456714Y-118122100D01*
X150456708Y-118122100D01*
X149360479Y-118122100D01*
X149301348Y-118102887D01*
X149264803Y-118052587D01*
X149264803Y-117990413D01*
X149284450Y-117955622D01*
X149308470Y-117927900D01*
X149334921Y-117897374D01*
X149389023Y-117778909D01*
X149407557Y-117650000D01*
X149389023Y-117521091D01*
X149334921Y-117402626D01*
X149249636Y-117304201D01*
X149249635Y-117304200D01*
X149140076Y-117233792D01*
X149140075Y-117233791D01*
X149039818Y-117204353D01*
X149015117Y-117197100D01*
X148896425Y-117197100D01*
X148837294Y-117177887D01*
X148825290Y-117167635D01*
X148778446Y-117120791D01*
X148765934Y-117105545D01*
X148757330Y-117092668D01*
X148736213Y-117078558D01*
X148673678Y-117036773D01*
X148599911Y-117022100D01*
X148575000Y-117017145D01*
X148559807Y-117020167D01*
X148540181Y-117022100D01*
X146853424Y-117022100D01*
X146794293Y-117002887D01*
X146757748Y-116952587D01*
X146757748Y-116890413D01*
X146782288Y-116850366D01*
X146829209Y-116803444D01*
X146844450Y-116790937D01*
X146857331Y-116782331D01*
X146867472Y-116767153D01*
X146877544Y-116752082D01*
X146913226Y-116698678D01*
X146913225Y-116698678D01*
X146913227Y-116698677D01*
X146932855Y-116600000D01*
X146929833Y-116584807D01*
X146927900Y-116565181D01*
X146927900Y-115393460D01*
X146947113Y-115334329D01*
X146997413Y-115297784D01*
X147058430Y-115297415D01*
X147146731Y-115324931D01*
X147217912Y-115331399D01*
X148046800Y-115331399D01*
X148046800Y-114203200D01*
X148503200Y-114203200D01*
X148503200Y-115331399D01*
X149332098Y-115331399D01*
X149403263Y-115324932D01*
X149403265Y-115324932D01*
X149567045Y-115273897D01*
X149567047Y-115273895D01*
X149713850Y-115185149D01*
X149835149Y-115063850D01*
X149923895Y-114917047D01*
X149923897Y-114917045D01*
X149974930Y-114753272D01*
X149974931Y-114753267D01*
X149981400Y-114682087D01*
X149981400Y-114203200D01*
X148503200Y-114203200D01*
X148046800Y-114203200D01*
X148046800Y-112618600D01*
X147797181Y-112618600D01*
X147738050Y-112599387D01*
X147701505Y-112549087D01*
X147701505Y-112486913D01*
X147726046Y-112446865D01*
X147815546Y-112357365D01*
X147870944Y-112329139D01*
X147886681Y-112327900D01*
X149264065Y-112327900D01*
X149323196Y-112347113D01*
X149359741Y-112397413D01*
X149359741Y-112459587D01*
X149357007Y-112466998D01*
X149319935Y-112556498D01*
X149279556Y-112603776D01*
X149226993Y-112618600D01*
X148503200Y-112618600D01*
X148503200Y-113746800D01*
X149981399Y-113746800D01*
X149981399Y-113337652D01*
X150000612Y-113278521D01*
X150043501Y-113244710D01*
X150126431Y-113210359D01*
X150126430Y-113210359D01*
X150126436Y-113210357D01*
X150241933Y-113121733D01*
X150330557Y-113006236D01*
X150351573Y-112955500D01*
X150367520Y-112917001D01*
X150407899Y-112869724D01*
X150460462Y-112854900D01*
X150932444Y-112854900D01*
X150991575Y-112874113D01*
X151028120Y-112924413D01*
X151028120Y-112986587D01*
X151003580Y-113026632D01*
X150960335Y-113069878D01*
X150944981Y-113085232D01*
X150887044Y-113198941D01*
X150887042Y-113198947D01*
X150872100Y-113293285D01*
X150872100Y-114656714D01*
X150887042Y-114751052D01*
X150887044Y-114751058D01*
X150944981Y-114864767D01*
X150944982Y-114864768D01*
X150944984Y-114864771D01*
X151035229Y-114955016D01*
X151035231Y-114955017D01*
X151035232Y-114955018D01*
X151106560Y-114991361D01*
X151148945Y-115012957D01*
X151219185Y-115024081D01*
X151243285Y-115027899D01*
X151243290Y-115027900D01*
X151243292Y-115027900D01*
X151634000Y-115027900D01*
X151693131Y-115047113D01*
X151729676Y-115097413D01*
X151734600Y-115128500D01*
X151734600Y-115721500D01*
X151715387Y-115780631D01*
X151665087Y-115817176D01*
X151634001Y-115822100D01*
X151468295Y-115822100D01*
X151402565Y-115832510D01*
X151373946Y-115837043D01*
X151373944Y-115837043D01*
X151373942Y-115837044D01*
X151260233Y-115894981D01*
X151169981Y-115985233D01*
X151112044Y-116098942D01*
X151112042Y-116098948D01*
X151097100Y-116193286D01*
X151097100Y-117506704D01*
X151101921Y-117537141D01*
X151112043Y-117601054D01*
X151112043Y-117601055D01*
X151112044Y-117601057D01*
X151169981Y-117714766D01*
X151169982Y-117714767D01*
X151169984Y-117714770D01*
X151260230Y-117805016D01*
X151260232Y-117805017D01*
X151260233Y-117805018D01*
X151299582Y-117825067D01*
X151373946Y-117862957D01*
X151468293Y-117877900D01*
X152456706Y-117877899D01*
X152551054Y-117862957D01*
X152664770Y-117805016D01*
X152712422Y-117757364D01*
X152767820Y-117729138D01*
X152783556Y-117727900D01*
X152848924Y-117727900D01*
X152908055Y-117747113D01*
X152924951Y-117762619D01*
X152939066Y-117778909D01*
X152975360Y-117820795D01*
X152975364Y-117820799D01*
X153084924Y-117891208D01*
X153209883Y-117927900D01*
X153209884Y-117927900D01*
X153340116Y-117927900D01*
X153340117Y-117927900D01*
X153465076Y-117891208D01*
X153574636Y-117820799D01*
X153659921Y-117722374D01*
X153714023Y-117603909D01*
X153732557Y-117475000D01*
X153714023Y-117346091D01*
X153659921Y-117227626D01*
X153639755Y-117204353D01*
X153574639Y-117129204D01*
X153574635Y-117129200D01*
X153465076Y-117058792D01*
X153465075Y-117058791D01*
X153367433Y-117030121D01*
X153340117Y-117022100D01*
X153209883Y-117022100D01*
X153182567Y-117030121D01*
X153084924Y-117058791D01*
X152982886Y-117124366D01*
X152922754Y-117140171D01*
X152864817Y-117117613D01*
X152831204Y-117065308D01*
X152827899Y-117039741D01*
X152827899Y-116193294D01*
X152812957Y-116098946D01*
X152782102Y-116038389D01*
X152755018Y-115985233D01*
X152755017Y-115985232D01*
X152755016Y-115985230D01*
X152664770Y-115894984D01*
X152664767Y-115894982D01*
X152664766Y-115894981D01*
X152664767Y-115894981D01*
X152551057Y-115837044D01*
X152551051Y-115837042D01*
X152456713Y-115822100D01*
X152456707Y-115822100D01*
X152341000Y-115822100D01*
X152281869Y-115802887D01*
X152245324Y-115752587D01*
X152240400Y-115721500D01*
X152240400Y-115128500D01*
X152259613Y-115069369D01*
X152309913Y-115032824D01*
X152341000Y-115027900D01*
X153306710Y-115027900D01*
X153306714Y-115027899D01*
X153401055Y-115012957D01*
X153514771Y-114955016D01*
X153605016Y-114864771D01*
X153662957Y-114751055D01*
X153677900Y-114656708D01*
X153677900Y-113293292D01*
X153662957Y-113198945D01*
X153662955Y-113198941D01*
X153605018Y-113085232D01*
X153605017Y-113085231D01*
X153605016Y-113085229D01*
X153546419Y-113026632D01*
X153518195Y-112971237D01*
X153527921Y-112909829D01*
X153571885Y-112865865D01*
X153617556Y-112854900D01*
X154371500Y-112854900D01*
X154430631Y-112874113D01*
X154467176Y-112924413D01*
X154472100Y-112955500D01*
X154472100Y-113719233D01*
X154452887Y-113778364D01*
X154430677Y-113799341D01*
X154430804Y-113799487D01*
X154427408Y-113802429D01*
X154425894Y-113803860D01*
X154425366Y-113804198D01*
X154340077Y-113902628D01*
X154285977Y-114021091D01*
X154268306Y-114144001D01*
X154267443Y-114150000D01*
X154282647Y-114255751D01*
X154285977Y-114278908D01*
X154340078Y-114397373D01*
X154425360Y-114495795D01*
X154425364Y-114495799D01*
X154534924Y-114566208D01*
X154659883Y-114602900D01*
X154659884Y-114602900D01*
X154790116Y-114602900D01*
X154790117Y-114602900D01*
X154915076Y-114566208D01*
X155024636Y-114495799D01*
X155109921Y-114397374D01*
X155164023Y-114278909D01*
X155182557Y-114150000D01*
X155181694Y-114144001D01*
X155178094Y-114118958D01*
X155164023Y-114021091D01*
X155109921Y-113902626D01*
X155024636Y-113804201D01*
X155024635Y-113804200D01*
X155024633Y-113804198D01*
X155024106Y-113803860D01*
X155023774Y-113803454D01*
X155019196Y-113799487D01*
X155019882Y-113798694D01*
X154984752Y-113755726D01*
X154977900Y-113719233D01*
X154977900Y-112955500D01*
X154997113Y-112896369D01*
X155047413Y-112859824D01*
X155078500Y-112854900D01*
X158274769Y-112854900D01*
X158333900Y-112874113D01*
X158370445Y-112924413D01*
X158370445Y-112986587D01*
X158333900Y-113036887D01*
X158330661Y-113039145D01*
X158314765Y-113049766D01*
X158280971Y-113100342D01*
X158272100Y-113144943D01*
X158272100Y-115375055D01*
X158280971Y-115419657D01*
X158280973Y-115419661D01*
X158314764Y-115470232D01*
X158314765Y-115470233D01*
X158314766Y-115470234D01*
X158365342Y-115504028D01*
X158409943Y-115512900D01*
X158866806Y-115512899D01*
X158925935Y-115532112D01*
X158962480Y-115582412D01*
X158962480Y-115644586D01*
X158925935Y-115694886D01*
X158909324Y-115704671D01*
X158896165Y-115710807D01*
X158896154Y-115710814D01*
X158716572Y-115836559D01*
X158561559Y-115991572D01*
X158435814Y-116171154D01*
X158435809Y-116171162D01*
X158343163Y-116369842D01*
X158315646Y-116472537D01*
X158281784Y-116524681D01*
X158223739Y-116546962D01*
X158218474Y-116547100D01*
X155903499Y-116547100D01*
X155844368Y-116527887D01*
X155807823Y-116477587D01*
X155802899Y-116446500D01*
X155802899Y-116193295D01*
X155802898Y-116193286D01*
X155787957Y-116098946D01*
X155757102Y-116038389D01*
X155730018Y-115985233D01*
X155730017Y-115985232D01*
X155730016Y-115985230D01*
X155639770Y-115894984D01*
X155639767Y-115894982D01*
X155639766Y-115894981D01*
X155639767Y-115894981D01*
X155526057Y-115837044D01*
X155526051Y-115837042D01*
X155431711Y-115822100D01*
X154443295Y-115822100D01*
X154377565Y-115832510D01*
X154348946Y-115837043D01*
X154348944Y-115837043D01*
X154348942Y-115837044D01*
X154235233Y-115894981D01*
X154144981Y-115985233D01*
X154087044Y-116098942D01*
X154087042Y-116098948D01*
X154072100Y-116193286D01*
X154072100Y-117506704D01*
X154076921Y-117537141D01*
X154087043Y-117601054D01*
X154087043Y-117601055D01*
X154087044Y-117601057D01*
X154144981Y-117714766D01*
X154144982Y-117714767D01*
X154144984Y-117714770D01*
X154235230Y-117805016D01*
X154235232Y-117805017D01*
X154235233Y-117805018D01*
X154274582Y-117825067D01*
X154348946Y-117862957D01*
X154443293Y-117877900D01*
X155431706Y-117877899D01*
X155526054Y-117862957D01*
X155639770Y-117805016D01*
X155730016Y-117714770D01*
X155787957Y-117601054D01*
X155802900Y-117506707D01*
X155802900Y-117153500D01*
X155822113Y-117094369D01*
X155872413Y-117057824D01*
X155903500Y-117052900D01*
X158218474Y-117052900D01*
X158277605Y-117072113D01*
X158314150Y-117122413D01*
X158315646Y-117127463D01*
X158336137Y-117203938D01*
X158343163Y-117230157D01*
X158377692Y-117304204D01*
X158435812Y-117428843D01*
X158561557Y-117608425D01*
X158716575Y-117763443D01*
X158896157Y-117889188D01*
X158913710Y-117897373D01*
X159088385Y-117978826D01*
X159133856Y-118021228D01*
X159145719Y-118082260D01*
X159119443Y-118138609D01*
X159088385Y-118161174D01*
X158896162Y-118250809D01*
X158896154Y-118250814D01*
X158716572Y-118376559D01*
X158561559Y-118531572D01*
X158435814Y-118711154D01*
X158435809Y-118711162D01*
X158343163Y-118909842D01*
X158315646Y-119012537D01*
X158281784Y-119064681D01*
X158223739Y-119086962D01*
X158218474Y-119087100D01*
X155818093Y-119087100D01*
X155758962Y-119067887D01*
X155735827Y-119040799D01*
X155734673Y-119041639D01*
X155730019Y-119035234D01*
X155730017Y-119035232D01*
X155730016Y-119035230D01*
X155639770Y-118944984D01*
X155639767Y-118944982D01*
X155639766Y-118944981D01*
X155639767Y-118944981D01*
X155526057Y-118887044D01*
X155526051Y-118887042D01*
X155431711Y-118872100D01*
X154443295Y-118872100D01*
X154377565Y-118882510D01*
X154348946Y-118887043D01*
X154348944Y-118887043D01*
X154348942Y-118887044D01*
X154235233Y-118944981D01*
X154144981Y-119035233D01*
X154087044Y-119148942D01*
X154087042Y-119148948D01*
X154072100Y-119243286D01*
X154072100Y-120556704D01*
X154075414Y-120577626D01*
X154087043Y-120651054D01*
X154087043Y-120651055D01*
X154087044Y-120651057D01*
X154144981Y-120764766D01*
X154144982Y-120764767D01*
X154144984Y-120764770D01*
X154235230Y-120855016D01*
X154235232Y-120855017D01*
X154235233Y-120855018D01*
X154348942Y-120912955D01*
X154348946Y-120912957D01*
X154443293Y-120927900D01*
X155431706Y-120927899D01*
X155526054Y-120912957D01*
X155639770Y-120855016D01*
X155730016Y-120764770D01*
X155787957Y-120651054D01*
X155802900Y-120556707D01*
X155802899Y-119693499D01*
X155822112Y-119634369D01*
X155872412Y-119597824D01*
X155903499Y-119592900D01*
X158218474Y-119592900D01*
X158277605Y-119612113D01*
X158314150Y-119662413D01*
X158315646Y-119667463D01*
X158316972Y-119672413D01*
X158338435Y-119752514D01*
X158343163Y-119770157D01*
X158401661Y-119895606D01*
X158435812Y-119968843D01*
X158561557Y-120148425D01*
X158561559Y-120148427D01*
X158716576Y-120303444D01*
X158778674Y-120346926D01*
X158816091Y-120396580D01*
X158817176Y-120458745D01*
X158781514Y-120509675D01*
X158773536Y-120515107D01*
X158607341Y-120616952D01*
X158607336Y-120616955D01*
X158595115Y-120627392D01*
X159331937Y-121364214D01*
X159236542Y-121405651D01*
X159119261Y-121501066D01*
X159032072Y-121624585D01*
X159009729Y-121687452D01*
X158272392Y-120950115D01*
X158261955Y-120962336D01*
X158261954Y-120962338D01*
X158133947Y-121171227D01*
X158133946Y-121171229D01*
X158040196Y-121397561D01*
X158040196Y-121397562D01*
X157983009Y-121635765D01*
X157983007Y-121635774D01*
X157963787Y-121880000D01*
X157983007Y-122124225D01*
X157983009Y-122124234D01*
X158040196Y-122362437D01*
X158040196Y-122362438D01*
X158133946Y-122588770D01*
X158133948Y-122588776D01*
X158261953Y-122797660D01*
X158261956Y-122797663D01*
X158272392Y-122809882D01*
X159006824Y-122075450D01*
X159071442Y-122200156D01*
X159174638Y-122310652D01*
X159303819Y-122389209D01*
X159330920Y-122396802D01*
X158595116Y-123132605D01*
X158607341Y-123143047D01*
X158816223Y-123271051D01*
X158816229Y-123271053D01*
X159042562Y-123364803D01*
X159280765Y-123421990D01*
X159280774Y-123421992D01*
X159525000Y-123441212D01*
X159769225Y-123421992D01*
X159769234Y-123421990D01*
X160007437Y-123364803D01*
X160007438Y-123364803D01*
X160233770Y-123271053D01*
X160233772Y-123271052D01*
X160442656Y-123143048D01*
X160454882Y-123132606D01*
X160454882Y-123132605D01*
X159718062Y-122395785D01*
X159813458Y-122354349D01*
X159930739Y-122258934D01*
X160017928Y-122135415D01*
X160040270Y-122072547D01*
X160777605Y-122809882D01*
X160777606Y-122809882D01*
X160788048Y-122797656D01*
X160916052Y-122588772D01*
X160916053Y-122588770D01*
X161009803Y-122362438D01*
X161009803Y-122362437D01*
X161066990Y-122124234D01*
X161066992Y-122124225D01*
X161086212Y-121880000D01*
X161066992Y-121635774D01*
X161066990Y-121635765D01*
X161009803Y-121397562D01*
X161009803Y-121397561D01*
X160916053Y-121171229D01*
X160916051Y-121171223D01*
X160788047Y-120962341D01*
X160777605Y-120950116D01*
X160043174Y-121684547D01*
X159978558Y-121559844D01*
X159875362Y-121449348D01*
X159746181Y-121370791D01*
X159719077Y-121363197D01*
X160454883Y-120627392D01*
X160442666Y-120616958D01*
X160276462Y-120515108D01*
X160236084Y-120467830D01*
X160231206Y-120405847D01*
X160263692Y-120352835D01*
X160271311Y-120346935D01*
X160333425Y-120303443D01*
X160488443Y-120148425D01*
X160614188Y-119968843D01*
X160706838Y-119770154D01*
X160763579Y-119558395D01*
X160782686Y-119340000D01*
X160763579Y-119121605D01*
X160706838Y-118909846D01*
X160696205Y-118887044D01*
X160633765Y-118753141D01*
X160614188Y-118711157D01*
X160488443Y-118531575D01*
X160333425Y-118376557D01*
X160153843Y-118250812D01*
X159961614Y-118161174D01*
X159916143Y-118118772D01*
X159904280Y-118057740D01*
X159930556Y-118001391D01*
X159961615Y-117978825D01*
X159968424Y-117975650D01*
X160153843Y-117889188D01*
X160333425Y-117763443D01*
X160488443Y-117608425D01*
X160614188Y-117428843D01*
X160706838Y-117230154D01*
X160763579Y-117018395D01*
X160782686Y-116800000D01*
X160763579Y-116581605D01*
X160706838Y-116369846D01*
X160694764Y-116343954D01*
X160656383Y-116261644D01*
X160614188Y-116171157D01*
X160488443Y-115991575D01*
X160333425Y-115836557D01*
X160153843Y-115710812D01*
X160153832Y-115710807D01*
X160140678Y-115704673D01*
X160095207Y-115662270D01*
X160083344Y-115601238D01*
X160109620Y-115544889D01*
X160163999Y-115514747D01*
X160183191Y-115512899D01*
X160640056Y-115512899D01*
X160684658Y-115504028D01*
X160735234Y-115470234D01*
X160769028Y-115419658D01*
X160777900Y-115375057D01*
X160777899Y-113144944D01*
X160769028Y-113100342D01*
X160769026Y-113100338D01*
X160735235Y-113049767D01*
X160735233Y-113049765D01*
X160684657Y-113015971D01*
X160648928Y-113008864D01*
X160640057Y-113007100D01*
X160640056Y-113007100D01*
X159228384Y-113007100D01*
X159169253Y-112987887D01*
X159132708Y-112937587D01*
X159132708Y-112875413D01*
X159169253Y-112825113D01*
X159180483Y-112818036D01*
X159182735Y-112816817D01*
X159186381Y-112814940D01*
X159230897Y-112793179D01*
X159230898Y-112793178D01*
X159236937Y-112788866D01*
X159242750Y-112784341D01*
X159242750Y-112784340D01*
X159242753Y-112784339D01*
X159276310Y-112747884D01*
X159279143Y-112744931D01*
X160489623Y-111534451D01*
X160505730Y-111521372D01*
X160515658Y-111514887D01*
X160534539Y-111490627D01*
X160542795Y-111481280D01*
X160543556Y-111480520D01*
X160555143Y-111464289D01*
X160557549Y-111461064D01*
X160587998Y-111421944D01*
X160587998Y-111421941D01*
X160588000Y-111421940D01*
X160591509Y-111415454D01*
X160594764Y-111408798D01*
X160594764Y-111408797D01*
X160594766Y-111408795D01*
X160608911Y-111361281D01*
X160610152Y-111357410D01*
X160626240Y-111310549D01*
X160626240Y-111310548D01*
X160627459Y-111303239D01*
X160628373Y-111295914D01*
X160626326Y-111246431D01*
X160626240Y-111242272D01*
X160626240Y-101796652D01*
X160629026Y-101777527D01*
X160629002Y-101777524D01*
X160630032Y-101769257D01*
X160630033Y-101769255D01*
X160629935Y-101766895D01*
X160631992Y-101742082D01*
X160632474Y-101739783D01*
X160627510Y-101699969D01*
X160626823Y-101691677D01*
X160625297Y-101654767D01*
X160625165Y-101651578D01*
X160624304Y-101649373D01*
X160618197Y-101625249D01*
X160617906Y-101622912D01*
X160612379Y-101611607D01*
X160602159Y-101567427D01*
X160602159Y-86171297D01*
X160604301Y-86150650D01*
X160606734Y-86139045D01*
X160606734Y-86139044D01*
X160602932Y-86108545D01*
X160602159Y-86096099D01*
X160602159Y-86095017D01*
X160602158Y-86095007D01*
X160598887Y-86075409D01*
X160598295Y-86071353D01*
X160592165Y-86022171D01*
X160592162Y-86022165D01*
X160590062Y-86015110D01*
X160587653Y-86008093D01*
X160587653Y-86008088D01*
X160564060Y-85964493D01*
X160562208Y-85960895D01*
X160540438Y-85916362D01*
X160540436Y-85916360D01*
X160536129Y-85910327D01*
X160531599Y-85904507D01*
X160520010Y-85893839D01*
X160495144Y-85870948D01*
X160492168Y-85868092D01*
X160332365Y-85708289D01*
X160304139Y-85652891D01*
X160302900Y-85637154D01*
X160302900Y-84768290D01*
X160302899Y-84768285D01*
X160287957Y-84673947D01*
X160287957Y-84673945D01*
X160240388Y-84580585D01*
X160230018Y-84560232D01*
X160230017Y-84560231D01*
X160230016Y-84560229D01*
X160139771Y-84469984D01*
X160139768Y-84469982D01*
X160139767Y-84469981D01*
X160139768Y-84469981D01*
X160026058Y-84412044D01*
X160026052Y-84412042D01*
X159931714Y-84397100D01*
X159931708Y-84397100D01*
X159168292Y-84397100D01*
X159168285Y-84397100D01*
X159073947Y-84412042D01*
X159073941Y-84412044D01*
X158960232Y-84469981D01*
X158869981Y-84560232D01*
X158812044Y-84673941D01*
X158812042Y-84673947D01*
X158797100Y-84768285D01*
X158797100Y-84986558D01*
X158777887Y-85045689D01*
X158727587Y-85082234D01*
X158665413Y-85082234D01*
X158615113Y-85045689D01*
X158596384Y-84996419D01*
X158591112Y-84942903D01*
X158530710Y-84743782D01*
X158530707Y-84743774D01*
X158432621Y-84560267D01*
X158432613Y-84560256D01*
X158300601Y-84399398D01*
X158139743Y-84267386D01*
X158139732Y-84267378D01*
X157956225Y-84169292D01*
X157956220Y-84169290D01*
X157778200Y-84115288D01*
X157778200Y-85127415D01*
X157730948Y-85090637D01*
X157612576Y-85050000D01*
X157518927Y-85050000D01*
X157426554Y-85065414D01*
X157321800Y-85122105D01*
X157321800Y-84115288D01*
X157143779Y-84169290D01*
X157143774Y-84169292D01*
X156960267Y-84267378D01*
X156960256Y-84267386D01*
X156799398Y-84399398D01*
X156667386Y-84560256D01*
X156667378Y-84560267D01*
X156569292Y-84743774D01*
X156569289Y-84743782D01*
X156508887Y-84942903D01*
X156493600Y-85098109D01*
X156493600Y-85196800D01*
X157250372Y-85196800D01*
X157231722Y-85217059D01*
X157181449Y-85331670D01*
X157171114Y-85456395D01*
X157201837Y-85577719D01*
X157251151Y-85653200D01*
X156493600Y-85653200D01*
X156493600Y-85751890D01*
X156508887Y-85907096D01*
X156569289Y-86106217D01*
X156569292Y-86106225D01*
X156667378Y-86289732D01*
X156667386Y-86289743D01*
X156799398Y-86450601D01*
X156960256Y-86582613D01*
X156960267Y-86582621D01*
X157143774Y-86680707D01*
X157143781Y-86680710D01*
X157321799Y-86734710D01*
X157321800Y-86734709D01*
X157321800Y-85722584D01*
X157369052Y-85759363D01*
X157487424Y-85800000D01*
X157581073Y-85800000D01*
X157673446Y-85784586D01*
X157778200Y-85727894D01*
X157778200Y-86734710D01*
X157956218Y-86680710D01*
X157956225Y-86680707D01*
X158139732Y-86582621D01*
X158139743Y-86582613D01*
X158300601Y-86450601D01*
X158432613Y-86289743D01*
X158432621Y-86289732D01*
X158530707Y-86106225D01*
X158530710Y-86106217D01*
X158591112Y-85907096D01*
X158596384Y-85853580D01*
X158621301Y-85796617D01*
X158674941Y-85765178D01*
X158736816Y-85771273D01*
X158783291Y-85812572D01*
X158797100Y-85863441D01*
X158797100Y-86081714D01*
X158812042Y-86176052D01*
X158812044Y-86176058D01*
X158869981Y-86289767D01*
X158869982Y-86289768D01*
X158869984Y-86289771D01*
X158960229Y-86380016D01*
X158960231Y-86380017D01*
X158960232Y-86380018D01*
X159013233Y-86407023D01*
X159073945Y-86437957D01*
X159144185Y-86449081D01*
X159168285Y-86452899D01*
X159168290Y-86452900D01*
X159168292Y-86452900D01*
X159795759Y-86452900D01*
X159854890Y-86472113D01*
X159891435Y-86522413D01*
X159896359Y-86553500D01*
X159896359Y-90452276D01*
X159877146Y-90511407D01*
X159826846Y-90547952D01*
X159764672Y-90547952D01*
X159714372Y-90511407D01*
X159696020Y-90465407D01*
X159694339Y-90452643D01*
X159640544Y-90322770D01*
X159640540Y-90322763D01*
X159554964Y-90211238D01*
X159554958Y-90211232D01*
X159443437Y-90125659D01*
X159443430Y-90125655D01*
X159313557Y-90071860D01*
X159174184Y-90053512D01*
X159174178Y-90053512D01*
X159034805Y-90071860D01*
X158904932Y-90125655D01*
X158904930Y-90125656D01*
X158853634Y-90165016D01*
X158793399Y-90211237D01*
X158793397Y-90211238D01*
X158788325Y-90215131D01*
X158729717Y-90235885D01*
X158727084Y-90235919D01*
X152981870Y-90235919D01*
X152922739Y-90216706D01*
X152886194Y-90166406D01*
X152886194Y-90104232D01*
X152910735Y-90064184D01*
X153093286Y-89881633D01*
X155736717Y-87238205D01*
X155792114Y-87209980D01*
X155794721Y-87209602D01*
X155882688Y-87198020D01*
X155940438Y-87190418D01*
X156070316Y-87136621D01*
X156181844Y-87051042D01*
X156267423Y-86939514D01*
X156321220Y-86809636D01*
X156331084Y-86734709D01*
X156339569Y-86670263D01*
X156339569Y-86670256D01*
X156321220Y-86530884D01*
X156267425Y-86401011D01*
X156267421Y-86401004D01*
X156181845Y-86289479D01*
X156181839Y-86289473D01*
X156070318Y-86203900D01*
X156070311Y-86203896D01*
X155940438Y-86150101D01*
X155801065Y-86131753D01*
X155801059Y-86131753D01*
X155661686Y-86150101D01*
X155531813Y-86203896D01*
X155531806Y-86203900D01*
X155420283Y-86289475D01*
X155420277Y-86289481D01*
X155334702Y-86401004D01*
X155334698Y-86401011D01*
X155280903Y-86530884D01*
X155261720Y-86676598D01*
X155234954Y-86732715D01*
X155233116Y-86734602D01*
X152370863Y-89596854D01*
X152315465Y-89625080D01*
X152299728Y-89626319D01*
X147703500Y-89626319D01*
X147644369Y-89607106D01*
X147607824Y-89556806D01*
X147602900Y-89525719D01*
X147602900Y-88775736D01*
X147622113Y-88716605D01*
X147642261Y-88695923D01*
X147642669Y-88695609D01*
X147644333Y-88694333D01*
X147732957Y-88578836D01*
X147788669Y-88444336D01*
X147807671Y-88300000D01*
X147807671Y-88299996D01*
X147788670Y-88155667D01*
X147732959Y-88021169D01*
X147732958Y-88021167D01*
X147732957Y-88021166D01*
X147732957Y-88021165D01*
X147644333Y-87905667D01*
X147528836Y-87817043D01*
X147528835Y-87817042D01*
X147528833Y-87817041D01*
X147528831Y-87817040D01*
X147394335Y-87761330D01*
X147250003Y-87742329D01*
X147249997Y-87742329D01*
X147105667Y-87761329D01*
X146971169Y-87817040D01*
X146971167Y-87817041D01*
X146855667Y-87905667D01*
X146767041Y-88021167D01*
X146767040Y-88021169D01*
X146711329Y-88155667D01*
X146692329Y-88299996D01*
X146692329Y-88300003D01*
X146711330Y-88444335D01*
X146767040Y-88578831D01*
X146767041Y-88578833D01*
X146855668Y-88694334D01*
X146857739Y-88695923D01*
X146858798Y-88697464D01*
X146860330Y-88698996D01*
X146860046Y-88699279D01*
X146892956Y-88747161D01*
X146897100Y-88775736D01*
X146897100Y-89674885D01*
X146894959Y-89695530D01*
X146892525Y-89707134D01*
X146896327Y-89737625D01*
X146897100Y-89750071D01*
X146897100Y-89751167D01*
X146900372Y-89770772D01*
X146900971Y-89774886D01*
X146907094Y-89824007D01*
X146909199Y-89831080D01*
X146911605Y-89838087D01*
X146911606Y-89838090D01*
X146935170Y-89881633D01*
X146937072Y-89885329D01*
X146958820Y-89929815D01*
X146963129Y-89935850D01*
X146967661Y-89941673D01*
X146978124Y-89951305D01*
X146991860Y-89966859D01*
X146993160Y-89968680D01*
X147225206Y-90200726D01*
X147238289Y-90216837D01*
X147244886Y-90226934D01*
X147244885Y-90226934D01*
X147269402Y-90246015D01*
X147278749Y-90254269D01*
X147279565Y-90255085D01*
X147295893Y-90266744D01*
X147299222Y-90269226D01*
X147338673Y-90299931D01*
X147345243Y-90303487D01*
X147351937Y-90306759D01*
X147351938Y-90306759D01*
X147351939Y-90306760D01*
X147399890Y-90321035D01*
X147403770Y-90322278D01*
X147451077Y-90338519D01*
X147451080Y-90338519D01*
X147458443Y-90339748D01*
X147465844Y-90340671D01*
X147515789Y-90338604D01*
X147519946Y-90338519D01*
X149212089Y-90338519D01*
X149271220Y-90357732D01*
X149307765Y-90408032D01*
X149307765Y-90470206D01*
X149283224Y-90510254D01*
X146721904Y-93071576D01*
X146666506Y-93099802D01*
X146650769Y-93101041D01*
X142349278Y-93101041D01*
X142290147Y-93081828D01*
X142288036Y-93080252D01*
X142282956Y-93076354D01*
X142171435Y-92990780D01*
X142171433Y-92990779D01*
X142171430Y-92990777D01*
X142041557Y-92936982D01*
X141902184Y-92918634D01*
X141902178Y-92918634D01*
X141762805Y-92936982D01*
X141632932Y-92990777D01*
X141632925Y-92990781D01*
X141521402Y-93076356D01*
X141521396Y-93076362D01*
X141435821Y-93187885D01*
X141435817Y-93187892D01*
X141382022Y-93317765D01*
X141363674Y-93457137D01*
X141363674Y-93457144D01*
X141382022Y-93596517D01*
X141435817Y-93726390D01*
X141435821Y-93726397D01*
X141521396Y-93837920D01*
X141521401Y-93837925D01*
X141632924Y-93923500D01*
X141632931Y-93923504D01*
X141762804Y-93977299D01*
X141902178Y-93995648D01*
X141902181Y-93995648D01*
X141902184Y-93995648D01*
X142041557Y-93977299D01*
X142171430Y-93923504D01*
X142171429Y-93923504D01*
X142171435Y-93923502D01*
X142282963Y-93837923D01*
X142282963Y-93837922D01*
X142288036Y-93834030D01*
X142346644Y-93813275D01*
X142349278Y-93813241D01*
X146792572Y-93813241D01*
X146813216Y-93815381D01*
X146825021Y-93817857D01*
X146855850Y-93814013D01*
X146868295Y-93813241D01*
X146869447Y-93813241D01*
X146869448Y-93813241D01*
X146889260Y-93809934D01*
X146893336Y-93809341D01*
X146942953Y-93803156D01*
X146950119Y-93801022D01*
X146957161Y-93798605D01*
X146957162Y-93798604D01*
X146957164Y-93798604D01*
X147001166Y-93774790D01*
X147004801Y-93772919D01*
X147049722Y-93750960D01*
X147049725Y-93750956D01*
X147055831Y-93746597D01*
X147061680Y-93742045D01*
X147061683Y-93742041D01*
X147061686Y-93742040D01*
X147095587Y-93705211D01*
X147098397Y-93702283D01*
X149823099Y-90977584D01*
X149878497Y-90949358D01*
X149894234Y-90948119D01*
X158727084Y-90948119D01*
X158786215Y-90967332D01*
X158788326Y-90968908D01*
X158793398Y-90972800D01*
X158793399Y-90972801D01*
X158904927Y-91058380D01*
X158904929Y-91058381D01*
X158904931Y-91058382D01*
X159034804Y-91112177D01*
X159174178Y-91130526D01*
X159174181Y-91130526D01*
X159174184Y-91130526D01*
X159313557Y-91112177D01*
X159443430Y-91058382D01*
X159443429Y-91058382D01*
X159443435Y-91058380D01*
X159554963Y-90972801D01*
X159640542Y-90861273D01*
X159694339Y-90731395D01*
X159694639Y-90729115D01*
X159696020Y-90718631D01*
X159722786Y-90662513D01*
X159777425Y-90632846D01*
X159839068Y-90640961D01*
X159884168Y-90683758D01*
X159896359Y-90731761D01*
X159896359Y-96401398D01*
X159877146Y-96460529D01*
X159826846Y-96497074D01*
X159764672Y-96497074D01*
X159724624Y-96472533D01*
X156918146Y-93666055D01*
X156889920Y-93610657D01*
X156888681Y-93594920D01*
X156888681Y-93488259D01*
X156893353Y-93464770D01*
X156892301Y-93464561D01*
X156901863Y-93416488D01*
X156909000Y-93380608D01*
X156909000Y-93380603D01*
X156913985Y-93355541D01*
X156913847Y-93354847D01*
X156913847Y-93315588D01*
X156913985Y-93314900D01*
X156909000Y-93289837D01*
X156909000Y-93289833D01*
X156894234Y-93215599D01*
X156837984Y-93131416D01*
X156824973Y-93122722D01*
X156809729Y-93110212D01*
X156452785Y-92753267D01*
X156440277Y-92738026D01*
X156431584Y-92725016D01*
X156424900Y-92720550D01*
X156414448Y-92713566D01*
X156414442Y-92713561D01*
X156414442Y-92713562D01*
X156410337Y-92710819D01*
X156410334Y-92710816D01*
X156347401Y-92668766D01*
X156347400Y-92668765D01*
X156347398Y-92668764D01*
X156327300Y-92664766D01*
X156275794Y-92637235D01*
X156208952Y-92570393D01*
X156196440Y-92555147D01*
X156187746Y-92542135D01*
X156187743Y-92542133D01*
X156136363Y-92507801D01*
X156136362Y-92507800D01*
X156111801Y-92491388D01*
X156106654Y-92487164D01*
X156100474Y-92484604D01*
X156093845Y-92483952D01*
X156029329Y-92471119D01*
X156004264Y-92466133D01*
X156004263Y-92466133D01*
X155988914Y-92469186D01*
X155969289Y-92471119D01*
X155104515Y-92471119D01*
X155084889Y-92469186D01*
X155069540Y-92466133D01*
X154970237Y-92485885D01*
X154906167Y-92528696D01*
X154906124Y-92528723D01*
X154886057Y-92542133D01*
X154886054Y-92542136D01*
X154877359Y-92555148D01*
X154864852Y-92570387D01*
X154273097Y-93162144D01*
X154251791Y-93178401D01*
X154249284Y-93179829D01*
X154249274Y-93179838D01*
X154247601Y-93181995D01*
X154243857Y-93184537D01*
X154241794Y-93186327D01*
X154241582Y-93186082D01*
X154196166Y-93216926D01*
X154134023Y-93214953D01*
X154088320Y-93181552D01*
X154007604Y-93076360D01*
X154007598Y-93076354D01*
X153896077Y-92990781D01*
X153896070Y-92990777D01*
X153766197Y-92936982D01*
X153626824Y-92918634D01*
X153626818Y-92918634D01*
X153487445Y-92936982D01*
X153357572Y-92990777D01*
X153357567Y-92990780D01*
X153336535Y-93006918D01*
X153277926Y-93027670D01*
X153218313Y-93010009D01*
X153204162Y-92998239D01*
X153013322Y-92807400D01*
X153009713Y-92803597D01*
X152977944Y-92768311D01*
X152977942Y-92768310D01*
X152977943Y-92768310D01*
X152948565Y-92751989D01*
X152938966Y-92745922D01*
X152911626Y-92726402D01*
X152911625Y-92726401D01*
X152911623Y-92726400D01*
X152902507Y-92723686D01*
X152882360Y-92715209D01*
X152773975Y-92654995D01*
X152761043Y-92646444D01*
X152742007Y-92631628D01*
X152688244Y-92613172D01*
X152687193Y-92612805D01*
X152633417Y-92593676D01*
X152632186Y-92593471D01*
X152631066Y-92593278D01*
X152629738Y-92593041D01*
X152629604Y-92593041D01*
X152572787Y-92593041D01*
X152571675Y-92593035D01*
X152511513Y-92592369D01*
X152502831Y-92593041D01*
X149347097Y-92593041D01*
X149287966Y-92573828D01*
X149285855Y-92572252D01*
X149274301Y-92563386D01*
X149169254Y-92482780D01*
X149169252Y-92482779D01*
X149169249Y-92482777D01*
X149039376Y-92428982D01*
X148900003Y-92410634D01*
X148899997Y-92410634D01*
X148760624Y-92428982D01*
X148630751Y-92482777D01*
X148630744Y-92482781D01*
X148519221Y-92568356D01*
X148519215Y-92568362D01*
X148433640Y-92679885D01*
X148433636Y-92679892D01*
X148379841Y-92809765D01*
X148361493Y-92949137D01*
X148361493Y-92949144D01*
X148379841Y-93088517D01*
X148433636Y-93218390D01*
X148433640Y-93218397D01*
X148519215Y-93329920D01*
X148519220Y-93329925D01*
X148630743Y-93415500D01*
X148630750Y-93415504D01*
X148760623Y-93469299D01*
X148899997Y-93487648D01*
X148900000Y-93487648D01*
X148900003Y-93487648D01*
X149039376Y-93469299D01*
X149117527Y-93436928D01*
X149169254Y-93415502D01*
X149280782Y-93329923D01*
X149280782Y-93329922D01*
X149285855Y-93326030D01*
X149344463Y-93305275D01*
X149347097Y-93305241D01*
X149396411Y-93305241D01*
X149455542Y-93324454D01*
X149492087Y-93374754D01*
X149492087Y-93436928D01*
X149467546Y-93476976D01*
X148820737Y-94123784D01*
X148816767Y-94127544D01*
X148805304Y-94137823D01*
X148805008Y-94138146D01*
X148796418Y-94148051D01*
X148796175Y-94148348D01*
X148787610Y-94161165D01*
X148784448Y-94165629D01*
X148744443Y-94218967D01*
X148735099Y-94229741D01*
X148127431Y-94837412D01*
X148112191Y-94849920D01*
X148099178Y-94858615D01*
X148099177Y-94858616D01*
X148084976Y-94879869D01*
X148058262Y-94919850D01*
X148058261Y-94919851D01*
X148042929Y-94942795D01*
X148042928Y-94942798D01*
X148030163Y-95006975D01*
X148030163Y-95006976D01*
X148023176Y-95042100D01*
X148026229Y-95057448D01*
X148028162Y-95077074D01*
X148028162Y-96373560D01*
X148008949Y-96432691D01*
X147958649Y-96469236D01*
X147927562Y-96474160D01*
X144949153Y-96474160D01*
X144890022Y-96454947D01*
X144869342Y-96434801D01*
X144802645Y-96347879D01*
X144802639Y-96347873D01*
X144691118Y-96262300D01*
X144691111Y-96262296D01*
X144561238Y-96208501D01*
X144421865Y-96190153D01*
X144421859Y-96190153D01*
X144282486Y-96208501D01*
X144152613Y-96262296D01*
X144152606Y-96262300D01*
X144041083Y-96347875D01*
X144041077Y-96347881D01*
X143955502Y-96459404D01*
X143955498Y-96459411D01*
X143901703Y-96589284D01*
X143883355Y-96728656D01*
X143883355Y-96728663D01*
X143901703Y-96868036D01*
X143955498Y-96997909D01*
X143955502Y-96997916D01*
X144041077Y-97109439D01*
X144041082Y-97109444D01*
X144152605Y-97195019D01*
X144152612Y-97195023D01*
X144282485Y-97248818D01*
X144421859Y-97267167D01*
X144421862Y-97267167D01*
X144421865Y-97267167D01*
X144561238Y-97248818D01*
X144691111Y-97195023D01*
X144691110Y-97195023D01*
X144691116Y-97195021D01*
X144802644Y-97109442D01*
X144867210Y-97025299D01*
X144869343Y-97022519D01*
X144920582Y-96987303D01*
X144949154Y-96983160D01*
X147502841Y-96983160D01*
X147561972Y-97002373D01*
X147598517Y-97052673D01*
X147598517Y-97114847D01*
X147582652Y-97145001D01*
X147531821Y-97211244D01*
X147531817Y-97211251D01*
X147478022Y-97341124D01*
X147459674Y-97480496D01*
X147459674Y-97480503D01*
X147478022Y-97619874D01*
X147496387Y-97664212D01*
X147501264Y-97726195D01*
X147468778Y-97779206D01*
X147416575Y-97802448D01*
X147330483Y-97813782D01*
X147200610Y-97867577D01*
X147200603Y-97867581D01*
X147089080Y-97953156D01*
X147089074Y-97953162D01*
X147003499Y-98064685D01*
X147003495Y-98064692D01*
X146949700Y-98194565D01*
X146931352Y-98333937D01*
X146931352Y-98333944D01*
X146949700Y-98473317D01*
X147003495Y-98603190D01*
X147003499Y-98603197D01*
X147089074Y-98714720D01*
X147089076Y-98714722D01*
X147089077Y-98714723D01*
X147093719Y-98718285D01*
X147116352Y-98735652D01*
X147151567Y-98786892D01*
X147149940Y-98849044D01*
X147126245Y-98886598D01*
X146885909Y-99126935D01*
X146830512Y-99155161D01*
X146814774Y-99156400D01*
X145310269Y-99156400D01*
X145290643Y-99154467D01*
X145277933Y-99151939D01*
X145275299Y-99151415D01*
X145255082Y-99155436D01*
X145255081Y-99155435D01*
X145255080Y-99155436D01*
X145193698Y-99167644D01*
X145193699Y-99167645D01*
X145175999Y-99171165D01*
X145175998Y-99171166D01*
X145122834Y-99206690D01*
X145091814Y-99227417D01*
X145083116Y-99240433D01*
X145070610Y-99255671D01*
X143453831Y-100872453D01*
X143438591Y-100884961D01*
X143425578Y-100893656D01*
X143425577Y-100893657D01*
X143411376Y-100914910D01*
X143369328Y-100977838D01*
X143354378Y-101052998D01*
X143349576Y-101077141D01*
X143352629Y-101092489D01*
X143354562Y-101112115D01*
X143354562Y-101173890D01*
X143335349Y-101233021D01*
X143325097Y-101245025D01*
X142979583Y-101590538D01*
X142968808Y-101599883D01*
X142915464Y-101639891D01*
X142911002Y-101643052D01*
X142898189Y-101651614D01*
X142897861Y-101651883D01*
X142887980Y-101660453D01*
X142887664Y-101660742D01*
X142877388Y-101672203D01*
X142873627Y-101676175D01*
X141970468Y-102579331D01*
X141955229Y-102591838D01*
X141942217Y-102600533D01*
X141942214Y-102600536D01*
X141928804Y-102620603D01*
X141928777Y-102620646D01*
X141885966Y-102684716D01*
X141866214Y-102784018D01*
X141869267Y-102799367D01*
X141871200Y-102818993D01*
X141871200Y-103597290D01*
X141870189Y-103611516D01*
X141868822Y-103621084D01*
X141871051Y-103661974D01*
X141871200Y-103667449D01*
X141871200Y-103682849D01*
X141871240Y-103683264D01*
X141872950Y-103696828D01*
X141874332Y-103722178D01*
X141874332Y-103722179D01*
X141874333Y-103722181D01*
X141876865Y-103727462D01*
X141884823Y-103751334D01*
X141885966Y-103757080D01*
X141885965Y-103757080D01*
X141900071Y-103778191D01*
X141906828Y-103790044D01*
X141907058Y-103790423D01*
X141907061Y-103790428D01*
X141912038Y-103797064D01*
X141932150Y-103855895D01*
X141932162Y-103857428D01*
X141932162Y-104760725D01*
X141930229Y-104780351D01*
X141927176Y-104795699D01*
X141927176Y-104795703D01*
X141931196Y-104815916D01*
X141931198Y-104815920D01*
X141942114Y-104870799D01*
X141942114Y-104870800D01*
X141948861Y-104904721D01*
X141947808Y-104904930D01*
X141952481Y-104928418D01*
X141952481Y-105319171D01*
X141933268Y-105378302D01*
X141923016Y-105390306D01*
X141582387Y-105730935D01*
X141526989Y-105759161D01*
X141511252Y-105760400D01*
X140468610Y-105760400D01*
X140409479Y-105741187D01*
X140372934Y-105690887D01*
X140372934Y-105628713D01*
X140386203Y-105602098D01*
X140425694Y-105545697D01*
X140425699Y-105545689D01*
X140522302Y-105338525D01*
X140581338Y-105118200D01*
X139737696Y-105118200D01*
X139749493Y-105099844D01*
X139790000Y-104961889D01*
X139790000Y-104818111D01*
X139749493Y-104680156D01*
X139737696Y-104661800D01*
X140581338Y-104661800D01*
X140581337Y-104661799D01*
X140522302Y-104441474D01*
X140508620Y-104412132D01*
X140501042Y-104350422D01*
X140531184Y-104296042D01*
X140587533Y-104269766D01*
X140638293Y-104276674D01*
X140645205Y-104279537D01*
X140680049Y-104284124D01*
X140784578Y-104297886D01*
X140784581Y-104297886D01*
X140784584Y-104297886D01*
X140923957Y-104279537D01*
X141053830Y-104225742D01*
X141053829Y-104225742D01*
X141053835Y-104225740D01*
X141165363Y-104140161D01*
X141250942Y-104028633D01*
X141304739Y-103898755D01*
X141313464Y-103832484D01*
X141323088Y-103759382D01*
X141323088Y-103759376D01*
X141310624Y-103664707D01*
X141304739Y-103620003D01*
X141304738Y-103620002D01*
X141304660Y-103619405D01*
X141309273Y-103584399D01*
X141306863Y-103583920D01*
X141323694Y-103499302D01*
X141328548Y-103474901D01*
X141325495Y-103459552D01*
X141323562Y-103439926D01*
X141323562Y-101030834D01*
X141325495Y-101011208D01*
X141326521Y-101006048D01*
X141328548Y-100995860D01*
X141322477Y-100965341D01*
X141308796Y-100896559D01*
X141308050Y-100895443D01*
X141304962Y-100890821D01*
X141304960Y-100890818D01*
X141304515Y-100890152D01*
X141266746Y-100833626D01*
X141266744Y-100833624D01*
X141264006Y-100829526D01*
X141263994Y-100829510D01*
X141252545Y-100812375D01*
X141239534Y-100803681D01*
X141224292Y-100791172D01*
X140174465Y-99741346D01*
X140146239Y-99685948D01*
X140145000Y-99670211D01*
X140145000Y-99260810D01*
X140146701Y-99242389D01*
X140147892Y-99235994D01*
X140149967Y-99224855D01*
X140139914Y-99177356D01*
X140139694Y-99176278D01*
X140135548Y-99155436D01*
X140130234Y-99128718D01*
X140130233Y-99128717D01*
X140130217Y-99128633D01*
X140129900Y-99127893D01*
X140129421Y-99126757D01*
X140129057Y-99125879D01*
X140101607Y-99085861D01*
X140100921Y-99084847D01*
X140073933Y-99044458D01*
X140073260Y-99043801D01*
X140072395Y-99042946D01*
X140071807Y-99042358D01*
X140031054Y-99015840D01*
X140030033Y-99015167D01*
X140006814Y-98999653D01*
X139989801Y-98988285D01*
X139989800Y-98988284D01*
X139989799Y-98988284D01*
X139972308Y-98984805D01*
X139954565Y-98979539D01*
X139951081Y-98978145D01*
X139917317Y-98955879D01*
X139650831Y-98689393D01*
X139622605Y-98633995D01*
X139622227Y-98605127D01*
X139636528Y-98496502D01*
X139636528Y-98496496D01*
X139618179Y-98357124D01*
X139564384Y-98227251D01*
X139564380Y-98227244D01*
X139478804Y-98115719D01*
X139478798Y-98115713D01*
X139367277Y-98030140D01*
X139367270Y-98030136D01*
X139237397Y-97976341D01*
X139098024Y-97957993D01*
X139098018Y-97957993D01*
X138958645Y-97976341D01*
X138828772Y-98030136D01*
X138828765Y-98030140D01*
X138717242Y-98115715D01*
X138717236Y-98115721D01*
X138631661Y-98227244D01*
X138631657Y-98227251D01*
X138577862Y-98357124D01*
X138559514Y-98496496D01*
X138559514Y-98496503D01*
X138577862Y-98635876D01*
X138631657Y-98765749D01*
X138631661Y-98765756D01*
X138717236Y-98877279D01*
X138717237Y-98877280D01*
X138717239Y-98877282D01*
X138742379Y-98896573D01*
X138777594Y-98947810D01*
X138775967Y-99009963D01*
X138742380Y-99056193D01*
X138696920Y-99091076D01*
X138696915Y-99091081D01*
X138611340Y-99202604D01*
X138611336Y-99202611D01*
X138557541Y-99332484D01*
X138554839Y-99353011D01*
X138528073Y-99409128D01*
X138473433Y-99438795D01*
X138411791Y-99430680D01*
X138366691Y-99387882D01*
X138354500Y-99339880D01*
X138354500Y-96756164D01*
X138373713Y-96697033D01*
X138383959Y-96685035D01*
X139758566Y-95310427D01*
X139813962Y-95282203D01*
X139842830Y-95281825D01*
X139951456Y-95296126D01*
X139951459Y-95296126D01*
X139951462Y-95296126D01*
X140090835Y-95277777D01*
X140220708Y-95223982D01*
X140220707Y-95223982D01*
X140220713Y-95223980D01*
X140332241Y-95138401D01*
X140417820Y-95026873D01*
X140471617Y-94896995D01*
X140476670Y-94858615D01*
X140489966Y-94757622D01*
X140489966Y-94757615D01*
X140471617Y-94618243D01*
X140417822Y-94488370D01*
X140417818Y-94488363D01*
X140332242Y-94376838D01*
X140332236Y-94376832D01*
X140220715Y-94291259D01*
X140220708Y-94291255D01*
X140090835Y-94237460D01*
X139951462Y-94219112D01*
X139951456Y-94219112D01*
X139812083Y-94237460D01*
X139682210Y-94291255D01*
X139682203Y-94291259D01*
X139570680Y-94376834D01*
X139570674Y-94376840D01*
X139485099Y-94488363D01*
X139485095Y-94488370D01*
X139431300Y-94618243D01*
X139412952Y-94757615D01*
X139412952Y-94757622D01*
X139427252Y-94866245D01*
X139415922Y-94927379D01*
X139398648Y-94950511D01*
X137944766Y-96404392D01*
X137929526Y-96416900D01*
X137916516Y-96425593D01*
X137916514Y-96425595D01*
X137903104Y-96445662D01*
X137903077Y-96445705D01*
X137860266Y-96509775D01*
X137840514Y-96609077D01*
X137843567Y-96624426D01*
X137845500Y-96644052D01*
X137845500Y-101291938D01*
X137826287Y-101351069D01*
X137775987Y-101387614D01*
X137713813Y-101387614D01*
X137689011Y-101375585D01*
X137678891Y-101368823D01*
X137659658Y-101355972D01*
X137659657Y-101355971D01*
X137659656Y-101355971D01*
X137626130Y-101349302D01*
X137615057Y-101347100D01*
X137615056Y-101347100D01*
X136466081Y-101347100D01*
X136406950Y-101327887D01*
X136370405Y-101277587D01*
X136365481Y-101246500D01*
X136365481Y-87980400D01*
X136384694Y-87921269D01*
X136434994Y-87884724D01*
X136466081Y-87879800D01*
X145268572Y-87879800D01*
X145289216Y-87881940D01*
X145301021Y-87884416D01*
X145331850Y-87880572D01*
X145344295Y-87879800D01*
X145345447Y-87879800D01*
X145345448Y-87879800D01*
X145365260Y-87876493D01*
X145369336Y-87875900D01*
X145418953Y-87869715D01*
X145426119Y-87867581D01*
X145433161Y-87865164D01*
X145433162Y-87865163D01*
X145433164Y-87865163D01*
X145477166Y-87841349D01*
X145480801Y-87839478D01*
X145525722Y-87817519D01*
X145525725Y-87817515D01*
X145531831Y-87813156D01*
X145537683Y-87808601D01*
X145537683Y-87808600D01*
X145537686Y-87808599D01*
X145571565Y-87771794D01*
X145574398Y-87768841D01*
X145624115Y-87719124D01*
X145646387Y-87702325D01*
X145762912Y-87637590D01*
X145767540Y-87635174D01*
X145810203Y-87614319D01*
X145833966Y-87590554D01*
X145842418Y-87583006D01*
X145868722Y-87562064D01*
X145873834Y-87554045D01*
X145887517Y-87537003D01*
X147079898Y-86344625D01*
X147135296Y-86316399D01*
X147151033Y-86315160D01*
X148438929Y-86315160D01*
X148498060Y-86334373D01*
X148510064Y-86344625D01*
X149514765Y-87349326D01*
X149523802Y-87355778D01*
X149536478Y-87366514D01*
X149563744Y-87393780D01*
X149576827Y-87409891D01*
X149583313Y-87419818D01*
X149583312Y-87419818D01*
X149607563Y-87438692D01*
X149616910Y-87446946D01*
X149617680Y-87447716D01*
X149633864Y-87459271D01*
X149637182Y-87461746D01*
X149676255Y-87492158D01*
X149682764Y-87495680D01*
X149689401Y-87498925D01*
X149689403Y-87498925D01*
X149689404Y-87498926D01*
X149723135Y-87508968D01*
X149736866Y-87513056D01*
X149740825Y-87514324D01*
X149787651Y-87530400D01*
X149787656Y-87530400D01*
X149794934Y-87531615D01*
X149802283Y-87532531D01*
X149802285Y-87532532D01*
X149802286Y-87532531D01*
X149802287Y-87532532D01*
X149839885Y-87530976D01*
X149851755Y-87530485D01*
X149855912Y-87530400D01*
X152125322Y-87530400D01*
X152145967Y-87532541D01*
X152157571Y-87534974D01*
X152188066Y-87531172D01*
X152200509Y-87530400D01*
X152201595Y-87530400D01*
X152201599Y-87530400D01*
X152221211Y-87527126D01*
X152225270Y-87526534D01*
X152274444Y-87520406D01*
X152274449Y-87520403D01*
X152281516Y-87518299D01*
X152288517Y-87515895D01*
X152288527Y-87515894D01*
X152332103Y-87492311D01*
X152335737Y-87490440D01*
X152380253Y-87468679D01*
X152380254Y-87468678D01*
X152386293Y-87464366D01*
X152392106Y-87459841D01*
X152392106Y-87459840D01*
X152392109Y-87459839D01*
X152425666Y-87423384D01*
X152428499Y-87420431D01*
X153268783Y-86580147D01*
X153284890Y-86567068D01*
X153294818Y-86560583D01*
X153313699Y-86536323D01*
X153321955Y-86526976D01*
X153322716Y-86526216D01*
X153334303Y-86509985D01*
X153336709Y-86506760D01*
X153367158Y-86467640D01*
X153367158Y-86467637D01*
X153367160Y-86467636D01*
X153370669Y-86461150D01*
X153373924Y-86454494D01*
X153373924Y-86454493D01*
X153373926Y-86454491D01*
X153388071Y-86406977D01*
X153389312Y-86403106D01*
X153405400Y-86356245D01*
X153405400Y-86356244D01*
X153406619Y-86348935D01*
X153407533Y-86341610D01*
X153405486Y-86292127D01*
X153405400Y-86287968D01*
X153405400Y-84944090D01*
X153407542Y-84923443D01*
X153409974Y-84911844D01*
X153406172Y-84881339D01*
X153405400Y-84868896D01*
X153405400Y-84867819D01*
X153405400Y-84867814D01*
X153402126Y-84848200D01*
X153401531Y-84844117D01*
X153395405Y-84794964D01*
X153393310Y-84787927D01*
X153390894Y-84780891D01*
X153390894Y-84780886D01*
X153367301Y-84737291D01*
X153365449Y-84733693D01*
X153343679Y-84689160D01*
X153343677Y-84689158D01*
X153339370Y-84683125D01*
X153334840Y-84677305D01*
X153331186Y-84673941D01*
X153298385Y-84643746D01*
X153295409Y-84640890D01*
X152691115Y-84036596D01*
X152662889Y-83981198D01*
X152662088Y-83971025D01*
X152643301Y-83828323D01*
X152589506Y-83698451D01*
X152589502Y-83698444D01*
X152503926Y-83586919D01*
X152503920Y-83586913D01*
X152392399Y-83501340D01*
X152392392Y-83501336D01*
X152262519Y-83447541D01*
X152123146Y-83429193D01*
X152123140Y-83429193D01*
X151983767Y-83447541D01*
X151853894Y-83501336D01*
X151853887Y-83501340D01*
X151742364Y-83586915D01*
X151742358Y-83586921D01*
X151652768Y-83703678D01*
X151650702Y-83702092D01*
X151612751Y-83736237D01*
X151550915Y-83742711D01*
X151500735Y-83715453D01*
X150640592Y-82855309D01*
X150627510Y-82839200D01*
X150620914Y-82829104D01*
X150609412Y-82820152D01*
X150596399Y-82810023D01*
X150587054Y-82801771D01*
X150586236Y-82800953D01*
X150569885Y-82789278D01*
X150566553Y-82786793D01*
X150527130Y-82756108D01*
X150520551Y-82752548D01*
X150513856Y-82749275D01*
X150465934Y-82735008D01*
X150461976Y-82733741D01*
X150414720Y-82717518D01*
X150407352Y-82716289D01*
X150399955Y-82715366D01*
X150351946Y-82717352D01*
X150350010Y-82717433D01*
X150345854Y-82717519D01*
X141880390Y-82717519D01*
X141854932Y-82714202D01*
X141854685Y-82714179D01*
X141811741Y-82717261D01*
X141804542Y-82717519D01*
X141791391Y-82717519D01*
X141787685Y-82718137D01*
X141783405Y-82718851D01*
X141774054Y-82719964D01*
X141736147Y-82722683D01*
X141736146Y-82722683D01*
X141731485Y-82724667D01*
X141708667Y-82731323D01*
X141703675Y-82732156D01*
X141670244Y-82750247D01*
X141661761Y-82754336D01*
X141626794Y-82769216D01*
X141626793Y-82769217D01*
X141626792Y-82769218D01*
X141623028Y-82772606D01*
X141603614Y-82786306D01*
X141599151Y-82788721D01*
X141599150Y-82788722D01*
X141573408Y-82816684D01*
X141566712Y-82823307D01*
X141538471Y-82848735D01*
X141538465Y-82848742D01*
X141536008Y-82853166D01*
X141522090Y-82872434D01*
X141518665Y-82876154D01*
X141518661Y-82876160D01*
X141503396Y-82910961D01*
X141499210Y-82919405D01*
X141439076Y-83027646D01*
X141422271Y-83049925D01*
X141328434Y-83143762D01*
X141273036Y-83171988D01*
X141211628Y-83162262D01*
X141174892Y-83130329D01*
X140945436Y-82802632D01*
X140912587Y-82771185D01*
X140912586Y-82771184D01*
X140855898Y-82749140D01*
X140855897Y-82749139D01*
X140855895Y-82749139D01*
X140855892Y-82749139D01*
X140795082Y-82750465D01*
X140753459Y-82768778D01*
X138497412Y-84348482D01*
X137789573Y-84844117D01*
X137779844Y-84850929D01*
X137748396Y-84883777D01*
X137726351Y-84940466D01*
X137726351Y-84940470D01*
X137727677Y-85001281D01*
X137745990Y-85042904D01*
X138539430Y-86176052D01*
X139106291Y-86985613D01*
X139122876Y-87009298D01*
X139141054Y-87068756D01*
X139120812Y-87127543D01*
X139069882Y-87163204D01*
X139040469Y-87167600D01*
X136028268Y-87167600D01*
X136019962Y-87167256D01*
X136016035Y-87166930D01*
X135979570Y-87163908D01*
X135940273Y-87173859D01*
X135932141Y-87175564D01*
X135892155Y-87182237D01*
X135889953Y-87183429D01*
X135866785Y-87192469D01*
X135864361Y-87193083D01*
X135830425Y-87215253D01*
X135823287Y-87219506D01*
X135787635Y-87238800D01*
X135785940Y-87240642D01*
X135766960Y-87256717D01*
X135764867Y-87258084D01*
X135739970Y-87290071D01*
X135734600Y-87296411D01*
X135707145Y-87326236D01*
X135707142Y-87326241D01*
X135706138Y-87328531D01*
X135693406Y-87349898D01*
X135691873Y-87351867D01*
X135691868Y-87351876D01*
X135678707Y-87390211D01*
X135675686Y-87397952D01*
X135659405Y-87435070D01*
X135659403Y-87435078D01*
X135659197Y-87437565D01*
X135654092Y-87461912D01*
X135653282Y-87464271D01*
X135653281Y-87464278D01*
X135653281Y-87504811D01*
X135652937Y-87513119D01*
X135649589Y-87553512D01*
X135650201Y-87555926D01*
X135653281Y-87580627D01*
X135653281Y-101558092D01*
X135651140Y-101578738D01*
X135648664Y-101590542D01*
X135445600Y-101590542D01*
X135445600Y-82595200D01*
X135464813Y-82536069D01*
X135515113Y-82499524D01*
X135546200Y-82494600D01*
X161456000Y-82494600D01*
X161515131Y-82513813D01*
G37*
G04 #@! TD.AperFunction*
M02*
