%TF.GenerationSoftware,KiCad,Pcbnew,7.0.10-7.0.10~ubuntu20.04.1*%
%TF.CreationDate,2024-06-08T11:47:14+02:00*%
%TF.ProjectId,MySMotherboard,4d79534d-6f74-4686-9572-626f6172642e,1.4*%
%TF.SameCoordinates,Original*%
%TF.FileFunction,Drillmap*%
%TF.FilePolarity,Positive*%
%FSLAX45Y45*%
G04 Gerber Fmt 4.5, Leading zero omitted, Abs format (unit mm)*
G04 Created by KiCad (PCBNEW 7.0.10-7.0.10~ubuntu20.04.1) date 2024-06-08 11:47:14*
%MOMM*%
%LPD*%
G01*
G04 APERTURE LIST*
%ADD10C,0.050000*%
%ADD11C,0.200000*%
G04 APERTURE END LIST*
D10*
X13542010Y-8246910D02*
X13542010Y-12753810D01*
X16158210Y-12753810D02*
X16158210Y-8246910D01*
X16158210Y-8246910D02*
X13542010Y-8246910D01*
X13542010Y-12754000D02*
X16158210Y-12754000D01*
D11*
X13800287Y-13067984D02*
X13800287Y-12867984D01*
X13800287Y-12867984D02*
X13847906Y-12867984D01*
X13847906Y-12867984D02*
X13876477Y-12877508D01*
X13876477Y-12877508D02*
X13895525Y-12896555D01*
X13895525Y-12896555D02*
X13905049Y-12915603D01*
X13905049Y-12915603D02*
X13914572Y-12953698D01*
X13914572Y-12953698D02*
X13914572Y-12982269D01*
X13914572Y-12982269D02*
X13905049Y-13020365D01*
X13905049Y-13020365D02*
X13895525Y-13039412D01*
X13895525Y-13039412D02*
X13876477Y-13058460D01*
X13876477Y-13058460D02*
X13847906Y-13067984D01*
X13847906Y-13067984D02*
X13800287Y-13067984D01*
X14000287Y-13067984D02*
X14000287Y-12934650D01*
X14000287Y-12972746D02*
X14009811Y-12953698D01*
X14009811Y-12953698D02*
X14019334Y-12944174D01*
X14019334Y-12944174D02*
X14038382Y-12934650D01*
X14038382Y-12934650D02*
X14057430Y-12934650D01*
X14124096Y-13067984D02*
X14124096Y-12934650D01*
X14124096Y-12867984D02*
X14114572Y-12877508D01*
X14114572Y-12877508D02*
X14124096Y-12887031D01*
X14124096Y-12887031D02*
X14133620Y-12877508D01*
X14133620Y-12877508D02*
X14124096Y-12867984D01*
X14124096Y-12867984D02*
X14124096Y-12887031D01*
X14247906Y-13067984D02*
X14228858Y-13058460D01*
X14228858Y-13058460D02*
X14219334Y-13039412D01*
X14219334Y-13039412D02*
X14219334Y-12867984D01*
X14352668Y-13067984D02*
X14333620Y-13058460D01*
X14333620Y-13058460D02*
X14324096Y-13039412D01*
X14324096Y-13039412D02*
X14324096Y-12867984D01*
X14581239Y-13067984D02*
X14581239Y-12867984D01*
X14581239Y-12867984D02*
X14647906Y-13010841D01*
X14647906Y-13010841D02*
X14714572Y-12867984D01*
X14714572Y-12867984D02*
X14714572Y-13067984D01*
X14895525Y-13067984D02*
X14895525Y-12963222D01*
X14895525Y-12963222D02*
X14886001Y-12944174D01*
X14886001Y-12944174D02*
X14866953Y-12934650D01*
X14866953Y-12934650D02*
X14828858Y-12934650D01*
X14828858Y-12934650D02*
X14809811Y-12944174D01*
X14895525Y-13058460D02*
X14876477Y-13067984D01*
X14876477Y-13067984D02*
X14828858Y-13067984D01*
X14828858Y-13067984D02*
X14809811Y-13058460D01*
X14809811Y-13058460D02*
X14800287Y-13039412D01*
X14800287Y-13039412D02*
X14800287Y-13020365D01*
X14800287Y-13020365D02*
X14809811Y-13001317D01*
X14809811Y-13001317D02*
X14828858Y-12991793D01*
X14828858Y-12991793D02*
X14876477Y-12991793D01*
X14876477Y-12991793D02*
X14895525Y-12982269D01*
X14990763Y-12934650D02*
X14990763Y-13134650D01*
X14990763Y-12944174D02*
X15009811Y-12934650D01*
X15009811Y-12934650D02*
X15047906Y-12934650D01*
X15047906Y-12934650D02*
X15066953Y-12944174D01*
X15066953Y-12944174D02*
X15076477Y-12953698D01*
X15076477Y-12953698D02*
X15086001Y-12972746D01*
X15086001Y-12972746D02*
X15086001Y-13029888D01*
X15086001Y-13029888D02*
X15076477Y-13048936D01*
X15076477Y-13048936D02*
X15066953Y-13058460D01*
X15066953Y-13058460D02*
X15047906Y-13067984D01*
X15047906Y-13067984D02*
X15009811Y-13067984D01*
X15009811Y-13067984D02*
X14990763Y-13058460D01*
X15171715Y-13048936D02*
X15181239Y-13058460D01*
X15181239Y-13058460D02*
X15171715Y-13067984D01*
X15171715Y-13067984D02*
X15162192Y-13058460D01*
X15162192Y-13058460D02*
X15171715Y-13048936D01*
X15171715Y-13048936D02*
X15171715Y-13067984D01*
X15171715Y-12944174D02*
X15181239Y-12953698D01*
X15181239Y-12953698D02*
X15171715Y-12963222D01*
X15171715Y-12963222D02*
X15162192Y-12953698D01*
X15162192Y-12953698D02*
X15171715Y-12944174D01*
X15171715Y-12944174D02*
X15171715Y-12963222D01*
M02*
